<svg width="31" height="31" viewBox="0 0 31 31" fill="none" xmlns="http://www.w3.org/2000/svg">
<path d="M15.5 0.774994C11.5946 0.774994 7.84923 2.3262 5.08836 5.08833C2.3262 7.84926 0.775024 11.5946 0.775024 15.5C0.775024 19.4054 2.32623 23.1508 5.08836 25.9117C7.84929 28.6738 11.5946 30.225 15.5 30.225C19.4054 30.225 23.1508 28.6738 25.9117 25.9117C28.6738 23.1507 30.225 19.4054 30.225 15.5C30.225 11.5946 28.6738 7.84919 25.9117 5.08833C23.1508 2.32617 19.4054 0.774994 15.5 0.774994ZM15.5 23.25L13.3022 21.0522L17.4413 16.913H7.75009V14.0867H17.4413L13.3022 9.94759L15.5 7.74975L23.25 15.4997L15.5 23.25Z" fill="white"/>
</svg>
