<svg xmlns="http://www.w3.org/2000/svg" width="24" height="24" fill="none" xmlns:v="https://vecta.io/nano"><path fill-rule="evenodd" d="M2.431 0C1.09 0 0 1.479 0 3.286v17.427c0 1.808 1.09 3.286 2.431 3.286L21.57 24c1.341 0 2.428-1.479 2.428-3.286v-1.758c.003-.039.003-.076 0-.115V3.287c0-1.807-1.087-3.286-2.428-3.286L2.431 0zm0 1.111H21.57c.893 0 1.6.958 1.6 2.177l-.001 14.434-5.906-6.487c-.158-.175-.388-.168-.54.017l-3.293 3.973-5.114-7.13c-.077-.106-.182-.167-.292-.169s-.216.054-.295.158l-6.902 8.89V3.288c0-1.217.71-2.177 1.603-2.177zM13.193 4.64c-.968 0-1.757 1.075-1.757 2.377s.788 2.374 1.757 2.374 1.759-1.07 1.759-2.374-.791-2.377-1.759-2.377zm0 1.112c.516 0 .931.557.931 1.266s-.414 1.262-.931 1.262-.928-.554-.928-1.262.412-1.266.928-1.266zM8.004 9.267l6.029 8.398c.158.218.419.223.583.012a.7.7 0 0 0 .012-.783l-.625-.872 3.009-3.629 6.156 6.766v1.554c0 1.217-.708 2.175-1.6 2.175H2.431c-.893 0-1.603-.958-1.603-2.175v-2.202l7.176-9.244z" fill="#fff"/></svg>