<svg xmlns="http://www.w3.org/2000/svg" width="36" height="27" fill="none" xmlns:v="https://vecta.io/nano"><path fill-rule="evenodd" d="M3.647 0C1.635 0 0 1.653 0 3.673v19.478c0 2.02 1.635 3.673 3.647 3.673l28.708.002c2.011 0 3.642-1.653 3.642-3.673v-1.964a.59.59 0 0 0 0-.129V3.674c0-2.02-1.631-3.673-3.642-3.673L3.647 0zm0 1.241h28.708c1.339 0 2.4 1.071 2.4 2.433l-.002 16.133-8.859-7.251a.62.62 0 0 0-.81.019l-4.939 4.441-7.671-7.969a.63.63 0 0 0-.438-.189c-.164-.003-.324.061-.442.177L1.242 18.971V3.675c0-1.361 1.066-2.433 2.405-2.433h0zm16.142 3.944c-1.452 0-2.635 1.201-2.635 2.657s1.182 2.653 2.635 2.653 2.638-1.196 2.638-2.653a2.66 2.66 0 0 0-2.638-2.657zm0 1.243c.774 0 1.396.622 1.396 1.415s-.621 1.41-1.396 1.41a1.39 1.39 0 0 1-1.392-1.41c0-.791.618-1.415 1.392-1.415zm-7.783 3.929l9.044 9.386c.237.244.628.25.875.014s.253-.628.019-.875l-.937-.974 4.514-4.056 9.234 7.563v1.736c0 1.361-1.061 2.432-2.401 2.432H3.646c-1.339 0-2.405-1.071-2.405-2.432V20.69l10.764-10.333z" fill="#fff"/></svg>