<svg width="122" height="122" viewBox="0 0 122 122" fill="none" xmlns="http://www.w3.org/2000/svg">
<path d="M118.768 115.664C120.374 115.654 121.694 116.945 121.72 118.55C121.746 120.184 120.434 121.526 118.804 121.534C117.193 121.541 115.875 120.254 115.852 118.648C115.83 117.013 117.135 115.677 118.768 115.664Z" fill="white"/>
<path d="M13.7216 3.37352C13.7382 5.00314 12.4157 6.33771 10.7831 6.33771C9.17764 6.33771 7.86424 5.03492 7.85213 3.43102C7.84154 1.81653 9.12165 0.4971 10.7286 0.466838C12.3643 0.436576 13.7065 1.73936 13.7231 3.37201L13.7216 3.37352Z" fill="white"/>
<path d="M18.0008 0.466843C19.6092 0.474408 20.9136 1.7772 20.9211 3.38412C20.9287 5.01979 19.6062 6.34376 17.972 6.3362C16.3636 6.32863 15.0592 5.02433 15.0517 3.41741C15.0456 1.78325 16.3666 0.460791 18.0008 0.466843Z" fill="white"/>
<path d="M28.1221 3.41722C28.1146 5.04835 26.7739 6.36022 25.1413 6.33601C23.5373 6.3118 22.2451 4.99236 22.2542 3.38393C22.2633 1.75128 23.5994 0.442442 25.2351 0.466652C26.8405 0.489348 28.1297 1.80727 28.1221 3.41722Z" fill="white"/>
<path d="M35.3216 3.39938C35.3231 5.0063 34.0264 6.32119 32.4209 6.33632C30.7852 6.35297 29.4552 5.03807 29.4537 3.40391C29.4507 1.79699 30.7489 0.483613 32.3544 0.468482C33.9901 0.451837 35.3201 1.76522 35.3216 3.39938Z" fill="white"/>
<path d="M42.5211 3.3826C42.5333 4.98952 41.2441 6.31046 39.6371 6.33619C38.0044 6.36342 36.6623 5.05307 36.6517 3.42042C36.6426 1.78778 37.9636 0.462295 39.5993 0.466834C41.2062 0.471373 42.5105 1.77113 42.5227 3.38108L42.5211 3.3826Z" fill="white"/>
<path d="M49.7207 3.3902C49.7267 5.00015 48.436 6.31504 46.8291 6.33622C45.1949 6.35741 43.8573 5.04403 43.8512 3.41289C43.8451 1.77874 45.1707 0.45779 46.8048 0.466869C48.4133 0.475947 49.7116 1.77874 49.7191 3.3902H49.7207Z" fill="white"/>
<path d="M56.9201 3.38563C56.9277 5.0213 55.6067 6.34528 53.9726 6.3362C52.3641 6.32712 51.0598 5.02433 51.0522 3.41741C51.0431 1.78476 52.3671 0.46079 54.0013 0.466843C55.6083 0.472895 56.9111 1.77568 56.9201 3.38412V3.38563Z" fill="white"/>
<path d="M64.1196 3.38563C64.1302 4.99407 62.8425 6.31199 61.2341 6.33771C59.6044 6.36495 58.2593 5.04703 58.2517 3.41892C58.2441 1.78325 59.5666 0.460792 61.2008 0.468357C62.8093 0.475923 64.1106 1.77568 64.1196 3.38563Z" fill="white"/>
<path d="M68.3897 6.33618C66.7585 6.33618 65.4361 5.00313 65.4512 3.37351C65.4663 1.76507 66.7767 0.468335 68.3852 0.466822C70.0194 0.466822 71.3358 1.79382 71.3206 3.42949C71.307 5.03793 69.9997 6.33466 68.3897 6.33618Z" fill="white"/>
<path d="M72.6522 3.34931C72.6825 1.71515 74.0337 0.424467 75.6694 0.466834C77.2764 0.509201 78.5459 1.84074 78.5202 3.4522C78.4929 5.08485 77.1432 6.37553 75.5045 6.33467C73.9036 6.29382 72.6235 4.95472 72.6522 3.34931Z" fill="white"/>
<path d="M82.8038 0.466855C84.435 0.474421 85.7454 1.81352 85.7212 3.4492C85.697 5.05612 84.3775 6.3468 82.7706 6.33621C81.1379 6.32562 79.829 4.98803 79.8517 3.35387C79.8744 1.74846 81.1924 0.45929 82.8038 0.466855Z" fill="white"/>
<path d="M92.9192 3.38867C92.9267 4.99862 91.6375 6.31503 90.0306 6.33621C88.3979 6.35891 87.0573 5.04553 87.0512 3.41439C87.0452 1.78023 88.3677 0.459289 90.0034 0.466855C91.6118 0.47442 92.9116 1.77721 92.9192 3.38716V3.38867Z" fill="white"/>
<path d="M121.72 75.4111C121.716 77.0181 120.414 78.3239 118.806 78.3329C117.169 78.342 115.846 77.0241 115.852 75.3884C115.857 73.7815 117.163 72.4727 118.767 72.4636C120.401 72.4545 121.723 73.7739 121.72 75.4096V75.4111Z" fill="white"/>
<path d="M6.52213 75.3748C6.53726 76.9832 5.24958 78.3041 3.64263 78.3329C2.00693 78.3616 0.664782 77.0573 0.652677 75.4247C0.640572 73.789 1.957 72.4635 3.5927 72.465C5.19662 72.465 6.507 73.7678 6.52062 75.3763L6.52213 75.3748Z" fill="white"/>
<path d="M114.521 3.38867C114.525 5.02586 113.203 6.3468 111.57 6.33621C109.963 6.32562 108.659 5.0198 108.654 3.41439C108.648 1.77872 109.971 0.459289 111.606 0.466855C113.213 0.47442 114.518 1.78175 114.522 3.38867H114.521Z" fill="white"/>
<path d="M121.72 3.4039C121.717 5.03806 120.384 6.35446 118.753 6.33631C117.146 6.31815 115.852 5.00628 115.852 3.39785C115.852 1.7652 117.182 0.451821 118.82 0.466952C120.423 0.482083 121.722 1.79698 121.72 3.4039Z" fill="white"/>
<path d="M0.652659 10.5714C0.670817 8.93575 2.00994 7.63902 3.64867 7.66777C5.25259 7.69651 6.53725 9.022 6.52211 10.6319C6.50547 12.2631 5.15878 13.5689 3.5261 13.5356C1.92067 13.5038 0.634501 12.1768 0.652659 10.5714Z" fill="white"/>
<path d="M3.6184 85.5325C1.97968 85.5476 0.652657 84.2342 0.652657 82.6001C0.652657 80.9901 1.94941 79.6798 3.55485 79.6646C5.18904 79.6495 6.5206 80.9674 6.52211 82.5986C6.52211 84.2055 5.22535 85.5174 3.6184 85.531V85.5325Z" fill="white"/>
<path d="M17.9645 13.5372C16.3333 13.5251 15.0244 12.1815 15.0532 10.5488C15.0819 8.94189 16.3999 7.65877 18.0114 7.66936C19.6183 7.67996 20.9211 8.99031 20.9226 10.5957C20.9226 12.2314 19.5971 13.5508 17.9645 13.5387V13.5372Z" fill="white"/>
<path d="M104.399 7.6678C106.008 7.67385 107.312 8.97512 107.321 10.5836C107.33 12.2192 106.011 13.5432 104.375 13.5372C102.744 13.5311 101.431 12.1935 101.453 10.5594C101.476 8.95091 102.789 7.66174 104.399 7.66931V7.6678Z" fill="white"/>
<path d="M114.521 10.5848C114.53 12.219 113.206 13.5444 111.573 13.5369C109.968 13.5293 108.662 12.2235 108.653 10.6181C108.644 9.01116 109.939 7.68719 111.54 7.66752C113.18 7.64785 114.513 8.95063 114.521 10.5848Z" fill="white"/>
<path d="M121.72 10.6121C121.716 12.222 120.416 13.5278 118.807 13.5369C117.173 13.546 115.848 12.2235 115.852 10.5924C115.857 8.96125 117.194 7.64787 118.829 7.66905C120.436 7.68872 121.725 9.0021 121.72 10.6136V10.6121Z" fill="white"/>
<path d="M121.72 82.5818C121.731 84.1918 120.443 85.5082 118.835 85.5324C117.197 85.5566 115.86 84.2508 115.852 82.6181C115.845 80.984 117.166 79.66 118.8 79.666C120.407 79.6721 121.71 80.9734 121.72 82.5833V82.5818Z" fill="white"/>
<path d="M118.813 71.1335C117.176 71.1472 115.852 69.8338 115.852 68.1966C115.852 66.5927 117.154 65.2808 118.759 65.2657C120.39 65.2506 121.722 66.5715 121.72 68.2042C121.719 69.8126 120.42 71.1214 118.813 71.1335Z" fill="white"/>
<path d="M6.52211 68.2027C6.5206 69.8354 5.18904 71.1503 3.55334 71.1336C1.94639 71.117 0.652657 69.8096 0.652657 68.1967C0.652657 66.567 1.98876 65.2461 3.61992 65.2643C5.22535 65.2824 6.52363 66.5973 6.5206 68.2027H6.52211Z" fill="white"/>
<path d="M121.72 89.8159C121.713 91.45 120.378 92.7559 118.739 92.7317C117.132 92.709 115.843 91.391 115.852 89.7826C115.861 88.15 117.199 86.8411 118.835 86.8653C120.442 86.888 121.729 88.2044 121.72 89.8159Z" fill="white"/>
<path d="M6.5221 96.979C6.5342 98.5875 5.24652 99.9054 3.63806 99.9326C2.00387 99.9599 0.661721 98.651 0.652642 97.0199C0.643563 95.4069 1.92973 94.0905 3.53517 94.0663C5.17087 94.0421 6.50848 95.3479 6.52058 96.9805L6.5221 96.979Z" fill="white"/>
<path d="M118.779 99.9328C117.169 99.9298 115.863 98.63 115.852 97.0231C115.842 95.3889 117.161 94.0619 118.794 94.0665C120.428 94.071 121.737 95.401 121.719 97.0397C121.701 98.6482 120.39 99.9373 118.777 99.9343L118.779 99.9328Z" fill="white"/>
<path d="M121.72 60.988C121.726 62.5995 120.439 63.9128 118.83 63.934C117.194 63.9567 115.858 62.6464 115.852 61.0122C115.846 59.3796 117.173 58.0541 118.804 58.0647C120.413 58.0753 121.713 59.378 121.72 60.9865V60.988Z" fill="white"/>
<path d="M6.52209 60.9748C6.53722 62.5833 5.25106 63.9057 3.64411 63.9345C2.00841 63.9647 0.666257 62.6589 0.652639 61.0278C0.639021 59.4178 1.92216 58.0969 3.52911 58.0666C5.1633 58.0364 6.50696 59.3422 6.52209 60.9748Z" fill="white"/>
<path d="M3.60481 101.265C5.20722 101.27 6.51608 102.58 6.52213 104.186C6.5297 105.82 5.20722 107.141 3.57 107.133C1.96305 107.126 0.65873 105.821 0.652678 104.214C0.646625 102.579 1.96457 101.261 3.60329 101.267L3.60481 101.265Z" fill="white"/>
<path d="M10.8119 107.132C9.17467 107.142 7.85067 105.829 7.8537 104.193C7.85673 102.585 9.15348 101.279 10.7635 101.266C12.3946 101.252 13.7262 102.574 13.7216 104.206C13.7186 105.815 12.4203 107.12 10.8119 107.132Z" fill="white"/>
<path d="M111.576 101.264C113.212 101.261 114.53 102.582 114.521 104.219C114.512 105.826 113.204 107.129 111.597 107.132C109.962 107.136 108.642 105.811 108.653 104.178C108.663 102.571 109.971 101.267 111.576 101.264Z" fill="white"/>
<path d="M3.51552 20.7349C1.88587 20.6986 0.601215 19.3352 0.654175 17.6981C0.705621 16.0942 2.04626 14.8307 3.65926 14.867C5.2874 14.9033 6.57508 16.2682 6.5206 17.9038C6.46764 19.5077 5.12701 20.7712 3.51552 20.7349Z" fill="white"/>
<path d="M10.7741 14.8673C12.4082 14.8597 13.7292 16.1837 13.7216 17.8194C13.7141 19.4248 12.4097 20.7276 10.7998 20.7351C9.19282 20.7427 7.87488 19.449 7.8537 17.8436C7.83251 16.2079 9.14138 14.8733 10.7741 14.8658V14.8673Z" fill="white"/>
<path d="M111.599 14.8673C113.206 14.8733 114.51 16.1761 114.519 17.7845C114.528 19.4187 113.207 20.7427 111.573 20.7366C109.942 20.7306 108.629 19.393 108.651 17.7588C108.672 16.1534 109.99 14.8627 111.599 14.8688V14.8673Z" fill="white"/>
<path d="M118.782 14.8673C120.416 14.8658 121.732 16.1912 121.72 17.8269C121.708 19.4338 120.399 20.7336 118.792 20.7351C117.158 20.7351 115.842 19.4111 115.852 17.7755C115.863 16.1716 117.175 14.8688 118.782 14.8673Z" fill="white"/>
<path d="M118.765 107.132C117.157 107.121 115.855 105.815 115.852 104.209C115.848 102.574 117.173 101.255 118.807 101.264C120.44 101.275 121.746 102.614 121.72 104.249C121.694 105.856 120.377 107.142 118.765 107.132Z" fill="white"/>
<path d="M118.783 50.8656C120.389 50.8626 121.702 52.1594 121.72 53.7663C121.738 55.4004 120.423 56.732 118.789 56.735C117.181 56.738 115.869 55.4428 115.852 53.8359C115.836 52.2017 117.151 50.8702 118.783 50.8671V50.8656Z" fill="white"/>
<path d="M6.5236 53.7829C6.53419 55.3914 5.24349 56.7108 3.63653 56.7335C1.99932 56.7577 0.661709 55.4504 0.654144 53.8177C0.645065 52.1821 1.96603 50.8581 3.60022 50.8657C5.20717 50.8717 6.51301 52.176 6.52209 53.7829H6.5236Z" fill="white"/>
<path d="M6.52213 111.385C6.5297 113.02 5.20722 114.339 3.57 114.332C1.96305 114.324 0.658731 113.02 0.652678 111.413C0.646626 109.801 1.93582 108.485 3.54126 108.465C5.17696 108.444 6.51457 109.754 6.52062 111.385H6.52213Z" fill="white"/>
<path d="M10.8104 114.333C9.17618 114.345 7.85067 113.026 7.8537 111.391C7.85673 109.786 9.16105 108.474 10.765 108.465C12.3976 108.454 13.7262 109.777 13.7216 111.409C13.7171 113.018 12.4173 114.324 10.8089 114.334L10.8104 114.333Z" fill="white"/>
<path d="M118.789 43.6647C120.422 43.6647 121.735 44.9962 121.72 46.6334C121.705 48.2403 120.398 49.5325 118.785 49.5325C117.152 49.5325 115.837 48.2025 115.854 46.5653C115.869 44.9629 117.185 43.6632 118.791 43.6632L118.789 43.6647Z" fill="white"/>
<path d="M6.52212 46.5987C6.52514 48.2314 5.19661 49.5478 3.5594 49.5342C1.95245 49.522 0.655688 48.2147 0.652662 46.6033C0.649636 44.9979 1.94942 43.683 3.55334 43.6663C5.18602 43.6497 6.51909 44.9661 6.5206 46.6002L6.52212 46.5987Z" fill="white"/>
<path d="M20.9211 111.414C20.9166 113.021 19.6123 114.324 18.0023 114.331C16.3666 114.339 15.0456 113.018 15.0517 111.384C15.0577 109.778 16.3651 108.469 17.9705 108.465C19.6062 108.459 20.9257 109.778 20.9211 111.414Z" fill="white"/>
<path d="M107.32 111.414C107.312 113.022 106.011 114.325 104.402 114.333C102.767 114.34 101.446 113.018 101.453 111.384C101.461 109.777 102.767 108.473 104.372 108.465C106.008 108.457 107.327 109.778 107.32 111.416V111.414Z" fill="white"/>
<path d="M108.653 111.421C108.641 109.813 109.93 108.491 111.534 108.465C113.171 108.439 114.509 109.742 114.521 111.376C114.533 112.987 113.247 114.307 111.641 114.333C110.002 114.358 108.666 113.056 108.654 111.421H108.653Z" fill="white"/>
<path d="M118.8 108.465C120.436 108.473 121.741 109.806 121.72 111.444C121.699 113.051 120.386 114.339 118.773 114.333C117.138 114.327 115.828 112.989 115.852 111.355C115.875 109.75 117.194 108.457 118.8 108.465Z" fill="white"/>
<path d="M118.801 36.4667C120.408 36.4727 121.713 37.777 121.72 39.3855C121.728 41.0227 120.408 42.3421 118.773 42.336C117.167 42.33 115.86 41.0242 115.854 39.4188C115.848 37.7831 117.169 36.4606 118.803 36.4682L118.801 36.4667Z" fill="white"/>
<path d="M3.60176 42.3346C1.9933 42.3437 0.673844 41.0499 0.65266 39.446C0.631476 37.8073 1.93883 36.4728 3.5715 36.4652C5.18148 36.4577 6.4979 37.7483 6.5206 39.3537C6.5433 40.9894 5.23444 42.3255 3.60176 42.3346Z" fill="white"/>
<path d="M3.60328 121.534C1.99482 121.541 0.676874 120.252 0.654177 118.645C0.629967 117.01 1.94034 115.672 3.57302 115.664C5.20418 115.655 6.53271 116.984 6.52363 118.615C6.51455 120.222 5.21174 121.526 3.60328 121.534Z" fill="white"/>
<path d="M118.86 22.0665C120.464 22.1013 121.741 23.4313 121.72 25.0428C121.699 26.6739 120.346 27.9752 118.714 27.9343C117.105 27.895 115.831 26.5695 115.852 24.958C115.873 23.3269 117.222 22.0302 118.859 22.0665H118.86Z" fill="white"/>
<path d="M13.7216 118.603C13.7216 120.208 12.4203 121.519 10.8134 121.532C9.17921 121.546 7.85067 120.226 7.8537 118.594C7.85521 116.985 9.155 115.677 10.7619 115.664C12.3961 115.652 13.7232 116.969 13.7232 118.603H13.7216Z" fill="white"/>
<path d="M18.0114 115.664C19.6425 115.677 20.9484 117.019 20.9211 118.654C20.8939 120.26 19.5714 121.546 17.9615 121.532C16.3303 121.519 15.0229 120.177 15.0517 118.542C15.0804 116.937 16.4014 115.652 18.0114 115.664Z" fill="white"/>
<path d="M28.1221 118.582C28.1327 120.216 26.8117 121.538 25.1745 121.534C23.5691 121.529 22.2602 120.222 22.2542 118.618C22.2481 116.981 23.5661 115.661 25.2018 115.666C26.8087 115.67 28.113 116.973 28.1221 118.582Z" fill="white"/>
<path d="M35.3216 118.6C35.3216 120.207 34.0233 121.519 32.4179 121.532C30.7822 121.546 29.4522 120.231 29.4537 118.598C29.4537 116.99 30.7535 115.68 32.3589 115.666C33.9946 115.652 35.3216 116.966 35.3231 118.601L35.3216 118.6Z" fill="white"/>
<path d="M39.5993 121.532C37.9923 121.538 36.6729 120.245 36.6532 118.641C36.632 117.007 37.9439 115.67 39.575 115.663C41.2077 115.655 42.5317 116.982 42.5211 118.617C42.512 120.223 41.2062 121.525 39.5993 121.532Z" fill="white"/>
<path d="M49.7206 118.614C49.7131 120.222 48.4103 121.526 46.8033 121.533C45.1691 121.54 43.8436 120.213 43.8527 118.583C43.8618 116.951 45.1994 115.642 46.8336 115.665C48.4405 115.687 49.7282 117.002 49.7206 118.614Z" fill="white"/>
<path d="M111.614 115.664C113.221 115.677 114.519 116.985 114.521 118.594C114.522 120.23 113.195 121.546 111.559 121.532C109.95 121.517 108.653 120.211 108.653 118.603C108.653 116.969 109.978 115.652 111.614 115.664Z" fill="white"/>
<path d="M107.32 118.591C107.327 120.198 106.029 121.516 104.425 121.532C102.786 121.549 101.456 120.24 101.453 118.606C101.45 116.996 102.742 115.684 104.348 115.665C105.984 115.645 107.312 116.954 107.32 118.591Z" fill="white"/>
<path d="M100.12 118.601C100.12 120.211 98.8249 121.519 97.215 121.532C95.5793 121.546 94.2522 120.23 94.2522 118.595C94.2522 116.964 95.5868 115.648 97.221 115.665C98.8295 115.681 100.12 116.989 100.12 118.601Z" fill="white"/>
<path d="M89.9867 115.664C91.6209 115.664 92.9343 116.991 92.9192 118.629C92.9041 120.237 91.5967 121.532 89.9867 121.531C88.3767 121.531 87.0664 120.234 87.0527 118.629C87.0391 116.993 88.354 115.663 89.9867 115.663V115.664Z" fill="white"/>
<path d="M85.7197 118.586C85.7242 120.225 84.4017 121.543 82.7675 121.532C81.1576 121.522 79.8563 120.219 79.8517 118.612C79.8457 116.979 81.1697 115.657 82.8039 115.664C84.4108 115.672 85.7151 116.979 85.7197 118.586Z" fill="white"/>
<path d="M75.6392 115.664C77.2703 115.69 78.561 117.043 78.5202 118.681C78.4793 120.287 77.1493 121.556 75.5348 121.532C73.9036 121.506 72.6114 120.152 72.6537 118.515C72.6961 116.911 74.0292 115.639 75.6392 115.664Z" fill="white"/>
<path d="M68.3171 121.532C66.7117 121.496 65.4285 120.166 65.4512 118.561C65.4739 116.93 66.8236 115.63 68.4563 115.665C70.0859 115.699 71.3706 117.06 71.3191 118.7C71.2692 120.302 69.9271 121.57 68.3171 121.532Z" fill="white"/>
<path d="M64.1196 118.574C64.1332 120.183 62.8501 121.503 61.2416 121.532C59.609 121.562 58.2623 120.251 58.2517 118.623C58.2411 116.988 59.5606 115.661 61.1932 115.663C62.8017 115.666 64.106 116.961 64.1196 118.573V118.574Z" fill="white"/>
<path d="M56.9201 118.673C56.8838 120.278 55.5568 121.555 53.9453 121.534C52.3157 121.513 51.0129 120.158 51.0537 118.527C51.0946 116.898 52.4564 115.615 54.0921 115.667C55.696 115.719 56.9565 117.06 56.9201 118.674V118.673Z" fill="white"/>
<path d="M121.72 32.1952C121.723 33.8293 120.395 35.1503 118.762 35.1367C117.155 35.123 115.854 33.8142 115.852 32.2088C115.849 30.5761 117.179 29.2552 118.812 29.2673C120.419 29.2794 121.719 30.5882 121.72 32.1952Z" fill="white"/>
<path d="M3.58509 35.1351C1.97662 35.1336 0.661706 33.8308 0.652627 32.2299C0.645061 30.5882 1.95695 29.2642 3.58962 29.2657C5.2223 29.2672 6.54024 30.6018 6.52208 32.2344C6.50392 33.8414 5.19204 35.1366 3.58509 35.1366V35.1351Z" fill="white"/>
<path d="M107.32 3.38408C107.33 4.99251 106.041 6.31346 104.436 6.33767C102.801 6.36188 101.459 5.05001 101.452 3.42191C101.444 1.78472 102.756 0.469828 104.398 0.469828C106 0.469828 107.308 1.77413 107.318 3.38559L107.32 3.38408Z" fill="white"/>
<path d="M10.8013 13.5357C9.19283 13.5433 7.87488 12.2511 7.8537 10.6457C7.83252 9.00699 9.1323 7.68 10.7741 7.66638C12.378 7.65427 13.6989 8.9495 13.7232 10.5549C13.7459 12.1876 12.434 13.5267 10.8013 13.5342V13.5357Z" fill="white"/>
<path d="M6.52209 89.8313C6.50545 91.4655 5.16632 92.7622 3.52457 92.7335C1.92065 92.7047 0.629942 91.3732 0.652639 89.7708C0.676849 88.1291 2.01143 86.8353 3.64865 86.8686C5.25257 86.9004 6.53722 88.2259 6.52209 89.8328V89.8313Z" fill="white"/>
<path d="M3.58337 6.33618C1.9507 6.33618 0.640322 5.00918 0.652427 3.36745C0.666045 1.76507 1.97945 0.466822 3.59094 0.466822C5.1994 0.466822 6.50978 1.76658 6.5234 3.37199C6.53701 5.00464 5.21756 6.33618 3.58488 6.33466L3.58337 6.33618Z" fill="white"/>
<path d="M97.1832 0.466828C98.7917 0.463801 100.107 1.76356 100.119 3.36746C100.131 5.0107 98.8249 6.33467 97.1892 6.33618C95.5581 6.3377 94.2386 5.00767 94.2523 3.37351C94.2644 1.76659 95.5717 0.469854 97.1847 0.468341L97.1832 0.466828Z" fill="white"/>
<path d="M6.52211 24.9775C6.53421 26.5874 5.24653 27.9099 3.64261 27.9356C2.00237 27.9598 0.670811 26.6646 0.652653 25.0244C0.634496 23.3978 1.96152 22.0632 3.59419 22.0662C5.20265 22.0693 6.51 23.369 6.52211 24.976V24.9775Z" fill="white"/>
<path d="M25.1519 114.307C23.5328 114.293 22.2663 112.995 22.2799 111.365C22.2951 109.746 23.5903 108.48 25.2215 108.494C26.8405 108.507 28.1055 109.804 28.0919 111.435C28.0783 113.054 26.7815 114.319 25.1503 114.305L25.1519 114.307Z" fill="white"/>
<path d="M10.7679 29.2948C12.3946 29.2872 13.6838 30.5613 13.6913 32.1833C13.6989 33.8114 12.4248 35.1006 10.8027 35.1066C9.17461 35.1127 7.88693 33.8417 7.87785 32.2181C7.86877 30.593 9.14586 29.3023 10.7664 29.2933L10.7679 29.2948Z" fill="white"/>
<path d="M114.495 25.0339C114.483 26.6529 113.188 27.9194 111.555 27.9058C109.936 27.8937 108.668 26.5969 108.682 24.9658C108.695 23.3483 109.993 22.0788 111.622 22.0924C113.239 22.106 114.507 23.4028 114.495 25.0339Z" fill="white"/>
<path d="M10.7801 27.9072C9.15495 27.9041 7.87786 26.621 7.87937 24.9944C7.8824 23.3724 9.16856 22.0908 10.7922 22.0938C12.4158 22.0968 13.6944 23.3815 13.6913 25.0065C13.6898 26.6301 12.4052 27.9102 10.7801 27.9057V27.9072Z" fill="white"/>
<path d="M13.6929 75.4129C13.6883 77.0365 12.4021 78.312 10.7755 78.3075C9.15344 78.3029 7.87484 77.0153 7.87938 75.3902C7.88543 73.7682 9.1716 72.4911 10.7982 72.4956C12.4188 72.4986 13.6974 73.7878 13.6929 75.4144V75.4129Z" fill="white"/>
<path d="M100.094 111.425C100.084 113.047 98.7947 114.316 97.165 114.307C95.5445 114.298 94.2704 113.005 94.281 111.378C94.2916 109.756 95.5853 108.483 97.2104 108.494C98.831 108.503 100.104 109.797 100.093 111.425H100.094Z" fill="white"/>
<path d="M89.967 114.307C88.345 114.3 87.0724 113.009 87.08 111.381C87.0875 109.76 88.3783 108.488 90.0079 108.494C91.627 108.5 92.9025 109.794 92.8934 111.422C92.8844 113.045 91.5952 114.315 89.967 114.307Z" fill="white"/>
<path d="M85.6939 111.438C85.6788 113.059 84.3805 114.324 82.7509 114.307C81.1303 114.292 79.8669 112.997 79.882 111.364C79.8956 109.746 81.1954 108.479 82.825 108.495C84.4441 108.51 85.7106 109.809 85.6939 111.438Z" fill="white"/>
<path d="M75.562 114.307C73.9399 114.297 72.6704 113.006 72.681 111.377C72.6901 109.757 73.9853 108.485 75.6134 108.496C77.234 108.506 78.5035 109.797 78.4944 111.428C78.4854 113.047 77.1916 114.319 75.562 114.309V114.307Z" fill="white"/>
<path d="M114.493 75.4144C114.489 77.038 113.203 78.3105 111.575 78.306C109.953 78.3014 108.675 77.0123 108.682 75.3857C108.688 73.7636 109.977 72.4866 111.602 72.4926C113.225 72.4987 114.498 73.7848 114.493 75.4129V75.4144Z" fill="white"/>
<path d="M114.493 32.206C114.492 33.8311 113.21 35.1081 111.582 35.1066C109.959 35.1066 108.68 33.822 108.682 32.1954C108.682 30.5734 109.969 29.2918 111.593 29.2933C113.216 29.2948 114.495 30.5794 114.493 32.206Z" fill="white"/>
<path d="M10.7665 42.3056C9.14439 42.2981 7.87184 41.0074 7.88092 39.3793C7.88849 37.7588 9.18071 36.4847 10.8073 36.4938C12.4294 36.5029 13.7004 37.792 13.6929 39.4201C13.6853 41.0422 12.3961 42.3132 10.7665 42.3056Z" fill="white"/>
<path d="M111.564 42.3072C109.942 42.2966 108.671 41.0044 108.681 39.3763C108.692 37.7557 109.984 36.4847 111.614 36.4938C113.233 36.5029 114.506 37.7966 114.495 39.4262C114.484 41.0483 113.194 42.3177 111.564 42.3072Z" fill="white"/>
<path d="M28.0934 10.6274C28.0813 12.2494 26.789 13.5174 25.1594 13.5068C23.5388 13.4962 22.2678 12.201 22.2799 10.5729C22.2905 8.95385 23.5873 7.68133 25.2139 7.69343C26.8344 7.70554 28.104 9.00076 28.0919 10.6289L28.0934 10.6274Z" fill="white"/>
<path d="M13.6928 82.6058C13.6928 84.2294 12.4052 85.5095 10.7816 85.5065C9.15645 85.5034 7.87785 84.2203 7.88088 82.5937C7.88239 80.9717 9.16856 79.6901 10.7937 79.6931C12.4173 79.6961 13.6943 80.9792 13.6943 82.6058H13.6928Z" fill="white"/>
<path d="M71.2934 111.426C71.2843 113.045 69.9921 114.316 68.3625 114.307C66.7419 114.298 65.4709 113.005 65.4815 111.377C65.4921 109.757 66.7858 108.485 68.4139 108.496C70.0345 108.506 71.3025 109.797 71.2949 111.428L71.2934 111.426Z" fill="white"/>
<path d="M61.1493 114.307C59.5318 114.293 58.2638 112.992 58.2804 111.364C58.2971 109.745 59.5954 108.48 61.225 108.495C62.8441 108.509 64.1075 109.807 64.0939 111.44C64.0803 113.059 62.7835 114.322 61.1509 114.308L61.1493 114.307Z" fill="white"/>
<path d="M56.8929 111.426C56.8838 113.047 55.5916 114.316 53.9619 114.307C52.3414 114.297 51.0688 113.003 51.0794 111.376C51.09 109.756 52.3822 108.488 54.0119 108.496C55.6309 108.505 56.902 109.797 56.8929 111.426Z" fill="white"/>
<path d="M49.6934 111.39C49.6964 113.018 48.4224 114.303 46.7988 114.307C45.1722 114.312 43.8845 113.035 43.8799 111.413C43.8754 109.788 45.154 108.499 46.7746 108.494C48.4012 108.489 49.6889 109.767 49.6919 111.389L49.6934 111.39Z" fill="white"/>
<path d="M39.5932 108.495C41.2168 108.497 42.4954 109.782 42.4924 111.408C42.4894 113.033 41.2077 114.31 39.5811 114.307C37.9575 114.306 36.6774 113.02 36.6804 111.396C36.6835 109.773 37.9681 108.494 39.5932 108.495Z" fill="white"/>
<path d="M35.2929 111.429C35.2823 113.052 33.9886 114.32 32.3589 114.307C30.7383 114.295 29.4673 113 29.4794 111.373C29.493 109.753 30.7868 108.483 32.4149 108.494C34.0355 108.505 35.3035 109.798 35.2929 111.429Z" fill="white"/>
<path d="M35.2929 10.6106C35.2914 12.2327 34.0022 13.5128 32.3771 13.5067C30.752 13.5007 29.4764 12.216 29.4809 10.591C29.4855 8.9689 30.7716 7.69032 32.3967 7.69486C34.0203 7.6994 35.2944 8.98252 35.2929 10.6121V10.6106Z" fill="white"/>
<path d="M114.495 82.6378C114.48 84.2568 113.182 85.5217 111.552 85.5066C109.933 85.4915 108.669 84.1947 108.683 82.5621C108.697 80.9461 109.998 79.6766 111.628 79.6932C113.245 79.7084 114.512 81.0081 114.496 82.6378H114.495Z" fill="white"/>
<path d="M111.599 65.2946C113.221 65.2977 114.496 66.5853 114.493 68.2119C114.49 69.834 113.203 71.111 111.576 71.1065C109.953 71.102 108.675 69.8158 108.68 68.1892C108.686 66.5657 109.972 65.2901 111.597 65.2931L111.599 65.2946Z" fill="white"/>
<path d="M13.6928 68.1907C13.6974 69.8173 12.4203 71.1035 10.7982 71.108C9.17159 71.1125 7.88542 69.8355 7.88088 68.2119C7.87635 66.5853 9.15343 65.2992 10.777 65.2946C12.4021 65.2901 13.6898 66.5672 13.6944 68.1907H13.6928Z" fill="white"/>
<path d="M114.495 53.8176C114.489 55.4381 113.197 56.7152 111.572 56.7061C109.948 56.697 108.675 55.4093 108.683 53.7827C108.691 52.1607 109.98 50.8867 111.606 50.8942C113.228 50.9018 114.501 52.1894 114.495 53.8176Z" fill="white"/>
<path d="M39.569 13.5067C37.9469 13.4992 36.6729 12.21 36.6804 10.5834C36.6865 8.96287 37.9787 7.68732 39.6053 7.69337C41.2259 7.69942 42.5015 8.99162 42.4939 10.6182C42.4863 12.2403 41.1971 13.5143 39.5705 13.5067H39.569Z" fill="white"/>
<path d="M46.7912 13.5067C45.1661 13.5082 43.8815 12.2266 43.8815 10.6046C43.8815 8.97948 45.1601 7.69636 46.7852 7.69485C48.4103 7.69334 49.6919 8.97192 49.6934 10.597C49.6949 12.2221 48.4163 13.5052 46.7912 13.5067Z" fill="white"/>
<path d="M10.7816 43.6947C12.4097 43.6947 13.6913 44.9718 13.6928 46.5953C13.6943 48.2219 12.4157 49.5051 10.7922 49.5066C9.16553 49.5081 7.88239 48.2295 7.88088 46.6059C7.87785 44.9824 9.16099 43.6947 10.7831 43.6947H10.7816Z" fill="white"/>
<path d="M111.553 49.5067C109.934 49.4931 108.668 48.1978 108.682 46.5652C108.695 44.9477 109.993 43.6812 111.623 43.6948C113.242 43.7084 114.507 45.0052 114.495 46.6363C114.481 48.2538 113.185 49.5203 111.553 49.5067Z" fill="white"/>
<path d="M13.6929 89.8571C13.6702 91.4731 12.3674 92.7274 10.7302 92.7062C9.11717 92.6851 7.85672 91.3762 7.87942 89.7436C7.90212 88.1291 9.21098 86.8702 10.8437 86.8944C12.4597 86.9171 13.7156 88.2229 13.6929 89.8571Z" fill="white"/>
<path d="M114.495 89.8235C114.487 91.444 113.195 92.7166 111.567 92.7075C109.945 92.6984 108.672 91.4062 108.683 89.7796C108.694 88.1591 109.986 86.885 111.612 86.8956C113.235 86.9047 114.504 88.1954 114.496 89.825L114.495 89.8235Z" fill="white"/>
<path d="M56.8929 10.6334C56.8808 12.2524 55.5871 13.5189 53.9544 13.5068C52.3368 13.4947 51.0673 12.1965 51.0809 10.5684C51.0946 8.94933 52.3913 7.68134 54.021 7.69496C55.64 7.70706 56.9065 9.0038 56.8929 10.6349V10.6334Z" fill="white"/>
<path d="M13.6929 53.7888C13.6989 55.4139 12.4203 56.703 10.7982 56.7061C9.1716 56.7106 7.88392 55.4335 7.87938 53.8115C7.87484 52.1849 9.15344 50.8972 10.7755 50.8927C12.4006 50.8882 13.6883 52.1652 13.6929 53.7888Z" fill="white"/>
<path d="M64.0939 10.5909C64.0969 12.2191 62.8214 13.5037 61.1978 13.5067C59.5711 13.5097 58.285 12.2342 58.2819 10.6106C58.2774 8.98554 59.5575 7.69788 61.1781 7.69486C62.8062 7.69183 64.0909 8.96889 64.0939 10.5909Z" fill="white"/>
<path d="M13.6929 97.0351C13.6792 98.6541 12.3825 99.9221 10.7528 99.907C9.13227 99.8934 7.86729 98.5981 7.87939 96.967C7.89301 95.3495 9.18977 94.0815 10.8194 94.0936C12.437 94.1057 13.705 95.404 13.6914 97.0336L13.6929 97.0351Z" fill="white"/>
<path d="M114.495 97.0336C114.483 98.6511 113.186 99.9191 111.556 99.9055C109.937 99.8919 108.669 98.5951 108.683 96.9655C108.697 95.3465 109.995 94.0785 111.623 94.0921C113.242 94.1057 114.507 95.401 114.495 97.0321V97.0336Z" fill="white"/>
<path d="M111.585 63.907C109.96 63.904 108.68 62.6209 108.682 60.9973C108.682 59.3737 109.968 58.0921 111.591 58.0937C113.216 58.0952 114.495 59.3783 114.493 61.0034C114.493 62.6284 113.207 63.9101 111.584 63.9055L111.585 63.907Z" fill="white"/>
<path d="M13.6928 60.9747C13.7034 62.6043 12.4339 63.898 10.8133 63.9071C9.1837 63.9177 7.89148 62.6482 7.87937 61.0276C7.86878 59.401 9.13982 58.1058 10.7604 58.0937C12.3885 58.0831 13.6822 59.3526 13.6928 60.9747Z" fill="white"/>
<path d="M68.3988 7.69337C70.0224 7.69791 71.2964 8.98254 71.2934 10.6106C71.2904 12.2327 70.0027 13.5098 68.3761 13.5052C66.754 13.5007 65.4754 12.213 65.4799 10.5879C65.4845 8.96589 66.7722 7.68732 68.3988 7.69186V7.69337Z" fill="white"/>
<path d="M78.4944 10.591C78.499 12.2176 77.2219 13.5022 75.5983 13.5067C73.9717 13.5098 72.6855 12.2342 72.6825 10.6106C72.6795 8.98556 73.9581 7.6979 75.5801 7.69336C77.2037 7.68882 78.4914 8.96891 78.496 10.591H78.4944Z" fill="white"/>
<path d="M97.1847 7.69336C98.8098 7.69336 100.093 8.97194 100.094 10.5955C100.096 12.2206 98.8159 13.5052 97.1923 13.5052C95.5672 13.5052 94.284 12.2281 94.281 10.6031C94.278 8.9795 95.5611 7.69336 97.1832 7.69184L97.1847 7.69336Z" fill="white"/>
<path d="M82.7615 13.5052C81.1409 13.4962 79.8699 12.2024 79.8805 10.5743C79.8926 8.9538 81.1833 7.68582 82.8145 7.69338C84.4335 7.70246 85.7061 8.99768 85.694 10.6258C85.6834 12.2478 84.3927 13.5143 82.7615 13.5052Z" fill="white"/>
<path d="M92.8934 10.6046C92.8904 12.2312 91.6103 13.5082 89.9837 13.5067C88.3601 13.5067 87.08 12.2236 87.0815 10.597C87.0815 8.97495 88.3676 7.69183 89.9912 7.69335C91.6148 7.69335 92.8965 8.97949 92.8934 10.6031V10.6046Z" fill="white"/>
<path d="M107.256 17.8164C107.25 19.4127 105.965 20.6761 104.358 20.664C102.792 20.6519 101.53 19.3824 101.527 17.8118C101.523 16.2094 102.794 14.9339 104.395 14.9354C105.999 14.9354 107.262 16.2094 107.256 17.8179V17.8164Z" fill="white"/>
<path d="M15.1197 17.7661C15.1303 16.1713 16.421 14.9169 18.031 14.9336C19.6213 14.9502 20.8712 16.2485 20.8485 17.8614C20.8258 19.4245 19.5457 20.6698 17.9675 20.6637C16.3681 20.6577 15.1091 19.3761 15.1197 17.7661Z" fill="white"/>
<path d="M20.85 104.19C20.8545 105.794 19.585 107.068 17.9826 107.068C16.3802 107.068 15.1137 105.793 15.1213 104.187C15.1273 102.614 16.3863 101.352 17.9569 101.34C19.5608 101.329 20.847 102.596 20.8515 104.192L20.85 104.19Z" fill="white"/>
<path d="M104.417 101.338C106.014 101.347 107.27 102.635 107.256 104.245C107.241 105.838 105.947 107.088 104.334 107.067C102.77 107.046 101.523 105.77 101.526 104.192C101.529 102.597 102.814 101.328 104.417 101.338Z" fill="white"/>
<path d="M104.41 99.7179C102.903 99.7195 101.695 98.5105 101.7 97.0034C101.704 95.4994 102.926 94.2934 104.43 94.3086C105.911 94.3222 107.097 95.5115 107.108 96.9928C107.118 98.4999 105.914 99.7164 104.41 99.7179Z" fill="white"/>
<path d="M97.1953 15.0852C98.6978 15.0807 99.9114 16.2942 99.9053 17.7997C99.9008 19.2795 98.7145 20.4779 97.2376 20.4946C95.729 20.5112 94.5064 19.3159 94.4959 17.8118C94.4853 16.3063 95.6882 15.0897 97.1953 15.0852Z" fill="white"/>
<path d="M97.2104 106.92C95.7033 106.923 94.4913 105.714 94.4959 104.209C94.4989 102.705 95.7155 101.502 97.2225 101.511C98.7009 101.52 99.8932 102.712 99.9053 104.191C99.9174 105.696 98.7115 106.917 97.2104 106.92Z" fill="white"/>
<path d="M25.1473 106.92C23.6463 106.907 22.4494 105.677 22.4721 104.169C22.4948 102.67 23.731 101.481 25.2381 101.509C26.7119 101.538 27.8921 102.752 27.883 104.228C27.874 105.736 26.6559 106.934 25.1473 106.919V106.92Z" fill="white"/>
<path d="M104.422 22.2857C105.922 22.2933 107.123 23.5174 107.109 25.0244C107.096 26.5239 105.863 27.7193 104.355 27.6951C102.88 27.6724 101.695 26.4649 101.698 24.9881C101.701 23.4841 102.916 22.2781 104.422 22.2842V22.2857Z" fill="white"/>
<path d="M17.9705 99.7179C16.4679 99.7179 15.2589 98.4984 15.2695 96.9943C15.2801 95.516 16.471 94.3222 17.9478 94.3085C19.4534 94.2949 20.6699 95.4948 20.6805 97.0019C20.6896 98.5014 19.4776 99.7179 17.9705 99.7179Z" fill="white"/>
<path d="M15.2696 24.9806C15.2756 23.4766 16.4937 22.2751 18.0008 22.2857C19.4988 22.2963 20.7002 23.5295 20.679 25.0335C20.6578 26.5119 19.4564 27.6981 17.9796 27.6966C16.4725 27.6966 15.262 26.4846 15.2696 24.9806Z" fill="white"/>
<path d="M25.1836 15.0837C26.6892 15.0867 27.8921 16.3033 27.8815 17.8118C27.8725 19.3113 26.6423 20.5127 25.1382 20.4931C23.6599 20.4734 22.4721 19.2735 22.4706 17.7967C22.4675 16.2897 23.6781 15.0792 25.1836 15.0837Z" fill="white"/>
<path d="M20.5262 32.1968C20.5262 33.6252 19.3989 34.7539 17.9751 34.7524C16.5482 34.7524 15.4073 33.6252 15.3997 32.2119C15.3921 30.7639 16.5451 29.6124 17.9902 29.623C19.4125 29.6321 20.5262 30.7654 20.5262 32.1968Z" fill="white"/>
<path d="M32.3877 101.665C33.8145 101.67 34.9312 102.789 34.9403 104.224C34.9479 105.639 33.8115 106.787 32.3952 106.793C30.9517 106.801 29.7911 105.636 29.8093 104.198C29.8274 102.771 30.9577 101.661 32.3877 101.665Z" fill="white"/>
<path d="M101.851 32.1695C101.859 30.7471 102.991 29.6229 104.416 29.6229C105.855 29.6229 107 30.791 106.979 32.2391C106.96 33.6508 105.796 34.775 104.38 34.7523C102.95 34.7296 101.845 33.6009 101.853 32.1695H101.851Z" fill="white"/>
<path d="M89.9928 101.664C91.4151 101.656 92.556 102.776 92.5711 104.198C92.5863 105.618 91.4635 106.772 90.0487 106.792C88.6022 106.813 87.4386 105.669 87.4386 104.222C87.4386 102.799 88.5629 101.671 89.9912 101.664H89.9928Z" fill="white"/>
<path d="M90.0321 20.3398C88.6007 20.3489 87.4567 19.2383 87.4401 17.8235C87.4234 16.3755 88.5674 15.2134 90.0109 15.2149C91.4257 15.2149 92.5651 16.3528 92.5726 17.7721C92.5802 19.1959 91.4575 20.3323 90.0336 20.3414L90.0321 20.3398Z" fill="white"/>
<path d="M20.5262 89.8281C20.5262 91.2535 19.3944 92.3853 17.9735 92.3838C16.5512 92.3838 15.4103 91.2535 15.4012 89.8402C15.3921 88.3937 16.5421 87.2437 17.9917 87.2528C19.4095 87.2619 20.5277 88.3967 20.5262 89.8281Z" fill="white"/>
<path d="M101.851 89.8297C101.847 88.3998 102.965 87.2634 104.386 87.2513C105.832 87.2392 106.988 88.3922 106.979 89.8357C106.97 91.255 105.829 92.3868 104.41 92.3823C102.985 92.3778 101.854 91.252 101.851 89.8297Z" fill="white"/>
<path d="M32.3831 20.3399C30.9547 20.3429 29.8199 19.2247 29.8093 17.8039C29.7987 16.3589 30.9517 15.2074 32.3983 15.215C33.813 15.2225 34.9388 16.3619 34.9388 17.7888C34.9388 19.2141 33.8146 20.3369 32.3831 20.3399Z" fill="white"/>
<path d="M106.926 53.7993C106.928 55.2095 105.819 56.3201 104.413 56.3171C103.009 56.314 101.895 55.1989 101.895 53.7993C101.895 52.3966 103.007 51.2845 104.413 51.2814C105.817 51.2784 106.925 52.3875 106.926 53.7993Z" fill="white"/>
<path d="M56.504 104.219C56.5086 105.628 55.4025 106.738 53.9922 106.74C52.5805 106.74 51.4683 105.635 51.4683 104.233C51.4683 102.829 52.579 101.712 53.9801 101.709C55.3813 101.706 56.4995 102.818 56.504 104.219Z" fill="white"/>
<path d="M61.1993 15.265C62.605 15.2681 63.7096 16.3802 63.705 17.7919C63.702 19.1931 62.5823 20.3037 61.1781 20.2992C59.7815 20.2946 58.6663 19.1719 58.6693 17.7723C58.6724 16.3696 59.789 15.2635 61.1978 15.2666L61.1993 15.265Z" fill="white"/>
<path d="M17.9705 51.2814C19.3701 51.283 20.4853 52.3996 20.4853 53.8023C20.4853 55.2019 19.3656 56.3216 17.966 56.3171C16.5572 56.314 15.4526 55.2064 15.4526 53.7977C15.4526 52.3921 16.5648 51.2799 17.9705 51.283V51.2814Z" fill="white"/>
<path d="M78.1116 104.233C78.1116 105.641 77.001 106.746 75.5892 106.738C74.1714 106.729 73.0759 105.629 73.0789 104.216C73.0835 102.818 74.2032 101.704 75.6043 101.706C77.0085 101.707 78.1101 102.818 78.1116 104.231V104.233Z" fill="white"/>
<path d="M104.399 80.0959C105.813 80.0913 106.914 81.1838 106.926 82.6016C106.937 84.0163 105.84 85.1255 104.427 85.127C103.012 85.1285 101.898 84.0284 101.895 82.6258C101.892 81.2216 103.003 80.1004 104.401 80.0959H104.399Z" fill="white"/>
<path d="M20.4853 60.9927C20.4884 62.3968 19.3792 63.515 17.9781 63.518C16.5693 63.5211 15.4541 62.415 15.4526 61.0108C15.4526 59.5991 16.5557 58.4854 17.9584 58.4824C19.3596 58.4794 20.4823 59.5946 20.4853 60.9912V60.9927Z" fill="white"/>
<path d="M68.4063 101.707C69.809 101.71 70.9106 102.825 70.9091 104.239C70.9061 105.647 69.7924 106.749 68.3806 106.738C66.9658 106.728 65.8673 105.62 65.8749 104.211C65.8824 102.813 67.0037 101.704 68.4063 101.707Z" fill="white"/>
<path d="M82.7857 106.738C81.3694 106.726 80.2784 105.623 80.283 104.208C80.2875 102.813 81.4133 101.701 82.8159 101.706C84.2201 101.71 85.3187 102.824 85.3141 104.239C85.3096 105.654 84.2005 106.749 82.7857 106.737V106.738Z" fill="white"/>
<path d="M49.3 104.224C49.3045 105.629 48.1924 106.738 46.7821 106.737C45.3689 106.735 44.2643 105.632 44.2643 104.225C44.2643 102.824 45.381 101.706 46.7806 101.707C48.1833 101.707 49.2954 102.819 49.3 104.224Z" fill="white"/>
<path d="M104.408 77.9245C102.997 77.9184 101.892 76.8123 101.895 75.4052C101.898 74.0055 103.015 72.8934 104.417 72.8919C105.825 72.8919 106.926 73.998 106.928 75.4142C106.928 76.826 105.823 77.929 104.41 77.923L104.408 77.9245Z" fill="white"/>
<path d="M20.4854 46.6165C20.4793 48.0116 19.3505 49.1222 17.9463 49.1131C16.5451 49.1056 15.4406 47.9813 15.4511 46.5726C15.4617 45.1669 16.5769 44.0699 17.9887 44.0775C19.3838 44.0836 20.4899 45.2093 20.4854 46.615V46.6165Z" fill="white"/>
<path d="M106.926 68.2148C106.926 69.6235 105.816 70.7281 104.404 70.7205C102.995 70.7144 101.891 69.6038 101.894 68.1981C101.897 66.8 103.018 65.6864 104.419 65.6879C105.823 65.6879 106.923 66.7985 106.925 68.2148H106.926Z" fill="white"/>
<path d="M53.9756 15.2651C55.3828 15.259 56.4964 16.3636 56.504 17.7708C56.5116 19.1704 55.3949 20.2961 53.9967 20.2977C52.5926 20.3007 51.4728 19.1885 51.4683 17.7904C51.4638 16.3832 52.5699 15.2696 53.9756 15.2635V15.2651Z" fill="white"/>
<path d="M46.8094 20.2992C45.3991 20.3053 44.2718 19.2022 44.2658 17.8087C44.2582 16.3939 45.3507 15.2787 46.7564 15.2666C48.1666 15.2545 49.2939 16.3561 49.303 17.7557C49.3121 19.1629 48.2045 20.2932 46.8109 20.2992H46.8094Z" fill="white"/>
<path d="M39.5781 15.2651C40.9853 15.2651 42.0944 16.3757 42.0959 17.7814C42.0959 19.181 40.9777 20.2992 39.5781 20.2977C38.1754 20.2961 37.0602 19.1795 37.0617 17.7798C37.0617 16.3726 38.1724 15.2635 39.5781 15.2635V15.2651Z" fill="white"/>
<path d="M104.413 63.518C103.004 63.515 101.895 62.4059 101.895 61.0032C101.895 59.6036 103.012 58.4854 104.411 58.4839C105.819 58.4839 106.922 59.5885 106.925 61.0017C106.928 62.4119 105.82 63.5211 104.411 63.518H104.413Z" fill="white"/>
<path d="M20.4853 68.2559C20.4687 69.651 19.3323 70.7434 17.919 70.7222C16.5164 70.7026 15.4314 69.5738 15.4526 68.1575C15.4738 66.7609 16.6072 65.67 18.0174 65.6881C19.4065 65.7063 20.502 66.8456 20.4853 68.2543V68.2559Z" fill="white"/>
<path d="M20.4853 82.6182C20.4853 84.0224 19.3732 85.13 17.9644 85.1285C16.5527 85.1269 15.4511 84.0224 15.4541 82.6106C15.4557 81.2034 16.5663 80.0958 17.972 80.0974C19.3701 80.0974 20.4868 81.2186 20.4853 82.6182Z" fill="white"/>
<path d="M70.9091 17.7587C70.9197 19.1674 69.8166 20.2901 68.4169 20.2977C67.0143 20.3053 65.8855 19.1977 65.8764 17.8041C65.8673 16.3984 66.9689 15.2772 68.3716 15.2666C69.7833 15.256 70.9 16.3515 70.9091 17.7587Z" fill="white"/>
<path d="M106.926 39.3691C106.935 40.7839 105.84 41.9021 104.436 41.9096C103.031 41.9172 101.903 40.8081 101.895 39.4145C101.888 38.0088 102.994 36.8831 104.39 36.8755C105.807 36.868 106.917 37.9604 106.926 39.3691Z" fill="white"/>
<path d="M17.9872 36.8755C19.3823 36.88 20.4884 38.0043 20.4838 39.4115C20.4793 40.8066 19.352 41.9172 17.9478 41.9096C16.5467 41.9021 15.4451 40.7824 15.4512 39.3721C15.4587 37.9695 16.5739 36.8695 17.9872 36.8755Z" fill="white"/>
<path d="M39.6099 101.707C41.0035 101.718 42.1065 102.848 42.0959 104.257C42.0869 105.655 40.9611 106.751 39.5463 106.738C38.1391 106.725 37.0512 105.611 37.0617 104.193C37.0723 102.798 38.2011 101.697 39.6099 101.707Z" fill="white"/>
<path d="M82.7887 20.2992C81.3921 20.2946 80.2784 19.1704 80.283 17.7692C80.2875 16.3666 81.4027 15.262 82.8129 15.265C84.2201 15.2681 85.3202 16.3802 85.3141 17.7919C85.3081 19.1991 84.1959 20.3022 82.7887 20.2976V20.2992Z" fill="white"/>
<path d="M61.1948 106.738C59.78 106.737 58.6709 105.635 58.6709 104.23C58.6709 102.829 59.7845 101.71 61.1842 101.707C62.5884 101.704 63.699 102.812 63.7051 104.219C63.7111 105.629 62.6035 106.74 61.1948 106.737V106.738Z" fill="white"/>
<path d="M104.44 49.1131C103.03 49.1192 101.906 48.0176 101.895 46.6226C101.886 45.2169 102.991 44.0881 104.384 44.079C105.8 44.0699 106.913 45.1594 106.925 46.5681C106.937 47.9813 105.837 49.1071 104.439 49.1131H104.44Z" fill="white"/>
<path d="M78.1116 17.801C78.104 19.2052 76.9858 20.3067 75.5786 20.2992C74.1805 20.2916 73.0759 19.1689 73.0804 17.7632C73.085 16.3651 74.2077 15.2605 75.618 15.2681C77.0237 15.2741 78.1207 16.3893 78.1131 17.8025L78.1116 17.801Z" fill="white"/>
<path d="M17.9841 77.9245C16.5709 77.9306 15.4557 76.829 15.4526 75.4249C15.4496 74.0131 16.5512 72.8964 17.9523 72.8904C19.355 72.8858 20.4793 73.9965 20.4853 75.3931C20.4914 76.8003 19.3883 77.9169 17.9841 77.9245Z" fill="white"/>
<path d="M97.1575 99.2971C95.8804 99.2607 94.915 98.2243 94.9574 96.9381C94.9982 95.7065 96.0332 94.7441 97.2891 94.7698C98.5511 94.7956 99.521 95.8411 99.4817 97.1333C99.4423 98.3831 98.4225 99.3319 97.1575 99.2971Z" fill="white"/>
<path d="M99.4846 24.9608C99.4952 26.2091 98.5087 27.2244 97.2664 27.2411C95.9863 27.2577 94.9604 26.256 94.9558 24.9865C94.9513 23.7276 95.9227 22.732 97.1771 22.7108C98.4678 22.6896 99.4725 23.6686 99.4831 24.9593L99.4846 24.9608Z" fill="white"/>
<path d="M25.1488 22.7125C26.4047 22.708 27.4094 23.687 27.4261 24.9322C27.4427 26.2093 26.4395 27.2382 25.17 27.2412C23.8899 27.2443 22.8897 26.2381 22.8973 24.9534C22.9048 23.69 23.8823 22.7186 25.1488 22.7125Z" fill="white"/>
<path d="M27.4276 97.0622C27.4185 98.309 26.4199 99.2956 25.1655 99.294C23.8702 99.294 22.8852 98.2984 22.8988 97.0092C22.9124 95.7519 23.9005 94.7714 25.1564 94.7698C26.4289 94.7683 27.4367 95.7851 27.4276 97.0622Z" fill="white"/>
<path d="M61.2084 63.2047C59.9827 63.2092 59.0007 62.2424 58.9916 61.0228C58.9826 59.8032 59.957 58.8136 61.1751 58.8061C62.3962 58.7985 63.3812 59.7684 63.3903 60.9895C63.3994 62.2091 62.4249 63.2002 61.2084 63.2047Z" fill="white"/>
<path d="M53.9771 58.8045C55.1967 58.8 56.1802 59.7775 56.1817 60.9986C56.1832 62.2227 55.2118 63.2001 53.9907 63.2032C52.7696 63.2062 51.7876 62.2302 51.7861 61.0107C51.7845 59.7866 52.756 58.8076 53.9771 58.803V58.8045Z" fill="white"/>
<path d="M63.3918 53.8057C63.3873 55.0358 62.3992 56.0103 61.1705 55.9967C59.9419 55.9831 58.972 54.9874 58.9931 53.7603C59.0143 52.5589 59.9797 51.6071 61.1842 51.6011C62.4098 51.595 63.3964 52.5801 63.3918 53.8057Z" fill="white"/>
<path d="M70.5989 61.052C70.5777 62.2624 69.5715 63.2263 68.3519 63.2036C67.1338 63.1809 66.1714 62.1747 66.1987 60.9581C66.2274 59.734 67.2231 58.7808 68.4457 58.805C69.6623 58.8292 70.6201 59.8279 70.5989 61.052Z" fill="white"/>
<path d="M63.3903 68.2043C63.3949 69.4299 62.4083 70.418 61.1842 70.4119C59.957 70.4074 58.981 69.4163 58.9916 68.1891C59.0022 66.9862 59.9585 66.0299 61.166 66.0118C62.3871 65.9936 63.3843 66.9771 63.3888 68.2043H63.3903Z" fill="white"/>
<path d="M68.4018 66.0436C69.6184 66.0436 70.5596 66.9787 70.5717 68.1998C70.5838 69.4042 69.629 70.3771 68.4291 70.3847C67.1807 70.3923 66.2244 69.4405 66.232 68.1937C66.238 66.9802 67.1853 66.0436 68.4033 66.0436H68.4018Z" fill="white"/>
<path d="M56.1469 68.1907C56.156 69.4163 55.2375 70.362 54.0195 70.3832C52.7863 70.4044 51.8057 69.436 51.8103 68.2013C51.8148 66.9938 52.7651 66.0466 53.9786 66.0436C55.1997 66.0406 56.1378 66.9696 56.1469 68.1907Z" fill="white"/>
<path d="M66.2305 53.7662C66.2426 52.5588 67.2064 51.6131 68.4139 51.6222C69.6229 51.6312 70.5732 52.589 70.5701 53.7965C70.5671 55.0388 69.6032 55.9799 68.3519 55.9603C67.1353 55.9421 66.2184 54.9919 66.2305 53.7662Z" fill="white"/>
<path d="M54.0043 55.9602C52.7817 55.9647 51.8254 55.0387 51.8088 53.8327C51.7921 52.5996 52.759 51.6206 53.9937 51.6236C55.2012 51.6251 56.1439 52.5754 56.1484 53.7919C56.153 55.016 55.2254 55.9556 54.0043 55.9602Z" fill="white"/>
<path d="M23.4027 32.1758C23.3966 31.1877 24.1199 30.4403 25.0959 30.4267C26.1082 30.413 26.8602 31.1545 26.8617 32.1682C26.8617 33.1306 26.0991 33.8947 25.1352 33.8962C24.1653 33.8962 23.4087 33.1457 23.4027 32.1758Z" fill="white"/>
<path d="M97.2059 91.5755C96.2269 91.5588 95.5081 90.8098 95.5218 89.8203C95.5339 88.8504 96.295 88.1044 97.2634 88.1104C98.2499 88.1165 98.9989 88.9018 98.9762 89.9095C98.9551 90.8855 98.203 91.5936 97.2059 91.5755Z" fill="white"/>
<path d="M91.7631 97.0802C91.7571 98.0668 91.0262 98.79 90.0351 98.7885C89.0607 98.7885 88.3041 98.0411 88.2981 97.0757C88.292 96.0816 89.0667 95.3205 90.0699 95.3341C91.0459 95.3462 91.7692 96.0937 91.7631 97.0802Z" fill="white"/>
<path d="M32.3407 23.218C33.3152 23.218 34.0718 23.9594 34.0824 24.9278C34.093 25.8932 33.3409 26.6618 32.3755 26.6739C31.3617 26.686 30.6082 25.9401 30.6127 24.9323C30.6173 23.9518 31.3557 23.2195 32.3392 23.218H32.3407Z" fill="white"/>
<path d="M90.0594 26.6724C89.0834 26.68 88.3177 25.9446 88.3011 24.9808C88.2829 23.9867 89.0486 23.2135 90.0488 23.218C91.0338 23.221 91.7616 23.9519 91.7647 24.9399C91.7677 25.9295 91.0429 26.6649 90.0594 26.6724Z" fill="white"/>
<path d="M25.1156 91.5755C24.1275 91.5695 23.4042 90.8401 23.4042 89.8505C23.4042 88.8761 24.1472 88.1211 25.1156 88.112C26.1036 88.1029 26.8708 88.8806 26.8602 89.8808C26.8481 90.8613 26.1067 91.5816 25.1171 91.577L25.1156 91.5755Z" fill="white"/>
<path d="M95.5218 32.1529C95.5233 31.1694 96.2571 30.4325 97.2392 30.428C98.2515 30.4234 98.9914 31.174 98.9778 32.1908C98.9657 33.1607 98.2015 33.9066 97.2331 33.896C96.2662 33.8854 95.5218 33.1259 95.5233 32.1529H95.5218Z" fill="white"/>
<path d="M32.3498 98.789C31.3618 98.7905 30.6218 98.0642 30.6143 97.0852C30.6052 96.0744 31.3542 95.3254 32.3665 95.3345C33.3349 95.3436 34.0869 96.1047 34.0824 97.0716C34.0778 98.04 33.3228 98.789 32.3498 98.7905V98.789Z" fill="white"/>
<path d="M45.1495 60.9594C45.1661 60.0545 45.8667 59.3751 46.7776 59.3812C47.7006 59.3872 48.4118 60.1196 48.3921 61.0441C48.3725 61.9595 47.628 62.6495 46.6929 62.6208C45.7986 62.5935 45.1343 61.8763 45.151 60.9594H45.1495Z" fill="white"/>
<path d="M62.8093 46.6106C62.7956 47.5079 62.0875 48.2054 61.1887 48.2054C60.2687 48.2054 59.5575 47.4761 59.5696 46.547C59.5817 45.621 60.3081 44.9386 61.2538 44.9628C62.1541 44.987 62.8244 45.6951 62.8108 46.6106H62.8093Z" fill="white"/>
<path d="M62.8078 75.4686C62.7911 76.3977 62.0693 77.068 61.1161 77.0407C60.2158 77.0135 59.55 76.3024 59.5681 75.3854C59.5863 74.4912 60.3035 73.7951 61.1993 73.7997C62.1132 73.8057 62.8244 74.5426 62.8078 75.4686Z" fill="white"/>
<path d="M77.2279 61.0156C77.2234 61.931 76.544 62.615 75.6331 62.6225C74.7086 62.6301 73.9823 61.9098 73.9868 60.9914C73.9929 60.076 74.7298 59.3663 75.6573 59.3829C76.5561 59.3996 77.2325 60.1017 77.2279 61.0156Z" fill="white"/>
<path d="M53.9544 48.181C53.0556 48.1674 52.358 47.4411 52.3747 46.5378C52.3898 45.639 53.1131 44.9566 54.0285 44.9793C54.8971 45.0004 55.5856 45.7101 55.5825 46.5801C55.5795 47.4713 54.8441 48.1946 53.9544 48.1795V48.181Z" fill="white"/>
<path d="M75.5953 66.6094C76.488 66.5958 77.2098 67.3115 77.2113 68.2087C77.2128 69.1 76.547 69.793 75.6694 69.8157C74.7676 69.8384 74.0277 69.1423 74.011 68.2541C73.9944 67.3568 74.701 66.623 75.5938 66.6094H75.5953Z" fill="white"/>
<path d="M70.0027 46.6033C69.9906 47.493 69.2507 48.2042 68.3594 48.1815C67.4939 48.1588 66.7964 47.4446 66.7949 46.5791C66.7949 45.6864 67.5151 44.9752 68.4139 44.9797C69.3248 44.9843 70.0148 45.6894 70.0027 46.6033Z" fill="white"/>
<path d="M70.0027 75.4005C70.0148 76.3175 69.3309 77.018 68.4169 77.0241C67.5166 77.0301 66.7933 76.3175 66.7964 75.4278C66.7994 74.5577 67.4894 73.8496 68.3594 73.8239C69.2537 73.7981 69.9921 74.5048 70.0027 75.4005Z" fill="white"/>
<path d="M53.9846 77.024C53.0707 77.0286 52.3701 76.3325 52.3732 75.4247C52.3762 74.5289 53.0995 73.8147 53.9952 73.8253C54.8592 73.8344 55.5689 74.541 55.5825 75.405C55.5961 76.2977 54.8834 77.021 53.9846 77.024Z" fill="white"/>
<path d="M46.7352 55.3958C45.8455 55.3837 45.1495 54.6528 45.1661 53.748C45.1828 52.8432 45.906 52.1623 46.8185 52.1895C47.6855 52.2152 48.3694 52.9279 48.3664 53.801C48.3634 54.6891 47.6265 55.4094 46.7352 55.3958Z" fill="white"/>
<path d="M75.621 55.3956C74.7267 55.3941 74.0065 54.6693 74.011 53.7766C74.0155 52.8854 74.7434 52.1757 75.6437 52.1879C76.5213 52.1984 77.2037 52.8869 77.2113 53.769C77.2188 54.6693 76.5062 55.3972 75.621 55.3956Z" fill="white"/>
<path d="M46.77 69.8156C45.8606 69.8202 45.1631 69.1211 45.1661 68.2087C45.1691 67.3099 45.8894 66.5972 46.7837 66.6093C47.6461 66.6199 48.3558 67.3296 48.3664 68.1936C48.377 69.0893 47.6658 69.8126 46.77 69.8171V69.8156Z" fill="white"/>
<path d="M97.2483 37.7682C98.1637 37.7652 98.8476 38.4521 98.8431 39.3706C98.8386 40.2845 98.1395 40.973 97.2301 40.9609C96.3464 40.9488 95.6761 40.2709 95.6655 39.3827C95.6549 38.4627 96.3328 37.7697 97.2483 37.7682Z" fill="white"/>
<path d="M39.5584 98.6555C38.6414 98.6615 37.953 97.9776 37.9545 97.0622C37.956 96.171 38.6203 95.4916 39.5054 95.478C40.43 95.4628 41.1321 96.1316 41.1472 97.041C41.1608 97.9504 40.4723 98.6509 39.5584 98.6555Z" fill="white"/>
<path d="M25.1216 37.7697C26.0355 37.7697 26.7179 38.4597 26.7104 39.3782C26.7043 40.2663 26.0325 40.9488 25.1533 40.9624C24.2409 40.976 23.5403 40.2921 23.5328 39.3797C23.5252 38.4597 24.2046 37.7712 25.1201 37.7697H25.1216Z" fill="white"/>
<path d="M97.2286 81.0447C98.1395 81.0326 98.8386 81.7196 98.8431 82.632C98.8476 83.5323 98.1985 84.2116 97.3118 84.2328C96.3858 84.2555 95.6806 83.5928 95.6655 82.6834C95.6504 81.7589 96.3207 81.0553 97.2286 81.0432V81.0447Z" fill="white"/>
<path d="M39.5282 23.3483C40.4497 23.3422 41.1442 24.0216 41.1472 24.9325C41.1502 25.8434 40.4557 26.5303 39.5372 26.5258C38.646 26.5213 37.9696 25.857 37.956 24.9718C37.9409 24.0488 38.6142 23.3543 39.5297 23.3483H39.5282Z" fill="white"/>
<path d="M25.1186 66.6077C26.0113 66.6047 26.7165 67.3188 26.7119 68.2252C26.7074 69.1164 26.0416 69.7988 25.1594 69.8155C24.2455 69.8321 23.5434 69.1482 23.5343 68.2358C23.5268 67.3279 24.2243 66.6122 25.1171 66.6077H25.1186Z" fill="white"/>
<path d="M84.4199 97.0988C84.4078 98.0157 83.7132 98.6769 82.7842 98.6573C81.9005 98.6391 81.2287 97.9506 81.2317 97.07C81.2362 96.1561 81.9262 95.4752 82.8447 95.4797C83.7617 95.4843 84.4335 96.1758 84.4199 97.0988Z" fill="white"/>
<path d="M98.8431 75.4625C98.831 76.3749 98.1289 77.0437 97.2059 77.024C96.3237 77.0043 95.6625 76.3174 95.6655 75.4262C95.6685 74.5198 96.3752 73.8147 97.2725 73.8238C98.1682 73.8329 98.8537 74.5486 98.8431 75.4625Z" fill="white"/>
<path d="M82.8159 26.5256C81.8975 26.5195 81.2196 25.825 81.2332 24.908C81.2483 23.9972 81.9489 23.3314 82.875 23.348C83.7601 23.3647 84.4199 24.0426 84.4214 24.9353C84.4214 25.8583 83.742 26.5316 82.8159 26.5241V26.5256Z" fill="white"/>
<path d="M26.7119 82.6592C26.7058 83.5776 26.0189 84.2464 25.0913 84.2328C24.2016 84.2207 23.5388 83.5504 23.5343 82.6577C23.5298 81.7377 24.2137 81.0432 25.1231 81.0447C26.037 81.0477 26.7164 81.7377 26.7104 82.6577L26.7119 82.6592Z" fill="white"/>
<path d="M75.565 98.6553C74.6662 98.6341 73.9762 97.9003 74.011 97.0015C74.0458 96.1088 74.7782 95.4475 75.6967 95.4793C76.5697 95.5096 77.2234 96.2117 77.2098 97.1044C77.1962 98.0153 76.4926 98.678 75.565 98.6568V98.6553Z" fill="white"/>
<path d="M26.7119 61.0518C26.6922 61.9566 25.969 62.6375 25.0596 62.6058C24.1698 62.5755 23.5056 61.8416 23.5358 60.9217C23.5646 60.0531 24.2788 59.3798 25.1564 59.3949C26.0491 59.4116 26.7316 60.1364 26.7119 61.0503V61.0518Z" fill="white"/>
<path d="M25.1065 73.8238C26.0038 73.8162 26.7104 74.5213 26.7119 75.4276C26.7119 76.3234 26.0537 77.0058 25.1715 77.024C24.2515 77.0437 23.5464 76.3688 23.5358 75.4609C23.5252 74.55 24.2137 73.8313 25.108 73.8238H25.1065Z" fill="white"/>
<path d="M46.7851 23.3479C47.6915 23.36 48.383 24.0711 48.3649 24.976C48.3467 25.8687 47.6204 26.5481 46.708 26.5254C45.8228 26.5042 45.1615 25.8203 45.1646 24.929C45.1676 24.0197 45.8667 23.3373 46.7836 23.3479H46.7851Z" fill="white"/>
<path d="M53.9483 26.5258C53.0374 26.5152 52.355 25.807 52.3731 24.8946C52.3913 24.017 53.0813 23.3497 53.971 23.3482C54.8774 23.3482 55.5855 24.0518 55.581 24.9491C55.5765 25.8433 54.8592 26.5364 53.9483 26.5258Z" fill="white"/>
<path d="M61.219 23.3494C62.1253 23.3599 62.8138 24.0741 62.7926 24.9835C62.773 25.8551 62.0754 26.5254 61.1902 26.5254C60.2808 26.5254 59.5757 25.8233 59.5833 24.923C59.5908 24.0272 60.3065 23.3388 61.219 23.3494Z" fill="white"/>
<path d="M75.6573 23.3479C76.5637 23.3615 77.234 24.0697 77.2113 24.9927C77.1901 25.8718 76.5016 26.53 75.6059 26.5255C74.701 26.5209 73.9974 25.8098 74.011 24.911C74.0246 24.0152 74.7434 23.3343 75.6558 23.3479H75.6573Z" fill="white"/>
<path d="M98.8431 61.0426C98.8264 61.9505 98.1077 62.6329 97.1998 62.6072C96.3086 62.5799 95.6383 61.8491 95.6655 60.9321C95.6912 60.0621 96.4024 59.3857 97.2785 59.3979C98.1758 59.41 98.8582 60.1287 98.8431 61.0426Z" fill="white"/>
<path d="M26.7119 46.6134C26.6983 47.5153 25.9735 48.2067 25.0716 48.1795C24.1774 48.1523 23.5101 47.426 23.5358 46.509C23.56 45.6314 24.2545 44.9717 25.1458 44.9808C26.0522 44.9899 26.727 45.6935 26.7134 46.615L26.7119 46.6134Z" fill="white"/>
<path d="M23.5343 53.7662C23.5434 52.8553 24.25 52.1699 25.1624 52.188C26.0401 52.2062 26.7089 52.8947 26.7119 53.7829C26.7149 54.6907 26.0113 55.4004 25.1155 55.3958C24.2197 55.3913 23.5252 54.6756 23.5343 53.7662Z" fill="white"/>
<path d="M97.2755 55.3955C96.3782 55.4031 95.6685 54.698 95.6655 53.7946C95.6625 52.8822 96.3585 52.1847 97.2664 52.1892C98.1486 52.1938 98.831 52.8701 98.8446 53.7553C98.8582 54.6662 98.1683 55.3879 97.2755 55.397V55.3955Z" fill="white"/>
<path d="M53.9468 98.6572C53.0359 98.6466 52.352 97.937 52.3732 97.0246C52.3928 96.15 53.0889 95.4782 53.9725 95.4797C54.8774 95.4797 55.5855 96.1848 55.581 97.0821C55.5765 97.9779 54.8592 98.6678 53.9468 98.6572Z" fill="white"/>
<path d="M70.0027 24.908C70.0148 25.825 69.3324 26.5195 68.4154 26.5256C67.5091 26.5316 66.7918 25.8265 66.7949 24.9353C66.7994 24.0607 67.4833 23.3647 68.3579 23.348C69.2794 23.3314 69.9906 24.0062 70.0027 24.908Z" fill="white"/>
<path d="M97.2891 66.6092C98.1788 66.6243 98.8628 67.3536 98.8416 68.266C98.8204 69.1754 98.1062 69.8457 97.1892 69.817C96.3162 69.7882 95.6579 69.0892 95.6655 68.198C95.6731 67.2977 96.3918 66.5941 97.2891 66.6107V66.6092Z" fill="white"/>
<path d="M98.8431 46.6033C98.8325 47.5051 98.1107 48.2027 97.2119 48.18C96.3192 48.1573 95.6428 47.4295 95.6655 46.5186C95.6882 45.6364 96.3752 44.9752 97.2664 44.9797C98.1743 44.9843 98.8552 45.6848 98.8431 46.6033Z" fill="white"/>
<path d="M68.3852 98.6556C67.4803 98.648 66.7782 97.9323 66.7964 97.0351C66.813 96.1438 67.5393 95.4614 68.4518 95.4796C69.3324 95.4977 70.0042 96.1862 70.0027 97.0714C70.0027 97.9808 69.3036 98.6647 68.3852 98.6571V98.6556Z" fill="white"/>
<path d="M46.7337 95.4778C47.6431 95.4672 48.3603 96.1572 48.3679 97.0545C48.3755 97.9503 47.6673 98.6554 46.761 98.6554C45.8712 98.6554 45.1843 97.9911 45.1661 97.112C45.1464 96.1935 45.8228 95.4884 46.7337 95.4778Z" fill="white"/>
<path d="M61.1539 98.6555C60.2505 98.6419 59.559 97.9187 59.5833 97.0168C59.6075 96.1256 60.3398 95.4508 61.2538 95.478C62.1283 95.5037 62.8002 96.2073 62.7926 97.0864C62.7835 97.9852 62.0693 98.6692 61.1539 98.6555Z" fill="white"/>
<path d="M46.7458 74.243C47.4585 74.237 47.9654 74.7394 47.9593 75.446C47.9533 76.1117 47.4509 76.6353 46.7972 76.6534C46.1239 76.6731 45.5535 76.136 45.5398 75.4672C45.5247 74.7848 46.0528 74.2491 46.7458 74.243Z" fill="white"/>
<path d="M74.4317 75.4187C74.4393 74.706 74.9446 74.2263 75.6649 74.2445C76.3276 74.2611 76.8361 74.7756 76.8406 75.4338C76.8451 76.1056 76.2928 76.6579 75.6225 76.6549C74.9371 76.6503 74.4241 76.1192 74.4332 75.4202L74.4317 75.4187Z" fill="white"/>
<path d="M75.5923 47.7729C74.8902 47.7593 74.406 47.2388 74.4302 46.52C74.4529 45.8573 74.9734 45.3519 75.6316 45.3534C76.3004 45.3565 76.8482 45.9148 76.8406 46.5881C76.833 47.2675 76.2883 47.785 75.5938 47.7729H75.5923Z" fill="white"/>
<path d="M47.9594 46.5862C47.9533 47.2882 47.4449 47.783 46.7413 47.7724C46.0619 47.7619 45.5308 47.2232 45.5414 46.5529C45.552 45.8901 46.1103 45.3469 46.7731 45.353C47.4449 45.359 47.9654 45.9007 47.9594 46.5847V46.5862Z" fill="white"/>
<path d="M33.1291 32.0968C33.1427 32.5568 32.7902 32.9321 32.3317 32.9442C31.8656 32.9563 31.504 32.6128 31.4919 32.1468C31.4783 31.6686 31.8081 31.3191 32.2817 31.307C32.7538 31.2949 33.114 31.6323 33.1291 32.0983V32.0968Z" fill="white"/>
<path d="M32.315 90.6965C31.8369 90.6995 31.4964 90.3666 31.4919 89.8915C31.4874 89.4285 31.8414 89.0638 32.2999 89.0593C32.7508 89.0548 33.1261 89.424 33.1291 89.8779C33.1337 90.3454 32.7856 90.6935 32.315 90.698V90.6965Z" fill="white"/>
<path d="M90.0775 89.0578C90.5375 89.0608 90.8885 89.4209 90.8855 89.89C90.8825 90.3742 90.5526 90.6995 90.0669 90.698C89.5993 90.6965 89.2407 90.3394 89.2453 89.8809C89.2483 89.433 89.6296 89.0562 90.0775 89.0578Z" fill="white"/>
<path d="M90.0457 31.3056C90.5209 31.292 90.8719 31.6233 90.884 32.0954C90.8961 32.569 90.5632 32.9276 90.0987 32.9428C89.6463 32.9564 89.2604 32.5963 89.2468 32.1469C89.2332 31.6884 89.5857 31.3177 90.0457 31.3056Z" fill="white"/>
<path d="M32.2666 39.9076C31.914 39.8562 31.7234 39.655 31.7446 39.2888C31.7642 38.9483 31.967 38.7653 32.3014 38.7713C32.663 38.7774 32.8749 38.9831 32.8688 39.3493C32.8628 39.7215 32.6297 39.8865 32.2666 39.9076Z" fill="white"/>
<path d="M40.1001 32.0878C40.0456 32.4872 39.858 32.7021 39.4903 32.6794C39.1256 32.6567 38.9395 32.4267 38.9592 32.0681C38.9789 31.7322 39.1847 31.5567 39.5221 31.5567C39.9034 31.5567 40.0547 31.7897 40.1001 32.0878Z" fill="white"/>
<path d="M32.3226 82.0963C32.6721 82.1659 32.8976 82.352 32.8643 82.7287C32.8355 83.0677 32.6222 83.2538 32.2817 83.2387C31.9019 83.222 31.7264 82.992 31.7476 82.6228C31.7673 82.2718 31.9973 82.128 32.3226 82.0947V82.0963Z" fill="white"/>
<path d="M83.4363 32.0332C83.4197 32.4523 83.2411 32.6747 82.8659 32.6808C82.5224 32.6853 82.3196 32.4765 82.2985 32.1466C82.2758 31.8138 82.4528 31.5928 82.8008 31.5611C83.1776 31.5263 83.3728 31.7275 83.4363 32.0332Z" fill="white"/>
<path d="M90.0654 38.7606C90.424 38.7818 90.6359 38.9589 90.6404 39.3296C90.6449 39.6655 90.4694 39.8743 90.1335 39.897C89.7719 39.9212 89.5434 39.7321 89.5222 39.3689C89.501 39.0073 89.7007 38.8045 90.0654 38.7606Z" fill="white"/>
<path d="M39.5478 90.4574C39.2059 90.4483 38.9819 90.294 38.9592 89.9475C38.9335 89.5783 39.1287 89.3468 39.4994 89.3362C39.8656 89.3256 40.085 89.5314 40.0835 89.9066C40.0835 90.2501 39.8822 90.4302 39.5478 90.4589V90.4574Z" fill="white"/>
<path d="M75.686 32.6716C75.335 32.6429 75.1111 32.4886 75.0899 32.1481C75.0687 31.8107 75.2593 31.5973 75.5892 31.5671C75.9569 31.5338 76.1778 31.7471 76.1945 32.1057C76.2111 32.4477 75.9781 32.6096 75.686 32.6716Z" fill="white"/>
<path d="M90.0926 82.0962C90.4149 82.1447 90.6343 82.3005 90.6389 82.6531C90.6434 83.0238 90.4573 83.2417 90.076 83.2417C89.7264 83.2417 89.5358 83.0344 89.5222 82.7015C89.507 82.3277 89.731 82.1416 90.0926 82.0978V82.0962Z" fill="white"/>
<path d="M32.2908 74.8908C32.6328 74.924 32.8386 75.1056 32.8446 75.4385C32.8507 75.7684 32.6646 75.9953 32.3271 76.0059C31.967 76.0165 31.7476 75.8047 31.7522 75.437C31.7567 75.0981 31.9716 74.9301 32.2908 74.8908Z" fill="white"/>
<path d="M83.4333 89.8539C83.4318 90.211 83.2669 90.4213 82.9219 90.4501C82.5512 90.4803 82.3181 90.2912 82.297 89.9235C82.2773 89.5891 82.4695 89.3652 82.8069 89.3379C83.17 89.3077 83.3894 89.4968 83.4333 89.8539Z" fill="white"/>
<path d="M46.767 32.6687C46.422 32.643 46.2102 32.4644 46.1935 32.1361C46.1769 31.8077 46.369 31.5868 46.7034 31.5671C47.0696 31.546 47.2815 31.7563 47.2936 32.1179C47.3057 32.4674 47.0711 32.6157 46.767 32.6687Z" fill="white"/>
<path d="M32.8552 46.5575C32.8129 46.8601 32.6782 47.1022 32.3286 47.1067C31.967 47.1113 31.7491 46.9085 31.7521 46.5423C31.7552 46.2049 31.97 46.0067 32.2969 46.0067C32.6267 46.0067 32.8129 46.214 32.8552 46.5575Z" fill="white"/>
<path d="M90.1335 47.1128C89.7643 47.1113 89.5691 46.913 89.5509 46.5862C89.5328 46.2564 89.7174 46.0233 90.0609 46.0067C90.3983 45.9901 90.6056 46.1822 90.6192 46.5287C90.6328 46.8692 90.4558 47.0644 90.1335 47.1128Z" fill="white"/>
<path d="M68.4306 31.5552C68.765 31.5945 68.9753 31.7957 68.9692 32.1195C68.9647 32.4449 68.7529 32.6658 68.4094 32.6582C68.0704 32.6506 67.8722 32.4494 67.8783 32.1029C67.8828 31.7549 68.0916 31.5869 68.4306 31.5552Z" fill="white"/>
<path d="M76.202 89.9447C76.1445 90.267 75.9539 90.4531 75.6104 90.4319C75.2699 90.4107 75.0732 90.2155 75.0914 89.869C75.108 89.5165 75.3426 89.347 75.6709 89.3652C76.0008 89.3833 76.1899 89.5876 76.2035 89.9447H76.202Z" fill="white"/>
<path d="M47.3057 89.8994C47.2557 90.2626 47.0636 90.4442 46.7216 90.4321C46.3766 90.42 46.1814 90.2157 46.1935 89.8782C46.2056 89.5348 46.4356 89.3517 46.767 89.3623C47.1029 89.3744 47.2799 89.5832 47.3057 89.8994Z" fill="white"/>
<path d="M53.9362 31.5506C54.2918 31.5915 54.4976 31.7564 54.5097 32.0954C54.5218 32.4388 54.3266 32.6401 53.9983 32.6552C53.6351 32.6719 53.4142 32.454 53.4157 32.0969C53.4172 31.7685 53.6442 31.5991 53.9362 31.5506Z" fill="white"/>
<path d="M90.1516 76.0195C89.7567 75.9907 89.5585 75.794 89.5509 75.4642C89.5434 75.1373 89.7174 74.9058 90.073 74.9028C90.4195 74.8998 90.6056 75.0995 90.6192 75.4415C90.6328 75.7925 90.424 75.959 90.1501 76.0195H90.1516Z" fill="white"/>
<path d="M32.8522 53.8114C32.7977 54.1322 32.6298 54.338 32.2833 54.3229C31.9474 54.3092 31.7476 54.1125 31.7522 53.7797C31.7567 53.4165 31.9837 53.2092 32.3408 53.2319C32.6706 53.2531 32.8356 53.4801 32.8507 53.8114H32.8522Z" fill="white"/>
<path d="M32.2636 67.6838C32.6283 67.6974 32.8356 67.8774 32.8446 68.2179C32.8537 68.5614 32.6343 68.7747 32.3105 68.7823C31.9882 68.7898 31.7612 68.5901 31.7522 68.2451C31.7416 67.8986 31.9489 67.7231 32.2636 67.6838Z" fill="white"/>
<path d="M68.9859 89.9277C68.9102 90.2303 68.7559 90.4528 68.4003 90.4331C68.0568 90.4134 67.8707 90.2228 67.8783 89.8778C67.8858 89.5237 68.1098 89.3512 68.4381 89.3618C68.774 89.3724 68.9465 89.5918 68.9859 89.9292V89.9277Z" fill="white"/>
<path d="M90.6237 68.1465C90.6267 68.5626 90.43 68.7669 90.1077 68.782C89.7764 68.7972 89.5615 68.5808 89.5509 68.2494C89.5418 67.9241 89.7098 67.7002 90.0669 67.6896C90.4194 67.6805 90.5814 67.8863 90.6237 68.1465Z" fill="white"/>
<path d="M53.9922 89.3513C54.2964 89.3997 54.5173 89.551 54.5097 89.9066C54.5022 90.2577 54.2964 90.4332 53.9589 90.4317C53.6155 90.4302 53.4127 90.2274 53.4172 89.8915C53.4218 89.5556 53.6412 89.3801 53.9922 89.3513Z" fill="white"/>
<path d="M90.6253 53.8115C90.5874 54.1308 90.421 54.3336 90.0699 54.3245C89.7174 54.3139 89.5419 54.093 89.5494 53.7646C89.557 53.4317 89.7673 53.2229 90.1047 53.232C90.4437 53.2411 90.6132 53.459 90.6253 53.8115Z" fill="white"/>
<path d="M61.7319 89.9308C61.7032 90.2334 61.5397 90.4377 61.1917 90.4316C60.8528 90.4256 60.6621 90.2379 60.6591 89.896C60.6561 89.548 60.8679 89.3618 61.1947 89.3633C61.5216 89.3649 61.7183 89.557 61.7319 89.9308Z" fill="white"/>
<path d="M90.6252 60.9928C90.6131 61.3378 90.4376 61.533 90.0987 61.5406C89.7537 61.5496 89.5585 61.3454 89.5524 61.017C89.5464 60.6902 89.728 60.4768 90.076 60.4723C90.4195 60.4693 90.5935 60.6614 90.6252 60.9928Z" fill="white"/>
<path d="M61.1902 31.5567C61.5322 31.5899 61.7243 31.7806 61.7274 32.1135C61.7304 32.4539 61.5276 32.6567 61.1917 32.6567C60.8543 32.6567 60.6591 32.4494 60.6606 32.1105C60.6606 31.7715 60.8603 31.593 61.1902 31.5567Z" fill="white"/>
<path d="M32.8552 60.9626C32.8265 61.3167 32.6646 61.5346 32.3211 61.5406C31.9912 61.5467 31.7673 61.3727 31.7552 61.0292C31.7431 60.6887 31.9398 60.492 32.2772 60.4739C32.6222 60.4557 32.7947 60.663 32.8552 60.9626Z" fill="white"/>
<path d="M68.4306 83.1751C68.14 83.1358 67.9297 82.9905 67.9327 82.6728C67.9358 82.3913 68.1052 82.2158 68.3942 82.2083C68.6742 82.2007 68.8679 82.3369 68.8966 82.6289C68.9299 82.9557 68.7317 83.107 68.4306 83.1751Z" fill="white"/>
<path d="M82.9007 67.7369C83.1715 67.7868 83.3546 67.9502 83.3486 68.2271C83.341 68.5267 83.1655 68.7295 82.8402 68.7098C82.5148 68.6917 82.3711 68.4753 82.3968 68.1711C82.421 67.8852 82.6162 67.752 82.9022 67.7369H82.9007Z" fill="white"/>
<path d="M83.3637 53.7709C83.3153 54.0569 83.1731 54.2581 82.8856 54.2642C82.6072 54.2702 82.4104 54.1129 82.3983 53.8148C82.3847 53.491 82.5587 53.3034 82.8825 53.3049C83.1837 53.3049 83.3032 53.5197 83.3637 53.7724V53.7709Z" fill="white"/>
<path d="M82.8296 60.5159C83.1625 60.5431 83.3546 60.7171 83.3456 61.0212C83.338 61.2845 83.1746 61.4903 82.8856 61.4918C82.5723 61.4933 82.3983 61.3072 82.3968 60.994C82.3953 60.7005 82.5799 60.5643 82.8296 60.5174V60.5159Z" fill="white"/>
<path d="M54.4613 82.7103C54.4008 82.9857 54.2389 83.1794 53.9559 83.1613C53.6533 83.1416 53.4551 82.9494 53.4929 82.6226C53.5262 82.3321 53.7229 82.1898 54.0119 82.211C54.3115 82.2337 54.431 82.4365 54.4613 82.7103Z" fill="white"/>
<path d="M60.706 82.6908C60.7272 82.4093 60.8649 82.2247 61.1524 82.2096C61.4641 82.193 61.6669 82.3594 61.6759 82.6726C61.6865 82.9919 61.4671 83.1629 61.1721 83.1598C60.8997 83.1568 60.7348 82.9737 60.7045 82.6908H60.706Z" fill="white"/>
<path d="M53.9635 39.8183C53.6835 39.788 53.5005 39.6397 53.4899 39.3492C53.4793 39.0557 53.6503 38.8771 53.9362 38.8605C54.26 38.8423 54.4507 39.042 54.4477 39.3507C54.4446 39.6306 54.257 39.7941 53.962 39.8198L53.9635 39.8183Z" fill="white"/>
<path d="M68.3927 38.8513C68.6802 38.8725 68.8724 39.0072 68.889 39.3007C68.9072 39.626 68.7211 39.8076 68.4033 39.8061C68.1128 39.8061 67.9403 39.6185 67.9373 39.3355C67.9343 39.051 68.1128 38.8907 68.3927 38.8513Z" fill="white"/>
<path d="M40.0078 61.0197C39.9609 61.2951 39.8202 61.4888 39.5342 61.4903C39.224 61.4903 39.0349 61.3012 39.0394 60.991C39.0439 60.711 39.2195 60.5325 39.5039 60.528C39.8217 60.5234 39.976 60.7186 40.0078 61.0212V61.0197Z" fill="white"/>
<path d="M39.5433 54.2822C39.2407 54.2216 39.0379 54.0855 39.044 53.7874C39.05 53.4681 39.2331 53.2805 39.5584 53.3062C39.8474 53.3289 40.0063 53.515 39.9972 53.8055C39.9882 54.1066 39.7763 54.2216 39.5433 54.2822Z" fill="white"/>
<path d="M40.0033 68.227C39.9685 68.5099 39.8323 68.7006 39.5357 68.7036C39.2104 68.7066 39.0349 68.5145 39.0485 68.1982C39.0621 67.9108 39.2512 67.7413 39.5357 67.7519C39.8187 67.7625 39.9745 67.944 40.0033 68.227Z" fill="white"/>
<path d="M61.2054 38.8468C61.5065 38.8937 61.6971 39.0586 61.6759 39.3734C61.6563 39.6533 61.4656 39.8197 61.1872 39.8107C60.8755 39.8001 60.6985 39.6064 60.7181 39.2947C60.7348 39.0102 60.9284 38.874 61.2069 38.8468H61.2054Z" fill="white"/>
<path d="M82.8946 46.9709C82.6147 46.9588 82.4467 46.8151 82.4452 46.5548C82.4437 46.2946 82.6132 46.1311 82.878 46.1387C83.1065 46.1448 83.2623 46.2825 83.279 46.5246C83.2971 46.7984 83.1458 46.9361 82.8961 46.9724L82.8946 46.9709Z" fill="white"/>
<path d="M47.1559 82.7C47.1301 82.9527 46.9909 83.1024 46.7186 83.0919C46.4765 83.0813 46.3357 82.9315 46.3236 82.7015C46.31 82.4352 46.4704 82.2642 46.7292 82.2596C46.9879 82.2551 47.1377 82.42 47.1544 82.7015L47.1559 82.7Z" fill="white"/>
<path d="M47.1559 39.2992C47.1438 39.5776 47.0061 39.7471 46.7428 39.7486C46.4795 39.7501 46.3236 39.5791 46.3236 39.3189C46.3236 39.0859 46.4689 38.9346 46.705 38.9194C46.9743 38.9013 47.118 39.0511 47.1559 39.3007V39.2992Z" fill="white"/>
<path d="M39.5524 75.888C39.2649 75.8501 39.1045 75.7094 39.1045 75.4461C39.1045 75.2131 39.2407 75.0588 39.4812 75.0452C39.746 75.03 39.9201 75.1723 39.9337 75.4355C39.9488 75.7018 39.7687 75.832 39.5524 75.888Z" fill="white"/>
<path d="M75.6225 39.7562C75.3653 39.7063 75.2155 39.561 75.2321 39.2932C75.2473 39.0526 75.3986 38.9149 75.6331 38.9165C75.8949 38.918 76.0644 39.0738 76.0613 39.3356C76.0583 39.5989 75.8798 39.729 75.621 39.7547L75.6225 39.7562Z" fill="white"/>
<path d="M82.884 75.0361C83.1352 75.0739 83.2941 75.2085 83.2775 75.4824C83.2623 75.7185 83.1186 75.8667 82.8856 75.8743C82.6177 75.8819 82.4543 75.7124 82.4467 75.4582C82.4392 75.1964 82.6117 75.0527 82.8856 75.0345L82.884 75.0361Z" fill="white"/>
<path d="M39.4888 46.9692C39.2376 46.9329 39.0878 46.7876 39.106 46.5198C39.1211 46.2837 39.2694 46.137 39.5055 46.137C39.7642 46.137 39.9382 46.2913 39.9367 46.5546C39.9367 46.8179 39.7672 46.9556 39.4903 46.9692H39.4888Z" fill="white"/>
<path d="M75.223 82.6682C75.2594 82.4034 75.4016 82.2354 75.6694 82.2611C75.9221 82.2853 76.0855 82.4518 76.0613 82.7211C76.0401 82.9557 75.8813 83.0903 75.6467 83.0918C75.3759 83.0918 75.2442 82.9299 75.2246 82.6697L75.223 82.6682Z" fill="white"/>
<path d="M83.2033 39.2901C83.1942 39.5004 83.108 39.6472 82.884 39.6548C82.6692 39.6608 82.5406 39.5443 82.5345 39.3264C82.5285 39.1373 82.6389 39.0253 82.822 39.0011C83.0399 38.9723 83.1609 39.0828 83.2018 39.2901H83.2033Z" fill="white"/>
<path d="M39.8459 82.6894C39.8308 82.9043 39.7037 83.0147 39.4933 83.0117C39.3057 83.0102 39.1922 82.8952 39.1847 82.7091C39.1771 82.5002 39.277 82.355 39.4994 82.3489C39.7173 82.3429 39.8277 82.47 39.8459 82.6879V82.6894Z" fill="white"/>
<path d="M39.8429 39.2571C39.8368 39.528 39.7264 39.6536 39.5009 39.6536C39.3012 39.6536 39.2013 39.5295 39.1847 39.3434C39.168 39.1512 39.2664 39.0226 39.4601 39.0014C39.6764 38.9772 39.8066 39.0877 39.8444 39.2571H39.8429Z" fill="white"/>
<path d="M83.2033 82.6999C83.1731 82.9041 83.0596 83.0282 82.8417 83.0086C82.6616 82.9919 82.5421 82.889 82.5375 82.6969C82.533 82.479 82.6495 82.3534 82.8644 82.3488C83.0853 82.3443 83.1821 82.4865 83.2033 82.6984V82.6999Z" fill="white"/>
</svg>
