<svg xmlns="http://www.w3.org/2000/svg" width="656" height="122" fill="none" xmlns:v="https://vecta.io/nano"><g fill="#fff"><use href="#B"/><path d="M270.277 62.36v3.298h-44.244c.531 5.763 2.237 10.123 5.118 13.08 2.881 2.881 6.786 4.322 11.715 4.322 7.431 0 12.284-3.26 14.559-9.781h11.487c-1.592 5.99-4.701 10.729-9.326 14.217-4.55 3.412-10.199 5.118-16.947 5.118-8.417 0-15.203-2.806-20.36-8.417s-7.734-13.042-7.734-22.293 2.578-16.682 7.734-22.293 11.867-8.417 20.132-8.417c8.644 0 15.469 2.919 20.473 8.758 4.929 5.839 7.393 13.307 7.393 22.406zm-27.866-21.61c-4.474 0-8.151 1.365-11.033 4.095-2.805 2.73-4.549 6.673-5.232 11.829h32.416c-.531-4.777-2.237-8.606-5.118-11.488-2.806-2.957-6.483-4.436-11.033-4.436zm59.344 51.978c-16.302 0-24.871-6.711-25.705-20.132h11.374c.455 4.095 1.782 6.976 3.981 8.644s5.687 2.502 10.464 2.502c8.644 0 12.966-2.73 12.966-8.189 0-2.351-.91-4.17-2.73-5.459s-5.08-2.351-9.781-3.185l-6.028-1.137c-12.436-2.275-18.653-8.113-18.653-17.516 0-5.232 2.009-9.365 6.028-12.397 4.019-3.109 9.554-4.663 16.606-4.663 16.151 0 24.416 6.559 24.795 19.677h-11.033c-.227-3.943-1.441-6.711-3.64-8.303-2.199-1.668-5.573-2.502-10.122-2.502-3.64 0-6.446.683-8.417 2.047s-2.957 3.299-2.957 5.801c0 2.275.872 4.057 2.616 5.346 1.744 1.213 4.511 2.199 8.303 2.957l6.142 1.024c7.203 1.365 12.397 3.412 15.582 6.142s4.777 6.521 4.777 11.374c0 5.687-2.161 10.123-6.483 13.307-4.322 3.109-10.351 4.663-18.085 4.663zm80.464-8.53c-5.383 5.611-12.397 8.417-21.041 8.417s-15.658-2.806-21.042-8.417-8.076-13.042-8.076-22.293c0-9.327 2.692-16.795 8.076-22.407 5.308-5.535 12.322-8.303 21.042-8.303s15.733 2.768 21.041 8.303 7.962 13.004 7.962 22.407c0 9.327-2.654 16.758-7.962 22.293zm-33.666-6.938c3.108 3.715 7.317 5.573 12.625 5.573s9.478-1.858 12.511-5.573c3.109-3.715 4.663-8.834 4.663-15.355s-1.554-11.639-4.663-15.355c-3.033-3.715-7.204-5.573-12.511-5.573s-9.517 1.858-12.625 5.573-4.664 8.834-4.664 15.355 1.555 11.639 4.664 15.355zm81.004-46.065c6.445 0 11.487 1.82 15.127 5.46 3.64 3.564 5.459 8.644 5.459 15.241V91.25H438.77V53.488c0-8.189-4.133-12.284-12.398-12.284-3.791 0-7.203 1.441-10.236 4.322-3.033 2.957-4.55 7.165-4.55 12.625v33.098h-11.374V32.56h10.919v8.758c4.474-6.748 10.616-10.123 18.426-10.123zm83.911 51.297h3.185v8.758c-1.668.228-3.526.341-5.573.341-3.64 0-6.369-.644-8.189-1.933-1.744-1.365-2.806-3.488-3.185-6.369-3.943 6.218-10.312 9.327-19.108 9.327-6.445 0-11.564-1.517-15.355-4.55-3.715-3.109-5.573-7.393-5.573-12.853 0-10.616 7.355-16.682 22.065-18.198l8.644-.91c3.034-.379 5.232-1.137 6.597-2.275 1.441-1.213 2.161-2.919 2.161-5.118 0-2.957-.947-5.08-2.843-6.369-1.82-1.365-4.891-2.047-9.213-2.047-4.701 0-8.075.796-10.123 2.388-2.047 1.517-3.222 4.246-3.526 8.189h-11.26c.834-13.118 9.137-19.677 24.909-19.677 15.469 0 23.203 5.763 23.203 17.288v31.051c0 1.971 1.061 2.957 3.184 2.957zm-31.164 1.251c4.853 0 8.872-1.365 12.056-4.095s4.777-6.597 4.777-11.601v-6.142c-1.44 1.213-3.867 2.009-7.279 2.389l-8.189.91c-4.398.531-7.545 1.592-9.44 3.185-1.896 1.516-2.844 3.678-2.844 6.483s.91 5.005 2.73 6.597c1.895 1.516 4.625 2.275 8.189 2.275zm67.732-51.183v9.327h-11.828v35.259c0 1.744.492 3.033 1.478 3.867 1.062.758 2.806 1.137 5.232 1.137h5.118v9.099l-6.938.341c-5.535 0-9.63-1.062-12.283-3.185s-3.981-5.535-3.981-10.237V41.887h-9.441V32.56h32.643zm55.44 51.638c-5.384 5.611-12.397 8.417-21.042 8.417s-15.658-2.806-21.041-8.417-8.076-13.042-8.076-22.293c0-9.327 2.692-16.795 8.076-22.407 5.308-5.535 12.321-8.303 21.041-8.303s15.734 2.768 21.042 8.303 7.962 13.004 7.962 22.407c0 9.327-2.654 16.758-7.962 22.293zm-33.667-6.938c3.109 3.715 7.318 5.573 12.625 5.573s9.479-1.858 12.512-5.573c3.108-3.715 4.663-8.834 4.663-15.355s-1.555-11.639-4.663-15.355c-3.033-3.715-7.204-5.573-12.512-5.573s-9.516 1.858-12.625 5.573-4.663 8.834-4.663 15.355 1.554 11.639 4.663 15.355z"/><use href="#B" x="443.848"/><path d="M118.768 115.664a2.94 2.94 0 0 1 2.952 2.886c.026 1.634-1.286 2.976-2.916 2.984-1.611.007-2.929-1.28-2.952-2.886a2.94 2.94 0 0 1 2.916-2.984zM13.722 3.374a2.94 2.94 0 0 1-2.939 2.964 2.94 2.94 0 0 1-2.931-2.907C7.842 1.817 9.122.497 10.729.467c1.636-.03 2.978 1.273 2.995 2.905l-.002.002zM18.001.467c1.608.008 2.913 1.31 2.92 2.917.008 1.636-1.315 2.96-2.949 2.952-1.608-.008-2.913-1.312-2.92-2.919C15.046 1.783 16.367.46 18.001.466zm10.121 2.95c-.008 1.631-1.348 2.943-2.981 2.919a2.94 2.94 0 0 1-2.887-2.952c.009-1.633 1.345-2.941 2.981-2.917 1.605.023 2.895 1.341 2.887 2.951zm7.2-.018c.002 1.607-1.295 2.922-2.901 2.937a2.93 2.93 0 0 1-2.967-2.932c-.003-1.607 1.295-2.92 2.901-2.935A2.93 2.93 0 0 1 35.322 3.4zm7.199-.016c.012 1.607-1.277 2.928-2.884 2.954-1.633.027-2.975-1.283-2.985-2.916S37.964.462 39.599.467c1.607.005 2.911 1.304 2.923 2.914l-.002.002zm7.2.007c.006 1.61-1.285 2.925-2.892 2.946a2.94 2.94 0 0 1-2.978-2.923c-.006-1.634 1.32-2.955 2.954-2.946 1.608.009 2.907 1.312 2.914 2.923h.002zm7.199-.004a2.93 2.93 0 0 1-2.947 2.951c-1.608-.009-2.913-1.312-2.92-2.919-.009-1.633 1.315-2.957 2.949-2.951 1.607.006 2.91 1.309 2.919 2.917v.002zm7.2 0c.011 1.608-1.277 2.926-2.886 2.952a2.94 2.94 0 0 1-2.982-2.919C58.244 1.783 59.567.461 61.201.468a2.93 2.93 0 0 1 2.919 2.917zm4.27 2.95a2.94 2.94 0 0 1-2.939-2.963A2.94 2.94 0 0 1 68.385.466a2.93 2.93 0 0 1 2.936 2.963C71.307 5.038 70 6.335 68.39 6.336zm4.262-2.987c.03-1.634 1.382-2.925 3.017-2.882 1.607.042 2.877 1.374 2.851 2.985-.027 1.633-1.377 2.923-3.016 2.882a2.94 2.94 0 0 1-2.852-2.985zM82.804.467c1.631.008 2.942 1.347 2.917 2.982-.024 1.607-1.344 2.898-2.951 2.887a2.94 2.94 0 0 1-2.919-2.982c.023-1.605 1.341-2.895 2.952-2.887zm10.115 2.922c.007 1.61-1.282 2.926-2.889 2.948a2.94 2.94 0 0 1-2.979-2.922C87.045 1.78 88.368.459 90.003.467a2.93 2.93 0 0 1 2.916 2.92v.002z"/><path d="M121.72 75.411a2.934 2.934 0 1 1-5.868-.023 2.94 2.94 0 0 1 2.915-2.925c1.634-.009 2.956 1.31 2.953 2.946v.002zM6.522 75.375c.015 1.608-1.273 2.929-2.879 2.958-1.636.029-2.978-1.276-2.99-2.908s1.304-2.961 2.94-2.96c1.604 0 2.914 1.303 2.928 2.911l.002-.002zM114.521 3.389c.004 1.637-1.318 2.958-2.951 2.948-1.607-.011-2.911-1.316-2.916-2.922-.006-1.636 1.317-2.955 2.952-2.948 1.607.008 2.912 1.315 2.916 2.922h-.001zm7.199.015c-.003 1.634-1.336 2.951-2.967 2.932a2.94 2.94 0 0 1-2.901-2.938c0-1.633 1.33-2.946 2.968-2.931 1.603.015 2.902 1.33 2.9 2.937z"/><path d="M.653 10.571C.671 8.936 2.01 7.639 3.649 7.668c1.604.029 2.889 1.354 2.873 2.964-.017 1.631-1.363 2.937-2.996 2.904a2.94 2.94 0 0 1-2.873-2.964zm2.965 74.962A2.93 2.93 0 0 1 .653 82.6c0-1.61 1.297-2.92 2.902-2.936a2.94 2.94 0 0 1 2.967 2.934c0 1.607-1.297 2.919-2.904 2.932v.001zm14.347-71.996c-1.631-.012-2.94-1.356-2.911-2.988.029-1.607 1.347-2.89 2.958-2.879a2.93 2.93 0 0 1 2.911 2.926c0 1.636-1.325 2.955-2.958 2.943v-.002zm86.434-5.869c1.609.006 2.913 1.307 2.922 2.916a2.93 2.93 0 0 1-2.946 2.954c-1.631-.006-2.944-1.344-2.922-2.978a2.93 2.93 0 0 1 2.946-2.89v-.002zm10.122 2.917c.009 1.634-1.315 2.96-2.948 2.952a2.94 2.94 0 0 1-2.92-2.919c-.009-1.607 1.286-2.931 2.887-2.951a2.93 2.93 0 0 1 2.981 2.917zm7.199.027a2.93 2.93 0 0 1-2.913 2.925 2.94 2.94 0 0 1-2.955-2.944c.005-1.631 1.342-2.945 2.977-2.923a2.93 2.93 0 0 1 2.891 2.945v-.002zm0 71.97a2.934 2.934 0 1 1-5.868.036c-.007-1.634 1.314-2.958 2.948-2.952 1.607.006 2.91 1.307 2.92 2.917v-.001zm-2.907-11.448a2.93 2.93 0 0 1-2.961-2.937 2.94 2.94 0 0 1 2.907-2.931c1.631-.015 2.963 1.306 2.961 2.939-.001 1.608-1.3 2.917-2.907 2.929zM6.522 68.203c-.002 1.633-1.333 2.948-2.969 2.931-1.607-.017-2.9-1.324-2.9-2.937a2.94 2.94 0 0 1 2.967-2.932 2.94 2.94 0 0 1 2.901 2.938h.002zM121.72 89.816c-.007 1.634-1.342 2.94-2.981 2.916-1.607-.023-2.896-1.341-2.887-2.949.009-1.633 1.347-2.942 2.983-2.917a2.93 2.93 0 0 1 2.885 2.951zM6.522 96.979c.012 1.609-1.276 2.926-2.884 2.954C2.004 99.96.662 98.651.653 97.02c-.009-1.613 1.277-2.929 2.883-2.954 1.636-.024 2.973 1.282 2.985 2.914l.002-.002zm112.257 2.954c-1.61-.003-2.916-1.303-2.927-2.91-.01-1.634 1.309-2.961 2.942-2.957a2.934 2.934 0 1 1-.017 5.868l.002-.001zm2.941-38.945a2.93 2.93 0 0 1-2.89 2.946c-1.636.023-2.972-1.288-2.978-2.922s1.321-2.958 2.952-2.947c1.609.011 2.909 1.313 2.916 2.922v.002zM6.522 60.975c.015 1.608-1.271 2.931-2.878 2.96-1.636.03-2.978-1.276-2.991-2.907-.014-1.61 1.27-2.931 2.876-2.961 1.634-.03 2.978 1.276 2.993 2.908zm-2.917 40.29a2.94 2.94 0 0 1 2.917 2.921 2.93 2.93 0 0 1-2.952 2.947c-1.607-.007-2.911-1.312-2.917-2.919a2.93 2.93 0 0 1 2.951-2.947l.002-.002zm7.207 5.867a2.93 2.93 0 0 1-2.958-2.939c.003-1.608 1.3-2.914 2.91-2.927 1.631-.014 2.963 1.308 2.958 2.94a2.93 2.93 0 0 1-2.91 2.926zm100.764-5.868c1.636-.003 2.954 1.318 2.945 2.955-.009 1.607-1.317 2.91-2.924 2.913-1.635.004-2.955-1.321-2.944-2.954.01-1.607 1.318-2.911 2.923-2.914zM3.516 20.735c-1.63-.036-2.914-1.4-2.861-3.037.051-1.604 1.392-2.867 3.005-2.831 1.628.036 2.916 1.401 2.861 3.037-.053 1.604-1.394 2.867-3.005 2.831zm7.258-5.868c1.634-.008 2.955 1.316 2.948 2.952-.008 1.605-1.312 2.908-2.922 2.916s-2.925-1.286-2.946-2.892c-.021-1.636 1.288-2.97 2.92-2.978v.002zm100.825 0c1.607.006 2.911 1.309 2.92 2.917.009 1.634-1.312 2.958-2.946 2.952s-2.944-1.344-2.922-2.978c.021-1.605 1.339-2.896 2.948-2.89v-.002zm7.183 0c1.634-.002 2.95 1.324 2.938 2.96-.012 1.607-1.321 2.907-2.928 2.908-1.634 0-2.95-1.324-2.94-2.96.011-1.604 1.323-2.907 2.93-2.908zm-.017 92.265c-1.608-.011-2.91-1.317-2.913-2.923-.004-1.635 1.321-2.954 2.955-2.945a2.93 2.93 0 0 1 2.913 2.985c-.026 1.607-1.343 2.893-2.955 2.883z"/><path d="M118.783 50.866c1.606-.003 2.919 1.294 2.937 2.901.018 1.634-1.297 2.966-2.931 2.969-1.608.003-2.92-1.292-2.937-2.899-.016-1.634 1.299-2.966 2.931-2.969v-.002zM6.524 53.783c.011 1.608-1.28 2.928-2.887 2.951a2.93 2.93 0 0 1-2.982-2.916A2.93 2.93 0 0 1 3.6 50.866c1.607.006 2.913 1.31 2.922 2.917h.002zm-.002 57.602a2.93 2.93 0 0 1-2.952 2.947c-1.607-.008-2.911-1.312-2.917-2.919s1.283-2.928 2.889-2.948c1.636-.021 2.973 1.289 2.979 2.92h.002zm4.288 2.948c-1.634.012-2.96-1.307-2.957-2.942.003-1.605 1.307-2.917 2.911-2.926a2.94 2.94 0 0 1 2.957 2.944c-.005 1.609-1.304 2.915-2.913 2.925l.002-.001zm107.979-70.668c1.633 0 2.946 1.331 2.931 2.969a2.933 2.933 0 1 1-5.866-.068 2.94 2.94 0 0 1 2.937-2.902l-.002.002z"/><path d="M6.522 46.599a2.93 2.93 0 0 1-2.963 2.935C1.952 49.522.656 48.215.653 46.603a2.94 2.94 0 0 1 2.901-2.937c1.633-.017 2.966 1.3 2.967 2.934l.002-.002zm14.399 64.815a2.935 2.935 0 1 1-5.869-.03c.006-1.606 1.313-2.915 2.919-2.919 1.636-.006 2.955 1.313 2.951 2.949zm86.399 0c-.008 1.608-1.309 2.911-2.918 2.919-1.635.007-2.956-1.315-2.949-2.949a2.94 2.94 0 0 1 2.919-2.919 2.93 2.93 0 0 1 2.948 2.951v-.002zm1.333.007c-.012-1.608 1.277-2.93 2.881-2.956 1.637-.026 2.975 1.277 2.987 2.911.012 1.611-1.274 2.931-2.88 2.957a2.93 2.93 0 0 1-2.987-2.912h-.001zm10.147-2.956a2.934 2.934 0 1 1-.027 5.868 2.93 2.93 0 0 1-2.921-2.978 2.94 2.94 0 0 1 2.948-2.89zm.001-71.998c1.607.006 2.912 1.31 2.919 2.919a2.93 2.93 0 0 1-2.947 2.95c-1.606-.006-2.913-1.312-2.919-2.917-.006-1.636 1.315-2.958 2.949-2.951l-.002-.002zM3.602 42.335C1.993 42.344.674 41.05.653 39.446c-.021-1.639 1.286-2.973 2.919-2.981 1.61-.008 2.926 1.283 2.949 2.889.023 1.636-1.286 2.972-2.919 2.981zm.001 79.199c-1.608.007-2.926-1.282-2.949-2.889-.024-1.635 1.286-2.973 2.919-2.981a2.94 2.94 0 0 1 2.951 2.951 2.94 2.94 0 0 1-2.92 2.919zM118.86 22.067c1.604.035 2.881 1.365 2.86 2.976-.021 1.631-1.374 2.932-3.006 2.892-1.609-.039-2.883-1.365-2.862-2.976.021-1.631 1.37-2.928 3.007-2.891h.001zM13.722 118.603c0 1.605-1.301 2.916-2.908 2.929-1.634.014-2.963-1.306-2.96-2.938.002-1.609 1.301-2.917 2.908-2.93 1.634-.012 2.961 1.305 2.961 2.939h-.002zm4.289-2.939c1.631.013 2.937 1.355 2.91 2.99-.027 1.606-1.35 2.892-2.96 2.878-1.631-.013-2.939-1.355-2.91-2.99.029-1.605 1.35-2.89 2.96-2.878zm10.111 2.918c.011 1.634-1.31 2.956-2.948 2.952-1.605-.005-2.914-1.312-2.92-2.916-.006-1.637 1.312-2.957 2.948-2.952a2.93 2.93 0 0 1 2.92 2.916zm7.2.018c0 1.607-1.298 2.919-2.904 2.932-1.636.014-2.966-1.301-2.964-2.934 0-1.608 1.3-2.918 2.905-2.932 1.636-.014 2.963 1.3 2.964 2.935l-.002-.001zm4.277 2.932c-1.607.006-2.926-1.287-2.946-2.891-.021-1.634 1.291-2.971 2.922-2.978s2.957 1.319 2.946 2.954c-.009 1.606-1.315 2.908-2.922 2.915zm10.122-2.918c-.008 1.608-1.31 2.912-2.917 2.919a2.94 2.94 0 0 1-2.951-2.95c.009-1.63 1.347-2.941 2.981-2.918a2.93 2.93 0 0 1 2.887 2.949zm61.893-2.95c1.607.013 2.905 1.321 2.907 2.93a2.934 2.934 0 0 1-5.868.009c0-1.634 1.325-2.951 2.961-2.939zm-4.294 2.927c.007 1.607-1.291 2.925-2.895 2.941a2.93 2.93 0 0 1-2.972-2.926c-.003-1.61 1.289-2.922 2.895-2.941a2.93 2.93 0 0 1 2.972 2.926zm-7.2.01a2.93 2.93 0 0 1-2.905 2.931c-1.636.014-2.963-1.302-2.963-2.937s1.335-2.947 2.969-2.93a2.93 2.93 0 0 1 2.899 2.936zm-10.133-2.937a2.934 2.934 0 1 1 0 5.867c-1.61 0-2.92-1.297-2.934-2.902-.014-1.636 1.301-2.966 2.934-2.966v.001zm-4.267 2.922a2.934 2.934 0 0 1-5.868.026c-.006-1.633 1.318-2.955 2.952-2.948 1.607.008 2.911 1.315 2.916 2.922zm-10.081-2.922c1.631.026 2.922 1.379 2.881 3.017-.041 1.606-1.371 2.875-2.985 2.851-1.631-.026-2.923-1.38-2.881-3.017.042-1.604 1.376-2.876 2.986-2.851zm-7.322 5.868c-1.605-.036-2.889-1.366-2.866-2.971a2.94 2.94 0 0 1 3.005-2.896c1.63.034 2.914 1.395 2.863 3.035-.05 1.602-1.392 2.87-3.002 2.832zm-4.197-2.958c.014 1.609-1.27 2.929-2.878 2.958-1.633.031-2.979-1.281-2.99-2.909a2.94 2.94 0 0 1 2.941-2.96 2.93 2.93 0 0 1 2.926 2.91v.001zm-7.2.099c-.036 1.605-1.363 2.882-2.975 2.861-1.63-.021-2.932-1.376-2.892-3.007a2.94 2.94 0 0 1 3.038-2.86c1.604.052 2.864 1.393 2.828 3.007v-.001zm64.8-86.478c.003 1.634-1.325 2.955-2.958 2.941-1.607-.014-2.908-1.322-2.91-2.928a2.94 2.94 0 0 1 2.96-2.941c1.607.012 2.907 1.321 2.908 2.928zM3.585 35.135C1.977 35.134.662 33.831.653 32.23c-.008-1.642 1.304-2.966 2.937-2.964s2.951 1.336 2.932 2.969a2.94 2.94 0 0 1-2.937 2.902v-.002zM107.32 3.384c.01 1.608-1.279 2.929-2.884 2.954-1.635.024-2.977-1.288-2.984-2.916a2.93 2.93 0 1 1 5.866-.036l.002-.002zM10.801 13.536c-1.608.008-2.926-1.285-2.948-2.89a2.93 2.93 0 0 1 2.92-2.979c1.604-.012 2.925 1.283 2.949 2.889a2.94 2.94 0 0 1-2.922 2.979v.002zM6.522 89.831c-.017 1.634-1.356 2.931-2.998 2.902C1.92 92.704.629 91.373.652 89.77a2.93 2.93 0 0 1 2.996-2.902 2.94 2.94 0 0 1 2.873 2.964v-.002zM3.583 6.336C1.951 6.336.64 5.009.652 3.367.666 1.765 1.979.467 3.591.467a2.93 2.93 0 0 1 2.932 2.905 2.94 2.94 0 0 1-2.939 2.963l-.002.002zm93.6-5.869c1.609-.003 2.924 1.297 2.936 2.901a2.93 2.93 0 0 1-2.93 2.969c-1.631.002-2.951-1.329-2.937-2.963A2.93 2.93 0 0 1 97.185.468l-.002-.002z"/><path d="M6.522 24.978c.012 1.61-1.276 2.932-2.879 2.958-1.64.024-2.972-1.271-2.99-2.911-.018-1.627 1.309-2.961 2.942-2.958 1.608.003 2.916 1.303 2.928 2.91v.002zm18.63 89.329c-1.619-.014-2.886-1.312-2.872-2.942a2.88 2.88 0 0 1 2.942-2.871c1.619.013 2.884 1.31 2.87 2.941-.014 1.619-1.31 2.884-2.942 2.87l.002.002zM10.768 29.295a2.88 2.88 0 0 1 2.923 2.889 2.88 2.88 0 0 1-2.889 2.923 2.88 2.88 0 0 1-2.925-2.889c-.009-1.625 1.268-2.916 2.889-2.925l.001.002zm103.727-4.261c-.012 1.619-1.307 2.886-2.94 2.872a2.88 2.88 0 0 1-2.873-2.94c.013-1.618 1.311-2.887 2.94-2.873 1.617.014 2.885 1.31 2.873 2.941zM10.78 27.907a2.88 2.88 0 0 1-2.901-2.913c.003-1.622 1.289-2.904 2.913-2.901a2.88 2.88 0 0 1 2.899 2.913c-.002 1.624-1.286 2.904-2.911 2.899v.002zm2.913 47.506a2.88 2.88 0 0 1-2.917 2.895c-1.622-.005-2.901-1.292-2.896-2.917a2.88 2.88 0 0 1 2.919-2.895c1.621.003 2.899 1.292 2.895 2.919v-.002zm86.401 36.012c-.01 1.622-1.299 2.891-2.929 2.882a2.88 2.88 0 0 1-2.884-2.929c.011-1.622 1.304-2.895 2.929-2.884a2.88 2.88 0 0 1 2.883 2.931h.001zm-10.127 2.882a2.88 2.88 0 0 1-2.887-2.926c.008-1.621 1.298-2.893 2.928-2.887a2.907 2.907 0 1 1-.041 5.813zm-4.273-2.869c-.015 1.621-1.313 2.886-2.943 2.869-1.621-.015-2.884-1.31-2.869-2.943a2.906 2.906 0 0 1 5.812.074zm-10.132 2.869c-1.622-.01-2.892-1.301-2.881-2.93a2.907 2.907 0 0 1 5.813.051c-.009 1.619-1.303 2.891-2.932 2.881v-.002zm38.931-38.893c-.004 1.624-1.29 2.896-2.918 2.892a2.88 2.88 0 0 1-2.893-2.92c.006-1.622 1.295-2.899 2.92-2.893a2.88 2.88 0 0 1 2.891 2.92v.002z"/><path d="M114.493 32.206c-.001 1.625-1.283 2.902-2.911 2.901s-2.902-1.285-2.9-2.911a2.88 2.88 0 1 1 5.811.011zm-103.726 10.1a2.88 2.88 0 0 1-2.886-2.926 2.88 2.88 0 0 1 2.926-2.886 2.88 2.88 0 0 1 2.886 2.926 2.88 2.88 0 0 1-2.926 2.886zm100.797.001a2.88 2.88 0 0 1-2.883-2.931c.011-1.621 1.303-2.892 2.933-2.883a2.88 2.88 0 0 1 2.881 2.932c-.011 1.622-1.301 2.892-2.931 2.881zm-83.471-31.68a2.88 2.88 0 0 1-2.934 2.879 2.88 2.88 0 0 1-2.879-2.934c.011-1.619 1.307-2.892 2.934-2.879 1.62.012 2.89 1.307 2.878 2.935l.002-.002zm-14.4 71.979a2.88 2.88 0 0 1-2.911 2.901 2.907 2.907 0 1 1 .012-5.813c1.624.003 2.901 1.286 2.901 2.913h-.002zm57.6 28.82a2.88 2.88 0 0 1-2.931 2.881c-1.621-.009-2.892-1.302-2.881-2.93.011-1.62 1.304-2.892 2.932-2.881a2.88 2.88 0 0 1 2.881 2.932l-.001-.002zm-10.144 2.881c-1.617-.014-2.885-1.315-2.869-2.943.017-1.619 1.315-2.884 2.945-2.869a2.88 2.88 0 0 1 2.869 2.945c-.014 1.619-1.31 2.882-2.943 2.868l-.002-.001zm-4.256-2.881a2.88 2.88 0 0 1-2.931 2.881c-1.62-.01-2.893-1.304-2.883-2.931.011-1.62 1.303-2.888 2.932-2.88a2.88 2.88 0 0 1 2.881 2.93zm-7.2-.036a2.88 2.88 0 0 1-2.895 2.917 2.88 2.88 0 0 1-2.919-2.894c-.005-1.625 1.274-2.914 2.895-2.919a2.88 2.88 0 0 1 2.917 2.895l.002.001zm-10.1-2.895a2.88 2.88 0 0 1 2.899 2.913c-.003 1.625-1.285 2.902-2.911 2.899a2.88 2.88 0 0 1-2.901-2.911c.003-1.623 1.288-2.902 2.913-2.901zm-4.3 2.934c-.011 1.623-1.304 2.891-2.934 2.878a2.88 2.88 0 0 1-2.879-2.934c.014-1.62 1.307-2.89 2.936-2.879a2.88 2.88 0 0 1 2.878 2.935zm0-100.818a2.88 2.88 0 0 1-2.916 2.896 2.88 2.88 0 0 1-2.896-2.916 2.88 2.88 0 0 1 2.916-2.896 2.88 2.88 0 0 1 2.896 2.917v-.002zm79.202 72.027a2.88 2.88 0 0 1-2.943 2.869c-1.619-.015-2.883-1.312-2.869-2.945.014-1.616 1.315-2.886 2.945-2.869 1.617.015 2.884 1.315 2.868 2.945h-.001zm-2.896-17.343a2.906 2.906 0 0 1-.023 5.812 2.88 2.88 0 0 1-2.896-2.917c.006-1.623 1.292-2.899 2.917-2.896l.002.002zm-97.906 2.896a2.88 2.88 0 0 1-2.895 2.917 2.907 2.907 0 0 1-.021-5.813 2.88 2.88 0 0 1 2.917 2.896h-.002zm100.802-14.373a2.906 2.906 0 1 1-5.812-.035 2.906 2.906 0 1 1 5.812.035zM39.569 13.507a2.88 2.88 0 0 1-2.889-2.923c.006-1.621 1.298-2.896 2.925-2.89 1.621.006 2.896 1.298 2.889 2.925a2.88 2.88 0 0 1-2.923 2.889h-.002z"/><path d="M46.791 13.507a2.88 2.88 0 0 1-2.91-2.902 2.88 2.88 0 0 1 2.904-2.91 2.88 2.88 0 0 1 2.908 2.902 2.88 2.88 0 0 1-2.902 2.91zM10.782 43.695a2.88 2.88 0 0 1 2.911 2.901 2.88 2.88 0 0 1-2.901 2.911 2.88 2.88 0 0 1-2.911-2.901 2.88 2.88 0 0 1 2.902-2.911h-.002zm100.771 5.812a2.88 2.88 0 0 1-2.871-2.942 2.88 2.88 0 0 1 2.941-2.87c1.619.014 2.884 1.31 2.872 2.941a2.88 2.88 0 0 1-2.942 2.87zm-97.86 40.35c-.023 1.616-1.325 2.87-2.963 2.849-1.613-.021-2.873-1.33-2.851-2.963.023-1.615 1.332-2.873 2.964-2.849 1.616.023 2.872 1.328 2.849 2.963zm100.802-.033a2.906 2.906 0 1 1-5.812-.044c.011-1.621 1.303-2.895 2.929-2.884a2.88 2.88 0 0 1 2.884 2.929l-.001-.002zM56.893 10.633c-.012 1.619-1.306 2.886-2.938 2.873a2.88 2.88 0 0 1-2.873-2.938c.014-1.619 1.31-2.887 2.94-2.873 1.619.012 2.886 1.309 2.872 2.94v-.002zm-43.2 43.156a2.88 2.88 0 0 1-2.895 2.917 2.88 2.88 0 0 1-2.919-2.895c-.005-1.627 1.274-2.914 2.896-2.919a2.88 2.88 0 0 1 2.917 2.896zm50.401-43.198a2.88 2.88 0 1 1-5.812.02 2.906 2.906 0 0 1 5.812-.02zM13.693 97.035a2.88 2.88 0 0 1-2.94 2.872 2.88 2.88 0 0 1-2.873-2.94c.014-1.617 1.31-2.885 2.94-2.873a2.88 2.88 0 0 1 2.872 2.94l.002.001zm100.802-.001a2.88 2.88 0 0 1-2.939 2.872c-1.619-.014-2.887-1.31-2.873-2.94.014-1.619 1.312-2.887 2.94-2.873a2.88 2.88 0 0 1 2.872 2.94v.002zm-2.91-33.127a2.907 2.907 0 0 1 .006-5.813 2.88 2.88 0 0 1 2.902 2.91c0 1.625-1.286 2.907-2.909 2.902l.001.001z"/><path d="M13.693 60.975c.011 1.63-1.259 2.923-2.879 2.932a2.88 2.88 0 0 1-2.934-2.879c-.011-1.627 1.26-2.922 2.881-2.934a2.88 2.88 0 0 1 2.932 2.881zM68.399 7.693a2.88 2.88 0 0 1 2.895 2.917 2.88 2.88 0 0 1-2.917 2.895c-1.622-.005-2.901-1.292-2.896-2.917A2.88 2.88 0 0 1 68.4 7.692v.002zm10.095 2.898a2.906 2.906 0 1 1-5.812.02c-.003-1.625 1.276-2.913 2.898-2.917s2.911 1.276 2.916 2.898h-.002zm18.691-2.898a2.88 2.88 0 0 1 2.909 2.902 2.88 2.88 0 1 1-5.813.008 2.88 2.88 0 0 1 2.902-2.911l.002.002zm-14.423 5.812a2.88 2.88 0 0 1-2.881-2.931c.012-1.62 1.303-2.888 2.934-2.881a2.88 2.88 0 0 1 2.88 2.932c-.011 1.622-1.301 2.889-2.933 2.879zm10.131-2.9a2.906 2.906 0 1 1-5.812-.008c0-1.622 1.286-2.905 2.91-2.904a2.88 2.88 0 0 1 2.902 2.91v.002zm14.363 7.211a2.85 2.85 0 0 1-2.898 2.848c-1.566-.012-2.828-1.282-2.831-2.852a2.85 2.85 0 0 1 2.868-2.876 2.84 2.84 0 0 1 2.861 2.883v-.002zm-92.136-.05c.011-1.595 1.301-2.849 2.911-2.833 1.59.017 2.84 1.315 2.818 2.928-.023 1.563-1.303 2.808-2.881 2.802-1.599-.006-2.858-1.288-2.848-2.898zm5.73 86.424a2.85 2.85 0 0 1-2.867 2.878 2.84 2.84 0 0 1-2.861-2.881 2.85 2.85 0 0 1 2.836-2.847c1.604-.011 2.89 1.256 2.895 2.852l-.002-.002zm83.567-2.852c1.597.009 2.853 1.297 2.839 2.907-.015 1.593-1.309 2.843-2.922 2.822-1.564-.021-2.811-1.297-2.808-2.875.003-1.595 1.288-2.864 2.891-2.854zm-.007-1.62c-1.507.002-2.715-1.207-2.71-2.715a2.7 2.7 0 0 1 2.73-2.695c1.481.014 2.667 1.203 2.678 2.684.01 1.507-1.194 2.724-2.698 2.725zm-7.215-84.633a2.705 2.705 0 1 1 .042 5.409 2.7 2.7 0 0 1-.043-5.41zm.015 91.835a2.7 2.7 0 0 1-2.715-2.711 2.705 2.705 0 1 1 5.409-.018 2.7 2.7 0 0 1-2.695 2.729zm-72.063 0a2.7 2.7 0 0 1-2.675-2.751c.023-1.499 1.259-2.688 2.766-2.66 1.474.029 2.654 1.243 2.645 2.719-.009 1.508-1.227 2.706-2.736 2.691v.001zm79.275-84.634c1.5.008 2.701 1.232 2.687 2.739-.013 1.5-1.246 2.695-2.754 2.671-1.475-.023-2.66-1.23-2.657-2.707.003-1.504 1.218-2.71 2.724-2.704v.002zM17.971 99.718a2.7 2.7 0 0 1-2.701-2.724c.011-1.478 1.201-2.672 2.678-2.686a2.705 2.705 0 1 1 .023 5.409zM15.27 24.981a2.7 2.7 0 0 1 2.731-2.695c1.498.011 2.699 1.244 2.678 2.748a2.705 2.705 0 1 1-5.409-.053zm9.914-9.897c1.506.003 2.709 1.22 2.698 2.728a2.706 2.706 0 1 1-5.411-.015 2.7 2.7 0 0 1 2.713-2.713zm-4.658 17.113a2.53 2.53 0 0 1-2.551 2.556c-1.427 0-2.568-1.127-2.575-2.541-.008-1.448 1.145-2.599 2.591-2.589a2.54 2.54 0 0 1 2.536 2.574zm11.862 69.468a2.54 2.54 0 0 1 2.553 2.559 2.55 2.55 0 0 1-2.545 2.569 2.56 2.56 0 0 1-2.586-2.595 2.54 2.54 0 0 1 2.578-2.533zm69.463-69.495c.008-1.422 1.14-2.547 2.565-2.547a2.56 2.56 0 0 1 2.563 2.616 2.55 2.55 0 0 1-2.599 2.513 2.54 2.54 0 0 1-2.527-2.583h-.002zm-11.858 69.494c1.422-.008 2.563 1.112 2.578 2.534s-1.108 2.574-2.522 2.594c-1.447.021-2.61-1.123-2.61-2.57a2.54 2.54 0 0 1 2.553-2.558h.002zm.039-81.324c-1.431.009-2.575-1.102-2.592-2.516a2.566 2.566 0 0 1 5.132-.051 2.54 2.54 0 0 1-2.539 2.569l-.002-.002zM20.526 89.828c0 1.425-1.132 2.557-2.553 2.556s-2.563-1.13-2.572-2.544c-.009-1.447 1.141-2.596 2.591-2.587 1.418.009 2.536 1.144 2.534 2.575zm81.325.002c-.004-1.43 1.114-2.566 2.535-2.578 1.446-.012 2.602 1.141 2.593 2.584a2.55 2.55 0 0 1-2.569 2.547c-1.425-.005-2.556-1.13-2.559-2.553zM32.383 20.34c-1.428.003-2.563-1.115-2.574-2.536-.011-1.445 1.142-2.596 2.589-2.589a2.55 2.55 0 0 1 2.541 2.574 2.53 2.53 0 0 1-2.556 2.551zm74.543 33.459c.002 1.41-1.107 2.521-2.513 2.518s-2.518-1.118-2.518-2.518a2.5 2.5 0 0 1 2.518-2.518 2.49 2.49 0 0 1 2.513 2.518zm-50.422 50.42a2.49 2.49 0 0 1-2.512 2.521c-1.412 0-2.524-1.105-2.524-2.507s1.111-2.521 2.512-2.524 2.519 1.109 2.524 2.51zm4.695-88.954a2.49 2.49 0 0 1 2.506 2.527 2.5 2.5 0 0 1-2.527 2.507 2.51 2.51 0 0 1-2.509-2.527c.003-1.403 1.12-2.509 2.529-2.506l.002-.002zM17.971 51.281c1.4.002 2.515 1.118 2.515 2.521a2.5 2.5 0 0 1-2.519 2.515c-1.409-.003-2.513-1.111-2.513-2.519a2.49 2.49 0 0 1 2.518-2.515v-.002zm60.141 52.952a2.48 2.48 0 0 1-2.522 2.505c-1.418-.009-2.513-1.109-2.51-2.522.004-1.398 1.124-2.512 2.525-2.51s2.506 1.112 2.507 2.525v.002zm26.287-24.137c1.414-.005 2.515 1.088 2.527 2.506a2.47 2.47 0 0 1-2.499 2.525c-1.415.002-2.529-1.099-2.532-2.501s1.108-2.525 2.506-2.53h-.002zM20.485 60.993a2.5 2.5 0 0 1-2.507 2.525c-1.409.003-2.524-1.103-2.526-2.507 0-1.412 1.103-2.525 2.506-2.528s2.524 1.112 2.527 2.509v.002zm47.921 40.714c1.403.003 2.504 1.118 2.503 2.532a2.48 2.48 0 0 1-2.528 2.499 2.49 2.49 0 0 1-2.506-2.527c.008-1.398 1.129-2.507 2.531-2.504zm14.38 5.031c-1.416-.012-2.507-1.115-2.503-2.53.004-1.395 1.13-2.507 2.533-2.502a2.49 2.49 0 0 1 2.498 2.533c-.005 1.415-1.114 2.51-2.528 2.498v.001zM49.3 104.224c.005 1.405-1.108 2.514-2.518 2.513a2.49 2.49 0 0 1-2.518-2.512c0-1.401 1.117-2.519 2.516-2.518s2.515 1.112 2.519 2.517zm55.108-26.299c-1.411-.006-2.516-1.112-2.513-2.519.003-1.4 1.12-2.512 2.522-2.513 1.408 0 2.509 1.106 2.511 2.522s-1.105 2.515-2.518 2.509l-.002.001z"/><path d="M20.485 46.617c-.006 1.395-1.135 2.506-2.539 2.497s-2.506-1.132-2.495-2.541a2.49 2.49 0 0 1 2.538-2.495c1.395.006 2.501 1.132 2.497 2.538v.002zm86.441 21.598a2.48 2.48 0 0 1-2.522 2.506c-1.409-.006-2.513-1.117-2.51-2.522.003-1.398 1.124-2.512 2.525-2.51s2.504 1.111 2.506 2.527h.001zm-52.95-52.95c1.407-.006 2.521 1.099 2.528 2.506a2.5 2.5 0 0 1-2.507 2.527c-1.404.003-2.524-1.109-2.528-2.507-.005-1.407 1.102-2.521 2.507-2.527v.002zm-7.167 5.034c-1.41.006-2.538-1.097-2.544-2.49-.008-1.415 1.085-2.53 2.491-2.542s2.538 1.09 2.547 2.489c.009 1.407-1.098 2.537-2.492 2.543h-.002zm-7.231-5.034c1.407 0 2.516 1.111 2.518 2.516s-1.118 2.518-2.518 2.516-2.518-1.118-2.516-2.518c0-1.407 1.111-2.516 2.516-2.516v.002zm64.835 48.253c-1.409-.003-2.518-1.112-2.518-2.515s1.117-2.518 2.516-2.519a2.49 2.49 0 0 1 2.514 2.518c.003 1.41-1.105 2.519-2.514 2.516h.002zm-83.928 4.738c-.017 1.395-1.153 2.487-2.566 2.466-1.403-.02-2.488-1.148-2.466-2.565.021-1.397 1.155-2.487 2.565-2.469 1.389.018 2.485 1.157 2.468 2.566v.001zm0 14.362a2.49 2.49 0 0 1-2.521 2.51 2.48 2.48 0 0 1-2.51-2.518c.002-1.407 1.112-2.515 2.518-2.513 1.398 0 2.515 1.121 2.513 2.521zm50.424-64.859c.011 1.409-1.093 2.531-2.492 2.539a2.51 2.51 0 0 1-2.54-2.494 2.5 2.5 0 0 1 2.495-2.537c1.412-.011 2.528 1.085 2.537 2.492z"/><path d="M106.926 39.369c.009 1.415-1.086 2.533-2.49 2.54s-2.533-1.101-2.541-2.495c-.007-1.406 1.099-2.531 2.495-2.539 1.417-.008 2.527 1.085 2.536 2.494zm-88.939-2.493c1.395.005 2.501 1.129 2.497 2.536-.005 1.395-1.132 2.506-2.536 2.498s-2.503-1.127-2.497-2.537c.008-1.403 1.123-2.503 2.536-2.497zm21.623 64.831c1.394.011 2.497 1.141 2.486 2.55-.009 1.398-1.135 2.494-2.55 2.481-1.407-.013-2.495-1.127-2.485-2.545.011-1.395 1.139-2.496 2.548-2.486zm43.179-81.408c-1.397-.005-2.51-1.129-2.506-2.53s1.12-2.507 2.53-2.504 2.507 1.115 2.501 2.527a2.49 2.49 0 0 1-2.525 2.506v.002zm-21.594 86.439a2.49 2.49 0 0 1-2.524-2.508c0-1.401 1.114-2.52 2.513-2.523a2.5 2.5 0 0 1 2.521 2.512 2.48 2.48 0 0 1-2.51 2.518v.001zm43.245-57.625c-1.41.006-2.534-1.096-2.545-2.491-.009-1.406 1.096-2.535 2.489-2.544 1.416-.009 2.529 1.08 2.541 2.489s-1.088 2.539-2.486 2.545h.001zM78.112 17.801c-.008 1.404-1.126 2.506-2.533 2.498-1.398-.008-2.503-1.13-2.498-2.536.005-1.398 1.127-2.503 2.538-2.495s2.503 1.121 2.495 2.534l-.002-.002zM17.984 77.925a2.49 2.49 0 0 1-2.532-2.5c-.003-1.412 1.099-2.528 2.5-2.534s2.527 1.106 2.533 2.503c.006 1.407-1.097 2.524-2.501 2.531zm79.174 21.372c-1.277-.036-2.242-1.073-2.2-2.359.041-1.232 1.076-2.194 2.332-2.168 1.262.026 2.232 1.071 2.192 2.364-.039 1.25-1.059 2.199-2.324 2.164z"/><path d="M99.485 24.961a2.25 2.25 0 0 1-2.218 2.28c-1.28.017-2.306-.985-2.311-2.255a2.24 2.24 0 0 1 2.221-2.276 2.23 2.23 0 0 1 2.306 2.249l.002.002zm-74.336-2.248c1.256-.005 2.261.975 2.277 2.22.017 1.277-.987 2.306-2.256 2.309-1.28.003-2.28-1.003-2.273-2.288a2.22 2.22 0 0 1 2.252-2.241zm2.279 74.349a2.24 2.24 0 0 1-2.262 2.232 2.22 2.22 0 0 1-2.267-2.285 2.24 2.24 0 0 1 2.258-2.239c1.272-.002 2.28 1.015 2.271 2.292zm33.78-33.857a2.19 2.19 0 0 1-2.217-2.182c-.009-1.22.965-2.209 2.184-2.217a2.2 2.2 0 1 1 .033 4.399zm-7.231-4.4a2.19 2.19 0 1 1 .014 4.399 2.2 2.2 0 1 1-.014-4.4v.002zm9.415-4.999c-.005 1.23-.993 2.205-2.221 2.191a2.198 2.198 0 1 1 .014-4.396 2.19 2.19 0 0 1 2.208 2.205zm7.207 7.246a2.2 2.2 0 0 1-2.247 2.152c-1.218-.023-2.18-1.029-2.153-2.245.029-1.224 1.024-2.177 2.247-2.153 1.217.024 2.174 1.023 2.153 2.247zm-7.209 7.152c.005 1.226-.982 2.214-2.206 2.208a2.2 2.2 0 0 1-2.193-2.223 2.19 2.19 0 0 1 2.174-2.177c1.221-.018 2.218.965 2.223 2.193h.002zm5.012-2.16c1.217 0 2.158.935 2.17 2.156a2.15 2.15 0 0 1-2.143 2.185c-1.248.008-2.205-.944-2.197-2.191.006-1.214.953-2.15 2.171-2.15h-.002zm-12.255 2.147a2.13 2.13 0 0 1-2.127 2.192 2.15 2.15 0 0 1-2.209-2.182c.005-1.208.955-2.155 2.168-2.158a2.12 2.12 0 0 1 2.168 2.147zm10.084-14.425a2.15 2.15 0 0 1 2.183-2.144c1.209.009 2.159.967 2.156 2.174-.003 1.242-.967 2.183-2.218 2.164-1.217-.018-2.133-.968-2.121-2.194zM54.004 55.96c-1.223.005-2.179-.922-2.196-2.127a2.16 2.16 0 0 1 2.185-2.209 2.14 2.14 0 0 1 2.155 2.168c.005 1.224-.923 2.164-2.144 2.168zM23.403 32.176c-.006-.988.717-1.736 1.693-1.749a1.69 1.69 0 0 1 1.766 1.741c0 .962-.763 1.727-1.726 1.728a1.71 1.71 0 0 1-1.733-1.72zm73.803 59.4c-.979-.017-1.698-.766-1.684-1.755a1.71 1.71 0 0 1 1.742-1.71c.986.006 1.736.791 1.713 1.799-.021.976-.773 1.684-1.77 1.666zm-5.443 5.504a1.67 1.67 0 0 1-1.728 1.708c-.974 0-1.731-.747-1.737-1.713-.006-.994.769-1.755 1.772-1.742.976.012 1.699.76 1.693 1.746zM32.341 23.218c.974 0 1.731.741 1.742 1.71a1.71 1.71 0 0 1-1.707 1.746c-1.014.012-1.767-.734-1.763-1.742a1.68 1.68 0 0 1 1.726-1.714h.002zm57.718 3.454c-.976.008-1.742-.728-1.758-1.692-.018-.994.747-1.767 1.748-1.763.985.003 1.713.734 1.716 1.722s-.722 1.725-1.705 1.732zM25.116 91.576a1.67 1.67 0 0 1-1.711-1.725c0-.974.743-1.729 1.711-1.739.988-.009 1.755.769 1.745 1.769-.012.981-.753 1.701-1.743 1.696l-.002-.001zm70.406-59.423c.002-.984.735-1.72 1.717-1.725a1.68 1.68 0 0 1 1.739 1.763c-.012.97-.776 1.716-1.745 1.705a1.71 1.71 0 0 1-1.71-1.743h-.002zM32.35 98.789a1.68 1.68 0 0 1-1.736-1.704c-.009-1.011.74-1.76 1.752-1.751a1.71 1.71 0 0 1 1.716 1.737c-.005.968-.76 1.717-1.733 1.719v-.001zm12.8-37.83a1.58 1.58 0 0 1 1.628-1.578c.923.006 1.634.738 1.614 1.663-.02.915-.764 1.605-1.699 1.577-.894-.027-1.559-.745-1.542-1.661h-.002zm17.659-14.348c-.014.897-.722 1.595-1.621 1.595-.92 0-1.631-.729-1.619-1.658s.739-1.608 1.684-1.584c.9.024 1.571.732 1.557 1.648h-.002zm-.001 28.858c-.017.929-.739 1.599-1.692 1.572-.9-.027-1.566-.738-1.548-1.655a1.61 1.61 0 0 1 1.631-1.586c.914.006 1.625.743 1.608 1.669zm14.42-14.453a1.57 1.57 0 0 1-1.595 1.607 1.61 1.61 0 0 1-1.646-1.631c.006-.915.743-1.625 1.671-1.608a1.58 1.58 0 0 1 1.571 1.633zM53.954 48.181c-.899-.014-1.596-.74-1.58-1.643s.738-1.581 1.654-1.558a1.59 1.59 0 0 1 1.554 1.601 1.61 1.61 0 0 1-1.628 1.599v.002zm21.641 18.428a1.59 1.59 0 0 1 1.616 1.599c.002.891-.664 1.584-1.542 1.607a1.6 1.6 0 0 1-1.658-1.562c-.017-.897.69-1.631 1.583-1.645h.001zm-5.592-20.006c-.012.89-.752 1.601-1.643 1.578a1.61 1.61 0 0 1-1.565-1.602c0-.893.72-1.604 1.619-1.599a1.57 1.57 0 0 1 1.589 1.624zm0 28.798c.012.917-.672 1.618-1.586 1.624-.9.006-1.624-.707-1.62-1.596a1.61 1.61 0 0 1 1.563-1.604c.894-.026 1.633.681 1.643 1.577zm-16.018 1.623a1.57 1.57 0 0 1-1.611-1.599 1.6 1.6 0 0 1 1.622-1.599c.864.009 1.574.716 1.587 1.58.014.893-.699 1.616-1.598 1.619zm-7.25-21.628c-.89-.012-1.586-.743-1.569-1.648a1.57 1.57 0 0 1 1.652-1.558c.867.026 1.551.738 1.548 1.611a1.61 1.61 0 0 1-1.631 1.595zm28.886 0a1.61 1.61 0 0 1-1.61-1.619 1.6 1.6 0 0 1 1.633-1.589 1.57 1.57 0 0 1 1.568 1.581c.008.9-.705 1.628-1.59 1.627zM46.77 69.816a1.57 1.57 0 0 1-1.604-1.607 1.59 1.59 0 0 1 1.618-1.599c.862.011 1.572.72 1.583 1.584a1.6 1.6 0 0 1-1.596 1.623v-.001zm50.478-32.048a1.55 1.55 0 0 1 1.595 1.602 1.589 1.589 0 1 1-3.178.012c-.011-.92.667-1.613 1.583-1.614zm-57.69 60.888a1.55 1.55 0 0 1-1.604-1.593c.002-.891.666-1.571 1.551-1.584.925-.015 1.627.654 1.642 1.563a1.56 1.56 0 0 1-1.589 1.615zM25.122 37.77a1.55 1.55 0 0 1 1.589 1.608 1.56 1.56 0 0 1-1.557 1.584 1.56 1.56 0 0 1-1.62-1.583 1.55 1.55 0 0 1 1.587-1.61h.002zm72.107 43.275a1.56 1.56 0 0 1 1.615 1.587c.004.9-.645 1.58-1.531 1.601-.926.023-1.631-.64-1.646-1.549-.015-.925.655-1.628 1.563-1.64v.002z"/><path d="M39.528 23.348c.922-.006 1.616.673 1.619 1.584s-.691 1.598-1.61 1.593a1.55 1.55 0 0 1-1.581-1.554c-.015-.923.658-1.618 1.574-1.624h-.002zm-14.409 43.26c.893-.003 1.598.711 1.593 1.618a1.56 1.56 0 0 1-1.552 1.59 1.56 1.56 0 0 1-1.625-1.58c-.008-.908.69-1.624 1.583-1.628h.002zM84.42 97.099a1.54 1.54 0 0 1-1.636 1.559 1.589 1.589 0 1 1 .061-3.178c.917.005 1.589.696 1.575 1.619zm14.423-21.636a1.55 1.55 0 0 1-1.637 1.561c-.882-.02-1.543-.707-1.54-1.598a1.58 1.58 0 0 1 1.607-1.602c.896.009 1.581.725 1.571 1.639zM82.816 26.526a1.55 1.55 0 0 1-1.583-1.618c.015-.911.716-1.577 1.642-1.56.885.017 1.545.695 1.546 1.587 0 .923-.679 1.596-1.606 1.589v.002zM26.712 82.659a1.54 1.54 0 0 1-1.621 1.574 1.54 1.54 0 0 1-1.557-1.575c-.005-.92.679-1.615 1.589-1.613s1.593.693 1.587 1.613l.002.001zm48.853 15.996a1.58 1.58 0 0 1-1.554-1.654c.035-.893.767-1.554 1.686-1.522.873.03 1.527.732 1.513 1.625-.014.911-.717 1.574-1.645 1.552v-.002zM26.712 61.052a1.57 1.57 0 0 1-1.652 1.554c-.89-.03-1.554-.764-1.524-1.684.029-.869.743-1.542 1.621-1.527.893.017 1.575.742 1.555 1.655v.002z"/><path d="M25.107 73.824a1.58 1.58 0 0 1 1.605 1.604c0 .896-.658 1.578-1.54 1.596-.92.02-1.625-.655-1.636-1.563s.678-1.63 1.572-1.637h-.002zm21.678-50.476c.906.012 1.598.723 1.58 1.628-.018.893-.745 1.572-1.657 1.549a1.55 1.55 0 0 1-1.543-1.596c.003-.909.702-1.592 1.619-1.581h.002zm7.163 3.178c-.911-.011-1.593-.719-1.575-1.631.018-.878.708-1.545 1.598-1.546.906 0 1.615.704 1.61 1.601s-.722 1.587-1.633 1.577zm7.271-3.177a1.57 1.57 0 0 1 1.574 1.634c-.02.872-.717 1.542-1.602 1.542-.909 0-1.614-.702-1.607-1.602s.723-1.584 1.636-1.574zm14.438-.001c.906.014 1.577.722 1.554 1.645-.021.879-.71 1.537-1.605 1.533-.905-.005-1.609-.716-1.595-1.614s.732-1.577 1.645-1.563h.002zm23.186 37.695a1.57 1.57 0 0 1-1.643 1.565c-.891-.027-1.561-.758-1.534-1.675.026-.87.737-1.546 1.613-1.534.897.012 1.58.731 1.565 1.645z"/><path d="M26.712 46.613c-.014.902-.738 1.593-1.64 1.566-.894-.027-1.561-.753-1.536-1.67.024-.878.719-1.537 1.61-1.528.906.009 1.581.713 1.568 1.634l-.002-.002zm-3.178 7.153c.009-.911.716-1.596 1.628-1.578.878.018 1.546.707 1.549 1.595a1.58 1.58 0 0 1-1.596 1.613c-.896-.005-1.59-.72-1.581-1.63zm73.742 1.63c-.897.008-1.607-.697-1.61-1.601-.003-.912.693-1.61 1.601-1.605.882.005 1.565.681 1.578 1.566.014.911-.676 1.633-1.569 1.642v-.002zM53.947 98.657c-.911-.011-1.595-.72-1.574-1.633a1.57 1.57 0 0 1 1.599-1.545c.905 0 1.613.705 1.609 1.602s-.722 1.586-1.634 1.575zm16.056-73.749c.012.917-.67 1.611-1.587 1.618-.906.006-1.624-.699-1.621-1.59a1.58 1.58 0 0 1 1.563-1.587c.921-.017 1.633.658 1.645 1.56zm27.286 41.701c.89.015 1.574.744 1.552 1.657a1.56 1.56 0 0 1-1.652 1.551c-.873-.029-1.531-.728-1.524-1.619.008-.9.726-1.604 1.624-1.587v-.001zm1.554-20.006a1.58 1.58 0 0 1-1.631 1.577c-.893-.023-1.569-.751-1.546-1.661.023-.882.71-1.543 1.601-1.539.908.005 1.589.705 1.577 1.624zM68.385 98.656a1.58 1.58 0 0 1-1.589-1.621c.017-.891.743-1.574 1.655-1.555a1.56 1.56 0 1 1-.067 3.178v-.001zm-21.651-3.178c.909-.011 1.627.679 1.634 1.577s-.701 1.601-1.607 1.601c-.89 0-1.577-.664-1.595-1.543-.02-.918.657-1.624 1.568-1.634zm14.42 3.178a1.58 1.58 0 0 1-1.571-1.639c.024-.891.756-1.566 1.67-1.539.875.026 1.546.729 1.539 1.608-.009.899-.723 1.583-1.639 1.569zM46.746 74.243c.713-.006 1.22.496 1.213 1.203-.006.666-.508 1.189-1.162 1.207-.673.02-1.244-.517-1.258-1.186-.015-.682.513-1.218 1.206-1.224zm27.686 1.176c.008-.713.513-1.192 1.233-1.174.663.017 1.171.531 1.176 1.189a1.22 1.22 0 0 1-1.218 1.221 1.18 1.18 0 0 1-1.189-1.235l-.001-.001zm1.16-27.646c-.702-.014-1.186-.534-1.162-1.253a1.19 1.19 0 0 1 1.201-1.167c.669.003 1.217.561 1.209 1.235-.008.679-.552 1.197-1.247 1.185h-.002zm-27.633-1.187a1.15 1.15 0 0 1-1.218 1.186 1.2 1.2 0 0 1-1.2-1.219 1.23 1.23 0 0 1 1.232-1.2c.672.006 1.192.548 1.186 1.232v.002zm-14.83-14.489c.014.46-.339.835-.797.847a.8.8 0 0 1-.84-.797.78.78 0 0 1 .79-.84.8.8 0 0 1 .847.791v-.002zm-.814 58.6a.78.78 0 0 1-.823-.805.81.81 0 0 1 .808-.832c.451-.004.826.365.829.819.005.468-.343.816-.814.82v-.001zm57.763-1.639c.46.003.811.363.808.832a.77.77 0 0 1-.819.808c-.468-.001-.826-.359-.822-.817a.84.84 0 0 1 .832-.823zm-.032-57.752a.78.78 0 0 1 .838.79c.012.472-.321.832-.785.847a.83.83 0 0 1-.852-.796.81.81 0 0 1 .799-.841zm-57.779 8.602c-.353-.051-.543-.253-.522-.619.02-.34.222-.523.557-.518.362.006.573.212.567.578-.006.372-.239.537-.602.558zm7.833-7.82c-.054.399-.242.614-.61.592s-.551-.253-.531-.611c.02-.336.225-.511.563-.511.381 0 .533.233.578.531zm-7.777 50.008c.349.07.575.256.542.632a.51.51 0 0 1-.583.51c-.38-.017-.555-.247-.534-.616.02-.351.25-.495.575-.528v.002zm51.113-50.063c-.017.419-.195.642-.57.648a.52.52 0 0 1-.567-.534.5.5 0 0 1 .502-.585c.377-.035.572.166.636.472zm6.629 6.728c.359.021.571.198.575.569a.5.5 0 0 1-.507.567c-.362.024-.59-.165-.611-.528s.178-.564.543-.608zM39.548 90.457c-.342-.009-.566-.163-.589-.51-.026-.369.169-.601.54-.611a.51.51 0 0 1 .584.57c0 .344-.201.524-.536.552v-.001zm36.138-57.785c-.351-.029-.575-.183-.596-.523s.169-.551.499-.581a.51.51 0 0 1 .605.539c.017.342-.216.504-.508.566zm14.407 49.424c.322.049.542.204.546.557.004.371-.182.589-.563.589-.35 0-.54-.207-.554-.54-.015-.374.209-.56.57-.604v-.002zm-57.802-7.205c.342.033.548.215.554.548s-.18.557-.517.567a.51.51 0 0 1-.575-.569c.005-.339.219-.507.539-.546zm51.142 14.963c-.002.357-.166.567-.511.596-.371.03-.604-.159-.625-.527-.02-.334.172-.558.51-.586.363-.03.582.159.626.516zM46.767 32.669c-.345-.026-.557-.204-.574-.533a.5.5 0 0 1 .51-.569.51.51 0 0 1 .59.551c.012.349-.222.498-.527.551z"/><path d="M32.855 46.558c-.042.303-.177.545-.527.549a.51.51 0 0 1-.577-.564.5.5 0 0 1 .545-.536c.33 0 .516.207.558.551zm57.279.555c-.369-.002-.564-.2-.583-.527s.166-.563.51-.579c.337-.017.545.175.558.522.014.34-.163.536-.486.584zM68.431 31.555c.334.039.545.241.539.564a.51.51 0 0 1-.56.539c-.339-.008-.537-.209-.531-.555s.213-.516.552-.548zm7.771 58.39c-.058.322-.248.508-.592.487s-.537-.216-.519-.563c.017-.353.251-.522.58-.504s.519.222.533.579h-.002zm-28.896-.046c-.05.363-.242.545-.584.533a.49.49 0 0 1-.528-.554c.012-.343.242-.527.574-.516s.513.221.539.537zm6.63-58.348c.356.041.561.206.574.545a.49.49 0 0 1-.511.56.51.51 0 0 1-.583-.558c.002-.328.228-.498.52-.546zM90.152 76.02c-.395-.029-.593-.225-.601-.555s.166-.558.522-.561c.347-.003.533.197.546.539.014.351-.195.517-.469.578h.002zm-57.3-22.209c-.055.321-.222.527-.569.511-.336-.014-.536-.21-.531-.543.005-.363.232-.57.589-.548.33.021.495.248.51.579h.002zm-.588 13.873c.365.014.572.194.581.534a.51.51 0 0 1-.534.564.51.51 0 0 1-.558-.537c-.011-.346.197-.522.511-.561zm36.722 22.244c-.076.303-.23.525-.586.505a.49.49 0 0 1-.522-.555c.008-.354.232-.527.56-.516.336.011.508.23.548.567v-.001zm21.638-21.781c.003.416-.194.62-.516.635-.331.015-.546-.201-.557-.533-.009-.325.159-.549.516-.56a.5.5 0 0 1 .557.457zM53.992 89.351c.304.048.525.2.518.555s-.213.527-.551.525a.49.49 0 0 1-.542-.54c.005-.336.224-.511.575-.54zm36.633-35.539c-.038.319-.204.522-.555.513a.49.49 0 0 1-.52-.56.5.5 0 0 1 .555-.533c.339.009.509.227.521.58zM61.732 89.931c-.029.303-.192.507-.54.501-.339-.006-.53-.194-.533-.536-.003-.348.209-.534.536-.533s.524.194.537.568zm28.893-28.938c-.012.345-.188.54-.527.548-.345.009-.54-.195-.546-.524s.176-.54.524-.545.518.189.549.521zM61.19 31.557c.342.033.534.224.537.557a.49.49 0 0 1-.536.543.49.49 0 0 1-.531-.546c0-.339.2-.518.53-.554zM32.855 60.963c-.029.354-.191.572-.534.578-.33.006-.554-.168-.566-.511s.185-.537.522-.555c.345-.018.517.189.578.489zm35.576 22.212c-.291-.039-.501-.185-.498-.502.003-.281.172-.457.462-.465.28-.008.474.129.502.421.033.327-.165.478-.466.546zm14.47-15.438c.271.05.454.213.448.49-.008.3-.183.502-.508.483s-.469-.234-.443-.539c.024-.286.219-.419.505-.434h-.001zm.463-13.966c-.048.286-.191.487-.478.493-.278.006-.475-.151-.487-.449-.014-.324.16-.511.484-.51.301 0 .421.215.481.467v-.002zm-.534 6.745c.333.027.525.201.516.505-.008.263-.171.469-.46.471-.313.002-.487-.185-.489-.498-.001-.294.183-.43.433-.477v-.002zM54.461 82.71c-.061.275-.222.469-.505.451-.303-.02-.501-.212-.463-.539.033-.291.23-.433.519-.412.3.023.419.225.449.499zm6.245-.019c.021-.281.159-.466.446-.481.312-.017.514.15.523.463.011.319-.209.49-.504.487-.272-.003-.437-.186-.468-.469h.002z"/><path d="M53.964 39.818c-.28-.03-.463-.179-.474-.469s.16-.472.446-.489c.324-.018.514.181.511.49-.003.28-.191.443-.486.469l.002-.002zm14.429-.967c.287.021.48.156.496.449.018.325-.168.507-.486.505-.291 0-.463-.188-.466-.471s.175-.445.455-.484zM40.008 61.02c-.047.275-.188.469-.474.471-.31 0-.499-.189-.495-.499.005-.28.18-.459.465-.463.318-.005.472.191.504.493v-.002zm-.465-6.738c-.303-.061-.505-.197-.499-.495.006-.319.189-.507.514-.481a.44.44 0 0 1 .439.499c-.009.301-.221.416-.454.477zm.46 13.945c-.035.283-.171.474-.468.477-.325.003-.501-.189-.487-.505.014-.287.203-.457.487-.446s.439.192.468.475zm21.202-29.38c.301.047.492.212.471.527a.44.44 0 0 1-.489.437c-.312-.011-.489-.204-.469-.516.017-.285.21-.421.489-.448h-.002zm21.69 8.124c-.28-.012-.448-.156-.449-.416s.168-.424.433-.416c.228.006.384.144.401.386.018.274-.133.412-.383.448l-.002-.002zM47.156 82.7c-.026.253-.165.402-.437.392a.38.38 0 0 1-.395-.39c-.014-.266.147-.437.406-.442s.409.16.425.442l.002-.001zm0-43.401c-.012.278-.15.448-.413.449a.39.39 0 0 1-.419-.43c0-.233.145-.384.381-.399.269-.018.413.132.451.381v-.002zm-7.604 36.589c-.288-.038-.448-.179-.448-.442a.37.37 0 0 1 .377-.401c.265-.015.439.127.453.39s-.165.396-.381.453zm36.071-36.132c-.257-.05-.407-.195-.39-.463.015-.241.166-.378.401-.377.262.002.431.157.428.419s-.181.393-.44.419l.002.002zm7.261 35.28c.251.038.41.172.393.446-.015.236-.159.384-.392.392-.268.008-.431-.162-.439-.416-.008-.262.165-.406.439-.424l-.002.002zM39.489 46.969c-.251-.036-.401-.182-.383-.449.015-.236.163-.383.399-.383.259 0 .433.154.431.418s-.169.401-.446.415h-.002zm35.734 35.699c.036-.265.179-.433.446-.407.253.024.416.191.392.46-.021.235-.18.369-.415.371-.271 0-.402-.162-.422-.422l-.002-.002zm7.98-43.378c-.009.21-.095.357-.319.365-.215.006-.343-.111-.35-.328-.006-.189.104-.301.288-.325.218-.029.339.082.38.289h.001zM39.846 82.689c-.015.215-.142.325-.353.322-.188-.002-.301-.117-.309-.303-.008-.209.092-.354.315-.36s.328.121.346.339v.002zm-.003-43.432c-.006.271-.117.396-.342.396-.2 0-.3-.124-.316-.31-.017-.192.082-.321.275-.342.216-.024.347.086.384.256h-.002zM83.203 82.7c-.03.204-.144.328-.362.309-.18-.017-.3-.12-.304-.312-.004-.218.112-.344.327-.348.221-.004.318.138.339.35v.001z"/></g><defs ><path id="B" d="M208.852 31.65l3.298.114v10.805h-2.843c-5.839 0-10.35 1.441-13.535 4.322s-4.777 7.052-4.777 12.511v31.847h-11.374V32.56h10.919v10.464c3.715-7.582 9.819-11.374 18.312-11.374z"/></defs></svg>