<svg width="19" height="19" viewBox="0 0 19 19" fill="none" xmlns="http://www.w3.org/2000/svg">
<path d="M10.9191 3.99982C11.1568 3.69592 11.2968 3.31827 11.2968 2.9051C11.2968 1.91282 10.4889 1.1084 9.49937 1.1084C8.50986 1.1084 7.70197 1.91289 7.70197 2.9058C7.70197 3.33263 7.85221 3.72053 8.10421 4.02853C8.09397 4.0217 8.08646 4.01077 8.07963 4.00053C6.401 4.61242 5.30704 6.31909 5.30704 8.14726V9.92351C5.30704 11.6753 4.88021 13.3989 4.073 14.9519H14.9259C14.129 13.4065 13.709 11.6929 13.709 9.95148V7.9546C13.709 6.12923 12.524 4.57955 10.9191 3.99982ZM9.49932 4.05923C8.86284 4.05923 8.34518 3.54159 8.34518 2.90509C8.34518 2.26519 8.86282 1.74754 9.49932 1.74754C10.1358 1.74754 10.6535 2.26519 10.6535 2.90509C10.6535 3.54225 10.1358 4.05923 9.49932 4.05923Z" fill="white"/>
<path d="M3.10031 15.8566C3.10031 16.1646 3.34889 16.4159 3.65621 16.4159H8.0234C8.0234 17.2341 8.68105 17.8917 9.49919 17.8917C10.3173 17.8917 10.975 17.2341 10.975 16.4159H15.3422C15.6502 16.4159 15.8981 16.1639 15.8981 15.8566C15.8981 15.5486 15.6495 15.3007 15.3422 15.3007H3.656C3.34869 15.3007 3.1001 15.5493 3.1001 15.8566H3.10031Z" fill="white"/>
</svg>
