<svg width="42" height="43" viewBox="0 0 42 43" fill="none" xmlns="http://www.w3.org/2000/svg">
<circle cx="20.7899" cy="21.5" r="20.7899" fill="#252525"/>
<path d="M31.354 31.5464C31.6389 31.5446 31.8733 31.7736 31.8778 32.0585C31.8824 32.3484 31.6496 32.5866 31.3604 32.5879C31.0745 32.5893 30.8406 32.3608 30.8366 32.0759C30.8326 31.7857 31.0643 31.5486 31.354 31.5464Z" fill="white"/>
<path d="M12.7141 11.6211C12.717 11.9102 12.4824 12.147 12.1927 12.147C11.9078 12.147 11.6747 11.9159 11.6726 11.6313C11.6707 11.3448 11.8979 11.1107 12.183 11.1053C12.4732 11.0999 12.7114 11.3311 12.7144 11.6208L12.7141 11.6211Z" fill="white"/>
<path d="M13.4734 11.1053C13.7588 11.1066 13.9903 11.3378 13.9916 11.6229C13.9929 11.9132 13.7583 12.1481 13.4683 12.1468C13.1829 12.1454 12.9514 11.914 12.9501 11.6288C12.949 11.3389 13.1834 11.1042 13.4734 11.1053Z" fill="white"/>
<path d="M15.2694 11.6288C15.268 11.9182 15.0301 12.151 14.7404 12.1467C14.4558 12.1424 14.2265 11.9083 14.2281 11.6229C14.2298 11.3332 14.4668 11.101 14.7571 11.1053C15.042 11.1093 15.2707 11.3431 15.2694 11.6288Z" fill="white"/>
<path d="M16.5469 11.6256C16.5472 11.9108 16.3171 12.1441 16.0322 12.1468C15.7419 12.1497 15.5059 11.9164 15.5057 11.6265C15.5051 11.3413 15.7355 11.1083 16.0204 11.1056C16.3106 11.1026 16.5466 11.3357 16.5469 11.6256Z" fill="white"/>
<path d="M17.8244 11.6227C17.8265 11.9078 17.5978 12.1422 17.3126 12.1468C17.0229 12.1516 16.7848 11.9191 16.7829 11.6294C16.7813 11.3397 17.0157 11.1045 17.3059 11.1053C17.5911 11.1061 17.8225 11.3367 17.8247 11.6224L17.8244 11.6227Z" fill="white"/>
<path d="M19.1019 11.624C19.103 11.9097 18.874 12.143 18.5888 12.1468C18.2988 12.1505 18.0615 11.9175 18.0604 11.628C18.0593 11.3381 18.2945 11.1037 18.5845 11.1053C18.8699 11.1069 19.1003 11.3381 19.1016 11.624H19.1019Z" fill="white"/>
<path d="M20.3794 11.6232C20.3808 11.9134 20.1464 12.1484 19.8564 12.1468C19.571 12.1452 19.3395 11.914 19.3382 11.6288C19.3366 11.3391 19.5715 11.1042 19.8615 11.1053C20.1466 11.1064 20.3778 11.3375 20.3794 11.6229V11.6232Z" fill="white"/>
<path d="M21.6569 11.6232C21.6588 11.9086 21.4303 12.1425 21.1449 12.147C20.8557 12.1519 20.617 11.918 20.6157 11.6291C20.6144 11.3389 20.849 11.1042 21.139 11.1056C21.4244 11.1069 21.6553 11.3375 21.6569 11.6232Z" fill="white"/>
<path d="M22.4146 12.1468C22.1252 12.1468 21.8905 11.9102 21.8932 11.6211C21.8959 11.3356 22.1284 11.1055 22.4138 11.1053C22.7038 11.1053 22.9374 11.3407 22.9347 11.631C22.9323 11.9164 22.7003 12.1465 22.4146 12.1468Z" fill="white"/>
<path d="M23.171 11.6168C23.1764 11.3268 23.4161 11.0978 23.7064 11.1053C23.9915 11.1128 24.2168 11.3491 24.2122 11.635C24.2074 11.9247 23.9679 12.1537 23.6771 12.1465C23.393 12.1392 23.1659 11.9016 23.171 11.6168Z" fill="white"/>
<path d="M24.9723 11.1053C25.2618 11.1066 25.4943 11.3442 25.49 11.6345C25.4857 11.9196 25.2516 12.1486 24.9664 12.1468C24.6767 12.1449 24.4445 11.9075 24.4485 11.6176C24.4525 11.3327 24.6864 11.1039 24.9723 11.1053Z" fill="white"/>
<path d="M26.7672 11.6237C26.7686 11.9094 26.5398 12.143 26.2547 12.1468C25.965 12.1508 25.7271 11.9177 25.726 11.6283C25.7249 11.3383 25.9596 11.1039 26.2499 11.1053C26.5353 11.1066 26.7659 11.3378 26.7672 11.6235V11.6237Z" fill="white"/>
<path d="M31.8778 24.4037C31.877 24.6889 31.6461 24.9206 31.3607 24.9222C31.0702 24.9238 30.8355 24.6899 30.8366 24.3997C30.8374 24.1146 31.0691 23.8823 31.3537 23.8807C31.6437 23.8791 31.8784 24.1132 31.8778 24.4035V24.4037Z" fill="white"/>
<path d="M11.4366 24.3973C11.4393 24.6827 11.2108 24.9171 10.9256 24.9222C10.6354 24.9273 10.3972 24.6958 10.3951 24.4061C10.3929 24.1159 10.6265 23.8807 10.9168 23.881C11.2014 23.881 11.4339 24.1121 11.4363 24.3975L11.4366 24.3973Z" fill="white"/>
<path d="M30.6003 11.6237C30.6011 11.9143 30.3665 12.1486 30.0767 12.1468C29.7916 12.1449 29.5602 11.9132 29.5593 11.6283C29.5583 11.3381 29.7929 11.1039 30.0832 11.1053C30.3683 11.1066 30.5998 11.3386 30.6006 11.6237H30.6003Z" fill="white"/>
<path d="M31.8778 11.6264C31.8773 11.9164 31.6407 12.15 31.3513 12.1468C31.0662 12.1436 30.8366 11.9108 30.8366 11.6254C30.8366 11.3357 31.0726 11.1026 31.3631 11.1053C31.6477 11.108 31.8781 11.3413 31.8778 11.6264Z" fill="white"/>
<path d="M10.3951 12.8983C10.3983 12.608 10.6359 12.3779 10.9267 12.383C11.2113 12.3881 11.4393 12.6233 11.4366 12.909C11.4336 13.1985 11.1947 13.4302 10.905 13.4243C10.6201 13.4186 10.3919 13.1832 10.3951 12.8983Z" fill="white"/>
<path d="M10.9213 26.1997C10.6305 26.2024 10.3951 25.9693 10.3951 25.6794C10.3951 25.3937 10.6252 25.1612 10.9101 25.1585C11.2 25.1558 11.4363 25.3897 11.4366 25.6791C11.4366 25.9642 11.2065 26.197 10.9213 26.1994V26.1997Z" fill="white"/>
<path d="M13.467 13.4245C13.1775 13.4224 12.9453 13.184 12.9504 12.8943C12.9555 12.6091 13.1893 12.3815 13.4753 12.3833C13.7604 12.3852 13.9916 12.6177 13.9919 12.9026C13.9919 13.1928 13.7567 13.427 13.467 13.4248V13.4245Z" fill="white"/>
<path d="M28.8043 12.3831C29.0897 12.3841 29.3212 12.615 29.3228 12.9004C29.3244 13.1907 29.0903 13.4256 28.8 13.4245C28.5106 13.4235 28.2775 13.1861 28.2816 12.8961C28.2856 12.6107 28.5187 12.382 28.8043 12.3833V12.3831Z" fill="white"/>
<path d="M30.6003 12.9007C30.6019 13.1906 30.367 13.4258 30.0773 13.4245C29.7924 13.4231 29.5607 13.1914 29.5591 12.9066C29.5575 12.6214 29.7873 12.3865 30.0714 12.383C30.3624 12.3795 30.599 12.6107 30.6003 12.9007Z" fill="white"/>
<path d="M31.8778 12.9055C31.877 13.1912 31.6464 13.4229 31.361 13.4245C31.071 13.4261 30.8358 13.1914 30.8366 12.902C30.8374 12.6126 31.0747 12.3795 31.3647 12.3833C31.6499 12.3868 31.8786 12.6198 31.8778 12.9058V12.9055Z" fill="white"/>
<path d="M31.8778 25.6761C31.8797 25.9618 31.6512 26.1954 31.3658 26.1997C31.0753 26.204 30.8379 25.9723 30.8366 25.6826C30.8352 25.3926 31.0696 25.1577 31.3596 25.1587C31.6448 25.1598 31.8759 25.3907 31.8778 25.6764V25.6761Z" fill="white"/>
<path d="M31.362 23.6447C31.0715 23.6471 30.8366 23.4141 30.8366 23.1235C30.8366 22.8389 31.0675 22.6062 31.3524 22.6035C31.6418 22.6008 31.8781 22.8352 31.8778 23.1249C31.8776 23.4103 31.6472 23.6425 31.362 23.6447Z" fill="white"/>
<path d="M11.4366 23.1246C11.4363 23.4143 11.2 23.6477 10.9098 23.6447C10.6246 23.6417 10.3951 23.4098 10.3951 23.1236C10.3951 22.8344 10.6322 22.6 10.9216 22.6032C11.2065 22.6064 11.4368 22.8398 11.4363 23.1246H11.4366Z" fill="white"/>
<path d="M31.8778 26.9598C31.8765 27.2497 31.6397 27.4814 31.3489 27.4772C31.0637 27.4731 30.835 27.2393 30.8366 26.9539C30.8382 26.6642 31.0756 26.4319 31.3658 26.4362C31.6509 26.4402 31.8794 26.6738 31.8778 26.9598Z" fill="white"/>
<path d="M11.4366 28.2308C11.4387 28.5162 11.2102 28.7501 10.9248 28.7549C10.6348 28.7598 10.3967 28.5275 10.3951 28.2381C10.3935 27.9519 10.6217 27.7183 10.9066 27.714C11.1968 27.7097 11.4342 27.9414 11.4363 28.2311L11.4366 28.2308Z" fill="white"/>
<path d="M31.3559 28.755C31.0702 28.7544 30.8385 28.5238 30.8366 28.2386C30.8347 27.9487 31.0688 27.7132 31.3585 27.714C31.6485 27.7148 31.8808 27.9508 31.8776 28.2416C31.8743 28.527 31.6418 28.7558 31.3556 28.7552L31.3559 28.755Z" fill="white"/>
<path d="M31.8778 21.8444C31.8789 22.1304 31.6504 22.3634 31.365 22.3672C31.0748 22.3712 30.8377 22.1387 30.8366 21.8487C30.8355 21.559 31.071 21.3238 31.3604 21.3257C31.6458 21.3276 31.8765 21.5587 31.8778 21.8442V21.8444Z" fill="white"/>
<path d="M11.4366 21.8421C11.4393 22.1275 11.211 22.3622 10.9259 22.3673C10.6356 22.3726 10.3975 22.1409 10.3951 21.8515C10.3927 21.5658 10.6203 21.3314 10.9055 21.326C11.1955 21.3207 11.4339 21.5524 11.4366 21.8421Z" fill="white"/>
<path d="M10.9189 28.9914C11.2033 28.9922 11.4355 29.2247 11.4366 29.5096C11.4379 29.7996 11.2033 30.034 10.9127 30.0326C10.6276 30.0313 10.3962 29.7999 10.3951 29.5147C10.394 29.2245 10.6279 28.9906 10.9186 28.9917L10.9189 28.9914Z" fill="white"/>
<path d="M12.1978 30.0324C11.9073 30.0343 11.6723 29.8012 11.6729 29.511C11.6734 29.2256 11.9035 28.9939 12.1892 28.9914C12.4786 28.989 12.7149 29.2237 12.7141 29.5131C12.7136 29.7988 12.4832 30.0302 12.1978 30.0324Z" fill="white"/>
<path d="M30.0778 28.9912C30.3681 28.9906 30.6019 29.225 30.6003 29.5155C30.5987 29.8007 30.3667 30.0318 30.0816 30.0324C29.7913 30.0332 29.5572 29.798 29.5591 29.5083C29.561 29.2231 29.7929 28.9917 30.0778 28.9912Z" fill="white"/>
<path d="M10.9031 14.7017C10.6139 14.6953 10.3859 14.4534 10.3953 14.1629C10.4045 13.8783 10.6424 13.6541 10.9286 13.6605C11.2175 13.667 11.446 13.9091 11.4363 14.1994C11.4269 14.484 11.189 14.7082 10.9031 14.7017Z" fill="white"/>
<path d="M12.1911 13.6606C12.481 13.6592 12.7154 13.8941 12.7141 14.1844C12.7127 14.4693 12.4813 14.7004 12.1956 14.7018C11.9105 14.7031 11.6766 14.4736 11.6729 14.1887C11.6691 13.8984 11.9014 13.6616 12.1911 13.6603V13.6606Z" fill="white"/>
<path d="M30.0818 13.6606C30.367 13.6616 30.5984 13.8928 30.6 14.1782C30.6017 14.4682 30.3673 14.7031 30.0773 14.702C29.7878 14.701 29.5548 14.4636 29.5588 14.1736C29.5626 13.8888 29.7964 13.6598 30.0818 13.6608V13.6606Z" fill="white"/>
<path d="M31.3564 13.6606C31.6464 13.6603 31.88 13.8955 31.8778 14.1857C31.8757 14.4709 31.6434 14.7015 31.3583 14.7018C31.0683 14.7018 30.8347 14.4668 30.8366 14.1766C30.8385 13.892 31.0713 13.6608 31.3564 13.6606Z" fill="white"/>
<path d="M31.3535 30.0324C31.068 30.0305 30.8371 29.7988 30.8366 29.5137C30.8358 29.2237 31.071 28.9896 31.361 28.9912C31.6507 28.993 31.8824 29.2307 31.8778 29.5209C31.8733 29.806 31.6394 30.0343 31.3535 30.0324Z" fill="white"/>
<path d="M31.3567 20.0483C31.6415 20.0477 31.8746 20.2778 31.8778 20.563C31.881 20.8529 31.6477 21.0892 31.3577 21.0897C31.0723 21.0903 30.8395 20.8605 30.8366 20.5753C30.8336 20.2853 31.067 20.0491 31.3567 20.0485V20.0483Z" fill="white"/>
<path d="M11.4368 20.5659C11.4387 20.8513 11.2097 21.0855 10.9245 21.0895C10.634 21.0938 10.3967 20.8618 10.3953 20.5721C10.3937 20.2819 10.6281 20.0469 10.9181 20.0483C11.2032 20.0493 11.435 20.2808 11.4366 20.5659H11.4368Z" fill="white"/>
<path d="M11.4366 30.7872C11.4379 31.0771 11.2033 31.3113 10.9127 31.3099C10.6276 31.3086 10.3962 31.0771 10.3951 30.792C10.394 30.5061 10.6228 30.2725 10.9076 30.269C11.1979 30.2652 11.4352 30.4977 11.4363 30.7872H11.4366Z" fill="white"/>
<path d="M12.1975 31.3102C11.9075 31.3123 11.6723 31.0782 11.6729 30.7882C11.6734 30.5033 11.9048 30.2706 12.1894 30.2689C12.4792 30.2671 12.7149 30.5017 12.7141 30.7914C12.7133 31.0768 12.4826 31.3085 12.1972 31.3104L12.1975 31.3102Z" fill="white"/>
<path d="M31.3577 18.7705C31.6475 18.7705 31.8805 19.0068 31.8778 19.2973C31.8751 19.5824 31.6432 19.8117 31.3569 19.8117C31.0672 19.8117 30.8339 19.5757 30.8369 19.2852C30.8396 19.0009 31.0731 18.7702 31.358 18.7702L31.3577 18.7705Z" fill="white"/>
<path d="M11.4366 19.2911C11.4371 19.5808 11.2014 19.8144 10.9109 19.812C10.6257 19.8099 10.3956 19.5779 10.3951 19.2919C10.3945 19.0071 10.6252 18.7737 10.9098 18.7708C11.1995 18.7678 11.436 19.0014 11.4363 19.2914L11.4366 19.2911Z" fill="white"/>
<path d="M13.9916 30.7922C13.9908 31.0774 13.7594 31.3085 13.4737 31.3099C13.1834 31.3112 12.949 31.0768 12.9501 30.7869C12.9512 30.502 13.1832 30.2697 13.468 30.2689C13.7583 30.2679 13.9924 30.502 13.9916 30.7922Z" fill="white"/>
<path d="M29.3225 30.7922C29.3212 31.0776 29.0903 31.3088 28.8049 31.3102C28.5146 31.3115 28.2802 31.0768 28.2816 30.7869C28.2829 30.5017 28.5146 30.2703 28.7995 30.2689C29.0897 30.2676 29.3239 30.502 29.3225 30.7925V30.7922Z" fill="white"/>
<path d="M29.5591 30.7935C29.5569 30.5081 29.7857 30.2735 30.0703 30.2689C30.3608 30.2643 30.5982 30.4955 30.6003 30.7855C30.6025 31.0714 30.3742 31.3056 30.0894 31.3101C29.7986 31.3147 29.5615 31.0835 29.5594 30.7935H29.5591Z" fill="white"/>
<path d="M31.3596 30.2689C31.6499 30.2703 31.8816 30.5068 31.8778 30.7976C31.8741 31.0827 31.641 31.3112 31.3548 31.3102C31.0648 31.3091 30.8323 31.0717 30.8366 30.7818C30.8406 30.4969 31.0747 30.2676 31.3596 30.2689Z" fill="white"/>
<path d="M31.3599 17.4933C31.645 17.4943 31.8765 17.7258 31.8778 18.0112C31.8792 18.3017 31.645 18.5358 31.3548 18.5347C31.0699 18.5337 30.8379 18.302 30.8369 18.0171C30.8358 17.7268 31.0702 17.4922 31.3602 17.4935L31.3599 17.4933Z" fill="white"/>
<path d="M10.9184 18.5345C10.633 18.5361 10.3988 18.3065 10.3951 18.0219C10.3913 17.7311 10.6233 17.4943 10.913 17.493C11.1987 17.4916 11.4323 17.7207 11.4363 18.0055C11.4403 18.2958 11.2081 18.5329 10.9184 18.5345Z" fill="white"/>
<path d="M10.9186 32.5879C10.6332 32.5893 10.3994 32.3605 10.3953 32.0754C10.391 31.7851 10.6236 31.5478 10.9133 31.5464C11.2027 31.5448 11.4385 31.7806 11.4368 32.07C11.4352 32.3551 11.2041 32.5866 10.9186 32.5879Z" fill="white"/>
<path d="M31.3704 14.938C31.655 14.9442 31.8816 15.1802 31.8778 15.4661C31.8741 15.7556 31.634 15.9865 31.3443 15.9792C31.0589 15.9723 30.8328 15.7371 30.8366 15.4511C30.8404 15.1617 31.0796 14.9316 31.3701 14.938H31.3704Z" fill="white"/>
<path d="M12.7141 32.0679C12.7141 32.3527 12.4832 32.5852 12.198 32.5877C11.9081 32.5901 11.6723 32.356 11.6729 32.0663C11.6731 31.7808 11.9038 31.5486 12.1889 31.5464C12.4789 31.5443 12.7144 31.7779 12.7144 32.0679H12.7141Z" fill="white"/>
<path d="M13.4753 31.5465C13.7647 31.5486 13.9964 31.7868 13.9916 32.077C13.9868 32.3619 13.7521 32.5901 13.4664 32.5877C13.177 32.5852 12.945 32.3471 12.9501 32.0571C12.9552 31.7723 13.1896 31.5443 13.4753 31.5465Z" fill="white"/>
<path d="M15.2694 32.0641C15.2713 32.3541 15.0369 32.5887 14.7463 32.5879C14.4615 32.5871 14.2292 32.3551 14.2281 32.0705C14.2271 31.78 14.4609 31.5459 14.7512 31.5467C15.0363 31.5475 15.2678 31.7787 15.2694 32.0641Z" fill="white"/>
<path d="M16.5469 32.0673C16.5469 32.3525 16.3165 32.5852 16.0316 32.5877C15.7414 32.5901 15.5054 32.3568 15.5057 32.0671C15.5057 31.7817 15.7363 31.5491 16.0212 31.5467C16.3114 31.5443 16.5469 31.7774 16.5472 32.0676L16.5469 32.0673Z" fill="white"/>
<path d="M17.3059 32.5877C17.0208 32.5887 16.7867 32.3592 16.7832 32.0746C16.7794 31.7846 17.0122 31.5475 17.3016 31.5462C17.5913 31.5448 17.8263 31.7803 17.8244 32.0703C17.8228 32.3554 17.5911 32.5863 17.3059 32.5877Z" fill="white"/>
<path d="M19.1019 32.0698C19.1006 32.3552 18.8694 32.5866 18.5842 32.5877C18.2943 32.589 18.0591 32.3536 18.0607 32.0644C18.0623 31.7747 18.2996 31.5425 18.5896 31.5465C18.8748 31.5505 19.1033 31.7838 19.1019 32.0698Z" fill="white"/>
<path d="M30.0845 31.5464C30.3697 31.5486 30.6 31.7808 30.6003 32.0663C30.6006 32.3565 30.3651 32.5901 30.0749 32.5877C29.7892 32.585 29.5591 32.3533 29.5591 32.0679C29.5591 31.7779 29.7943 31.5443 30.0845 31.5464Z" fill="white"/>
<path d="M29.3225 32.0657C29.3239 32.3509 29.0935 32.5847 28.8089 32.5877C28.5181 32.5906 28.2821 32.3584 28.2816 32.0684C28.281 31.7827 28.5103 31.55 28.7952 31.5465C29.0855 31.543 29.3212 31.7752 29.3225 32.0657Z" fill="white"/>
<path d="M28.045 32.0676C28.045 32.3533 27.8152 32.5853 27.5295 32.5877C27.2393 32.5901 27.0038 32.3565 27.0038 32.0665C27.0038 31.7771 27.2406 31.5435 27.5306 31.5465C27.816 31.5494 28.045 31.7814 28.045 32.0676Z" fill="white"/>
<path d="M26.2469 31.5464C26.5369 31.5464 26.7699 31.7819 26.7672 32.0724C26.7646 32.3578 26.5326 32.5877 26.2469 32.5874C25.9612 32.5874 25.7287 32.3573 25.7263 32.0724C25.7239 31.7822 25.9572 31.5462 26.2469 31.5462V31.5464Z" fill="white"/>
<path d="M25.4897 32.0649C25.4905 32.3557 25.2559 32.5895 24.9659 32.5877C24.6802 32.5858 24.4493 32.3546 24.4485 32.0695C24.4474 31.7798 24.6824 31.5451 24.9723 31.5464C25.2575 31.5478 25.4889 31.7798 25.4897 32.0649Z" fill="white"/>
<path d="M23.701 31.5464C23.9904 31.551 24.2195 31.791 24.2122 32.0818C24.205 32.3667 23.969 32.5919 23.6825 32.5876C23.393 32.5831 23.1637 32.3428 23.1713 32.0523C23.1788 31.7677 23.4153 31.5419 23.701 31.5464Z" fill="white"/>
<path d="M22.4017 32.5877C22.1169 32.5812 21.8892 32.3452 21.8932 32.0604C21.8972 31.7709 22.1367 31.5403 22.4264 31.5465C22.7156 31.5526 22.9436 31.794 22.9344 32.0851C22.9256 32.3694 22.6874 32.5944 22.4017 32.5877Z" fill="white"/>
<path d="M21.6569 32.0627C21.6593 32.3482 21.4317 32.5826 21.1462 32.5877C20.8565 32.593 20.6176 32.3602 20.6157 32.0713C20.6138 31.7814 20.8479 31.5459 21.1377 31.5462C21.4231 31.5467 21.6545 31.7765 21.6569 32.0625V32.0627Z" fill="white"/>
<path d="M20.3794 32.0802C20.373 32.3651 20.1375 32.5917 19.8516 32.5879C19.5624 32.5842 19.3312 32.3439 19.3385 32.0544C19.3457 31.7653 19.5874 31.5376 19.8776 31.547C20.1622 31.5561 20.3859 31.794 20.3794 32.0805V32.0802Z" fill="white"/>
<path d="M31.8778 16.7353C31.8784 17.0253 31.6426 17.2597 31.3529 17.2572C31.0678 17.2548 30.8369 17.0226 30.8366 16.7377C30.8361 16.448 31.0721 16.2136 31.3618 16.2158C31.6469 16.2179 31.8776 16.4502 31.8778 16.7353Z" fill="white"/>
<path d="M10.9154 17.257C10.63 17.2567 10.3967 17.0255 10.3951 16.7415C10.3937 16.4501 10.6265 16.2152 10.9162 16.2155C11.2059 16.2157 11.4398 16.4526 11.4366 16.7423C11.4333 17.0274 11.2006 17.2572 10.9154 17.2572V17.257Z" fill="white"/>
<path d="M29.3225 11.6229C29.3244 11.9083 29.0957 12.1427 28.8108 12.147C28.5208 12.1513 28.2826 11.9185 28.2813 11.6296C28.28 11.3391 28.5127 11.1058 28.8041 11.1058C29.0884 11.1058 29.3204 11.3373 29.3223 11.6232L29.3225 11.6229Z" fill="white"/>
<path d="M12.1959 13.4243C11.9105 13.4256 11.6766 13.1963 11.6729 12.9115C11.6691 12.6207 11.8997 12.3852 12.1911 12.3828C12.4757 12.3807 12.7101 12.6105 12.7144 12.8954C12.7184 13.1851 12.4856 13.4227 12.1959 13.424V13.4243Z" fill="white"/>
<path d="M11.4366 26.9625C11.4336 27.2525 11.196 27.4826 10.9047 27.4775C10.6201 27.4724 10.391 27.2361 10.3951 26.9518C10.3994 26.6604 10.6362 26.4309 10.9267 26.4368C11.2113 26.4424 11.4393 26.6776 11.4366 26.9628V26.9625Z" fill="white"/>
<path d="M10.9151 12.1468C10.6254 12.1468 10.3929 11.9113 10.395 11.62C10.3975 11.3356 10.6305 11.1053 10.9165 11.1053C11.2019 11.1053 11.4344 11.3359 11.4368 11.6208C11.4392 11.9105 11.2051 12.1468 10.9154 12.1465L10.9151 12.1468Z" fill="white"/>
<path d="M27.5239 11.1053C27.8093 11.1047 28.0426 11.3354 28.0448 11.62C28.0469 11.9116 27.8152 12.1465 27.5249 12.1468C27.2355 12.147 27.0014 11.911 27.0038 11.6211C27.0059 11.3359 27.2379 11.1058 27.5241 11.1055L27.5239 11.1053Z" fill="white"/>
<path d="M11.4366 15.4546C11.4387 15.7402 11.2102 15.9749 10.9256 15.9795C10.6346 15.9838 10.3983 15.7539 10.3951 15.4629C10.3919 15.1742 10.6273 14.9374 10.917 14.938C11.2024 14.9385 11.4344 15.1691 11.4366 15.4543V15.4546Z" fill="white"/>
<path d="M14.7423 31.3056C14.455 31.3032 14.2303 31.0728 14.2327 30.7836C14.2354 30.4963 14.4652 30.2716 14.7547 30.274C15.042 30.2764 15.2664 30.5065 15.264 30.796C15.2616 31.0833 15.0315 31.3077 14.7421 31.3053L14.7423 31.3056Z" fill="white"/>
<path d="M12.19 16.2206C12.4786 16.2193 12.7074 16.4454 12.7087 16.7332C12.7101 17.0221 12.484 17.2508 12.1962 17.2519C11.9072 17.253 11.6788 17.0275 11.6771 16.7394C11.6755 16.451 11.9021 16.222 12.1897 16.2204L12.19 16.2206Z" fill="white"/>
<path d="M30.5958 15.4646C30.5936 15.7519 30.3638 15.9766 30.0741 15.9742C29.7868 15.972 29.5618 15.7419 29.5642 15.4525C29.5666 15.1655 29.797 14.9402 30.0859 14.9426C30.3729 14.945 30.5979 15.1751 30.5958 15.4646Z" fill="white"/>
<path d="M12.1921 15.9744C11.9038 15.9739 11.6771 15.7462 11.6774 15.4576C11.678 15.1697 11.9062 14.9423 12.1943 14.9429C12.4824 14.9434 12.7093 15.1714 12.7087 15.4597C12.7084 15.7478 12.4805 15.975 12.1921 15.9741V15.9744Z" fill="white"/>
<path d="M12.709 24.404C12.7082 24.6921 12.48 24.9185 12.1913 24.9177C11.9035 24.9169 11.6766 24.6884 11.6774 24.4C11.6785 24.1122 11.9067 23.8856 12.1953 23.8864C12.4829 23.8869 12.7098 24.1157 12.709 24.4043V24.404Z" fill="white"/>
<path d="M28.0405 30.7942C28.0386 31.082 27.8098 31.3073 27.5206 31.3056C27.2331 31.304 27.007 31.0745 27.0089 30.7858C27.0108 30.498 27.2403 30.2722 27.5287 30.2741C27.8163 30.2757 28.0421 30.5053 28.0402 30.7942H28.0405Z" fill="white"/>
<path d="M26.2434 31.3056C25.9556 31.3043 25.7298 31.0753 25.7311 30.7864C25.7325 30.4988 25.9615 30.273 26.2507 30.2741C26.5379 30.2752 26.7643 30.5047 26.7627 30.7936C26.7611 31.0817 26.5323 31.307 26.2434 31.3056Z" fill="white"/>
<path d="M25.4852 30.7965C25.4825 31.0841 25.2521 31.3085 24.9629 31.3056C24.6754 31.3029 24.4512 31.0731 24.4539 30.7834C24.4563 30.4963 24.6869 30.2713 24.9761 30.2743C25.2634 30.277 25.4881 30.5073 25.4852 30.7965Z" fill="white"/>
<path d="M23.6873 31.3056C23.3995 31.3038 23.1742 31.0747 23.1761 30.7856C23.1777 30.4983 23.4075 30.2725 23.6964 30.2744C23.984 30.2762 24.2093 30.5053 24.2077 30.7947C24.206 31.082 23.9765 31.3078 23.6873 31.3059V31.3056Z" fill="white"/>
<path d="M30.5955 24.4043C30.5947 24.6924 30.3665 24.9182 30.0776 24.9174C29.7897 24.9166 29.5631 24.6878 29.5642 24.3992C29.5653 24.1114 29.794 23.8848 30.0824 23.8859C30.3705 23.8869 30.5963 24.1151 30.5955 24.404V24.4043Z" fill="white"/>
<path d="M30.5955 16.7372C30.5952 17.0256 30.3678 17.2522 30.0789 17.2519C29.7908 17.2519 29.5639 17.024 29.5642 16.7353C29.5642 16.4475 29.7927 16.2201 30.0808 16.2204C30.3689 16.2206 30.5957 16.4486 30.5955 16.7372Z" fill="white"/>
<path d="M12.1897 18.5293C11.9019 18.528 11.6761 18.299 11.6777 18.0101C11.679 17.7225 11.9083 17.4964 12.197 17.4981C12.4848 17.4997 12.7103 17.7284 12.709 18.0173C12.7076 18.3052 12.4789 18.5307 12.1897 18.5293Z" fill="white"/>
<path d="M30.0757 18.5296C29.7878 18.5277 29.5623 18.2984 29.5642 18.0095C29.5661 17.722 29.7954 17.4964 30.0845 17.4981C30.3718 17.4997 30.5976 17.7292 30.5957 18.0184C30.5939 18.3062 30.3648 18.5315 30.0757 18.5296Z" fill="white"/>
<path d="M15.2643 12.9082C15.2621 13.196 15.0328 13.421 14.7437 13.4192C14.4561 13.4173 14.2306 13.1874 14.2327 12.8985C14.2346 12.6113 14.4647 12.3855 14.7533 12.3876C15.0409 12.3897 15.2662 12.6196 15.264 12.9085L15.2643 12.9082Z" fill="white"/>
<path d="M12.709 25.6804C12.709 25.9685 12.4805 26.1956 12.1924 26.1951C11.904 26.1945 11.6771 25.9669 11.6777 25.6782C11.678 25.3904 11.9062 25.163 12.1945 25.1635C12.4826 25.1641 12.7092 25.3918 12.7092 25.6804H12.709Z" fill="white"/>
<path d="M22.9299 30.7944C22.9283 31.0817 22.699 31.3073 22.4098 31.3056C22.1222 31.304 21.8967 31.0745 21.8986 30.7856C21.9005 30.4983 22.13 30.2725 22.4189 30.2744C22.7065 30.2762 22.9315 30.5053 22.9301 30.7947L22.9299 30.7944Z" fill="white"/>
<path d="M21.1299 31.3056C20.8428 31.3032 20.6178 31.0722 20.6208 30.7833C20.6238 30.4961 20.8541 30.2716 21.1433 30.2743C21.4306 30.2767 21.6548 30.5071 21.6524 30.7968C21.6499 31.0841 21.4198 31.3083 21.1301 31.3058L21.1299 31.3056Z" fill="white"/>
<path d="M20.3746 30.7944C20.373 31.082 20.1437 31.3072 19.8545 31.3056C19.5669 31.3038 19.3411 31.0742 19.343 30.7856C19.3449 30.498 19.5742 30.273 19.8634 30.2744C20.1507 30.276 20.3762 30.5053 20.3746 30.7944Z" fill="white"/>
<path d="M19.0971 30.788C19.0976 31.0769 18.8715 31.3048 18.5834 31.3056C18.2948 31.3064 18.0663 31.0798 18.0655 30.792C18.0647 30.5036 18.2916 30.2749 18.5791 30.2741C18.8678 30.2733 19.0963 30.4999 19.0968 30.7877L19.0971 30.788Z" fill="white"/>
<path d="M17.3049 30.2744C17.593 30.2746 17.8198 30.5026 17.8193 30.7912C17.8188 31.0796 17.5913 31.3062 17.3027 31.3056C17.0146 31.3054 16.7875 31.0771 16.788 30.7891C16.7885 30.501 17.0165 30.2741 17.3049 30.2744Z" fill="white"/>
<path d="M16.5418 30.795C16.5399 31.0828 16.3103 31.3078 16.0212 31.3056C15.7336 31.3035 15.5081 31.0737 15.5102 30.785C15.5126 30.4975 15.7422 30.2722 16.0311 30.2741C16.3187 30.276 16.5437 30.5055 16.5418 30.795Z" fill="white"/>
<path d="M16.5418 12.9052C16.5415 13.1931 16.3128 13.4202 16.0244 13.4191C15.736 13.4181 15.5097 13.1901 15.5105 12.9018C15.5113 12.6139 15.7395 12.387 16.0279 12.3879C16.316 12.3887 16.5421 12.6163 16.5418 12.9055V12.9052Z" fill="white"/>
<path d="M30.5957 25.686C30.5931 25.9733 30.3627 26.1978 30.0735 26.1951C29.7862 26.1924 29.562 25.9623 29.5644 25.6726C29.5669 25.3859 29.7978 25.1606 30.0869 25.1636C30.374 25.1662 30.5987 25.3969 30.596 25.686H30.5957Z" fill="white"/>
<path d="M30.0818 22.6086C30.3697 22.6091 30.596 22.8376 30.5955 23.1263C30.5949 23.4141 30.3665 23.6407 30.0778 23.6399C29.7897 23.6391 29.5631 23.4109 29.5639 23.1222C29.565 22.8341 29.7932 22.6078 30.0816 22.6083L30.0818 22.6086Z" fill="white"/>
<path d="M12.709 23.1225C12.7098 23.4111 12.4832 23.6394 12.1953 23.6402C11.9067 23.641 11.6785 23.4144 11.6777 23.1263C11.6769 22.8376 11.9035 22.6094 12.1916 22.6086C12.48 22.6078 12.7084 22.8344 12.7093 23.1225H12.709Z" fill="white"/>
<path d="M30.5958 20.5721C30.5947 20.8596 30.3654 21.0862 30.077 21.0846C29.7889 21.083 29.5631 20.8545 29.5645 20.5659C29.5658 20.2781 29.7946 20.052 30.0832 20.0533C30.371 20.0547 30.5968 20.2832 30.5958 20.5721Z" fill="white"/>
<path d="M17.3006 13.4191C17.0127 13.4178 16.7867 13.189 16.788 12.9004C16.7891 12.6129 17.0184 12.3865 17.307 12.3876C17.5946 12.3887 17.8209 12.618 17.8196 12.9066C17.8182 13.1944 17.5895 13.4205 17.3008 13.4191H17.3006Z" fill="white"/>
<path d="M18.5821 13.4191C18.2937 13.4194 18.0658 13.192 18.0658 12.9042C18.0658 12.6158 18.2927 12.3881 18.581 12.3879C18.8694 12.3876 19.0968 12.6145 19.0971 12.9028C19.0973 13.1912 18.8705 13.4189 18.5821 13.4191Z" fill="white"/>
<path d="M12.1924 18.7758C12.4813 18.7758 12.7087 19.0024 12.709 19.2905C12.7092 19.5792 12.4824 19.8068 12.1943 19.8071C11.9056 19.8074 11.678 19.5805 11.6777 19.2924C11.6771 19.0043 11.9048 18.7758 12.1927 18.7758H12.1924Z" fill="white"/>
<path d="M30.0738 19.8071C29.7865 19.8047 29.5618 19.5749 29.5642 19.2852C29.5666 18.9982 29.797 18.7734 30.0861 18.7758C30.3734 18.7783 30.5979 19.0084 30.5958 19.2978C30.5933 19.5848 30.3632 19.8095 30.0738 19.8071Z" fill="white"/>
<path d="M12.709 26.9671C12.705 27.2538 12.4738 27.4764 12.1833 27.4726C11.8971 27.4689 11.6734 27.2366 11.6774 26.9469C11.6815 26.6605 11.9137 26.4371 12.2034 26.4414C12.4902 26.4454 12.713 26.6771 12.709 26.9671Z" fill="white"/>
<path d="M30.5958 26.9611C30.5944 27.2487 30.3651 27.4745 30.0762 27.4729C29.7884 27.4713 29.5626 27.242 29.5645 26.9533C29.5663 26.6658 29.7956 26.4397 30.0843 26.4416C30.3721 26.4432 30.5974 26.6722 30.596 26.9614L30.5958 26.9611Z" fill="white"/>
<path d="M20.3746 12.9093C20.3724 13.1966 20.1429 13.4213 19.8532 13.4192C19.5661 13.417 19.3409 13.1866 19.3433 12.8977C19.3457 12.6105 19.5758 12.3855 19.865 12.3879C20.1523 12.39 20.377 12.6201 20.3746 12.9096V12.9093Z" fill="white"/>
<path d="M12.709 20.567C12.7101 20.8553 12.4832 21.0841 12.1953 21.0846C11.9067 21.0854 11.6782 20.8588 11.6774 20.571C11.6766 20.2824 11.9035 20.0539 12.1913 20.0531C12.4797 20.0523 12.7082 20.2789 12.709 20.567Z" fill="white"/>
<path d="M21.6524 12.9017C21.6529 13.1906 21.4266 13.4186 21.1385 13.4191C20.8498 13.4197 20.6216 13.1933 20.6211 12.9052C20.6203 12.6169 20.8474 12.3884 21.135 12.3879C21.4239 12.3873 21.6518 12.6139 21.6524 12.9017Z" fill="white"/>
<path d="M12.709 28.2408C12.7066 28.5281 12.4765 28.7531 12.1873 28.7504C11.8997 28.748 11.6753 28.5181 11.6774 28.2287C11.6798 27.9417 11.9099 27.7167 12.1991 27.7188C12.4861 27.721 12.7111 27.9513 12.7087 28.2405L12.709 28.2408Z" fill="white"/>
<path d="M30.5957 28.2405C30.5936 28.5275 30.3635 28.7525 30.0743 28.7501C29.787 28.7477 29.562 28.5176 29.5644 28.2284C29.5669 27.9411 29.7972 27.7161 30.0861 27.7186C30.3734 27.721 30.5979 27.9508 30.5957 28.2402V28.2405Z" fill="white"/>
<path d="M30.0794 22.3624C29.7911 22.3618 29.5639 22.1342 29.5642 21.8461C29.5642 21.558 29.7924 21.3306 30.0805 21.3308C30.3689 21.3311 30.5957 21.5588 30.5955 21.8471C30.5955 22.1355 30.3673 22.3629 30.0792 22.3621L30.0794 22.3624Z" fill="white"/>
<path d="M12.709 21.8421C12.7109 22.1312 12.4856 22.3608 12.198 22.3624C11.9089 22.3643 11.6796 22.139 11.6774 21.8515C11.6755 21.5628 11.9011 21.333 12.1886 21.3308C12.4775 21.329 12.7071 21.5542 12.709 21.8421Z" fill="white"/>
<path d="M22.4162 12.3876C22.7043 12.3884 22.9304 12.6163 22.9299 12.9052C22.9293 13.1931 22.7009 13.4197 22.4122 13.4189C22.1244 13.4181 21.8975 13.1896 21.8983 12.9012C21.8991 12.6134 22.1276 12.3865 22.4162 12.3873V12.3876Z" fill="white"/>
<path d="M24.2077 12.9018C24.2085 13.1904 23.9819 13.4183 23.6938 13.4191C23.4051 13.4197 23.1769 13.1933 23.1764 12.9052C23.1758 12.6169 23.4027 12.3884 23.6905 12.3876C23.9786 12.3868 24.2071 12.6139 24.2079 12.9018H24.2077Z" fill="white"/>
<path d="M27.5241 12.3876C27.8125 12.3876 28.0402 12.6145 28.0405 12.9026C28.0407 13.1909 27.8136 13.4189 27.5255 13.4189C27.2371 13.4189 27.0094 13.1923 27.0089 12.9039C27.0084 12.6158 27.236 12.3876 27.5239 12.3873L27.5241 12.3876Z" fill="white"/>
<path d="M24.9648 13.4189C24.6773 13.4173 24.4517 13.1877 24.4536 12.8988C24.4558 12.6112 24.6848 12.3862 24.9742 12.3876C25.2615 12.3892 25.4873 12.619 25.4852 12.9079C25.4833 13.1958 25.2543 13.4205 24.9648 13.4189Z" fill="white"/>
<path d="M26.7627 12.9042C26.7621 13.1928 26.535 13.4194 26.2464 13.4191C25.9583 13.4191 25.7311 13.1915 25.7314 12.9028C25.7314 12.615 25.9596 12.3873 26.2477 12.3876C26.5358 12.3876 26.7632 12.6158 26.7627 12.9039V12.9042Z" fill="white"/>
<path d="M29.3113 14.1839C29.3102 14.4671 29.0822 14.6913 28.7971 14.6892C28.5192 14.687 28.2953 14.4617 28.2947 14.1831C28.2939 13.8987 28.5195 13.6724 28.8035 13.6726C29.0881 13.6726 29.3123 13.8987 29.3113 14.1841V14.1839Z" fill="white"/>
<path d="M12.9622 14.1749C12.9641 13.8919 13.1931 13.6694 13.4788 13.6723C13.761 13.6753 13.9827 13.9056 13.9787 14.1919C13.9747 14.4692 13.7475 14.6902 13.4675 14.6891C13.1837 14.688 12.9603 14.4606 12.9622 14.1749Z" fill="white"/>
<path d="M13.979 29.5104C13.9798 29.795 13.7545 30.0211 13.4702 30.0211C13.1858 30.0211 12.9611 29.7948 12.9624 29.5099C12.9635 29.2307 13.1869 29.0067 13.4656 29.0046C13.7502 29.0027 13.9784 29.2274 13.9792 29.5107L13.979 29.5104Z" fill="white"/>
<path d="M28.8076 29.0043C29.0908 29.0059 29.3137 29.2344 29.3113 29.5201C29.3086 29.8028 29.079 30.0246 28.7928 30.0208C28.5152 30.0171 28.2939 29.7907 28.2945 29.5107C28.295 29.2277 28.5229 29.0024 28.8076 29.0043Z" fill="white"/>
<path d="M28.8062 28.7168C28.5388 28.7171 28.3245 28.5026 28.3253 28.2352C28.3261 27.9683 28.5428 27.7543 28.8097 27.757C29.0726 27.7594 29.2831 27.9704 29.2849 28.2333C29.2868 28.5007 29.0731 28.7166 28.8062 28.7168Z" fill="white"/>
<path d="M27.526 13.6992C27.7926 13.6984 28.008 13.9138 28.0069 14.1809C28.0061 14.4435 27.7956 14.6561 27.5335 14.6591C27.2658 14.662 27.0489 14.4499 27.047 14.1831C27.0451 13.9159 27.2586 13.7 27.526 13.6992Z" fill="white"/>
<path d="M27.5287 29.9949C27.2613 29.9954 27.0462 29.7809 27.047 29.5137C27.0476 29.2468 27.2634 29.0334 27.5309 29.035C27.7932 29.0366 28.0048 29.2482 28.0069 29.5105C28.009 29.7776 27.7951 29.9943 27.5287 29.9949Z" fill="white"/>
<path d="M14.7415 29.9948C14.4752 29.9924 14.2628 29.7741 14.2668 29.5067C14.2708 29.2407 14.4902 29.0296 14.7576 29.0347C15.0191 29.0398 15.2286 29.2551 15.227 29.5172C15.2253 29.7846 15.0092 29.9973 14.7415 29.9946V29.9948Z" fill="white"/>
<path d="M28.8084 14.9769C29.0744 14.9783 29.2876 15.1955 29.2852 15.4629C29.2828 15.729 29.064 15.9411 28.7965 15.9368C28.5348 15.9328 28.3245 15.7185 28.3251 15.4564C28.3256 15.1896 28.5412 14.9756 28.8084 14.9766V14.9769Z" fill="white"/>
<path d="M13.468 28.7168C13.2014 28.7168 12.9869 28.5004 12.9888 28.2335C12.9906 27.9712 13.2019 27.7594 13.464 27.757C13.7312 27.7545 13.947 27.9675 13.9489 28.2349C13.9505 28.501 13.7354 28.7168 13.468 28.7168Z" fill="white"/>
<path d="M12.9888 15.4551C12.9898 15.1882 13.206 14.975 13.4734 14.9769C13.7392 14.9788 13.9524 15.1976 13.9486 15.4645C13.9449 15.7268 13.7317 15.9373 13.4696 15.9371C13.2022 15.9371 12.9874 15.722 12.9888 15.4551Z" fill="white"/>
<path d="M14.748 13.699C15.0151 13.6995 15.2286 13.9154 15.2267 14.1831C15.2251 14.4491 15.0068 14.6623 14.7399 14.6588C14.4776 14.6553 14.2668 14.4424 14.2665 14.1804C14.266 13.913 14.4808 13.6982 14.748 13.699Z" fill="white"/>
<path d="M13.9215 16.7356C13.9215 16.989 13.7215 17.1893 13.4688 17.1891C13.2156 17.1891 13.0132 16.989 13.0119 16.7383C13.0105 16.4813 13.2151 16.277 13.4715 16.2789C13.7239 16.2805 13.9215 16.4816 13.9215 16.7356Z" fill="white"/>
<path d="M16.0263 29.0624C16.2795 29.0632 16.4776 29.2619 16.4792 29.5164C16.4806 29.7674 16.2789 29.9712 16.0276 29.9723C15.7715 29.9736 15.5655 29.7669 15.5688 29.5118C15.572 29.2586 15.7725 29.0616 16.0263 29.0624Z" fill="white"/>
<path d="M28.3522 16.7307C28.3535 16.4784 28.5544 16.2789 28.8073 16.2789C29.0626 16.2789 29.2659 16.4861 29.2621 16.7431C29.2586 16.9936 29.0522 17.1931 28.8008 17.1891C28.5471 17.185 28.3511 16.9847 28.3525 16.7307H28.3522Z" fill="white"/>
<path d="M26.248 29.0621C26.5004 29.0608 26.7028 29.2594 26.7055 29.5118C26.7082 29.7637 26.5089 29.9685 26.2579 29.972C26.0012 29.9758 25.7947 29.7728 25.7947 29.5161C25.7947 29.2635 25.9942 29.0634 26.2477 29.0621H26.248Z" fill="white"/>
<path d="M26.2549 14.6316C26.0009 14.6332 25.798 14.4362 25.795 14.1851C25.7921 13.9282 25.995 13.722 26.2512 13.7223C26.5022 13.7223 26.7044 13.9242 26.7058 14.176C26.7071 14.4287 26.5079 14.6303 26.2552 14.6319L26.2549 14.6316Z" fill="white"/>
<path d="M13.9215 26.9619C13.9215 27.2149 13.7207 27.4157 13.4686 27.4154C13.2162 27.4154 13.0137 27.2149 13.0121 26.9641C13.0105 26.7074 13.2146 26.5033 13.4718 26.505C13.7234 26.5066 13.9218 26.7079 13.9215 26.9619Z" fill="white"/>
<path d="M28.3522 26.9622C28.3514 26.7085 28.5498 26.5068 28.8019 26.5047C29.0586 26.5026 29.2637 26.7071 29.2621 26.9633C29.2605 27.2151 29.0581 27.416 28.8062 27.4152C28.5533 27.4144 28.3527 27.2146 28.3522 26.9622Z" fill="white"/>
<path d="M16.0255 14.6316C15.772 14.6322 15.5706 14.4338 15.5688 14.1816C15.5669 13.9252 15.7715 13.7209 16.0282 13.7223C16.2792 13.7236 16.479 13.9258 16.479 14.179C16.479 14.4319 16.2795 14.6311 16.0255 14.6316Z" fill="white"/>
<path d="M29.2527 20.5688C29.253 20.8191 29.0562 21.0161 28.8067 21.0156C28.5576 21.0151 28.36 20.8172 28.36 20.5688C28.36 20.3199 28.5573 20.1226 28.8067 20.122C29.0559 20.1215 29.2525 20.3183 29.2527 20.5688Z" fill="white"/>
<path d="M20.3056 29.5155C20.3064 29.7655 20.1101 29.9626 19.8599 29.9628C19.6094 29.9628 19.412 29.7668 19.412 29.5179C19.412 29.2688 19.6091 29.0706 19.8577 29.0701C20.1064 29.0696 20.3048 29.2669 20.3056 29.5155Z" fill="white"/>
<path d="M21.1387 13.7311C21.3882 13.7317 21.5842 13.929 21.5834 14.1795C21.5828 14.4281 21.3841 14.6252 21.135 14.6244C20.8872 14.6236 20.6893 14.4244 20.6898 14.176C20.6903 13.9271 20.8885 13.7309 21.1385 13.7314L21.1387 13.7311Z" fill="white"/>
<path d="M13.468 20.122C13.7164 20.1223 13.9143 20.3205 13.9143 20.5694C13.9143 20.8177 13.7156 21.0164 13.4672 21.0156C13.2173 21.0151 13.0212 20.8185 13.0212 20.5686C13.0212 20.3191 13.2186 20.1218 13.468 20.1223V20.122Z" fill="white"/>
<path d="M24.1397 29.5179C24.1397 29.7679 23.9426 29.9639 23.6921 29.9626C23.4406 29.961 23.2462 29.7658 23.2467 29.515C23.2475 29.2669 23.4462 29.0693 23.6948 29.0696C23.944 29.0698 24.1395 29.2669 24.1397 29.5177V29.5179Z" fill="white"/>
<path d="M28.8043 25.235C29.0551 25.2342 29.2506 25.4281 29.2527 25.6796C29.2546 25.9307 29.0599 26.1275 28.8092 26.1277C28.5581 26.128 28.3605 25.9328 28.36 25.6839C28.3594 25.4348 28.5565 25.2358 28.8046 25.235H28.8043Z" fill="white"/>
<path d="M13.9143 21.8452C13.9148 22.0944 13.718 22.2928 13.4694 22.2934C13.2194 22.2939 13.0215 22.0976 13.0212 21.8485C13.0212 21.598 13.217 21.4004 13.4659 21.3998C13.7145 21.3993 13.9137 21.5972 13.9143 21.845V21.8452Z" fill="white"/>
<path d="M22.4176 29.0698C22.6665 29.0704 22.8619 29.2682 22.8617 29.519C22.8611 29.769 22.6635 29.9644 22.413 29.9626C22.162 29.9607 21.967 29.7642 21.9684 29.5142C21.9697 29.2661 22.1687 29.0693 22.4176 29.0698Z" fill="white"/>
<path d="M24.9691 29.9626C24.7178 29.9604 24.5242 29.7647 24.525 29.5137C24.5258 29.2661 24.7256 29.0688 24.9745 29.0696C25.2237 29.0704 25.4186 29.268 25.4178 29.519C25.417 29.7701 25.2202 29.9645 24.9691 29.9623V29.9626Z" fill="white"/>
<path d="M19.0273 29.5163C19.0281 29.7658 18.8307 29.9626 18.5805 29.9623C18.3297 29.962 18.1337 29.7663 18.1337 29.5166C18.1337 29.268 18.3319 29.0696 18.5802 29.0698C18.8291 29.0698 19.0265 29.2672 19.0273 29.5163Z" fill="white"/>
<path d="M28.8059 24.8497C28.5554 24.8486 28.3594 24.6524 28.36 24.4027C28.3605 24.1543 28.5587 23.957 28.8076 23.9567C29.0573 23.9567 29.2527 24.153 29.253 24.4043C29.253 24.6548 29.057 24.8505 28.8062 24.8494L28.8059 24.8497Z" fill="white"/>
<path d="M13.9143 19.2943C13.9132 19.5418 13.7129 19.7389 13.4637 19.7373C13.2151 19.7359 13.0191 19.5365 13.021 19.2865C13.0229 19.0371 13.2207 18.8424 13.4713 18.8437C13.7188 18.8448 13.9151 19.0446 13.9143 19.294V19.2943Z" fill="white"/>
<path d="M29.2527 23.1268C29.2527 23.3767 29.0556 23.5727 28.8051 23.5714C28.5552 23.5703 28.3592 23.3732 28.3597 23.1238C28.3602 22.8757 28.5592 22.6781 28.8078 22.6784C29.057 22.6784 29.2522 22.8755 29.2525 23.1268H29.2527Z" fill="white"/>
<path d="M19.8569 13.7311C20.1066 13.7301 20.3042 13.9261 20.3056 14.1758C20.3069 14.4241 20.1088 14.6239 19.8607 14.6241C19.6115 14.6247 19.4128 14.4273 19.412 14.1793C19.4112 13.9296 19.6075 13.7319 19.8569 13.7309V13.7311Z" fill="white"/>
<path d="M18.5853 14.6244C18.3351 14.6255 18.1351 14.4298 18.134 14.1825C18.1326 13.9315 18.3265 13.7336 18.5759 13.7314C18.8262 13.7293 19.0262 13.9247 19.0278 14.1731C19.0294 14.4228 18.8329 14.6234 18.5856 14.6244H18.5853Z" fill="white"/>
<path d="M17.3022 13.7311C17.5519 13.7311 17.7487 13.9282 17.749 14.1776C17.749 14.426 17.5505 14.6244 17.3022 14.6241C17.0533 14.6239 16.8554 14.4257 16.8557 14.1774C16.8557 13.9277 17.0527 13.7309 17.3022 13.7309V13.7311Z" fill="white"/>
<path d="M28.8067 22.2934C28.5568 22.2928 28.36 22.096 28.36 21.8471C28.36 21.5988 28.5581 21.4004 28.8065 21.4001C29.0562 21.4001 29.2519 21.5961 29.2525 21.8469C29.253 22.0971 29.0565 22.2939 28.8065 22.2934H28.8067Z" fill="white"/>
<path d="M13.9143 23.1341C13.9113 23.3816 13.7097 23.5755 13.4589 23.5717C13.21 23.5682 13.0175 23.3679 13.0212 23.1166C13.025 22.8688 13.2261 22.6752 13.4763 22.6784C13.7228 22.6817 13.9172 22.8838 13.9143 23.1338V23.1341Z" fill="white"/>
<path d="M13.9143 25.6826C13.9143 25.9317 13.7169 26.1283 13.467 26.128C13.2164 26.1277 13.021 25.9317 13.0215 25.6812C13.0218 25.4315 13.2189 25.235 13.4683 25.2353C13.7164 25.2353 13.9145 25.4342 13.9143 25.6826Z" fill="white"/>
<path d="M22.8617 14.1736C22.8636 14.4236 22.6678 14.6228 22.4195 14.6242C22.1706 14.6255 21.9703 14.429 21.9687 14.1817C21.967 13.9323 22.1625 13.7333 22.4114 13.7314C22.6619 13.7295 22.8601 13.9239 22.8617 14.1736Z" fill="white"/>
<path d="M29.2527 18.0083C29.2543 18.2593 29.0599 18.4577 28.8108 18.4591C28.5616 18.4604 28.3613 18.2636 28.36 18.0163C28.3586 17.7669 28.5549 17.5671 28.8027 17.5658C29.054 17.5645 29.2511 17.7583 29.2527 18.0083Z" fill="white"/>
<path d="M13.471 17.5658C13.7185 17.5666 13.9148 17.7661 13.914 18.0158C13.9132 18.2633 13.7132 18.4604 13.464 18.4591C13.2154 18.4577 13.0199 18.259 13.021 18.0088C13.0223 17.7599 13.2202 17.5647 13.471 17.5658Z" fill="white"/>
<path d="M17.3078 29.0698C17.5551 29.0717 17.7508 29.2723 17.749 29.5223C17.7473 29.7703 17.5476 29.9647 17.2965 29.9626C17.0468 29.9602 16.8538 29.7626 16.8557 29.511C16.8575 29.2634 17.0578 29.068 17.3078 29.0698Z" fill="white"/>
<path d="M24.9697 14.6244C24.7218 14.6236 24.5242 14.4241 24.525 14.1755C24.5258 13.9266 24.7237 13.7306 24.9739 13.7311C25.2237 13.7317 25.4188 13.929 25.4178 14.1795C25.4167 14.4292 25.2194 14.625 24.9697 14.6241V14.6244Z" fill="white"/>
<path d="M21.1379 29.9626C20.8869 29.9623 20.6901 29.7668 20.6901 29.5174C20.6901 29.2688 20.8877 29.0704 21.1361 29.0698C21.3852 29.0693 21.5823 29.2658 21.5834 29.5155C21.5844 29.7658 21.3879 29.9628 21.1379 29.9623V29.9626Z" fill="white"/>
<path d="M28.8116 19.7373C28.5613 19.7384 28.3618 19.5429 28.36 19.2954C28.3584 19.0459 28.5544 18.8456 28.8016 18.844C29.053 18.8424 29.2503 19.0357 29.2525 19.2857C29.2546 19.5365 29.0594 19.7362 28.8113 19.7373H28.8116Z" fill="white"/>
<path d="M24.1397 14.1811C24.1384 14.4303 23.94 14.6258 23.6903 14.6244C23.4422 14.6231 23.2462 14.4239 23.247 14.1744C23.2478 13.9263 23.447 13.7303 23.6972 13.7317C23.9467 13.7328 24.1413 13.9306 24.14 14.1814L24.1397 14.1811Z" fill="white"/>
<path d="M13.4704 24.8497C13.2197 24.8508 13.0218 24.6553 13.0212 24.4062C13.0207 24.1557 13.2162 23.9575 13.4648 23.9564C13.7137 23.9556 13.9132 24.1527 13.9143 24.4005C13.9153 24.6502 13.7196 24.8484 13.4704 24.8497Z" fill="white"/>
<path d="M27.5193 28.6421C27.2927 28.6357 27.1214 28.4518 27.1289 28.2236C27.1362 28.005 27.3198 27.8343 27.5427 27.8388C27.7666 27.8434 27.9387 28.0289 27.9317 28.2582C27.9247 28.48 27.7438 28.6483 27.5193 28.6421Z" fill="white"/>
<path d="M27.9322 15.4516C27.9341 15.6731 27.7591 15.8533 27.5386 15.8562C27.3115 15.8592 27.1294 15.6814 27.1286 15.4562C27.1278 15.2328 27.3002 15.0561 27.5228 15.0524C27.7518 15.0486 27.9301 15.2223 27.932 15.4513L27.9322 15.4516Z" fill="white"/>
<path d="M14.7418 15.0527C14.9646 15.0518 15.1429 15.2256 15.1459 15.4465C15.1488 15.6731 14.9708 15.8557 14.7455 15.8563C14.5184 15.8568 14.3409 15.6782 14.3423 15.4503C14.3436 15.2261 14.517 15.0537 14.7418 15.0527Z" fill="white"/>
<path d="M15.1461 28.2456C15.1445 28.4668 14.9673 28.6419 14.7447 28.6416C14.5149 28.6416 14.3401 28.4649 14.3425 28.2362C14.3449 28.0131 14.5203 27.8391 14.7431 27.8388C14.9689 27.8385 15.1477 28.019 15.1461 28.2456Z" fill="white"/>
<path d="M21.1403 22.2378C20.9229 22.2386 20.7486 22.067 20.747 21.8506C20.7454 21.6342 20.9183 21.4586 21.1344 21.4573C21.3511 21.4559 21.5259 21.628 21.5275 21.8447C21.5291 22.0611 21.3562 22.237 21.1403 22.2378Z" fill="white"/>
<path d="M19.8572 21.457C20.0736 21.4562 20.2481 21.6296 20.2484 21.8463C20.2487 22.0635 20.0763 22.237 19.8596 22.2375C19.6429 22.238 19.4687 22.0648 19.4684 21.8484C19.4681 21.6312 19.6405 21.4575 19.8572 21.4567V21.457Z" fill="white"/>
<path d="M21.5278 20.57C21.527 20.7882 21.3517 20.9612 21.1336 20.9587C20.9156 20.9563 20.7435 20.7797 20.7473 20.5619C20.751 20.3487 20.9223 20.1798 21.136 20.1788C21.3535 20.1777 21.5286 20.3525 21.5278 20.57Z" fill="white"/>
<path d="M22.8066 21.8558C22.8029 22.0706 22.6243 22.2416 22.4079 22.2376C22.1918 22.2335 22.021 22.055 22.0258 21.8391C22.0309 21.6219 22.2076 21.4528 22.4246 21.4571C22.6404 21.4614 22.8104 21.6386 22.8066 21.8558Z" fill="white"/>
<path d="M21.5275 23.1249C21.5283 23.3424 21.3533 23.5177 21.136 23.5166C20.9183 23.5158 20.7451 23.34 20.747 23.1222C20.7489 22.9088 20.9186 22.7391 21.1328 22.7359C21.3495 22.7326 21.5264 22.9072 21.5272 23.1249H21.5275Z" fill="white"/>
<path d="M22.4168 22.7415C22.6327 22.7415 22.7997 22.9074 22.8018 23.1241C22.804 23.3378 22.6345 23.5105 22.4216 23.5118C22.2001 23.5132 22.0304 23.3443 22.0318 23.123C22.0328 22.9077 22.2009 22.7415 22.417 22.7415H22.4168Z" fill="white"/>
<path d="M20.2422 23.1225C20.2438 23.34 20.0809 23.5078 19.8647 23.5115C19.6459 23.5153 19.4719 23.3435 19.4727 23.1244C19.4735 22.9101 19.6421 22.742 19.8575 22.7415C20.0741 22.741 20.2406 22.9058 20.2422 23.1225Z" fill="white"/>
<path d="M22.0315 20.563C22.0336 20.3487 22.2047 20.1809 22.4189 20.1825C22.6335 20.1841 22.8021 20.3541 22.8015 20.5683C22.801 20.7888 22.63 20.9558 22.4079 20.9523C22.192 20.9491 22.0293 20.7804 22.0315 20.563Z" fill="white"/>
<path d="M19.862 20.9523C19.6451 20.9531 19.4754 20.7888 19.4724 20.5748C19.4695 20.3559 19.6411 20.1822 19.8601 20.1828C20.0744 20.183 20.2417 20.3516 20.2425 20.5675C20.2433 20.7847 20.0787 20.9515 19.862 20.9523Z" fill="white"/>
<path d="M14.4319 16.7319C14.4309 16.5565 14.5592 16.4239 14.7324 16.4215C14.912 16.4191 15.0455 16.5506 15.0457 16.7305C15.0457 16.9013 14.9104 17.0369 14.7394 17.0371C14.5673 17.0371 14.433 16.904 14.4319 16.7319Z" fill="white"/>
<path d="M27.5279 27.272C27.3542 27.269 27.2266 27.1361 27.2291 26.9605C27.2312 26.7884 27.3663 26.6561 27.5381 26.6571C27.7132 26.6582 27.8461 26.7976 27.842 26.9764C27.8383 27.1496 27.7048 27.2752 27.5279 27.272Z" fill="white"/>
<path d="M26.5621 28.2488C26.561 28.4238 26.4314 28.5522 26.2555 28.5519C26.0826 28.5519 25.9483 28.4193 25.9473 28.248C25.9462 28.0716 26.0837 27.9365 26.2617 27.9389C26.4348 27.9411 26.5632 28.0737 26.5621 28.2488Z" fill="white"/>
<path d="M16.0179 15.1423C16.1909 15.1423 16.3251 15.2739 16.327 15.4457C16.3289 15.617 16.1954 15.7534 16.0241 15.7556C15.8442 15.7577 15.7105 15.6254 15.7113 15.4465C15.7121 15.2726 15.8432 15.1426 16.0177 15.1423H16.0179Z" fill="white"/>
<path d="M26.2598 15.7553C26.0866 15.7567 25.9507 15.6262 25.9478 15.4551C25.9446 15.2787 26.0804 15.1415 26.2579 15.1423C26.4327 15.1429 26.5618 15.2726 26.5624 15.4479C26.5629 15.6235 26.4343 15.754 26.2598 15.7553Z" fill="white"/>
<path d="M14.7359 27.272C14.5606 27.2709 14.4322 27.1415 14.4322 26.9659C14.4322 26.793 14.564 26.659 14.7359 26.6574C14.9112 26.6558 15.0473 26.7938 15.0455 26.9713C15.0433 27.1453 14.9117 27.2731 14.7361 27.2723L14.7359 27.272Z" fill="white"/>
<path d="M27.2291 16.7278C27.2293 16.5533 27.3596 16.4225 27.5338 16.4217C27.7134 16.4209 27.8447 16.5541 27.8423 16.7345C27.8402 16.9066 27.7046 17.039 27.5327 17.0371C27.3612 17.0352 27.2291 16.9004 27.2293 16.7278H27.2291Z" fill="white"/>
<path d="M16.0196 28.552C15.8442 28.5523 15.7129 28.4234 15.7116 28.2497C15.71 28.0703 15.8429 27.9374 16.0225 27.939C16.1944 27.9406 16.3278 28.0757 16.327 28.2472C16.3262 28.4191 16.1922 28.552 16.0196 28.5523V28.552Z" fill="white"/>
<path d="M18.2908 21.8393C18.2937 21.6788 18.4181 21.5582 18.5797 21.5593C18.7435 21.5604 18.8697 21.6903 18.8662 21.8544C18.8627 22.0168 18.7306 22.1392 18.5647 22.1341C18.406 22.1293 18.2881 22.002 18.2911 21.8393H18.2908Z" fill="white"/>
<path d="M21.4244 19.2932C21.422 19.4524 21.2963 19.5762 21.1369 19.5762C20.9736 19.5762 20.8474 19.4468 20.8496 19.282C20.8517 19.1176 20.9806 18.9965 21.1484 19.0008C21.3082 19.0051 21.4271 19.1308 21.4247 19.2932H21.4244Z" fill="white"/>
<path d="M21.4241 24.4139C21.4212 24.5788 21.2931 24.6977 21.124 24.6929C20.9642 24.6881 20.8461 24.5619 20.8493 24.3992C20.8525 24.2405 20.9798 24.117 21.1387 24.1178C21.3009 24.1189 21.4271 24.2496 21.4241 24.4139Z" fill="white"/>
<path d="M23.9829 21.8493C23.9821 22.0118 23.8616 22.1331 23.6999 22.1345C23.5359 22.1358 23.407 22.008 23.4078 21.845C23.4089 21.6826 23.5396 21.5567 23.7042 21.5596C23.8637 21.5626 23.9837 21.6871 23.9829 21.8493Z" fill="white"/>
<path d="M19.8532 19.5719C19.6937 19.5695 19.5699 19.4406 19.5729 19.2803C19.5755 19.1208 19.7039 18.9997 19.8663 19.0038C20.0204 19.0075 20.1426 19.1334 20.1421 19.2878C20.1415 19.446 20.011 19.5743 19.8532 19.5716V19.5719Z" fill="white"/>
<path d="M23.6932 22.8419C23.8516 22.8395 23.9797 22.9665 23.98 23.1257C23.9802 23.2838 23.8621 23.4068 23.7064 23.4108C23.5463 23.4149 23.4151 23.2914 23.4121 23.1338C23.4091 22.9745 23.5345 22.8443 23.6929 22.8419H23.6932Z" fill="white"/>
<path d="M22.7008 19.2919C22.6987 19.4498 22.5674 19.576 22.4093 19.572C22.2557 19.5679 22.1319 19.4412 22.1316 19.2876C22.1316 19.1292 22.2594 19.003 22.4189 19.0038C22.5806 19.0046 22.703 19.1298 22.7008 19.2919Z" fill="white"/>
<path d="M22.7008 24.4018C22.703 24.5645 22.5816 24.6889 22.4195 24.6899C22.2597 24.691 22.1314 24.5645 22.1319 24.4067C22.1324 24.2523 22.2549 24.1266 22.4093 24.1221C22.5679 24.1175 22.699 24.2429 22.7008 24.4018Z" fill="white"/>
<path d="M19.8585 24.6899C19.6964 24.6907 19.572 24.5672 19.5726 24.4061C19.5731 24.2472 19.7015 24.1204 19.8604 24.1223C20.0137 24.1239 20.1397 24.2493 20.1421 24.4026C20.1445 24.561 20.018 24.6894 19.8585 24.6899Z" fill="white"/>
<path d="M18.5722 20.8521C18.4143 20.85 18.2908 20.7203 18.2937 20.5597C18.2967 20.3992 18.425 20.2783 18.5869 20.2832C18.7408 20.2877 18.8621 20.4142 18.8616 20.5691C18.8611 20.7267 18.7303 20.8545 18.5722 20.8521Z" fill="white"/>
<path d="M23.6978 20.8521C23.5391 20.8518 23.4113 20.7232 23.4121 20.5648C23.4129 20.4067 23.5421 20.2807 23.7018 20.2829C23.8575 20.2848 23.9786 20.4069 23.98 20.5635C23.9813 20.7232 23.8549 20.8524 23.6978 20.8521Z" fill="white"/>
<path d="M18.5783 23.4108C18.417 23.4116 18.2932 23.2876 18.2937 23.1257C18.2943 22.9662 18.4221 22.8397 18.5808 22.8419C18.7338 22.8438 18.8597 22.9697 18.8616 23.123C18.8635 23.282 18.7373 23.4103 18.5783 23.4111V23.4108Z" fill="white"/>
<path d="M27.5354 17.7242C27.6979 17.7237 27.8192 17.8456 27.8184 18.0085C27.8176 18.1707 27.6936 18.2929 27.5322 18.2907C27.3754 18.2886 27.2564 18.1683 27.2546 18.0107C27.2527 17.8474 27.373 17.7245 27.5354 17.7242Z" fill="white"/>
<path d="M17.2987 28.5283C17.136 28.5294 17.0138 28.408 17.0141 28.2456C17.0143 28.0874 17.1322 27.9669 17.2893 27.9645C17.4533 27.9618 17.5779 28.0805 17.5806 28.2418C17.583 28.4032 17.4609 28.5275 17.2987 28.5283Z" fill="white"/>
<path d="M14.7369 17.7245C14.8991 17.7245 15.0202 17.8469 15.0189 18.0099C15.0178 18.1675 14.8986 18.2886 14.7426 18.291C14.5807 18.2934 14.4564 18.172 14.455 18.0101C14.4537 17.8469 14.5742 17.7247 14.7367 17.7245H14.7369Z" fill="white"/>
<path d="M27.5319 25.4034C27.6936 25.4012 27.8176 25.5231 27.8184 25.685C27.8192 25.8448 27.704 25.9653 27.5467 25.9691C27.3824 25.9731 27.2573 25.8555 27.2546 25.6941C27.2519 25.5301 27.3708 25.4053 27.5319 25.4031V25.4034Z" fill="white"/>
<path d="M17.2933 15.1655C17.4568 15.1644 17.5801 15.2849 17.5806 15.4466C17.5811 15.6082 17.4579 15.7301 17.2949 15.7293C17.1368 15.7285 17.0168 15.6106 17.0143 15.4536C17.0117 15.2898 17.1311 15.1665 17.2936 15.1655H17.2933Z" fill="white"/>
<path d="M14.7364 22.8416C14.8948 22.8411 15.0199 22.9678 15.0191 23.1286C15.0183 23.2868 14.9002 23.4079 14.7437 23.4108C14.5815 23.4138 14.4569 23.2924 14.4553 23.1305C14.454 22.9694 14.5777 22.8424 14.7361 22.8416H14.7364Z" fill="white"/>
<path d="M25.2591 28.2521C25.2569 28.4148 25.1337 28.5321 24.9688 28.5286C24.812 28.5254 24.6928 28.4032 24.6934 28.247C24.6942 28.0848 24.8166 27.964 24.9796 27.9648C25.1423 27.9656 25.2615 28.0883 25.2591 28.2521Z" fill="white"/>
<path d="M27.8184 24.4128C27.8163 24.5747 27.6917 24.6934 27.5279 24.6899C27.3714 24.6864 27.254 24.5645 27.2546 24.4064C27.2551 24.2456 27.3805 24.1204 27.5397 24.1221C27.6987 24.1237 27.8203 24.2507 27.8184 24.4128Z" fill="white"/>
<path d="M24.9745 15.7293C24.8115 15.7282 24.6912 15.6049 24.6936 15.4422C24.6963 15.2806 24.8206 15.1625 24.985 15.1654C25.142 15.1684 25.2591 15.2887 25.2594 15.4471C25.2594 15.6109 25.1388 15.7303 24.9745 15.729V15.7293Z" fill="white"/>
<path d="M15.0191 25.6898C15.0181 25.8528 14.8962 25.9715 14.7316 25.9691C14.5737 25.9669 14.4561 25.848 14.4553 25.6896C14.4545 25.5263 14.5758 25.4031 14.7372 25.4034C14.8994 25.4039 15.0199 25.5263 15.0189 25.6896L15.0191 25.6898Z" fill="white"/>
<path d="M23.6878 28.5283C23.5284 28.5245 23.4059 28.3943 23.4121 28.2348C23.4183 28.0764 23.5482 27.9591 23.7112 27.9647C23.8661 27.9701 23.9821 28.0947 23.9797 28.2531C23.9773 28.4147 23.8524 28.5323 23.6878 28.5285V28.5283Z" fill="white"/>
<path d="M15.0191 21.8557C15.0157 22.0163 14.8873 22.1371 14.7259 22.1315C14.5681 22.1261 14.4502 21.9959 14.4556 21.8326C14.4607 21.6785 14.5874 21.5591 14.7431 21.5617C14.9015 21.5647 15.0226 21.6933 15.0191 21.8555V21.8557Z" fill="white"/>
<path d="M14.7343 24.1221C14.8935 24.1207 15.0189 24.2458 15.0191 24.4067C15.0191 24.5656 14.9023 24.6867 14.7458 24.6899C14.5826 24.6934 14.4574 24.5737 14.4556 24.4126C14.4537 24.2509 14.5759 24.1234 14.7345 24.1221H14.7343Z" fill="white"/>
<path d="M18.581 15.1654C18.7419 15.1675 18.8646 15.2937 18.8613 15.4543C18.8581 15.6127 18.7292 15.7333 18.5673 15.7292C18.4103 15.7255 18.2929 15.6041 18.2935 15.446C18.294 15.2846 18.418 15.1635 18.5808 15.1654H18.581Z" fill="white"/>
<path d="M19.8521 15.7293C19.6905 15.7274 19.5694 15.6018 19.5726 15.4399C19.5758 15.2841 19.6982 15.1657 19.8561 15.1655C20.0169 15.1655 20.1426 15.2903 20.1418 15.4495C20.141 15.6082 20.0137 15.7312 19.8521 15.7293Z" fill="white"/>
<path d="M21.1422 15.1657C21.3031 15.1675 21.4252 15.2943 21.4215 15.4556C21.418 15.6103 21.2942 15.7292 21.1371 15.7292C20.9758 15.7292 20.8506 15.6046 20.852 15.4449C20.8533 15.2859 20.9803 15.1638 21.1422 15.1657Z" fill="white"/>
<path d="M23.7042 15.1654C23.8651 15.1678 23.984 15.2935 23.98 15.4573C23.9762 15.6132 23.854 15.73 23.6951 15.7292C23.5345 15.7284 23.4097 15.6022 23.4121 15.4428C23.4145 15.2838 23.5421 15.163 23.704 15.1654H23.7042Z" fill="white"/>
<path d="M27.8184 21.8541C27.8155 22.0152 27.6879 22.1363 27.5268 22.1317C27.3687 22.1269 27.2497 21.9972 27.2546 21.8345C27.2591 21.6801 27.3853 21.5601 27.5408 21.5623C27.7 21.5644 27.8211 21.6919 27.8184 21.8541Z" fill="white"/>
<path d="M15.0191 19.2937C15.0167 19.4538 14.8881 19.5765 14.7281 19.5716C14.5694 19.5668 14.451 19.4379 14.4556 19.2752C14.4599 19.1195 14.5831 19.0024 14.7412 19.004C14.9021 19.0056 15.0218 19.1305 15.0194 19.294L15.0191 19.2937Z" fill="white"/>
<path d="M14.4553 20.563C14.4569 20.4013 14.5823 20.2797 14.7442 20.2829C14.8999 20.2861 15.0186 20.4083 15.0191 20.5659C15.0197 20.727 14.8948 20.8529 14.7359 20.8521C14.5769 20.8513 14.4537 20.7243 14.4553 20.563Z" fill="white"/>
<path d="M27.5403 20.8521C27.381 20.8534 27.2551 20.7283 27.2546 20.568C27.254 20.4061 27.3775 20.2823 27.5386 20.2831C27.6952 20.2839 27.8163 20.4039 27.8187 20.561C27.8211 20.7226 27.6987 20.8507 27.5403 20.8523V20.8521Z" fill="white"/>
<path d="M19.8518 28.5286C19.6902 28.5267 19.5688 28.4008 19.5726 28.2389C19.5761 28.0837 19.6996 27.9645 19.8564 27.9648C20.0169 27.9648 20.1426 28.0899 20.1418 28.2491C20.141 28.4081 20.0137 28.5305 19.8518 28.5286Z" fill="white"/>
<path d="M22.7009 15.4422C22.703 15.6049 22.5819 15.7282 22.4192 15.7293C22.2584 15.7303 22.1311 15.6052 22.1316 15.4471C22.1324 15.2919 22.2538 15.1684 22.409 15.1654C22.5725 15.1625 22.6987 15.2822 22.7009 15.4422Z" fill="white"/>
<path d="M27.5427 22.8419C27.7005 22.8446 27.8219 22.974 27.8181 23.1359C27.8144 23.2972 27.6877 23.4162 27.5249 23.4111C27.37 23.406 27.2532 23.2819 27.2546 23.1238C27.2559 22.964 27.3834 22.8392 27.5427 22.8421V22.8419Z" fill="white"/>
<path d="M27.8184 19.2919C27.8165 19.452 27.6885 19.5757 27.529 19.5717C27.3706 19.5677 27.2505 19.4385 27.2546 19.2769C27.2586 19.1204 27.3805 19.003 27.5386 19.0038C27.6997 19.0046 27.8206 19.129 27.8184 19.2919Z" fill="white"/>
<path d="M22.4138 28.5283C22.2533 28.527 22.1287 28.4 22.1319 28.2408C22.1349 28.0826 22.2637 27.9615 22.4256 27.9648C22.5819 27.968 22.7011 28.0901 22.7009 28.2472C22.7009 28.4086 22.5768 28.5299 22.4138 28.5286V28.5283Z" fill="white"/>
<path d="M18.5719 27.9644C18.7333 27.9626 18.8605 28.085 18.8619 28.2442C18.8632 28.4032 18.7376 28.5283 18.5767 28.5283C18.4189 28.5283 18.297 28.4104 18.2937 28.2544C18.2902 28.0914 18.4103 27.9663 18.5719 27.9644Z" fill="white"/>
<path d="M21.1307 28.5283C20.9704 28.5259 20.8477 28.3976 20.852 28.2375C20.8563 28.0794 20.9862 27.9596 21.1484 27.9645C21.3036 27.969 21.4228 28.0939 21.4215 28.2499C21.4198 28.4094 21.2931 28.5307 21.1307 28.5283Z" fill="white"/>
<path d="M18.574 24.1965C18.7005 24.1954 18.7905 24.2845 18.7894 24.4099C18.7883 24.528 18.6992 24.6209 18.5832 24.6242C18.4637 24.6277 18.3625 24.5323 18.3601 24.4137C18.3574 24.2926 18.4511 24.1975 18.574 24.1965Z" fill="white"/>
<path d="M23.4867 24.4051C23.4881 24.2786 23.5778 24.1935 23.7056 24.1967C23.8232 24.1997 23.9134 24.291 23.9142 24.4077C23.915 24.527 23.817 24.625 23.6981 24.6244C23.5764 24.6236 23.4854 24.5294 23.487 24.4053L23.4867 24.4051Z" fill="white"/>
<path d="M23.6927 19.4995C23.5681 19.4971 23.4822 19.4047 23.4865 19.2772C23.4905 19.1596 23.5829 19.0699 23.6997 19.0702C23.8183 19.0707 23.9155 19.1698 23.9142 19.2892C23.9129 19.4098 23.8162 19.5016 23.693 19.4995H23.6927Z" fill="white"/>
<path d="M18.7894 19.2889C18.7883 19.4135 18.6981 19.5013 18.5732 19.4994C18.4527 19.4975 18.3584 19.4019 18.3603 19.283C18.3622 19.1654 18.4613 19.069 18.5789 19.0701C18.6981 19.0711 18.7905 19.1673 18.7894 19.2886V19.2889Z" fill="white"/>
<path d="M16.1578 16.7178C16.1603 16.7995 16.0977 16.8661 16.0163 16.8682C15.9336 16.8703 15.8695 16.8094 15.8673 16.7267C15.8649 16.6419 15.9234 16.5798 16.0075 16.5777C16.0912 16.5755 16.1552 16.6354 16.1578 16.7181V16.7178Z" fill="white"/>
<path d="M16.0134 27.116C15.9285 27.1166 15.8681 27.0575 15.8673 26.9732C15.8665 26.891 15.9293 26.8263 16.0107 26.8255C16.0907 26.8247 16.1573 26.8902 16.1578 26.9708C16.1586 27.0537 16.0969 27.1155 16.0134 27.1163V27.116Z" fill="white"/>
<path d="M26.263 26.8252C26.3446 26.8258 26.4069 26.8897 26.4064 26.9729C26.4058 27.0588 26.3473 27.1166 26.2611 27.1163C26.1782 27.116 26.1145 27.0527 26.1153 26.9713C26.1159 26.8918 26.1835 26.825 26.263 26.8252Z" fill="white"/>
<path d="M26.2574 16.5774C26.3417 16.575 26.404 16.6338 26.4061 16.7176C26.4083 16.8016 26.3492 16.8653 26.2668 16.868C26.1865 16.8704 26.118 16.8065 26.1156 16.7267C26.1132 16.6454 26.1757 16.5796 26.2574 16.5774Z" fill="white"/>
<path d="M16.0048 18.1038C15.9422 18.0947 15.9084 18.059 15.9122 17.994C15.9156 17.9336 15.9516 17.9011 16.011 17.9022C16.0751 17.9033 16.1127 17.9398 16.1117 18.0048C16.1106 18.0708 16.0692 18.1001 16.0048 18.1038Z" fill="white"/>
<path d="M17.3948 16.7162C17.3851 16.7871 17.3518 16.8252 17.2866 16.8212C17.2219 16.8172 17.1889 16.7764 17.1924 16.7127C17.1958 16.6531 17.2324 16.622 17.2922 16.622C17.3599 16.622 17.3867 16.6633 17.3948 16.7162Z" fill="white"/>
<path d="M16.0147 25.59C16.0767 25.6023 16.1168 25.6353 16.1108 25.7022C16.1057 25.7623 16.0679 25.7954 16.0075 25.7927C15.9401 25.7897 15.9089 25.7489 15.9127 25.6834C15.9162 25.6211 15.957 25.5956 16.0147 25.5897V25.59Z" fill="white"/>
<path d="M25.0846 16.7065C25.0816 16.7809 25.0499 16.8204 24.9833 16.8215C24.9224 16.8223 24.8864 16.7852 24.8827 16.7267C24.8786 16.6676 24.91 16.6284 24.9718 16.6228C25.0387 16.6166 25.0733 16.6523 25.0846 16.7065Z" fill="white"/>
<path d="M26.2609 17.9003C26.3245 17.9041 26.3621 17.9355 26.3629 18.0013C26.3637 18.0609 26.3325 18.0979 26.2729 18.1019C26.2088 18.1062 26.1682 18.0727 26.1645 18.0082C26.1607 17.9441 26.1962 17.9081 26.2609 17.9003Z" fill="white"/>
<path d="M17.2968 27.0736C17.2361 27.072 17.1964 27.0446 17.1924 26.9831C17.1878 26.9176 17.2224 26.8765 17.2882 26.8746C17.3532 26.8728 17.3921 26.9093 17.3919 26.9759C17.3919 27.0368 17.3561 27.0688 17.2968 27.0739V27.0736Z" fill="white"/>
<path d="M23.7093 16.8198C23.647 16.8147 23.6073 16.7874 23.6035 16.7269C23.5998 16.6671 23.6336 16.6292 23.6921 16.6238C23.7574 16.6179 23.7966 16.6558 23.7995 16.7194C23.8025 16.7801 23.7611 16.8088 23.7093 16.8198Z" fill="white"/>
<path d="M26.2657 25.59C26.3229 25.5985 26.3618 25.6262 26.3626 25.6888C26.3634 25.7545 26.3304 25.7932 26.2627 25.7932C26.2007 25.7932 26.1669 25.7564 26.1645 25.6974C26.1618 25.631 26.2015 25.598 26.2657 25.5902V25.59Z" fill="white"/>
<path d="M16.0091 24.3114C16.0698 24.3173 16.1063 24.3495 16.1074 24.4086C16.1084 24.4671 16.0754 24.5074 16.0155 24.5093C15.9516 24.5111 15.9127 24.4736 15.9135 24.4083C15.9143 24.3482 15.9524 24.3184 16.0091 24.3114Z" fill="white"/>
<path d="M25.084 26.9665C25.0838 27.0299 25.0545 27.0672 24.9933 27.0723C24.9275 27.0777 24.8862 27.0441 24.8824 26.9789C24.8789 26.9195 24.913 26.8798 24.9729 26.875C25.0373 26.8696 25.0762 26.9031 25.084 26.9665Z" fill="white"/>
<path d="M18.5778 16.8193C18.5166 16.8148 18.479 16.7831 18.476 16.7248C18.4731 16.6665 18.5072 16.6273 18.5665 16.6239C18.6315 16.6201 18.6691 16.6574 18.6712 16.7216C18.6734 16.7836 18.6318 16.8099 18.5778 16.8193Z" fill="white"/>
<path d="M16.1092 19.2838C16.1017 19.3375 16.0778 19.3805 16.0158 19.3813C15.9516 19.3821 15.913 19.3461 15.9135 19.2811C15.914 19.2212 15.9522 19.1861 16.0102 19.1861C16.0687 19.1861 16.1017 19.2229 16.1092 19.2838Z" fill="white"/>
<path d="M26.2729 19.3823C26.2074 19.3821 26.1728 19.3469 26.1696 19.2889C26.1663 19.2304 26.1991 19.189 26.2601 19.1861C26.3199 19.1831 26.3567 19.2172 26.3591 19.2787C26.3615 19.3391 26.3301 19.3737 26.2729 19.3823Z" fill="white"/>
<path d="M22.4219 16.6217C22.4812 16.6287 22.5185 16.6644 22.5175 16.7219C22.5167 16.7796 22.4791 16.8188 22.4181 16.8175C22.358 16.8161 22.3228 16.7804 22.3239 16.7189C22.3247 16.6572 22.3617 16.6274 22.4219 16.6217Z" fill="white"/>
<path d="M23.8009 26.9826C23.7907 27.0398 23.7568 27.0728 23.6959 27.0691C23.6355 27.0653 23.6006 27.0307 23.6038 26.9692C23.6068 26.9066 23.6484 26.8766 23.7066 26.8798C23.7652 26.883 23.7987 26.9193 23.8011 26.9826H23.8009Z" fill="white"/>
<path d="M18.6734 26.9746C18.6645 27.039 18.6304 27.0712 18.5697 27.0691C18.5085 27.067 18.4739 27.0307 18.476 26.9708C18.4782 26.9099 18.519 26.8774 18.5778 26.8793C18.6374 26.8814 18.6688 26.9185 18.6734 26.9746Z" fill="white"/>
<path d="M19.8499 16.6209C19.913 16.6282 19.9496 16.6574 19.9517 16.7176C19.9539 16.7785 19.9192 16.8142 19.861 16.8169C19.7965 16.8199 19.7573 16.7812 19.7576 16.7179C19.7579 16.6596 19.7981 16.6295 19.8499 16.6209Z" fill="white"/>
<path d="M26.2762 24.5117C26.2061 24.5066 26.1709 24.4717 26.1696 24.4131C26.1682 24.3551 26.1991 24.3141 26.2622 24.3135C26.3237 24.313 26.3567 24.3484 26.3591 24.4091C26.3615 24.4714 26.3245 24.5009 26.2759 24.5117H26.2762Z" fill="white"/>
<path d="M16.1087 20.571C16.099 20.6279 16.0692 20.6644 16.0077 20.6617C15.9481 20.6593 15.9127 20.6244 15.9135 20.5653C15.9143 20.5009 15.9546 20.4641 16.018 20.4681C16.0765 20.4719 16.1057 20.5122 16.1084 20.571H16.1087Z" fill="white"/>
<path d="M16.0043 23.0325C16.069 23.035 16.1057 23.0669 16.1074 23.1273C16.109 23.1883 16.07 23.2261 16.0126 23.2275C15.9554 23.2288 15.9151 23.1934 15.9135 23.1322C15.9116 23.0707 15.9484 23.0395 16.0043 23.0325Z" fill="white"/>
<path d="M22.5204 26.9796C22.507 27.0333 22.4796 27.0728 22.4165 27.0693C22.3556 27.0658 22.3225 27.032 22.3239 26.9707C22.3252 26.9079 22.365 26.8773 22.4232 26.8792C22.4828 26.8811 22.5134 26.92 22.5204 26.9799V26.9796Z" fill="white"/>
<path d="M26.3599 23.1147C26.3605 23.1885 26.3256 23.2247 26.2684 23.2274C26.2096 23.2301 26.1714 23.1917 26.1696 23.1329C26.168 23.0752 26.1978 23.0355 26.2611 23.0336C26.3237 23.032 26.3524 23.0685 26.3599 23.1147Z" fill="white"/>
<path d="M19.8599 26.8773C19.9138 26.8859 19.953 26.9128 19.9517 26.9759C19.9504 27.0382 19.9138 27.0693 19.854 27.069C19.793 27.0688 19.757 27.0328 19.7579 26.9732C19.7587 26.9136 19.7976 26.8824 19.8599 26.8773Z" fill="white"/>
<path d="M26.3602 20.571C26.3535 20.6276 26.324 20.6636 26.2617 20.662C26.1991 20.6601 26.168 20.6209 26.1693 20.5627C26.1706 20.5036 26.208 20.4666 26.2678 20.4682C26.328 20.4698 26.3581 20.5084 26.3602 20.571Z" fill="white"/>
<path d="M21.2332 26.9802C21.2281 27.0339 21.1991 27.0701 21.1374 27.069C21.0772 27.0679 21.0434 27.0347 21.0429 26.974C21.0423 26.9122 21.0799 26.8792 21.1379 26.8795C21.1959 26.8797 21.2308 26.9138 21.2332 26.9802Z" fill="white"/>
<path d="M26.3602 21.8453C26.3581 21.9065 26.3269 21.9411 26.2668 21.9425C26.2055 21.9441 26.1709 21.9078 26.1698 21.8496C26.1688 21.7916 26.201 21.7537 26.2627 21.7529C26.3237 21.7524 26.3546 21.7865 26.3602 21.8453Z" fill="white"/>
<path d="M21.1371 16.622C21.1978 16.6279 21.2319 16.6617 21.2324 16.7208C21.233 16.7812 21.197 16.8172 21.1374 16.8172C21.0775 16.8172 21.0429 16.7804 21.0431 16.7203C21.0431 16.6601 21.0786 16.6284 21.1371 16.622Z" fill="white"/>
<path d="M16.1092 21.8399C16.1041 21.9027 16.0754 21.9414 16.0145 21.9425C15.9559 21.9436 15.9162 21.9127 15.914 21.8517C15.9119 21.7913 15.9468 21.7564 16.0067 21.7532C16.0679 21.75 16.0985 21.7868 16.1092 21.8399Z" fill="white"/>
<path d="M22.4219 25.7814C22.3703 25.7744 22.333 25.7486 22.3335 25.6923C22.3341 25.6423 22.3642 25.6112 22.4154 25.6098C22.4651 25.6085 22.4995 25.6327 22.5046 25.6845C22.5105 25.7425 22.4753 25.7693 22.4219 25.7814Z" fill="white"/>
<path d="M24.9895 23.042C25.0376 23.0508 25.0701 23.0798 25.069 23.129C25.0677 23.1821 25.0365 23.2181 24.9788 23.2146C24.9211 23.2114 24.8955 23.173 24.9001 23.119C24.9044 23.0683 24.939 23.0447 24.9898 23.042H24.9895Z" fill="white"/>
<path d="M25.0717 20.5638C25.0631 20.6145 25.0379 20.6502 24.9868 20.6513C24.9374 20.6524 24.9025 20.6245 24.9004 20.5716C24.898 20.5141 24.9288 20.4808 24.9863 20.4811C25.0397 20.4811 25.0609 20.5192 25.0717 20.5641V20.5638Z" fill="white"/>
<path d="M24.9769 21.7606C25.036 21.7655 25.0701 21.7964 25.0685 21.8503C25.0671 21.897 25.0381 21.9336 24.9868 21.9338C24.9313 21.9341 24.9004 21.9011 24.9001 21.8455C24.8998 21.7934 24.9326 21.7692 24.9769 21.7609V21.7606Z" fill="white"/>
<path d="M19.9431 25.6989C19.9324 25.7478 19.9036 25.7822 19.8534 25.7789C19.7997 25.7755 19.7646 25.7414 19.7713 25.6834C19.7772 25.6318 19.8121 25.6066 19.8634 25.6103C19.9165 25.6144 19.9377 25.6503 19.9431 25.6989Z" fill="white"/>
<path d="M21.0512 25.6955C21.055 25.6455 21.0794 25.6128 21.1304 25.6101C21.1857 25.6071 21.2217 25.6367 21.2233 25.6922C21.2252 25.7489 21.1863 25.7792 21.1339 25.7787C21.0856 25.7781 21.0563 25.7457 21.0509 25.6955H21.0512Z" fill="white"/>
<path d="M19.8548 18.088C19.8051 18.0826 19.7726 18.0563 19.7707 18.0047C19.7689 17.9527 19.7992 17.921 19.8499 17.918C19.9074 17.9148 19.9412 17.9502 19.9407 18.005C19.9402 18.0547 19.9069 18.0837 19.8545 18.0882L19.8548 18.088Z" fill="white"/>
<path d="M22.4152 17.9164C22.4662 17.9201 22.5003 17.944 22.5032 17.9961C22.5065 18.0539 22.4734 18.0861 22.417 18.0858C22.3655 18.0858 22.3349 18.0525 22.3344 18.0023C22.3338 17.9518 22.3655 17.9234 22.4152 17.9164Z" fill="white"/>
<path d="M17.3784 21.85C17.3701 21.8989 17.3451 21.9333 17.2944 21.9335C17.2393 21.9335 17.2058 21.9 17.2066 21.8449C17.2074 21.7953 17.2385 21.7636 17.289 21.7628C17.3454 21.762 17.3728 21.7966 17.3784 21.8503V21.85Z" fill="white"/>
<path d="M17.296 20.6545C17.2423 20.6438 17.2063 20.6196 17.2074 20.5667C17.2085 20.5101 17.241 20.4768 17.2987 20.4813C17.35 20.4854 17.3782 20.5184 17.3765 20.5699C17.3749 20.6234 17.3373 20.6438 17.296 20.6545Z" fill="white"/>
<path d="M17.3776 23.1289C17.3714 23.1791 17.3473 23.213 17.2947 23.2135C17.2369 23.2141 17.2058 23.18 17.2082 23.1238C17.2106 23.0728 17.2442 23.0428 17.2947 23.0446C17.3449 23.0465 17.3725 23.0787 17.3776 23.1289Z" fill="white"/>
<path d="M21.1398 17.9156C21.1932 17.9239 21.2271 17.9532 21.2233 18.009C21.2198 18.0587 21.186 18.0882 21.1366 18.0866C21.0813 18.0847 21.0499 18.0504 21.0534 17.9951C21.0563 17.9446 21.0907 17.9204 21.1401 17.9156H21.1398Z" fill="white"/>
<path d="M24.9884 19.3572C24.9388 19.355 24.909 19.3295 24.9087 19.2833C24.9084 19.2372 24.9385 19.2082 24.9855 19.2095C25.026 19.2106 25.0537 19.235 25.0566 19.278C25.0599 19.3266 25.033 19.351 24.9887 19.3574L24.9884 19.3572Z" fill="white"/>
<path d="M18.6468 25.6971C18.6422 25.7419 18.6175 25.7685 18.5692 25.7666C18.5262 25.7647 18.5013 25.7382 18.4991 25.6974C18.4967 25.6501 18.5252 25.6198 18.5711 25.619C18.617 25.6181 18.6436 25.6474 18.6465 25.6974L18.6468 25.6971Z" fill="white"/>
<path d="M18.6468 17.9959C18.6447 18.0453 18.6202 18.0753 18.5735 18.0756C18.5268 18.0759 18.4991 18.0455 18.4991 17.9994C18.4991 17.958 18.5249 17.9312 18.5668 17.9285C18.6146 17.9253 18.6401 17.9518 18.6468 17.9961V17.9959Z" fill="white"/>
<path d="M17.2976 24.4883C17.2466 24.4816 17.2181 24.4566 17.2181 24.4099C17.2181 24.3686 17.2423 24.3412 17.285 24.3388C17.332 24.3361 17.3629 24.3613 17.3653 24.4081C17.368 24.4553 17.336 24.4784 17.2976 24.4883Z" fill="white"/>
<path d="M23.6981 18.077C23.6524 18.0681 23.6258 18.0423 23.6288 17.9948C23.6315 17.9521 23.6583 17.9277 23.6999 17.9279C23.7464 17.9282 23.7765 17.9559 23.7759 18.0023C23.7754 18.049 23.7437 18.0721 23.6978 18.0767L23.6981 18.077Z" fill="white"/>
<path d="M24.9866 24.3372C25.0311 24.3439 25.0593 24.3678 25.0564 24.4164C25.0537 24.4583 25.0282 24.4846 24.9868 24.4859C24.9393 24.4873 24.9103 24.4572 24.909 24.4121C24.9076 24.3656 24.9382 24.3401 24.9868 24.3369L24.9866 24.3372Z" fill="white"/>
<path d="M17.2863 19.3569C17.2418 19.3504 17.2152 19.3246 17.2184 19.2771C17.2211 19.2352 17.2474 19.2092 17.2893 19.2092C17.3352 19.2092 17.3661 19.2366 17.3658 19.2833C17.3658 19.33 17.3357 19.3544 17.2866 19.3569H17.2863Z" fill="white"/>
<path d="M23.6272 25.6914C23.6336 25.6445 23.6589 25.6147 23.7064 25.6192C23.7512 25.6235 23.7802 25.653 23.7759 25.7008C23.7722 25.7425 23.744 25.7664 23.7023 25.7666C23.6543 25.7666 23.6309 25.7379 23.6274 25.6917L23.6272 25.6914Z" fill="white"/>
<path d="M25.0432 17.9943C25.0416 18.0316 25.0263 18.0576 24.9866 18.059C24.9484 18.06 24.9256 18.0394 24.9245 18.0007C24.9235 17.9671 24.9431 17.9473 24.9756 17.943C25.0142 17.9379 25.0357 17.9575 25.043 17.9943H25.0432Z" fill="white"/>
<path d="M17.3497 25.6952C17.347 25.7333 17.3245 25.7529 17.2871 25.7524C17.2538 25.7521 17.2337 25.7317 17.2324 25.6987C17.231 25.6616 17.2487 25.6359 17.2882 25.6348C17.3269 25.6337 17.3465 25.6563 17.3497 25.6949V25.6952Z" fill="white"/>
<path d="M17.3492 17.9884C17.3481 18.0365 17.3285 18.0587 17.2885 18.0587C17.253 18.0587 17.2353 18.0367 17.2324 18.0037C17.2294 17.9696 17.2469 17.9468 17.2812 17.943C17.3196 17.9387 17.3427 17.9583 17.3494 17.9884H17.3492Z" fill="white"/>
<path d="M25.0432 25.6971C25.0379 25.7333 25.0177 25.7553 24.979 25.7518C24.9471 25.7489 24.9259 25.7306 24.9251 25.6965C24.9243 25.6579 24.945 25.6356 24.9831 25.6348C25.0223 25.634 25.0395 25.6592 25.0432 25.6968V25.6971Z" fill="white"/>
</svg>
