<svg width="253" height="47" viewBox="0 0 253 47" fill="none" xmlns="http://www.w3.org/2000/svg">
<path d="M80.3775 12.0389C81.0215 12.0389 81.4459 12.0536 81.6509 12.0828V16.2542H80.5531C78.2991 16.2542 76.5574 16.8104 75.3279 17.9228C74.0984 19.0351 73.4837 20.6452 73.4837 22.7528V35.0474H69.0928V12.3902H73.3081V16.4299C74.7424 13.5026 77.0989 12.0389 80.3775 12.0389Z" fill="white"/>
<path d="M104.091 23.8944V25.1678L87.0102 25.1678C87.2151 27.3926 87.8738 29.0758 88.9861 30.2174C90.0985 31.3298 91.606 31.886 93.5088 31.886C96.3775 31.886 98.251 30.6272 99.1292 28.1097L103.564 28.1097C102.949 30.4223 101.749 32.2519 99.9635 33.5984C98.2071 34.9157 96.0263 35.5743 93.421 35.5743C90.1717 35.5743 87.5517 34.4912 85.5612 32.325C83.5706 30.1588 82.5754 27.2901 82.5754 23.7188C82.5754 20.1475 83.5706 17.2788 85.5612 15.1126C87.5517 12.9464 90.1424 11.8633 93.3331 11.8633C96.6703 11.8633 99.3048 12.9903 101.237 15.2443C103.14 17.4983 104.091 20.3817 104.091 23.8944ZM93.3331 15.5517C91.606 15.5517 90.1863 16.0786 89.0739 17.1324C87.9908 18.1862 87.3176 19.7084 87.0541 21.699L99.5683 21.699C99.3634 19.8548 98.7047 18.3765 97.5924 17.2641C96.5093 16.1225 95.0895 15.5517 93.3331 15.5517Z" fill="white"/>
<path d="M116.243 35.6182C109.95 35.6182 106.642 33.0276 106.32 27.8463H110.711C110.886 29.427 111.399 30.5394 112.247 31.1834C113.096 31.8274 114.443 32.1494 116.287 32.1494C119.624 32.1494 121.293 31.0956 121.293 28.9879C121.293 28.0805 120.942 27.3779 120.239 26.8803C119.536 26.3826 118.278 25.9728 116.463 25.6508L114.136 25.2117C109.335 24.3335 106.934 22.0795 106.934 18.4497C106.934 16.4299 107.71 14.8345 109.262 13.6636C110.813 12.4634 112.95 11.8633 115.672 11.8633C121.908 11.8633 125.098 14.3954 125.245 19.4596H120.985C120.898 17.9374 120.429 16.8689 119.58 16.2542C118.731 15.6102 117.429 15.2882 115.672 15.2882C114.267 15.2882 113.184 15.5517 112.423 16.0786C111.662 16.6055 111.281 17.352 111.281 18.318C111.281 19.1961 111.618 19.8841 112.291 20.3817C112.965 20.8501 114.033 21.2306 115.497 21.5233L117.868 21.9185C120.649 22.4454 122.654 23.2358 123.883 24.2896C125.113 25.3435 125.728 26.8071 125.728 28.6806C125.728 30.876 124.893 32.5885 123.225 33.818C121.556 35.0182 119.229 35.6182 116.243 35.6182Z" fill="white"/>
<path d="M147.307 32.325C145.228 34.4912 142.521 35.5743 139.183 35.5743C135.846 35.5743 133.139 34.4912 131.06 32.325C128.982 30.1588 127.943 27.2901 127.943 23.7188C127.943 20.1182 128.982 17.2349 131.06 15.0687C133.109 12.9317 135.817 11.8633 139.183 11.8633C142.55 11.8633 145.258 12.9317 147.307 15.0687C149.356 17.2056 150.38 20.089 150.38 23.7188C150.38 27.3194 149.356 30.1881 147.307 32.325ZM134.31 29.6466C135.51 31.0809 137.134 31.7981 139.183 31.7981C141.233 31.7981 142.843 31.0809 144.013 29.6466C145.214 28.2122 145.814 26.2363 145.814 23.7188C145.814 21.2013 145.214 19.2254 144.013 17.791C142.843 16.3567 141.233 15.6395 139.183 15.6395C137.134 15.6395 135.51 16.3567 134.31 17.791C133.109 19.2254 132.509 21.2013 132.509 23.7188C132.509 26.2363 133.109 28.2122 134.31 29.6466Z" fill="white"/>
<path d="M165.582 11.8633C168.07 11.8633 170.016 12.5658 171.422 13.9709C172.827 15.3468 173.529 17.308 173.529 19.8548V35.0474H169.138V20.4695C169.138 17.308 167.543 15.7273 164.352 15.7273C162.888 15.7273 161.571 16.2835 160.4 17.3959C159.229 18.5375 158.644 20.1622 158.644 22.2698V35.0474H154.253V12.3902H158.468V15.7712C160.195 13.1659 162.566 11.8633 165.582 11.8633Z" fill="white"/>
<path d="M197.976 31.6664H199.206V35.0474C198.561 35.1352 197.844 35.1792 197.054 35.1792C195.649 35.1792 194.595 34.9303 193.892 34.4327C193.219 33.9058 192.809 33.0861 192.663 31.9738C191.141 34.3742 188.682 35.5743 185.286 35.5743C182.798 35.5743 180.822 34.9889 179.358 33.818C177.924 32.6178 177.207 30.9639 177.207 28.8562C177.207 24.758 180.046 22.4162 185.725 21.8307L189.062 21.4794C190.233 21.3331 191.082 21.0403 191.609 20.6012C192.165 20.1329 192.443 19.4742 192.443 18.6253C192.443 17.4837 192.078 16.664 191.346 16.1664C190.643 15.6395 189.458 15.376 187.789 15.376C185.974 15.376 184.672 15.6834 183.881 16.2981C183.091 16.8836 182.637 17.9374 182.52 19.4596H178.173C178.495 14.3954 181.7 11.8633 187.789 11.8633C193.761 11.8633 196.747 14.088 196.747 18.5375V30.5248C196.747 31.2859 197.156 31.6664 197.976 31.6664ZM185.945 32.1494C187.818 32.1494 189.37 31.6225 190.599 30.5687C191.829 29.5148 192.443 28.0219 192.443 26.0899V23.7188C191.887 24.1872 190.951 24.4945 189.633 24.6409L186.472 24.9922C184.774 25.1971 183.559 25.6069 182.827 26.2216C182.095 26.8071 181.73 27.6414 181.73 28.7245C181.73 29.8076 182.081 30.6565 182.783 31.2712C183.515 31.8567 184.569 32.1494 185.945 32.1494Z" fill="white"/>
<path d="M212.093 12.3902V15.9908L207.527 15.9908V29.6027C207.527 30.2759 207.717 30.7736 208.097 31.0956C208.507 31.3883 209.181 31.5347 210.117 31.5347H212.093V35.0474C211.127 35.1352 210.234 35.1792 209.415 35.1792C207.278 35.1792 205.697 34.7693 204.673 33.9497C203.648 33.1301 203.136 31.8128 203.136 29.9978V15.9908H199.491V12.3902H203.136L207.527 12.3902H212.093Z" fill="white"/>
<path d="M233.496 32.325C231.418 34.4912 228.71 35.5743 225.373 35.5743C222.036 35.5743 219.328 34.4912 217.25 32.325C215.171 30.1588 214.132 27.2901 214.132 23.7188C214.132 20.1182 215.171 17.2349 217.25 15.0687C219.299 12.9317 222.006 11.8633 225.373 11.8633C228.739 11.8633 231.447 12.9317 233.496 15.0687C235.545 17.2056 236.57 20.089 236.57 23.7188C236.57 27.3194 235.545 30.1881 233.496 32.325ZM220.499 29.6466C221.699 31.0809 223.324 31.7981 225.373 31.7981C227.422 31.7981 229.032 31.0809 230.203 29.6466C231.403 28.2122 232.003 26.2363 232.003 23.7188C232.003 21.2013 231.403 19.2254 230.203 17.791C229.032 16.3567 227.422 15.6395 225.373 15.6395C223.324 15.6395 221.699 16.3567 220.499 17.791C219.299 19.2254 218.699 21.2013 218.699 23.7188C218.699 26.2363 219.299 28.2122 220.499 29.6466Z" fill="white"/>
<path d="M251.727 12.0389C252.371 12.0389 252.795 12.0536 253 12.0828V16.2542H251.903C249.649 16.2542 247.907 16.8104 246.677 17.9228C245.448 19.0351 244.833 20.6452 244.833 22.7528V35.0474H240.442V12.3902H244.658V16.4299C246.092 13.5026 248.448 12.0389 251.727 12.0389Z" fill="white"/>
<path d="M45.5991 44.4729C46.2189 44.4689 46.7289 44.9671 46.7388 45.5869C46.7487 46.2178 46.2423 46.7359 45.6131 46.7388C44.991 46.7418 44.4822 46.2447 44.4734 45.6249C44.4647 44.9934 44.9688 44.4776 45.5991 44.4729Z" fill="white"/>
<path d="M5.04544 1.12253C5.05187 1.75165 4.54132 2.26687 3.91101 2.26687C3.29123 2.26687 2.78418 1.76392 2.77951 1.14473C2.77542 0.521448 3.26961 0.0120757 3.88999 0.000392886C4.52145 -0.01129 5.0396 0.491657 5.04602 1.12195L5.04544 1.12253Z" fill="white"/>
<path d="M6.69744 0.000394793C7.3184 0.00331551 7.82194 0.506263 7.82486 1.12662C7.82778 1.75808 7.31723 2.26921 6.68635 2.26628C6.06539 2.26336 5.56185 1.75983 5.55893 1.13947C5.55659 0.508599 6.06656 -0.00194178 6.69744 0.000394793Z" fill="white"/>
<path d="M10.6048 1.1394C10.6019 1.76911 10.0844 2.27556 9.45405 2.26621C8.83485 2.25687 8.33599 1.74749 8.33949 1.12655C8.34299 0.496258 8.8588 -0.00902529 9.49027 0.000321C10.1101 0.00908314 10.6078 0.517872 10.6048 1.1394Z" fill="white"/>
<path d="M13.3842 1.13251C13.3848 1.75287 12.8842 2.26049 12.2644 2.26633C11.6329 2.27276 11.1195 1.76514 11.1189 1.13426C11.1177 0.513905 11.6189 0.00686885 12.2387 0.00102742C12.8702 -0.00539815 13.3836 0.501638 13.3842 1.13251Z" fill="white"/>
<path d="M16.1636 1.12603C16.1683 1.74639 15.6706 2.25635 15.0502 2.26628C14.4199 2.2768 13.9018 1.77093 13.8977 1.14064C13.8942 0.510348 14.4042 -0.00136114 15.0356 0.000391293C15.656 0.00214372 16.1595 0.503922 16.1642 1.12545L16.1636 1.12603Z" fill="white"/>
<path d="M18.943 1.12897C18.9454 1.7505 18.4471 2.25812 17.8267 2.2663C17.1958 2.27447 16.6794 1.76744 16.6771 1.13773C16.6748 0.506857 17.1865 -0.00310009 17.8174 0.000404764C18.4383 0.00390962 18.9395 0.506857 18.9425 1.12897H18.943Z" fill="white"/>
<path d="M21.7224 1.12721C21.7254 1.75866 21.2154 2.26979 20.5845 2.26628C19.9636 2.26278 19.46 1.75983 19.4571 1.13947C19.4536 0.509183 19.9647 -0.00194179 20.5956 0.000394784C21.216 0.00273136 21.7189 0.505678 21.7224 1.12662V1.12721Z" fill="white"/>
<path d="M24.5018 1.12721C24.5059 1.74815 24.0088 2.25694 23.3879 2.26687C22.7587 2.27738 22.2394 1.7686 22.2365 1.14006C22.2336 0.5086 22.7441 -0.00194123 23.375 0.000979482C23.996 0.0039002 24.4983 0.505679 24.5018 1.12721Z" fill="white"/>
<path d="M26.1503 2.26628C25.5206 2.26628 25.01 1.75165 25.0159 1.12253C25.0217 0.501581 25.5276 0.000970948 26.1486 0.000386805C26.7794 0.000386805 27.2877 0.51268 27.2818 1.14414C27.2766 1.76508 26.7719 2.26569 26.1503 2.26628Z" fill="white"/>
<path d="M27.7959 1.11318C27.8076 0.482309 28.3292 -0.0159646 28.9607 0.000391417C29.5811 0.0167474 30.0712 0.530793 30.0612 1.15291C30.0507 1.7832 29.5296 2.28147 28.897 2.2657C28.279 2.24993 27.7848 1.73296 27.7959 1.11318Z" fill="white"/>
<path d="M31.715 0.000399595C32.3447 0.00332031 32.8505 0.520287 32.8412 1.15175C32.8319 1.7721 32.3225 2.27038 31.7021 2.26629C31.0718 2.2622 30.5665 1.74582 30.5753 1.11494C30.584 0.495169 31.0928 -0.00252112 31.715 0.000399595Z" fill="white"/>
<path d="M35.62 1.12838C35.6229 1.74991 35.1252 2.25811 34.5049 2.26629C33.8746 2.27505 33.357 1.76802 33.3547 1.13831C33.3523 0.507435 33.8629 -0.00252143 34.4944 0.000399289C35.1153 0.00332 35.6171 0.506267 35.62 1.12779V1.12838Z" fill="white"/>
<path d="M46.7388 28.933C46.737 29.5533 46.2347 30.0574 45.6137 30.0609C44.9817 30.0645 44.4711 29.5557 44.4734 28.9242C44.4752 28.3039 44.9793 27.7986 45.5985 27.7951C46.2294 27.7916 46.74 28.3009 46.7388 28.9324V28.933Z" fill="white"/>
<path d="M2.26606 28.9189C2.2719 29.5399 1.77479 30.0498 1.15442 30.0609C0.522946 30.072 0.0048019 29.5685 0.000128675 28.9382C-0.00454455 28.3067 0.503668 27.795 1.13514 27.7956C1.75434 27.7956 2.26022 28.2986 2.26547 28.9195L2.26606 28.9189Z" fill="white"/>
<path d="M43.9594 1.12838C43.9611 1.76042 43.4506 2.27038 42.8203 2.26629C42.1999 2.2622 41.6964 1.75809 41.6946 1.13831C41.6923 0.506851 42.2028 -0.00252141 42.8343 0.000399303C43.4547 0.00332002 43.9582 0.50802 43.96 1.12838H43.9594Z" fill="white"/>
<path d="M46.7388 1.13426C46.7376 1.76513 46.223 2.27334 45.5933 2.26633C44.9729 2.25932 44.4734 1.75287 44.4734 1.13192C44.4734 0.501632 44.9869 -0.00540465 45.619 0.000436776C46.2382 0.00627821 46.7394 0.513899 46.7388 1.13426Z" fill="white"/>
<path d="M0.000121669 3.90131C0.00713151 3.26985 0.524107 2.76924 1.15674 2.78034C1.77595 2.79144 2.27189 3.30315 2.26605 3.92468C2.25963 4.55438 1.73973 5.0585 1.10943 5.04565C0.489642 5.03338 -0.00688817 4.52109 0.000121669 3.90131Z" fill="white"/>
<path d="M1.14506 32.8404C0.512423 32.8462 0.000120879 32.3392 0.000120879 31.7083C0.000120879 31.0868 0.50074 30.5809 1.12053 30.5751C1.75141 30.5692 2.26547 31.078 2.26605 31.7077C2.26605 32.3281 1.76543 32.8345 1.14506 32.8398V32.8404Z" fill="white"/>
<path d="M6.68342 5.04627C6.05371 5.04159 5.54841 4.52287 5.55951 3.89258C5.57061 3.27222 6.07941 2.77687 6.70153 2.78096C7.3219 2.78505 7.82486 3.29092 7.82544 3.91069C7.82544 4.54215 7.31372 5.05152 6.68342 5.04685V5.04627Z" fill="white"/>
<path d="M40.052 2.78036C40.673 2.78269 41.1765 3.28505 41.18 3.906C41.1835 4.53746 40.6741 5.04858 40.0426 5.04625C39.4129 5.04391 38.9059 4.52753 38.9146 3.89665C38.9234 3.27571 39.4305 2.77802 40.052 2.78094V2.78036Z" fill="white"/>
<path d="M43.9594 3.90647C43.9629 4.53735 43.4518 5.04906 42.8215 5.04614C42.2017 5.04322 41.6976 4.5391 41.694 3.91933C41.6905 3.29897 42.1906 2.78784 42.8086 2.78025C43.4418 2.77265 43.9565 3.2756 43.9594 3.90647Z" fill="white"/>
<path d="M46.7388 3.917C46.737 4.53853 46.2353 5.04264 45.6143 5.04615C44.9834 5.04965 44.4717 4.53911 44.4734 3.9094C44.4752 3.2797 44.9916 2.77266 45.6225 2.78084C46.2428 2.78843 46.7405 3.29547 46.7388 3.91758V3.917Z" fill="white"/>
<path d="M46.7388 31.7012C46.7429 32.3228 46.2458 32.831 45.6248 32.8403C44.9928 32.8497 44.4764 32.3456 44.4734 31.7153C44.4705 31.0844 44.9805 30.5733 45.6114 30.5756C46.2317 30.5779 46.7347 31.0803 46.7388 31.7018V31.7012Z" fill="white"/>
<path d="M45.6166 27.2816C44.9846 27.2868 44.4734 26.7798 44.4734 26.1478C44.4734 25.5286 44.9758 25.0221 45.5956 25.0163C46.2253 25.0104 46.7394 25.5204 46.7388 26.1507C46.7382 26.7716 46.237 27.2769 45.6166 27.2816Z" fill="white"/>
<path d="M2.26605 26.1501C2.26547 26.7804 1.75141 27.288 1.11994 27.2816C0.499572 27.2752 0.000120879 26.7705 0.000120879 26.1478C0.000120879 25.5187 0.515928 25.0087 1.14565 25.0157C1.76543 25.0227 2.26663 25.5304 2.26547 26.1501H2.26605Z" fill="white"/>
<path d="M46.7388 34.494C46.7359 35.1249 46.2206 35.629 45.588 35.6196C44.9676 35.6109 44.4699 35.1021 44.4734 34.4811C44.477 33.8509 44.9933 33.3456 45.6248 33.3549C46.2452 33.3637 46.7423 33.8719 46.7388 34.494Z" fill="white"/>
<path d="M2.26604 37.2594C2.27072 37.8803 1.7736 38.3891 1.15265 38.3996C0.521764 38.4101 0.00362006 37.9048 0.000115145 37.2751C-0.00338977 36.6524 0.49314 36.1442 1.11293 36.1349C1.7444 36.1255 2.26079 36.6297 2.26546 37.2599L2.26604 37.2594Z" fill="white"/>
<path d="M45.6032 38.3997C44.9817 38.3985 44.4775 37.8967 44.4734 37.2764C44.4694 36.6455 44.9787 36.1332 45.609 36.135C46.2399 36.1367 46.7452 36.6502 46.7382 37.2828C46.7312 37.9037 46.2253 38.4014 45.6026 38.4003L45.6032 38.3997Z" fill="white"/>
<path d="M46.7388 23.3649C46.7411 23.987 46.244 24.494 45.6231 24.5022C44.9916 24.5109 44.4758 24.0051 44.4734 23.3742C44.4711 22.7439 44.9834 22.2322 45.6131 22.2363C46.2341 22.2404 46.7359 22.7433 46.7388 23.3643V23.3649Z" fill="white"/>
<path d="M2.26604 23.3598C2.27188 23.9807 1.77535 24.4913 1.15498 24.5024C0.523515 24.514 0.00537137 24.0099 0.000113991 23.3802C-0.00514339 22.7587 0.490218 22.2487 1.11059 22.237C1.74147 22.2254 2.2602 22.7295 2.26604 23.3598Z" fill="white"/>
<path d="M1.13981 38.9141C1.75843 38.9159 2.26372 39.4218 2.26606 40.0415C2.26898 40.6724 1.75843 41.1824 1.12638 41.1795C0.506005 41.1765 0.00246551 40.673 0.000128895 40.0526C-0.00220772 39.4212 0.50659 38.9124 1.13923 38.9147L1.13981 38.9141Z" fill="white"/>
<path d="M3.92214 41.1789C3.29008 41.183 2.77895 40.676 2.78012 40.0445C2.78128 39.4236 3.2819 38.9194 3.90344 38.9142C4.53316 38.9089 5.04721 39.4195 5.04546 40.0492C5.04429 40.6707 4.54309 41.1742 3.92214 41.1789Z" fill="white"/>
<path d="M42.8226 38.9136C43.4541 38.9124 43.9629 39.4224 43.9594 40.0544C43.9559 40.6748 43.4512 41.1777 42.8308 41.1789C42.1993 41.1806 41.69 40.6689 41.694 40.0386C41.6981 39.4183 42.2028 38.9147 42.8226 38.9136Z" fill="white"/>
<path d="M1.10534 7.82496C0.476207 7.81094 -0.0197385 7.28463 0.000706825 6.65258C0.020568 6.03339 0.538128 5.54563 1.16083 5.55965C1.78938 5.57367 2.2865 6.10057 2.26547 6.73203C2.24502 7.35122 1.72746 7.83898 1.10534 7.82496Z" fill="white"/>
<path d="M3.90753 5.55975C4.53842 5.55683 5.04838 6.06795 5.04546 6.69941C5.04254 7.31919 4.539 7.82213 3.91746 7.82505C3.29709 7.82797 2.78829 7.32853 2.78011 6.70876C2.77194 6.0773 3.27723 5.56208 3.90753 5.55916V5.55975Z" fill="white"/>
<path d="M42.8314 5.55974C43.4518 5.56208 43.9553 6.06503 43.9588 6.68597C43.9623 7.31685 43.4523 7.82797 42.8215 7.82563C42.1917 7.8233 41.6847 7.30691 41.6935 6.67604C41.7016 6.05627 42.2104 5.55799 42.8314 5.56033V5.55974Z" fill="white"/>
<path d="M45.6044 5.55974C46.2352 5.55916 46.7435 6.07087 46.7388 6.70233C46.7341 7.32269 46.2288 7.82447 45.6085 7.82505C44.9776 7.82505 44.4694 7.31393 44.4734 6.68247C44.4775 6.06328 44.984 5.56033 45.6044 5.55974Z" fill="white"/>
<path d="M45.5979 41.1789C44.977 41.1748 44.4746 40.6707 44.4734 40.0503C44.4717 39.4195 44.9834 38.9101 45.6143 38.9136C46.2446 38.9177 46.7487 39.4346 46.7388 40.0661C46.7289 40.6865 46.2201 41.183 45.5979 41.1789Z" fill="white"/>
<path d="M45.6049 19.4571C46.2247 19.4559 46.7318 19.9565 46.7388 20.5769C46.7458 21.2078 46.2382 21.7218 45.6073 21.723C44.9863 21.7241 44.4799 21.2241 44.4734 20.6037C44.467 19.9729 44.9746 19.4588 45.6049 19.4577V19.4571Z" fill="white"/>
<path d="M2.26662 20.5833C2.27071 21.2043 1.77243 21.7136 1.15206 21.7224C0.520007 21.7317 0.00361564 21.227 0.00069488 20.5967C-0.00281004 19.9653 0.507155 19.4542 1.13804 19.4571C1.75841 19.4594 2.26254 19.963 2.26604 20.5833H2.26662Z" fill="white"/>
<path d="M2.26606 42.821C2.26898 43.4519 1.75843 43.9613 1.12638 43.9584C0.506006 43.9554 0.00246568 43.4519 0.000129073 42.8315C-0.00220754 42.2094 0.495491 41.7012 1.11528 41.6936C1.74675 41.6855 2.26314 42.1913 2.26547 42.821H2.26606Z" fill="white"/>
<path d="M3.92155 43.9589C3.29067 43.9635 2.77895 43.4542 2.78012 42.8233C2.78128 42.2035 3.28482 41.6971 3.90403 41.6936C4.53433 41.6895 5.04721 42.2 5.04546 42.8303C5.04371 43.4512 4.54192 43.9554 3.92097 43.9594L3.92155 43.9589Z" fill="white"/>
<path d="M45.6073 16.6771C46.2376 16.6771 46.7446 17.1912 46.7388 17.8232C46.733 18.4436 46.2282 18.9424 45.6055 18.9424C44.9752 18.9424 44.4676 18.429 44.474 17.7969C44.4799 17.1783 44.9881 16.6765 45.6079 16.6765L45.6073 16.6771Z" fill="white"/>
<path d="M2.26605 17.8098C2.26722 18.4401 1.75433 18.9483 1.12228 18.943C0.50191 18.9384 0.00129122 18.4337 0.000122915 17.8116C-0.00104539 17.1918 0.500742 16.6842 1.11994 16.6777C1.75025 16.6713 2.26488 17.1795 2.26547 17.8104L2.26605 17.8098Z" fill="white"/>
<path d="M7.82486 42.832C7.82311 43.4524 7.31957 43.9553 6.69803 43.9583C6.06656 43.9612 5.55659 43.4512 5.55893 42.8204C5.56127 42.2006 6.06597 41.6953 6.68576 41.6935C7.31723 41.6912 7.82661 42.2006 7.82486 42.832Z" fill="white"/>
<path d="M41.1794 42.832C41.1765 43.453 40.6741 43.9559 40.0532 43.9589C39.4217 43.9618 38.9117 43.4512 38.9146 42.8204C38.9176 42.2 39.4217 41.6965 40.0415 41.6935C40.6729 41.6906 41.1823 42.2006 41.1794 42.8326V42.832Z" fill="white"/>
<path d="M41.694 42.8349C41.6894 42.214 42.1871 41.7034 42.8063 41.6935C43.4383 41.6836 43.9547 42.1865 43.9594 42.8174C43.9641 43.4395 43.4675 43.9489 42.8478 43.9588C42.2151 43.9687 41.6993 43.4658 41.6946 42.8349H41.694Z" fill="white"/>
<path d="M45.6114 41.6935C46.2428 41.6965 46.747 42.2111 46.7388 42.8437C46.7306 43.4641 46.2236 43.9612 45.6009 43.9589C44.97 43.9565 44.4641 43.4401 44.4734 42.8093C44.4822 42.1895 44.9916 41.6906 45.6114 41.6935Z" fill="white"/>
<path d="M45.612 13.8983C46.2323 13.9006 46.7359 14.4042 46.7388 15.0251C46.7417 15.6571 46.2323 16.1665 45.6009 16.1642C44.9811 16.1618 44.4764 15.6577 44.474 15.038C44.4717 14.4065 44.9817 13.896 45.6125 13.8989L45.612 13.8983Z" fill="white"/>
<path d="M1.13864 16.1636C0.517682 16.1671 0.00830032 15.6677 0.000122175 15.0485C-0.00805597 14.4159 0.496652 13.9006 1.12695 13.8977C1.74849 13.8948 2.25671 14.3931 2.26547 15.0129C2.27423 15.6443 1.76894 16.1601 1.13864 16.1636Z" fill="white"/>
<path d="M1.13922 46.7388C0.518267 46.7417 0.00946997 46.2441 0.000707674 45.6237C-0.00863877 44.9922 0.497238 44.4759 1.12754 44.4729C1.75726 44.4694 2.27014 44.9823 2.26664 45.612C2.26313 46.2324 1.76018 46.7359 1.13922 46.7388Z" fill="white"/>
<path d="M45.6347 8.33903C46.2539 8.35247 46.747 8.86593 46.7388 9.48804C46.7306 10.1177 46.2084 10.6201 45.5781 10.6043C44.9571 10.5892 44.4653 10.0774 44.4734 9.45533C44.4816 8.82562 45.0021 8.32501 45.6342 8.33903H45.6347Z" fill="white"/>
<path d="M5.04546 45.6074C5.04546 46.2271 4.54309 46.733 3.92272 46.7383C3.29183 46.7435 2.77895 46.2341 2.78012 45.6039C2.7807 44.9829 3.28249 44.4776 3.90286 44.4729C4.53374 44.4683 5.04605 44.9765 5.04605 45.6074H5.04546Z" fill="white"/>
<path d="M6.70154 44.473C7.33125 44.4776 7.83538 44.9958 7.82486 45.6272C7.81435 46.247 7.3038 46.7435 6.68226 46.7383C6.05254 46.733 5.54783 46.2149 5.55893 45.584C5.57003 44.9642 6.08 44.4683 6.70154 44.473Z" fill="white"/>
<path d="M10.6048 45.5991C10.6089 46.23 10.0989 46.7406 9.46689 46.7388C8.84711 46.7371 8.34182 46.2324 8.33948 45.6132C8.33714 44.9811 8.84594 44.4718 9.47741 44.4735C10.0978 44.4753 10.6013 44.9782 10.6048 45.5991Z" fill="white"/>
<path d="M13.3842 45.6062C13.3842 46.2266 12.883 46.733 12.2632 46.7383C11.6318 46.7435 11.1183 46.2359 11.1189 45.6056C11.1189 44.9847 11.6207 44.4788 12.2405 44.4735C12.8719 44.4683 13.3842 44.9753 13.3848 45.6068L13.3842 45.6062Z" fill="white"/>
<path d="M15.0356 46.7382C14.4153 46.7406 13.9059 46.2411 13.8983 45.6219C13.8901 44.9911 14.3966 44.4753 15.0263 44.4724C15.6566 44.4694 16.1677 44.9817 16.1636 45.6126C16.1601 46.233 15.656 46.7353 15.0356 46.7382Z" fill="white"/>
<path d="M18.943 45.6115C18.9401 46.2325 18.4372 46.736 17.8168 46.7383C17.1859 46.7413 16.6742 46.229 16.6777 45.5998C16.6812 44.9696 17.1976 44.4643 17.8285 44.473C18.4488 44.4818 18.946 44.9894 18.943 45.6115Z" fill="white"/>
<path d="M42.8372 44.4729C43.4576 44.4776 43.9588 44.9829 43.9594 45.6039C43.96 46.2353 43.4477 46.7435 42.8162 46.7383C42.1947 46.7324 41.694 46.2283 41.694 45.6074C41.694 44.9765 42.2058 44.4683 42.8372 44.4729Z" fill="white"/>
<path d="M41.1794 45.6027C41.1823 46.2231 40.6811 46.7319 40.0619 46.7383C39.4293 46.7447 38.9158 46.2395 38.9146 45.6086C38.9135 44.9871 39.4123 44.4806 40.0321 44.473C40.6636 44.4654 41.1765 44.9707 41.1794 45.6027Z" fill="white"/>
<path d="M38.4 45.6068C38.4 46.2283 37.9 46.733 37.2784 46.7383C36.647 46.7435 36.1347 46.2353 36.1347 45.6045C36.1347 44.9748 36.6499 44.4666 37.2808 44.473C37.9017 44.4794 38.4 44.9841 38.4 45.6068Z" fill="white"/>
<path d="M34.4879 44.4729C35.1188 44.4729 35.6259 44.9852 35.62 45.6173C35.6142 46.2382 35.1095 46.7382 34.4879 46.7376C33.8664 46.7376 33.3605 46.237 33.3553 45.6173C33.35 44.9858 33.8576 44.4723 34.4879 44.4723V44.4729Z" fill="white"/>
<path d="M32.8406 45.6009C32.8424 46.2335 32.3318 46.7423 31.7009 46.7382C31.0794 46.7341 30.577 46.2312 30.5753 45.6108C30.5729 44.9806 31.0841 44.47 31.715 44.4729C32.3353 44.4759 32.8389 44.9806 32.8406 45.6009Z" fill="white"/>
<path d="M28.949 44.4729C29.5787 44.4828 30.077 45.005 30.0612 45.6377C30.0455 46.2574 29.532 46.7475 28.9087 46.7382C28.279 46.7282 27.7801 46.2054 27.7965 45.5734C27.8128 44.9542 28.3275 44.4629 28.949 44.4729Z" fill="white"/>
<path d="M26.1223 46.7383C25.5025 46.7243 25.0071 46.2108 25.0159 45.591C25.0247 44.9613 25.5457 44.4596 26.176 44.473C26.8052 44.4864 27.3011 45.0116 27.2812 45.6448C27.262 46.2634 26.7438 46.7529 26.1223 46.7383Z" fill="white"/>
<path d="M24.5018 45.5962C24.5071 46.2172 24.0117 46.7271 23.3908 46.7382C22.7605 46.7499 22.2406 46.2435 22.2365 45.6149C22.2324 44.9841 22.7418 44.4718 23.3721 44.4723C23.993 44.4735 24.4966 44.9735 24.5018 45.5956V45.5962Z" fill="white"/>
<path d="M21.7224 45.6342C21.7084 46.254 21.1961 46.747 20.574 46.7388C19.9449 46.7307 19.4419 46.2078 19.4577 45.5781C19.4734 44.949 19.9992 44.4537 20.6307 44.4741C21.2499 44.494 21.7365 45.0115 21.7224 45.6348V45.6342Z" fill="white"/>
<path d="M46.7388 12.2493C46.74 12.8801 46.2271 13.3901 45.5968 13.3848C44.9764 13.3796 44.474 12.8743 44.4734 12.2545C44.4723 11.6242 44.9857 11.1143 45.616 11.1189C46.2364 11.1236 46.7382 11.6289 46.7388 12.2493Z" fill="white"/>
<path d="M1.1322 13.3842C0.511243 13.3836 0.00361419 12.8807 0.000109273 12.2627C-0.00281149 11.6289 0.503649 11.1177 1.13395 11.1183C1.76425 11.1189 2.27305 11.6341 2.26604 12.2644C2.25903 12.8848 1.75257 13.3848 1.1322 13.3848V13.3842Z" fill="white"/>
<path d="M41.1794 1.12661C41.1835 1.74755 40.6858 2.25751 40.066 2.26685C39.4351 2.2762 38.917 1.76975 38.9141 1.14121C38.9111 0.509167 39.4176 0.00154722 40.0514 0.00154722C40.67 0.00154722 41.1747 0.505078 41.1788 1.12719L41.1794 1.12661Z" fill="white"/>
<path d="M3.91805 5.0457C3.29709 5.04862 2.78829 4.54976 2.78012 3.92998C2.77194 3.29736 3.27373 2.78506 3.90753 2.77981C4.52673 2.77513 5.0367 3.27516 5.04605 3.89494C5.05481 4.52523 4.54835 5.04219 3.91805 5.04511V5.0457Z" fill="white"/>
<path d="M2.26604 34.4999C2.25962 35.1308 1.74264 35.6314 1.10884 35.6203C0.489634 35.6092 -0.00864848 35.0952 0.000113817 34.4766C0.00946026 33.8428 0.524683 33.3433 1.15674 33.3562C1.77594 33.3685 2.27188 33.8802 2.26604 34.5005V34.4999Z" fill="white"/>
<path d="M1.13154 2.26628C0.501236 2.26628 -0.00464111 1.75398 3.21187e-05 1.12019C0.0052895 0.501581 0.512334 0.000386805 1.13446 0.000386805C1.75541 0.000386805 2.26129 0.502166 2.26655 1.12194C2.2718 1.75223 1.76242 2.26628 1.13212 2.26569L1.13154 2.26628Z" fill="white"/>
<path d="M37.2662 0.000388841C37.8871 -0.000779445 38.3947 0.500999 38.3994 1.12019C38.4041 1.75457 37.9 2.2657 37.2685 2.26628C36.6388 2.26686 36.1294 1.7534 36.1347 1.12253C36.1393 0.502168 36.644 0.00155713 37.2668 0.000972984L37.2662 0.000388841Z" fill="white"/>
<path d="M2.26605 9.46283C2.27072 10.0844 1.77361 10.5949 1.15441 10.6048C0.521184 10.6142 0.00712928 10.1142 0.000119441 9.48094C-0.0068904 8.85299 0.505412 8.33777 1.13571 8.33894C1.75667 8.34011 2.26138 8.84189 2.26605 9.46225V9.46283Z" fill="white"/>
<path d="M9.45815 43.9489C8.8331 43.9436 8.34417 43.4424 8.34943 42.8133C8.35527 42.1883 8.8553 41.6993 9.48502 41.7046C10.1101 41.7099 10.5984 42.2105 10.5932 42.8402C10.5879 43.4652 10.0873 43.9535 9.45756 43.9483L9.45815 43.9489Z" fill="white"/>
<path d="M3.90517 11.1295C4.53314 11.1266 5.03084 11.6185 5.03376 12.2447C5.03668 12.8732 4.54482 13.3709 3.91861 13.3732C3.29006 13.3756 2.79294 12.8849 2.78944 12.2581C2.78593 11.6307 3.27896 11.1325 3.90459 11.129L3.90517 11.1295Z" fill="white"/>
<path d="M43.9495 9.48461C43.9448 10.1096 43.4448 10.5986 42.8144 10.5933C42.1894 10.5886 41.6999 10.088 41.7051 9.45833C41.7104 8.83388 42.2116 8.34378 42.8402 8.34904C43.4646 8.35429 43.9541 8.85491 43.9495 9.48461Z" fill="white"/>
<path d="M3.90985 10.5939C3.28247 10.5927 2.78944 10.0973 2.79003 9.46938C2.79119 8.84318 3.28773 8.34841 3.91452 8.34958C4.54132 8.35075 5.03493 8.84668 5.03376 9.47405C5.03317 10.1008 4.53723 10.595 3.90985 10.5933V10.5939Z" fill="white"/>
<path d="M5.03435 28.9337C5.03259 29.5604 4.53606 30.0529 3.9081 30.0511C3.28189 30.0494 2.78828 29.5523 2.79003 28.9249C2.79237 28.2987 3.2889 27.8057 3.91686 27.8074C4.54249 27.8086 5.0361 28.3063 5.03435 28.9342V28.9337Z" fill="white"/>
<path d="M38.3901 42.8363C38.386 43.4625 37.8883 43.9526 37.2592 43.9491C36.6335 43.9455 36.1417 43.4461 36.1458 42.8182C36.1498 42.192 36.6493 41.7007 37.2767 41.7048C37.9023 41.7083 38.3936 42.2077 38.3895 42.8363H38.3901Z" fill="white"/>
<path d="M34.4803 43.949C33.8541 43.9461 33.3629 43.4478 33.3658 42.8193C33.3687 42.1937 33.867 41.7024 34.4961 41.7048C35.1212 41.7071 35.6136 42.2065 35.6101 42.8351C35.6066 43.4619 35.1089 43.952 34.4803 43.949Z" fill="white"/>
<path d="M32.8307 42.8414C32.8249 43.467 32.3236 43.9553 31.6945 43.9489C31.0689 43.9431 30.5811 43.443 30.587 42.8127C30.5922 42.1883 31.094 41.6988 31.7231 41.7052C32.3482 41.711 32.8371 42.2122 32.8307 42.8414Z" fill="white"/>
<path d="M28.9192 43.949C28.293 43.945 27.8029 43.4467 27.807 42.8176C27.8105 42.1925 28.3105 41.7013 28.9391 41.7054C29.5647 41.7094 30.0548 42.2077 30.0513 42.8374C30.0478 43.4625 29.5483 43.9537 28.9192 43.9496V43.949Z" fill="white"/>
<path d="M43.9489 28.9342C43.9471 29.561 43.4506 30.0523 42.822 30.0505C42.1958 30.0488 41.7028 29.5511 41.7051 28.9232C41.7075 28.2969 42.2052 27.8039 42.8326 27.8063C43.4594 27.8086 43.9506 28.3051 43.9489 28.9337V28.9342Z" fill="white"/>
<path d="M43.9489 12.2534C43.9483 12.8808 43.4535 13.3738 42.825 13.3732C42.1982 13.3732 41.7046 12.8773 41.7051 12.2494C41.7051 11.6231 42.2023 11.1284 42.8291 11.129C43.4558 11.1295 43.9495 11.6255 43.9489 12.2534Z" fill="white"/>
<path d="M3.9046 16.1525C3.27839 16.1495 2.78712 15.6513 2.79062 15.0227C2.79355 14.3971 3.29241 13.9053 3.92038 13.9088C4.54659 13.9123 5.03728 14.41 5.03436 15.0385C5.03144 15.6647 4.53374 16.1554 3.9046 16.1525Z" fill="white"/>
<path d="M42.818 16.153C42.1917 16.1489 41.701 15.6501 41.7051 15.0215C41.7092 14.3959 42.2081 13.9053 42.8372 13.9088C43.4623 13.9123 43.9535 14.4117 43.9495 15.0408C43.9454 15.667 43.4471 16.1571 42.818 16.153Z" fill="white"/>
<path d="M10.5937 3.9229C10.5891 4.54911 10.0902 5.03862 9.46106 5.03453C8.83543 5.03044 8.34474 4.53041 8.34942 3.90188C8.35351 3.27684 8.85413 2.78558 9.48209 2.79025C10.1077 2.79492 10.5978 3.29495 10.5931 3.92349L10.5937 3.9229Z" fill="white"/>
<path d="M5.03434 31.7105C5.03434 32.3373 4.53723 32.8315 3.91043 32.8303C3.28305 32.8291 2.78944 32.3338 2.79061 31.7058C2.79119 31.0796 3.28772 30.5849 3.9151 30.586C4.5419 30.5872 5.03492 31.0826 5.03492 31.7105H5.03434Z" fill="white"/>
<path d="M27.2713 42.8368C27.2678 43.4619 26.7689 43.9526 26.1398 43.949C25.5142 43.9455 25.0235 43.4461 25.0276 42.8176C25.0317 42.1925 25.5311 41.7013 26.1597 41.7054C26.7853 41.7094 27.2748 42.2077 27.2719 42.8374L27.2713 42.8368Z" fill="white"/>
<path d="M23.3551 43.9489C22.7307 43.9436 22.2412 43.4413 22.2476 42.8127C22.254 42.1877 22.7552 41.6993 23.3843 41.7052C24.0094 41.7104 24.4972 42.2116 24.4919 42.8419C24.4866 43.467 23.986 43.9547 23.3557 43.9495L23.3551 43.9489Z" fill="white"/>
<path d="M21.7119 42.8368C21.7084 43.4624 21.2095 43.9525 20.5804 43.949C19.9548 43.9449 19.4635 43.4455 19.4676 42.8176C19.4717 42.1919 19.9706 41.7024 20.5997 41.7053C21.2247 41.7088 21.7154 42.2077 21.7119 42.8368Z" fill="white"/>
<path d="M18.9325 42.8228C18.9337 43.4513 18.4418 43.9473 17.815 43.949C17.1871 43.9508 16.69 43.4578 16.6882 42.8316C16.6865 42.2042 17.1801 41.7065 17.8057 41.7048C18.4337 41.703 18.9308 42.196 18.9319 42.8222L18.9325 42.8228Z" fill="white"/>
<path d="M15.0333 41.7053C15.6601 41.7059 16.1537 42.2019 16.1525 42.8298C16.1514 43.4572 15.6566 43.9502 15.0286 43.949C14.4018 43.9484 13.9076 43.4519 13.9088 42.8251C13.91 42.1983 14.4059 41.7047 15.0333 41.7053Z" fill="white"/>
<path d="M13.3731 42.838C13.369 43.4642 12.8696 43.9537 12.2405 43.9491C11.6148 43.9444 11.1241 43.4444 11.1288 42.8164C11.1341 42.1908 11.6335 41.7007 12.2621 41.7048C12.8877 41.7089 13.3772 42.2083 13.3731 42.838Z" fill="white"/>
<path d="M13.3731 3.91645C13.3726 4.54265 12.8749 5.03683 12.2475 5.0345C11.6201 5.03216 11.1277 4.53622 11.1294 3.90885C11.1312 3.28265 11.6277 2.78905 12.2551 2.7908C12.8819 2.79256 13.3737 3.28791 13.3731 3.91703V3.91645Z" fill="white"/>
<path d="M43.9495 31.7228C43.9436 32.3479 43.4424 32.8362 42.8133 32.8304C42.1882 32.8245 41.7005 32.3239 41.7057 31.6936C41.711 31.0698 42.2134 30.5797 42.8425 30.5861C43.4669 30.5919 43.9559 31.0937 43.95 31.7228H43.9495Z" fill="white"/>
<path d="M42.8314 25.0275C43.4576 25.0286 43.9501 25.5257 43.9489 26.1537C43.9477 26.7799 43.4506 27.2729 42.8226 27.2712C42.1958 27.2694 41.7028 26.7729 41.7046 26.1449C41.7069 25.5181 42.2034 25.0257 42.8308 25.0269L42.8314 25.0275Z" fill="white"/>
<path d="M5.03434 26.1455C5.0361 26.7735 4.54307 27.27 3.91686 27.2717C3.28889 27.2735 2.79236 26.7805 2.79061 26.1537C2.78886 25.5257 3.28188 25.0292 3.90868 25.0275C4.53606 25.0257 5.03317 25.5187 5.03493 26.1455H5.03434Z" fill="white"/>
<path d="M43.9495 20.5967C43.9471 21.2223 43.4483 21.7153 42.8209 21.7118C42.1941 21.7083 41.7028 21.2112 41.7057 20.5832C41.7087 19.957 42.2064 19.4652 42.8343 19.4681C43.4605 19.471 43.9518 19.9681 43.9495 20.5967Z" fill="white"/>
<path d="M15.0239 5.0345C14.3977 5.03158 13.9059 4.53389 13.9088 3.90594C13.9111 3.28032 14.41 2.78789 15.038 2.79023C15.6636 2.79256 16.156 3.29142 16.1531 3.91938C16.1502 4.54558 15.6525 5.03743 15.0245 5.0345H15.0239Z" fill="white"/>
<path d="M17.8121 5.03449C17.1847 5.03508 16.6888 4.54031 16.6888 3.91411C16.6888 3.28674 17.1824 2.79138 17.8098 2.7908C18.4372 2.79022 18.9319 3.28382 18.9325 3.91119C18.9331 4.53856 18.4395 5.03391 17.8121 5.03449Z" fill="white"/>
<path d="M3.91043 16.6887C4.53898 16.6887 5.03376 17.1817 5.03434 17.8085C5.03492 18.4365 4.54132 18.9318 3.91452 18.9324C3.28655 18.933 2.79119 18.4394 2.79061 17.8126C2.78944 17.1858 3.2848 16.6887 3.91101 16.6887H3.91043Z" fill="white"/>
<path d="M42.8139 18.9324C42.1888 18.9272 41.6999 18.4272 41.7051 17.7969C41.7104 17.1724 42.2116 16.6835 42.8407 16.6887C43.4658 16.694 43.9541 17.1946 43.9495 17.8243C43.9442 18.4488 43.4436 18.9377 42.8139 18.9324Z" fill="white"/>
<path d="M5.03436 34.5099C5.0256 35.1338 4.52264 35.618 3.89059 35.6098C3.26788 35.6017 2.78128 35.0964 2.79005 34.4661C2.79881 33.8428 3.3041 33.3568 3.9344 33.3661C4.55828 33.3749 5.04312 33.879 5.03436 34.5099Z" fill="white"/>
<path d="M43.9495 34.4969C43.9465 35.1225 43.4477 35.6138 42.8191 35.6103C42.1929 35.6068 41.7016 35.1079 41.7057 34.48C41.7098 33.8544 42.2087 33.3625 42.8367 33.3666C43.4629 33.3701 43.953 33.8684 43.95 34.4975L43.9495 34.4969Z" fill="white"/>
<path d="M21.7119 3.92525C21.7072 4.55028 21.2078 5.03921 20.5775 5.03453C19.953 5.02986 19.4629 4.52867 19.4682 3.90013C19.4734 3.2751 19.9741 2.78558 20.6032 2.79084C21.2282 2.79551 21.7172 3.29612 21.7119 3.92583V3.92525Z" fill="white"/>
<path d="M5.03435 20.5856C5.03668 21.2129 4.54307 21.7106 3.91686 21.7118C3.2889 21.7135 2.79178 21.2205 2.79003 20.5943C2.78828 19.9664 3.28189 19.4693 3.9081 19.4675C4.53548 19.4658 5.03259 19.9588 5.03435 20.5856Z" fill="white"/>
<path d="M24.4919 3.90885C24.4931 4.53739 24.0006 5.03333 23.3738 5.03449C22.7459 5.03566 22.2493 4.54323 22.2482 3.91644C22.2464 3.28908 22.7406 2.79197 23.3662 2.7908C23.9948 2.78963 24.4907 3.28265 24.4919 3.90885Z" fill="white"/>
<path d="M5.03435 37.281C5.02909 37.906 4.52847 38.3955 3.89934 38.3897C3.27371 38.3844 2.78536 37.8844 2.79004 37.2547C2.79529 36.6303 3.29591 36.1408 3.92504 36.1454C4.5495 36.1501 5.03902 36.6513 5.03377 37.2804L5.03435 37.281Z" fill="white"/>
<path d="M43.9495 37.2804C43.9448 37.9049 43.4442 38.3944 42.815 38.3891C42.19 38.3839 41.7005 37.8833 41.7057 37.2541C41.711 36.6291 42.2122 36.1396 42.8407 36.1449C43.4658 36.1501 43.9541 36.6501 43.9495 37.2798V37.2804Z" fill="white"/>
<path d="M42.8261 24.4918C42.1987 24.4906 41.7046 23.9952 41.7051 23.3685C41.7051 22.7417 42.2017 22.2469 42.8285 22.2475C43.4558 22.2481 43.9495 22.7434 43.9489 23.3708C43.9489 23.9982 43.4523 24.4929 42.8255 24.4912L42.8261 24.4918Z" fill="white"/>
<path d="M5.03434 23.3597C5.03843 23.9888 4.54833 24.4883 3.9227 24.4918C3.29357 24.4959 2.7947 24.0058 2.79003 23.3802C2.78594 22.7522 3.27663 22.2522 3.90225 22.2475C4.5308 22.2434 5.03025 22.7335 5.03434 23.3597Z" fill="white"/>
<path d="M26.1538 2.79023C26.7806 2.79198 27.2725 3.28792 27.2713 3.91646C27.2701 4.54266 26.773 5.03567 26.1451 5.03392C25.5188 5.03217 25.0252 4.53506 25.027 3.90769C25.0287 3.28149 25.5259 2.78789 26.1538 2.78964V2.79023Z" fill="white"/>
<path d="M30.0513 3.90886C30.053 4.53681 29.56 5.03275 28.9332 5.0345C28.3053 5.03567 27.8087 4.54324 27.8076 3.91645C27.8064 3.28908 28.3 2.79198 28.9262 2.79022C29.553 2.78847 30.0501 3.28266 30.0519 3.90886H30.0513Z" fill="white"/>
<path d="M37.2668 2.79022C37.8941 2.79022 38.3895 3.28382 38.3901 3.91061C38.3907 4.53798 37.8965 5.03392 37.2697 5.03392C36.6423 5.03392 36.1469 4.5409 36.1458 3.91353C36.1446 3.28674 36.64 2.79022 37.2662 2.78964L37.2668 2.79022Z" fill="white"/>
<path d="M31.6986 5.03392C31.073 5.03042 30.5823 4.53098 30.5864 3.90244C30.5911 3.27682 31.0893 2.78731 31.7191 2.79023C32.3441 2.79374 32.8354 3.29376 32.8307 3.9223C32.8266 4.5485 32.3283 5.03743 31.6986 5.03392Z" fill="white"/>
<path d="M35.6101 3.91411C35.6089 4.54206 35.1147 5.03508 34.4868 5.0345C33.86 5.0345 33.3658 4.53914 33.3664 3.91119C33.3664 3.28499 33.8629 2.78964 34.4897 2.79022C35.1165 2.79022 35.6113 3.28674 35.6101 3.91353V3.91411Z" fill="white"/>
<path d="M41.1549 6.69826C41.1525 7.31453 40.6566 7.80228 40.0362 7.79761C39.4316 7.79294 38.9444 7.30284 38.9433 6.6965C38.9415 6.0779 39.4322 5.58546 40.0502 5.58605C40.6694 5.58605 41.1572 6.0779 41.1549 6.69884V6.69826Z" fill="white"/>
<path d="M5.5852 6.67885C5.58929 6.06316 6.08757 5.57891 6.70911 5.58534C7.32306 5.59176 7.80557 6.09296 7.79681 6.71565C7.78804 7.31907 7.29385 7.79982 6.68458 7.79749C6.06713 7.79515 5.58111 7.30038 5.5852 6.67885Z" fill="white"/>
<path d="M7.7974 40.0433C7.79915 40.6625 7.30905 41.1544 6.69043 41.1544C6.07181 41.1544 5.58287 40.6619 5.58579 40.0421C5.58813 39.4346 6.07415 38.9475 6.6805 38.9428C7.2997 38.9387 7.79623 39.4276 7.79798 40.0439L7.7974 40.0433Z" fill="white"/>
<path d="M40.059 38.9422C40.6753 38.9457 41.1601 39.4428 41.1549 40.0644C41.149 40.6795 40.6496 41.162 40.0269 41.1538C39.4229 41.1456 38.9415 40.6532 38.9427 40.0439C38.9439 39.4282 39.4398 38.9381 40.059 38.9422Z" fill="white"/>
<path d="M40.0561 38.3167C39.4743 38.3173 39.0081 37.8506 39.0099 37.2688C39.0116 36.6881 39.483 36.2226 40.0637 36.2284C40.6356 36.2337 41.0935 36.6928 41.0976 37.2647C41.1017 37.8465 40.6367 38.3161 40.0561 38.3167Z" fill="white"/>
<path d="M37.2708 5.64388C37.8509 5.64213 38.3194 6.11061 38.3171 6.69183C38.3153 7.26312 37.8573 7.72576 37.2872 7.73219C36.7048 7.73862 36.2328 7.27714 36.2287 6.6965C36.2246 6.11528 36.689 5.64563 37.2708 5.64388Z" fill="white"/>
<path d="M37.2767 41.0972C36.6949 41.0984 36.227 40.6317 36.2287 40.0505C36.2299 39.4698 36.6995 39.0054 37.2814 39.0089C37.8521 39.0124 38.3124 39.4727 38.3171 40.0434C38.3217 40.6247 37.8562 41.0961 37.2767 41.0972Z" fill="white"/>
<path d="M9.45639 41.0972C8.87691 41.092 8.41484 40.6171 8.4236 40.0353C8.43237 39.4564 8.90962 38.9972 9.49144 39.0083C10.0604 39.0194 10.516 39.4879 10.5125 40.058C10.509 40.6398 10.0388 41.1025 9.45639 41.0966V41.0972Z" fill="white"/>
<path d="M40.0608 8.42366C40.6396 8.42658 41.1035 8.89915 41.0982 9.48096C41.093 10.0598 40.6169 10.5213 40.0351 10.512C39.4655 10.5032 39.0081 10.0371 39.0093 9.46694C39.0104 8.8863 39.4795 8.42074 40.0608 8.42308V8.42366Z" fill="white"/>
<path d="M6.68574 38.3167C6.10568 38.3167 5.63894 37.8459 5.64303 37.2653C5.64712 36.6946 6.10685 36.2337 6.67698 36.2284C7.25821 36.2231 7.72787 36.6864 7.73196 37.2682C7.73547 37.8471 7.26756 38.3167 6.68574 38.3167Z" fill="white"/>
<path d="M5.64304 9.46403C5.64538 8.8834 6.11562 8.41959 6.69744 8.42368C7.27575 8.42776 7.73957 8.90384 7.73139 9.48448C7.72321 10.0552 7.2594 10.5132 6.68926 10.5126C6.10745 10.5126 5.64012 10.0447 5.64304 9.46403Z" fill="white"/>
<path d="M9.47041 5.6433C10.0516 5.64447 10.516 6.11412 10.512 6.69651C10.5085 7.27539 10.0335 7.7392 9.45289 7.73161C8.88217 7.72402 8.42361 7.26079 8.42302 6.69067C8.42186 6.10886 8.88918 5.64155 9.47041 5.6433Z" fill="white"/>
<path d="M7.67239 12.2499C7.67239 12.8013 7.2372 13.2371 6.68751 13.2365C6.13665 13.2365 5.6962 12.8013 5.69328 12.2557C5.69036 11.6967 6.13548 11.2522 6.69335 11.2563C7.24246 11.2598 7.67239 11.6973 7.67239 12.2499Z" fill="white"/>
<path d="M12.2516 39.0685C12.8024 39.0702 13.2335 39.5025 13.237 40.0563C13.2399 40.6024 12.8012 41.0458 12.2545 41.0481C11.6972 41.0511 11.2492 40.6013 11.2562 40.0463C11.2632 39.4955 11.6995 39.0667 12.2516 39.0685Z" fill="white"/>
<path d="M39.0683 12.2393C39.0712 11.6902 39.5081 11.2562 40.0584 11.2562C40.6139 11.2562 41.0562 11.7072 41.048 12.2662C41.0404 12.8112 40.5912 13.2452 40.0444 13.2365C39.4924 13.2277 39.0659 12.7919 39.0689 12.2393H39.0683Z" fill="white"/>
<path d="M34.4903 39.0679C35.0394 39.065 35.4798 39.4973 35.4857 40.0464C35.4915 40.5943 35.0581 41.04 34.5119 41.0476C33.9534 41.0558 33.5042 40.6141 33.5042 40.0557C33.5042 39.506 33.9382 39.0708 34.4897 39.0679H34.4903Z" fill="white"/>
<path d="M34.5055 7.67246C33.9528 7.67596 33.5112 7.2472 33.5048 6.70103C33.4984 6.142 33.94 5.69338 34.4973 5.69397C35.0435 5.69397 35.4833 6.13324 35.4862 6.68117C35.4892 7.23085 35.0557 7.66954 34.506 7.67304L34.5055 7.67246Z" fill="white"/>
<path d="M7.67239 34.4987C7.67239 35.049 7.23545 35.4859 6.68693 35.4853C6.13782 35.4853 5.69737 35.049 5.69387 34.5034C5.69036 33.9449 6.13432 33.501 6.69394 33.5045C7.24129 33.508 7.67298 33.9461 7.67239 34.4987Z" fill="white"/>
<path d="M39.0683 34.4993C39.0665 33.9473 39.4982 33.5086 40.0467 33.5039C40.6052 33.4993 41.0515 33.9444 41.048 34.5017C41.0445 35.0496 40.604 35.4865 40.0561 35.4848C39.5058 35.483 39.0694 35.0484 39.0683 34.4993Z" fill="white"/>
<path d="M12.2498 7.67247C11.6984 7.67364 11.2603 7.24196 11.2562 6.69345C11.2521 6.13559 11.6972 5.69106 12.2557 5.69398C12.8018 5.6969 13.2364 6.13676 13.2364 6.68761C13.2364 7.23787 12.8024 7.6713 12.2498 7.67247Z" fill="white"/>
<path d="M41.0275 20.5896C41.0281 21.134 40.5999 21.5628 40.0572 21.5616C39.5151 21.5605 39.0852 21.1299 39.0852 20.5896C39.0852 20.0481 39.5146 19.6188 40.0572 19.6176C40.5993 19.6164 41.0269 20.0446 41.0275 20.5896Z" fill="white"/>
<path d="M21.5618 40.0544C21.5635 40.5982 21.1365 41.027 20.5921 41.0276C20.0471 41.0276 19.6177 40.6012 19.6177 40.0597C19.6177 39.5176 20.0465 39.0865 20.5874 39.0853C21.1284 39.0841 21.56 39.5135 21.5618 40.0544Z" fill="white"/>
<path d="M23.3744 5.7133C23.9171 5.71447 24.3435 6.14382 24.3418 6.68882C24.3406 7.22974 23.9083 7.6585 23.3662 7.65675C22.8271 7.655 22.3965 7.22156 22.3977 6.68123C22.3989 6.13973 22.83 5.71272 23.3738 5.71389L23.3744 5.7133Z" fill="white"/>
<path d="M6.68575 19.6176C7.22609 19.6182 7.65661 20.0493 7.65661 20.5908C7.65661 21.1311 7.22434 21.5634 6.684 21.5616C6.14015 21.5605 5.71372 21.1329 5.71372 20.589C5.71372 20.0464 6.14307 19.617 6.68575 19.6182V19.6176Z" fill="white"/>
<path d="M29.9035 40.0597C29.9035 40.6035 29.4747 41.0299 28.9297 41.027C28.3824 41.0235 27.9594 40.5988 27.9606 40.0532C27.9624 39.5135 28.3946 39.0836 28.9356 39.0841C29.4776 39.0847 29.9029 39.5135 29.9035 40.0591V40.0597Z" fill="white"/>
<path d="M40.052 30.7415C40.5976 30.7398 41.0229 31.1615 41.0275 31.7089C41.0316 32.2551 40.6081 32.6832 40.0625 32.6838C39.5163 32.6844 39.0864 32.2597 39.0852 31.7182C39.084 31.1761 39.5128 30.7433 40.0526 30.7415H40.052Z" fill="white"/>
<path d="M7.65661 23.3667C7.65778 23.9087 7.2296 24.3404 6.68867 24.3416C6.14482 24.3428 5.7143 23.9158 5.71372 23.3737C5.71372 22.8287 6.13957 22.3987 6.68108 22.3976C7.222 22.3964 7.65544 22.8269 7.65661 23.3661V23.3667Z" fill="white"/>
<path d="M26.1567 39.0847C26.6982 39.0859 27.1235 39.5164 27.1229 40.062C27.1218 40.6058 26.6918 41.0311 26.1468 41.027C25.6006 41.0229 25.1765 40.5953 25.1794 40.0515C25.1824 39.5117 25.6152 39.0836 26.1567 39.0847Z" fill="white"/>
<path d="M31.7079 41.027C31.1612 41.0223 30.74 40.5965 30.7418 40.0503C30.7435 39.5117 31.1781 39.0824 31.7196 39.0842C32.2617 39.0859 32.6858 39.5158 32.6841 40.062C32.6823 40.6082 32.2541 41.0311 31.7079 41.0264V41.027Z" fill="white"/>
<path d="M18.7806 40.0562C18.7824 40.5988 18.353 41.027 17.8086 41.0264C17.263 41.0258 16.8366 40.6 16.8366 40.0567C16.8366 39.5158 17.2677 39.0841 17.808 39.0847C18.3495 39.0847 18.7789 39.5141 18.7806 40.0562Z" fill="white"/>
<path d="M40.0555 29.9033C39.5105 29.9009 39.084 29.4739 39.0852 28.9307C39.0864 28.3903 39.5175 27.961 40.059 27.9604C40.6023 27.9604 41.0275 28.3874 41.0281 28.9342C41.0281 29.4792 40.6017 29.905 40.0561 29.9027L40.0555 29.9033Z" fill="white"/>
<path d="M7.65662 17.8167C7.65428 18.3553 7.21851 18.784 6.67641 18.7805C6.13549 18.7776 5.70905 18.3436 5.71314 17.7997C5.71723 17.2571 6.14775 16.8336 6.69277 16.8365C7.23136 16.8388 7.65837 17.2734 7.65662 17.8161V17.8167Z" fill="white"/>
<path d="M41.0275 26.1548C41.0275 26.6986 40.5988 27.1251 40.0537 27.1221C39.5099 27.1198 39.0835 26.691 39.0846 26.1484C39.0858 25.6086 39.5187 25.1787 40.0596 25.1793C40.6017 25.1793 41.0264 25.608 41.0269 26.1548H41.0275Z" fill="white"/>
<path d="M20.5857 5.71331C21.1289 5.71097 21.5589 6.1374 21.5618 6.68065C21.5647 7.22098 21.1336 7.65558 20.5938 7.65617C20.0518 7.65734 19.6195 7.22799 19.6177 6.68824C19.616 6.14499 20.043 5.71506 20.5857 5.71273V5.71331Z" fill="white"/>
<path d="M17.8191 7.65678C17.2747 7.65912 16.8395 7.23328 16.8372 6.69528C16.8342 6.14911 17.256 5.7186 17.7987 5.71392C18.3431 5.70925 18.7783 6.13451 18.7818 6.67484C18.7853 7.21809 18.3577 7.65445 17.8197 7.65678H17.8191Z" fill="white"/>
<path d="M15.0275 5.71331C15.5707 5.71331 15.9989 6.14207 15.9995 6.68474C15.9995 7.22507 15.5678 7.65675 15.0275 7.65617C14.4859 7.65558 14.0554 7.22449 14.056 6.68415C14.056 6.1409 14.4848 5.71273 15.0275 5.71273V5.71331Z" fill="white"/>
<path d="M40.0572 24.3416C39.5134 24.3404 39.0852 23.9122 39.0852 23.3707C39.0852 22.8304 39.5163 22.3987 40.0567 22.3981C40.5999 22.3981 41.0258 22.8246 41.0269 23.3702C41.0281 23.9146 40.6005 24.3428 40.0567 24.3416H40.0572Z" fill="white"/>
<path d="M7.65661 26.1707C7.65018 26.7092 7.21148 27.131 6.66589 27.1228C6.12438 27.1152 5.70554 26.6794 5.71372 26.1327C5.72189 25.5935 6.15943 25.1723 6.70386 25.1794C7.24011 25.1864 7.66304 25.6262 7.65661 26.1701V26.1707Z" fill="white"/>
<path d="M7.65661 31.7153C7.65661 32.2574 7.22726 32.685 6.68341 32.6844C6.1384 32.6838 5.71313 32.2574 5.7143 31.7124C5.71489 31.1691 6.14365 30.7415 6.68633 30.7421C7.22609 30.7421 7.6572 31.175 7.65661 31.7153Z" fill="white"/>
<path d="M27.1229 6.676C27.127 7.21984 26.7012 7.65327 26.1608 7.65619C25.6193 7.65911 25.1835 7.23152 25.18 6.69352C25.1765 6.15085 25.6018 5.718 26.1433 5.71392C26.6883 5.70983 27.1194 6.13275 27.1229 6.676Z" fill="white"/>
<path d="M41.0275 15.0188C41.031 15.565 40.6081 15.9966 40.066 15.9996C39.5239 16.0025 39.0881 15.5743 39.0852 15.0363C39.0823 14.4936 39.5093 14.059 40.0485 14.0561C40.5952 14.0532 41.024 14.475 41.0275 15.0188Z" fill="white"/>
<path d="M6.69219 14.0561C7.23078 14.0579 7.65779 14.4919 7.65604 15.0351C7.65429 15.5737 7.21909 16.0025 6.677 15.9996C6.13608 15.9966 5.71081 15.5644 5.71315 15.02C5.71607 14.4785 6.14659 14.0538 6.69219 14.0561Z" fill="white"/>
<path d="M15.0397 39.0848C15.5777 39.0888 16.0036 39.5252 15.9995 40.069C15.996 40.6088 15.5614 41.0317 15.0152 41.027C14.4719 41.0218 14.0519 40.5918 14.056 40.0445C14.0601 39.5059 14.4959 39.0807 15.0397 39.0848Z" fill="white"/>
<path d="M31.7091 7.65675C31.1699 7.655 30.74 7.22098 30.7418 6.68006C30.7435 6.13856 31.174 5.71214 31.7185 5.71331C32.2617 5.71448 32.6864 6.14382 32.6841 6.68883C32.6817 7.23208 32.2524 7.65792 31.7091 7.65617V7.65675Z" fill="white"/>
<path d="M23.3727 41.027C22.8265 41.0264 22.3983 40.6012 22.3983 40.0585C22.3983 39.5176 22.8282 39.0859 23.3686 39.0847C23.9107 39.0836 24.3394 39.5112 24.3418 40.0544C24.3441 40.5988 23.9165 41.0276 23.3727 41.0264V41.027Z" fill="white"/>
<path d="M40.0678 18.7805C39.5233 18.7828 39.0893 18.3576 39.0852 17.819C39.0817 17.2763 39.5081 16.8406 40.0461 16.8371C40.5929 16.8336 41.0223 17.2541 41.0269 17.798C41.0316 18.3436 40.6069 18.7782 40.0672 18.7805H40.0678Z" fill="white"/>
<path d="M29.9035 6.69234C29.9006 7.23442 29.4689 7.65968 28.9256 7.65676C28.3859 7.65384 27.9594 7.2204 27.9612 6.67773C27.9629 6.13798 28.3964 5.71156 28.9408 5.71448C29.4835 5.71682 29.907 6.14733 29.9041 6.69292L29.9035 6.69234Z" fill="white"/>
<path d="M6.69101 29.9033C6.14541 29.9056 5.71489 29.4804 5.71372 28.9383C5.71255 28.3933 6.13782 27.9622 6.67874 27.9598C7.22025 27.9581 7.65428 28.3868 7.65661 28.926C7.65895 29.4693 7.2331 29.9004 6.69101 29.9033Z" fill="white"/>
<path d="M37.2562 38.1542C36.7632 38.1402 36.3905 37.7401 36.4069 37.2436C36.4226 36.7681 36.8222 36.3966 37.3071 36.4065C37.7942 36.4164 38.1687 36.8201 38.1535 37.3189C38.1383 37.8014 37.7446 38.1677 37.2562 38.1542Z" fill="white"/>
<path d="M38.1547 9.45641C38.1587 9.93832 37.7779 10.3303 37.2983 10.3367C36.8041 10.3431 36.408 9.95643 36.4063 9.46634C36.4045 8.98033 36.7796 8.59596 37.2638 8.58778C37.7621 8.57961 38.15 8.95755 38.1541 9.45582L38.1547 9.45641Z" fill="white"/>
<path d="M9.45697 8.58843C9.94182 8.58668 10.3297 8.96462 10.3361 9.44537C10.3425 9.93839 9.95525 10.3356 9.46515 10.3368C8.97095 10.3379 8.58483 9.94949 8.58775 9.45355C8.59067 8.96579 8.96803 8.59077 9.45697 8.58843Z" fill="white"/>
<path d="M10.3367 37.2915C10.3332 37.7728 9.94767 38.1537 9.4634 38.1531C8.96337 38.1531 8.58308 37.7687 8.58834 37.271C8.5936 36.7856 8.97505 36.4071 9.4599 36.4065C9.95117 36.4059 10.3402 36.7985 10.3367 37.2915Z" fill="white"/>
<path d="M23.3779 24.2206C22.9048 24.2224 22.5257 23.8491 22.5221 23.3783C22.5186 22.9075 22.8948 22.5254 23.3651 22.5225C23.8365 22.5196 24.2168 22.894 24.2203 23.3654C24.2238 23.8363 23.8476 24.2189 23.3779 24.2206Z" fill="white"/>
<path d="M20.5863 22.5219C21.0571 22.5202 21.4368 22.8975 21.4374 23.3689C21.438 23.8415 21.0629 24.2189 20.5915 24.22C20.1201 24.2212 19.741 23.8444 19.7404 23.3736C19.7398 22.901 20.1148 22.5231 20.5863 22.5213V22.5219Z" fill="white"/>
<path d="M24.2209 20.5921C24.2191 21.067 23.8377 21.4432 23.3633 21.4379C22.889 21.4327 22.5145 21.0483 22.5227 20.5746C22.5309 20.1108 22.9036 19.7433 23.3686 19.741C23.8417 19.7387 24.2226 20.1189 24.2209 20.5921Z" fill="white"/>
<path d="M27.0032 23.3895C26.995 23.8569 26.6065 24.229 26.1357 24.2202C25.6655 24.2114 25.2939 23.823 25.3045 23.3533C25.3156 22.8808 25.6999 22.5128 26.1719 22.5221C26.6416 22.5314 27.0114 22.917 27.0032 23.3895Z" fill="white"/>
<path d="M24.2203 26.1507C24.222 26.6239 23.8412 27.0053 23.3686 27.003C22.8948 27.0012 22.5181 26.6186 22.5221 26.1449C22.5262 25.6805 22.8954 25.3113 23.3616 25.3043C23.833 25.2973 24.2179 25.677 24.2197 26.1507H24.2203Z" fill="white"/>
<path d="M26.155 25.3166C26.6246 25.3166 26.988 25.6776 26.9927 26.149C26.9973 26.614 26.6287 26.9896 26.1655 26.9925C25.6836 26.9954 25.3144 26.628 25.3173 26.1467C25.3197 25.6782 25.6853 25.3166 26.1556 25.3166H26.155Z" fill="white"/>
<path d="M21.4239 26.1455C21.4274 26.6186 21.0729 26.9837 20.6026 26.9919C20.1265 27.0001 19.748 26.6262 19.7498 26.1496C19.7515 25.6834 20.1184 25.3178 20.5868 25.3166C21.0583 25.3154 21.4204 25.6741 21.4239 26.1455Z" fill="white"/>
<path d="M25.3167 20.5769C25.3214 20.1107 25.6935 19.7456 26.1597 19.7491C26.6264 19.7526 26.9932 20.1224 26.9921 20.5885C26.9909 21.0681 26.6188 21.4315 26.1357 21.4239C25.666 21.4169 25.3121 21.05 25.3167 20.5769Z" fill="white"/>
<path d="M20.5968 21.4238C20.1248 21.4256 19.7556 21.0681 19.7492 20.6025C19.7427 20.1265 20.116 19.7485 20.5927 19.7497C21.0588 19.7503 21.4228 20.1171 21.4245 20.5868C21.4263 21.0593 21.0682 21.4221 20.5968 21.4238Z" fill="white"/>
<path d="M8.78287 12.2418C8.78053 11.8603 9.05976 11.5718 9.43653 11.5665C9.82733 11.5613 10.1177 11.8475 10.1182 12.2389C10.1182 12.6104 9.82383 12.9054 9.45172 12.906C9.07728 12.906 8.78521 12.6162 8.78287 12.2418Z" fill="white"/>
<path d="M37.2749 35.1733C36.897 35.1669 36.6195 34.8777 36.6248 34.4957C36.6294 34.1213 36.9233 33.8333 37.2971 33.8356C37.678 33.8379 37.9671 34.1411 37.9584 34.5302C37.9502 34.9069 37.6599 35.1803 37.2749 35.1733Z" fill="white"/>
<path d="M35.1737 37.2984C35.1714 37.6793 34.8893 37.9585 34.5066 37.9579C34.1304 37.9579 33.8384 37.6694 33.836 37.2967C33.8337 36.9129 34.1328 36.6191 34.5201 36.6243C34.8968 36.629 35.1761 36.9176 35.1737 37.2984Z" fill="white"/>
<path d="M12.2335 8.78357C12.6096 8.78357 12.9017 9.0698 12.9058 9.44365C12.9099 9.81634 12.6196 10.1131 12.2469 10.1178C11.8555 10.1224 11.5646 9.83444 11.5663 9.44541C11.5681 9.06688 11.8532 8.78416 12.2329 8.78357H12.2335Z" fill="white"/>
<path d="M34.516 10.1172C34.1392 10.1201 33.8436 9.8362 33.8372 9.4641C33.8302 9.08032 34.1258 8.78183 34.5119 8.78358C34.8922 8.78475 35.1732 9.06689 35.1743 9.44833C35.1755 9.83036 34.8957 10.1143 34.516 10.1172Z" fill="white"/>
<path d="M9.44414 35.1733C9.06268 35.171 8.78346 34.8894 8.78346 34.5074C8.78346 34.1312 9.07028 33.8397 9.44414 33.8362C9.82559 33.8327 10.1218 34.1329 10.1177 34.5191C10.113 34.8976 9.82676 35.1756 9.44472 35.1739L9.44414 35.1733Z" fill="white"/>
<path d="M36.6248 12.233C36.6254 11.8533 36.9087 11.5688 37.2878 11.567C37.6786 11.5653 37.9642 11.855 37.959 12.2476C37.9543 12.622 37.6593 12.91 37.2854 12.9059C36.9122 12.9018 36.6248 12.6086 36.6254 12.233H36.6248Z" fill="white"/>
<path d="M12.237 37.9581C11.8555 37.9587 11.5699 37.6783 11.5669 37.3003C11.5634 36.9101 11.8526 36.621 12.2434 36.6245C12.6172 36.628 12.9076 36.9218 12.9058 37.2951C12.9041 37.6689 12.6126 37.9581 12.237 37.9587V37.9581Z" fill="white"/>
<path d="M17.1783 23.3538C17.1847 23.0045 17.4552 22.7422 17.8069 22.7445C18.1632 22.7469 18.4377 23.0296 18.4302 23.3865C18.4226 23.7399 18.1352 24.0063 17.7742 23.9952C17.4289 23.9847 17.1725 23.7078 17.1789 23.3538H17.1783Z" fill="white"/>
<path d="M23.996 17.8144C23.9907 18.1608 23.7173 18.4301 23.3703 18.4301C23.0152 18.4301 22.7406 18.1485 22.7453 17.7899C22.75 17.4324 23.0304 17.1689 23.3955 17.1783C23.743 17.1876 24.0018 17.461 23.9965 17.8144H23.996Z" fill="white"/>
<path d="M23.9954 28.9552C23.9889 29.3138 23.7103 29.5726 23.3423 29.5621C22.9947 29.5516 22.7377 29.277 22.7447 28.923C22.7517 28.5778 23.0286 28.3091 23.3744 28.3109C23.7272 28.3132 24.0018 28.5977 23.9954 28.9552Z" fill="white"/>
<path d="M29.5624 23.3755C29.5606 23.7289 29.2983 23.993 28.9467 23.9959C28.5897 23.9988 28.3093 23.7207 28.3111 23.3662C28.3134 23.0128 28.5979 22.7388 28.956 22.7452C29.303 22.7516 29.5641 23.0227 29.5624 23.3755Z" fill="white"/>
<path d="M20.5775 18.4207C20.2305 18.4154 19.9612 18.135 19.9676 17.7863C19.9735 17.4393 20.2527 17.1758 20.6061 17.1846C20.9414 17.1928 21.2072 17.4668 21.206 17.8026C21.2049 18.1467 20.921 18.4259 20.5775 18.4201V18.4207Z" fill="white"/>
<path d="M28.9321 25.535C29.2767 25.5298 29.5553 25.8061 29.5559 26.1525C29.5565 26.4965 29.2995 26.7641 28.9607 26.7728C28.6125 26.7816 28.3269 26.5129 28.3204 26.17C28.314 25.8236 28.5868 25.5403 28.9315 25.535H28.9321Z" fill="white"/>
<path d="M26.773 17.8116C26.7683 18.1551 26.4827 18.4296 26.1386 18.4208C25.8045 18.4121 25.5352 18.1364 25.5346 17.8022C25.5346 17.4576 25.8127 17.183 26.1597 17.1848C26.5113 17.1865 26.7777 17.4588 26.773 17.8116Z" fill="white"/>
<path d="M26.773 28.9289C26.7777 29.2829 26.5137 29.5533 26.1608 29.5557C25.8133 29.558 25.534 29.2829 25.5352 28.9394C25.5364 28.6035 25.8027 28.3301 26.1386 28.3202C26.4839 28.3103 26.7689 28.5831 26.773 28.9289Z" fill="white"/>
<path d="M20.5892 29.5556C20.2363 29.5574 19.9659 29.2887 19.9671 28.9382C19.9682 28.5924 20.2474 28.3167 20.5933 28.3208C20.9268 28.3243 21.2008 28.5971 21.206 28.9306C21.2113 29.2752 20.9362 29.5545 20.5892 29.5556Z" fill="white"/>
<path d="M17.7905 21.206C17.447 21.2013 17.1783 20.9191 17.1847 20.5698C17.1912 20.2205 17.4704 19.9576 17.8226 19.9682C18.1574 19.9781 18.4214 20.2532 18.4202 20.5903C18.4191 20.9332 18.1346 21.2112 17.7905 21.206Z" fill="white"/>
<path d="M28.942 21.2059C28.5967 21.2053 28.3187 20.9255 28.3204 20.5809C28.3222 20.2368 28.6032 19.9628 28.9507 19.9675C29.2896 19.9716 29.553 20.2374 29.5559 20.5779C29.5588 20.9255 29.2837 21.2065 28.942 21.2059Z" fill="white"/>
<path d="M17.8039 26.7728C17.4529 26.7746 17.1836 26.5047 17.1847 26.1524C17.1859 25.8055 17.464 25.5303 17.8092 25.535C18.1422 25.5391 18.4161 25.8131 18.4202 26.1466C18.4243 26.4924 18.1498 26.7716 17.8039 26.7734V26.7728Z" fill="white"/>
<path d="M37.2913 14.4008C37.6447 14.3996 37.9087 14.6648 37.907 15.0194C37.9052 15.3722 37.6354 15.638 37.2843 15.6333C36.9431 15.6286 36.6843 15.3669 36.6803 15.024C36.6762 14.6689 36.9379 14.4013 37.2913 14.4008Z" fill="white"/>
<path d="M15.0199 37.9066C14.6659 37.9089 14.4001 37.6449 14.4007 37.2915C14.4012 36.9474 14.6577 36.6851 14.9994 36.6799C15.3563 36.674 15.6274 36.9322 15.6332 37.2833C15.6385 37.6344 15.3727 37.9048 15.0199 37.9066Z" fill="white"/>
<path d="M9.44645 14.4013C9.79928 14.4013 10.0627 14.6677 10.0598 15.0223C10.0575 15.3652 9.79811 15.6286 9.45872 15.6339C9.10647 15.6391 8.83601 15.3751 8.83309 15.0229C8.83017 14.6677 9.09246 14.4019 9.44587 14.4013H9.44645Z" fill="white"/>
<path d="M37.2837 31.1078C37.6354 31.1032 37.9052 31.3684 37.907 31.7206C37.9087 32.0682 37.6581 32.3305 37.3158 32.3386C36.9583 32.3474 36.6861 32.0915 36.6803 31.7405C36.6744 31.3836 36.9332 31.1119 37.2837 31.1073V31.1078Z" fill="white"/>
<path d="M15.0082 8.83387C15.3639 8.83154 15.6321 9.09381 15.6332 9.44547C15.6344 9.79712 15.3663 10.0623 15.0117 10.0606C14.6676 10.0588 14.4065 9.80238 14.4012 9.46066C14.3954 9.10433 14.6554 8.83621 15.0088 8.83387H15.0082Z" fill="white"/>
<path d="M9.4453 25.5344C9.78995 25.5332 10.0622 25.8089 10.0604 26.1588C10.0587 26.5029 9.80164 26.7663 9.46107 26.7727C9.10825 26.7792 8.8372 26.5151 8.8337 26.1629C8.83077 25.8124 9.10007 25.5361 9.44472 25.5344H9.4453Z" fill="white"/>
<path d="M32.3388 37.3056C32.3342 37.6596 32.066 37.9148 31.7074 37.9072C31.3662 37.9002 31.1069 37.6345 31.108 37.2945C31.1098 36.9417 31.3761 36.6788 31.7307 36.6805C32.0847 36.6823 32.3441 36.9493 32.3388 37.3056Z" fill="white"/>
<path d="M37.907 28.9528C37.9023 29.305 37.6313 29.5632 37.2749 29.5556C36.9344 29.548 36.6791 29.2828 36.6803 28.9388C36.6814 28.5889 36.9542 28.3167 37.3006 28.3202C37.6465 28.3237 37.9111 28.6 37.907 28.9528Z" fill="white"/>
<path d="M31.7196 10.0605C31.365 10.0581 31.1033 9.79002 31.1086 9.43603C31.1144 9.08438 31.3849 8.82735 31.7424 8.83378C32.0841 8.84021 32.3388 9.1019 32.3394 9.44655C32.3394 9.80287 32.0771 10.0628 31.7196 10.0599V10.0605Z" fill="white"/>
<path d="M10.0604 31.7311C10.0581 32.0857 9.79286 32.3439 9.43477 32.3386C9.09129 32.334 8.83543 32.0752 8.83368 31.7305C8.83193 31.3754 9.09596 31.1073 9.44704 31.1078C9.79987 31.109 10.0622 31.3754 10.0598 31.7305L10.0604 31.7311Z" fill="white"/>
<path d="M28.9204 37.9065C28.5734 37.8983 28.307 37.615 28.3204 37.268C28.3339 36.9234 28.6166 36.6681 28.9712 36.6804C29.3083 36.6921 29.5606 36.9631 29.5553 37.3078C29.5501 37.6594 29.2785 37.9153 28.9204 37.9071V37.9065Z" fill="white"/>
<path d="M10.0604 23.3895C10.0528 23.7388 9.77359 24.0017 9.42251 23.9894C9.07903 23.9777 8.82259 23.6944 8.83427 23.3392C8.84537 23.004 9.12109 22.744 9.4599 22.7498C9.80455 22.7563 10.068 23.0361 10.0604 23.3889V23.3895Z" fill="white"/>
<path d="M9.44063 28.3202C9.78703 28.3172 10.0598 28.5894 10.0604 28.9393C10.0604 29.2852 9.8063 29.5486 9.46574 29.5556C9.11058 29.5632 8.83836 29.3027 8.83427 28.9522C8.83018 28.6005 9.09598 28.3231 9.44121 28.3202H9.44063Z" fill="white"/>
<path d="M17.8098 8.83371C18.1597 8.83838 18.4266 9.11293 18.4196 9.46225C18.4126 9.80689 18.1322 10.0692 17.78 10.0604C17.4383 10.0522 17.183 9.7882 17.1841 9.44414C17.1853 9.09307 17.4552 8.82962 17.8092 8.83371H17.8098Z" fill="white"/>
<path d="M20.5752 10.0606C20.2235 10.0565 19.96 9.78309 19.9671 9.43085C19.9741 9.09205 20.2404 8.83444 20.5839 8.83386C20.9338 8.83386 21.2072 9.10548 21.2055 9.45188C21.2037 9.79711 20.9268 10.0646 20.5752 10.0606Z" fill="white"/>
<path d="M23.382 8.83429C23.7319 8.83838 23.9977 9.11409 23.9895 9.46516C23.9819 9.80163 23.7126 10.0604 23.3709 10.0604C23.0198 10.0604 22.7476 9.78936 22.7505 9.4418C22.7535 9.09599 23.0298 8.8302 23.382 8.83429Z" fill="white"/>
<path d="M28.956 8.83374C29.3059 8.839 29.5647 9.11238 29.5559 9.4687C29.5478 9.80809 29.282 10.0622 28.9361 10.0604C28.5868 10.0587 28.3152 9.78414 28.3204 9.43716C28.3257 9.09135 28.6032 8.82848 28.9554 8.83374H28.956Z" fill="white"/>
<path d="M37.907 23.3859C37.9006 23.7364 37.6231 23.9999 37.2726 23.9899C36.9285 23.9794 36.6697 23.6973 36.6803 23.3433C36.6902 23.0074 36.9647 22.7463 37.303 22.751C37.6494 22.7556 37.9128 23.0331 37.907 23.3859Z" fill="white"/>
<path d="M10.0604 17.8155C10.0551 18.1636 9.77533 18.4306 9.42718 18.4201C9.08194 18.4096 8.82433 18.1292 8.83426 17.7752C8.84361 17.4364 9.11174 17.1817 9.4558 17.1852C9.80571 17.1887 10.0662 17.4603 10.061 17.8161L10.0604 17.8155Z" fill="white"/>
<path d="M8.83368 20.5769C8.83719 20.2252 9.10999 19.9606 9.46223 19.9676C9.80104 19.9746 10.0592 20.2404 10.0604 20.5833C10.0616 20.9338 9.78994 21.2077 9.44412 21.206C9.0983 21.2042 8.83018 20.9279 8.83368 20.5769Z" fill="white"/>
<path d="M37.3018 21.2058C36.9554 21.2088 36.6814 20.9366 36.6803 20.5878C36.6791 20.2356 36.9478 19.9663 37.2983 19.9681C37.6389 19.9698 37.9023 20.2309 37.9076 20.5726C37.9128 20.9243 37.6465 21.2029 37.3018 21.2064V21.2058Z" fill="white"/>
<path d="M20.5746 37.9072C20.2229 37.9031 19.9589 37.6292 19.9671 37.277C19.9746 36.9393 20.2434 36.68 20.5845 36.6805C20.9338 36.6805 21.2072 36.9528 21.2055 37.2991C21.2037 37.645 20.9268 37.9113 20.5746 37.9072Z" fill="white"/>
<path d="M26.773 9.43603C26.7777 9.79002 26.5142 10.0581 26.1602 10.0605C25.8103 10.0628 25.5334 9.79061 25.5346 9.44655C25.5364 9.10891 25.8004 8.8402 26.138 8.83378C26.4938 8.82735 26.7683 9.08788 26.773 9.43603Z" fill="white"/>
<path d="M37.3071 25.5349C37.6505 25.5408 37.9146 25.8223 37.9064 26.1746C37.8982 26.5256 37.6225 26.7844 37.2685 26.7733C36.9314 26.7622 36.6773 26.4924 36.6803 26.1483C36.6832 25.8007 36.9607 25.5291 37.3071 25.5355V25.5349Z" fill="white"/>
<path d="M37.907 17.8116C37.9029 18.1597 37.6243 18.429 37.2773 18.4203C36.9326 18.4115 36.6715 18.1305 36.6803 17.7789C36.689 17.4383 36.9542 17.183 37.2983 17.1848C37.6488 17.1865 37.9117 17.457 37.907 17.8116Z" fill="white"/>
<path d="M26.1486 37.9066C25.7992 37.9037 25.5282 37.6274 25.5352 37.281C25.5416 36.9369 25.822 36.6735 26.1743 36.6805C26.5142 36.6875 26.7736 36.9533 26.773 37.295C26.773 37.6461 26.5031 37.9101 26.1486 37.9072V37.9066Z" fill="white"/>
<path d="M17.7899 36.6798C18.141 36.6757 18.4179 36.9421 18.4208 37.2885C18.4237 37.6343 18.1503 37.9065 17.8004 37.9065C17.457 37.9065 17.1917 37.6501 17.1847 37.3107C17.1771 36.9561 17.4383 36.6839 17.7899 36.6798Z" fill="white"/>
<path d="M23.3569 37.9066C23.0082 37.9013 22.7412 37.6221 22.7505 37.274C22.7599 36.9299 23.0426 36.6694 23.3954 36.6799C23.7331 36.6898 23.9925 36.9614 23.9895 37.3008C23.986 37.6478 23.7103 37.9118 23.3569 37.9066Z" fill="white"/>
<path d="M17.7946 28.482C18.0697 28.4797 18.2654 28.6736 18.2631 28.9464C18.2607 29.2034 18.0668 29.4056 17.8144 29.4126C17.5545 29.4202 17.3343 29.2128 17.329 28.9546C17.3232 28.6912 17.527 28.4844 17.7946 28.482Z" fill="white"/>
<path d="M28.4828 28.9359C28.4858 28.6608 28.6809 28.4756 28.9589 28.4826C29.2148 28.489 29.4111 28.6876 29.4128 28.9417C29.4146 29.2011 29.2014 29.4143 28.9426 29.4131C28.678 29.4114 28.4799 29.2063 28.4834 28.9365L28.4828 28.9359Z" fill="white"/>
<path d="M28.9309 18.2631C28.6598 18.2579 28.4729 18.0569 28.4823 17.7794C28.491 17.5236 28.692 17.3285 28.9461 17.3291C29.2043 17.3302 29.4157 17.5458 29.4128 17.8057C29.4099 18.068 29.1996 18.2678 28.9315 18.2631H28.9309Z" fill="white"/>
<path d="M18.2631 17.805C18.2607 18.076 18.0645 18.267 17.7928 18.2629C17.5306 18.2588 17.3255 18.0509 17.3296 17.7921C17.3337 17.5363 17.5492 17.3266 17.8051 17.3289C18.0645 17.3312 18.2654 17.5403 18.2631 17.8044V17.805Z" fill="white"/>
<path d="M12.5378 12.2113C12.5431 12.3889 12.4069 12.5337 12.2299 12.5384C12.05 12.5431 11.9104 12.4105 11.9057 12.2306C11.9005 12.046 12.0278 11.911 12.2107 11.9064C12.3929 11.9017 12.532 12.032 12.5378 12.2119V12.2113Z" fill="white"/>
<path d="M12.2235 34.834C12.0389 34.8351 11.9075 34.7066 11.9057 34.5232C11.904 34.3444 12.0407 34.2037 12.2177 34.2019C12.3918 34.2002 12.5366 34.3427 12.5378 34.5179C12.5396 34.6984 12.4052 34.8328 12.2235 34.8345V34.834Z" fill="white"/>
<path d="M34.523 34.2013C34.7006 34.2025 34.8361 34.3415 34.8349 34.5226C34.8337 34.7095 34.7064 34.8351 34.5189 34.8345C34.3384 34.8339 34.1999 34.6961 34.2017 34.5191C34.2029 34.3462 34.3501 34.2007 34.523 34.2013Z" fill="white"/>
<path d="M34.5107 11.9058C34.6941 11.9006 34.8297 12.0285 34.8343 12.2107C34.839 12.3936 34.7105 12.532 34.5312 12.5379C34.3565 12.5431 34.2075 12.4041 34.2023 12.2306C34.197 12.0536 34.3331 11.9105 34.5107 11.9058Z" fill="white"/>
<path d="M12.2048 15.2267C12.0687 15.2068 11.9951 15.1291 12.0033 14.9878C12.0109 14.8563 12.0892 14.7857 12.2183 14.788C12.3579 14.7903 12.4397 14.8698 12.4373 15.0111C12.435 15.1548 12.345 15.2185 12.2048 15.2267Z" fill="white"/>
<path d="M15.229 12.2078C15.208 12.362 15.1355 12.445 14.9936 12.4362C14.8528 12.4274 14.7809 12.3386 14.7885 12.2002C14.7961 12.0705 14.8756 12.0028 15.0058 12.0028C15.153 12.0028 15.2115 12.0927 15.229 12.2078Z" fill="white"/>
<path d="M12.2264 31.5138C12.3614 31.5407 12.4484 31.6125 12.4356 31.758C12.4245 31.8888 12.3421 31.9607 12.2107 31.9548C12.064 31.9484 11.9963 31.8596 12.0045 31.7171C12.0121 31.5816 12.1008 31.5261 12.2264 31.5132V31.5138Z" fill="white"/>
<path d="M31.9591 12.1867C31.9527 12.3485 31.8838 12.4344 31.7389 12.4367C31.6063 12.4385 31.528 12.3579 31.5199 12.2305C31.5111 12.102 31.5794 12.0167 31.7138 12.0045C31.8592 11.991 31.9346 12.0687 31.9591 12.1867Z" fill="white"/>
<path d="M34.5183 14.7839C34.6568 14.7921 34.7385 14.8604 34.7403 15.0035C34.7421 15.1332 34.6743 15.2138 34.5446 15.2226C34.405 15.2319 34.3168 15.1589 34.3086 15.0187C34.3004 14.8791 34.3775 14.8008 34.5183 14.7839Z" fill="white"/>
<path d="M15.0158 34.7416C14.8838 34.7381 14.7973 34.6786 14.7885 34.5448C14.7786 34.4023 14.854 34.3129 14.9971 34.3088C15.1385 34.3047 15.2232 34.3842 15.2226 34.529C15.2226 34.6616 15.1449 34.7311 15.0158 34.7422V34.7416Z" fill="white"/>
<path d="M28.9671 12.4332C28.8316 12.4221 28.7451 12.3625 28.7369 12.2311C28.7288 12.1008 28.8024 12.0185 28.9297 12.0068C29.0717 11.9939 29.1569 12.0763 29.1634 12.2147C29.1698 12.3468 29.0798 12.4093 28.9671 12.4332Z" fill="white"/>
<path d="M34.5288 31.5138C34.6532 31.5325 34.7379 31.5926 34.7397 31.7288C34.7415 31.8719 34.6696 31.956 34.5224 31.956C34.3875 31.956 34.3139 31.876 34.3086 31.7474C34.3028 31.6032 34.3892 31.5313 34.5288 31.5144V31.5138Z" fill="white"/>
<path d="M12.2142 28.7321C12.3462 28.7449 12.4256 28.815 12.428 28.9435C12.4303 29.0709 12.3585 29.1585 12.2282 29.1626C12.0892 29.1667 12.0045 29.0849 12.0062 28.943C12.008 28.8121 12.0909 28.7473 12.2142 28.7321Z" fill="white"/>
<path d="M31.958 34.5087C31.9574 34.6465 31.8937 34.7277 31.7605 34.7388C31.6174 34.7505 31.5274 34.6775 31.5193 34.5355C31.5117 34.4064 31.5859 34.32 31.7161 34.3095C31.8563 34.2978 31.941 34.3708 31.958 34.5087Z" fill="white"/>
<path d="M17.8028 12.4321C17.6696 12.4221 17.5878 12.3532 17.5814 12.2264C17.5749 12.0997 17.6491 12.0144 17.7782 12.0068C17.9196 11.9986 18.0014 12.0798 18.0061 12.2194C18.0107 12.3544 17.9202 12.4116 17.8028 12.4321Z" fill="white"/>
<path d="M12.4321 17.7939C12.4157 17.9107 12.3637 18.0042 12.2288 18.0059C12.0892 18.0077 12.005 17.9294 12.0062 17.788C12.0074 17.6578 12.0903 17.5813 12.2165 17.5813C12.3439 17.5813 12.4157 17.6613 12.4321 17.7939Z" fill="white"/>
<path d="M34.5446 18.0083C34.4021 18.0077 34.3267 17.9312 34.3197 17.805C34.3127 17.6776 34.384 17.5877 34.5166 17.5813C34.6468 17.5748 34.7269 17.649 34.7321 17.7828C34.7374 17.9142 34.669 17.9896 34.5446 18.0083Z" fill="white"/>
<path d="M26.1661 12.0022C26.2952 12.0174 26.3764 12.0951 26.374 12.2201C26.3723 12.3457 26.2905 12.4309 26.1579 12.428C26.0271 12.4251 25.9505 12.3474 25.9529 12.2136C25.9546 12.0793 26.0352 12.0144 26.1661 12.0022Z" fill="white"/>
<path d="M29.1663 34.5437C29.1441 34.6681 29.0705 34.74 28.9379 34.7318C28.8065 34.7236 28.7305 34.6483 28.7375 34.5145C28.7439 34.3784 28.8345 34.313 28.9613 34.32C29.0886 34.327 29.1616 34.4059 29.1669 34.5437H29.1663Z" fill="white"/>
<path d="M18.0107 34.5262C17.9914 34.6664 17.9173 34.7365 17.7852 34.7319C17.6521 34.7272 17.5767 34.6483 17.5814 34.5181C17.586 34.3855 17.6748 34.3148 17.8028 34.3189C17.9325 34.3235 18.0008 34.4042 18.0107 34.5262Z" fill="white"/>
<path d="M20.5705 12.0004C20.7078 12.0162 20.7872 12.0799 20.7919 12.2107C20.7966 12.3433 20.7212 12.421 20.5944 12.4269C20.4542 12.4333 20.369 12.3492 20.3695 12.2113C20.3701 12.0846 20.4577 12.0191 20.5705 12.0004Z" fill="white"/>
<path d="M34.5516 29.1678C34.3991 29.1567 34.3226 29.0808 34.3197 28.9534C34.3168 28.8273 34.384 28.7379 34.5212 28.7367C34.655 28.7356 34.7269 28.8127 34.7321 28.9447C34.7374 29.0802 34.6568 29.1445 34.551 29.1678H34.5516Z" fill="white"/>
<path d="M12.4309 20.5943C12.4099 20.7181 12.345 20.7976 12.2113 20.7917C12.0816 20.7865 12.0045 20.7106 12.0062 20.582C12.008 20.4419 12.0956 20.3618 12.2335 20.3706C12.3608 20.3788 12.4245 20.4664 12.4303 20.5943H12.4309Z" fill="white"/>
<path d="M12.2037 25.9498C12.3444 25.955 12.4245 26.0246 12.428 26.156C12.4315 26.2886 12.3468 26.371 12.2218 26.3739C12.0974 26.3768 12.0097 26.2997 12.0062 26.1665C12.0021 26.0327 12.0822 25.965 12.2037 25.9498Z" fill="white"/>
<path d="M26.3805 34.5372C26.3513 34.654 26.2917 34.7399 26.1544 34.7323C26.0218 34.7247 25.9499 34.6511 25.9529 34.5179C25.9558 34.3812 26.0422 34.3146 26.169 34.3187C26.2987 34.3228 26.3653 34.4075 26.3805 34.5377V34.5372Z" fill="white"/>
<path d="M34.7339 26.1284C34.735 26.2891 34.6591 26.3679 34.5347 26.3738C34.4067 26.3796 34.3238 26.2961 34.3197 26.1682C34.3162 26.0426 34.381 25.9561 34.5189 25.952C34.655 25.9485 34.7175 26.028 34.7339 26.1284Z" fill="white"/>
<path d="M20.5921 34.3146C20.7095 34.3333 20.7948 34.3917 20.7919 34.529C20.789 34.6645 20.7095 34.7323 20.5793 34.7317C20.4466 34.7311 20.3684 34.6529 20.3701 34.5232C20.3719 34.3935 20.4566 34.3257 20.5921 34.3146Z" fill="white"/>
<path d="M34.7345 20.5943C34.7198 20.7176 34.6556 20.7959 34.5201 20.7924C34.384 20.7883 34.3162 20.703 34.3191 20.5762C34.322 20.4477 34.4032 20.3671 34.5335 20.3706C34.6643 20.3741 34.7298 20.4582 34.7345 20.5943Z" fill="white"/>
<path d="M23.58 34.5383C23.5689 34.6552 23.5058 34.734 23.3715 34.7317C23.2406 34.7294 23.167 34.6569 23.1659 34.5249C23.1647 34.3906 23.2465 34.3187 23.3727 34.3193C23.4988 34.3199 23.5748 34.3941 23.58 34.5383Z" fill="white"/>
<path d="M34.7344 23.3667C34.7298 23.4999 34.662 23.5753 34.5312 23.5782C34.398 23.5817 34.3226 23.5028 34.3203 23.3761C34.3179 23.2499 34.388 23.1675 34.5224 23.1658C34.655 23.1646 34.7222 23.2388 34.7344 23.3667Z" fill="white"/>
<path d="M23.3709 12.0028C23.5029 12.0156 23.5771 12.0892 23.5783 12.2177C23.5795 12.3492 23.5012 12.4274 23.3715 12.4274C23.2412 12.4274 23.1659 12.3474 23.1665 12.2166C23.1665 12.0857 23.2436 12.0168 23.3709 12.0028Z" fill="white"/>
<path d="M12.4321 23.3551C12.421 23.4917 12.3585 23.5759 12.2259 23.5782C12.0985 23.5805 12.0121 23.5134 12.0074 23.3808C12.0027 23.2493 12.0787 23.1734 12.2089 23.1664C12.3421 23.1594 12.4087 23.2394 12.4321 23.3551Z" fill="white"/>
<path d="M26.1661 31.9303C26.0539 31.9151 25.9727 31.859 25.9739 31.7364C25.9751 31.6277 26.0405 31.56 26.1521 31.557C26.2601 31.5541 26.3349 31.6067 26.346 31.7194C26.3589 31.8456 26.2823 31.904 26.1661 31.9303Z" fill="white"/>
<path d="M31.7523 25.9703C31.8569 25.9896 31.9276 26.0527 31.9253 26.1596C31.9223 26.2752 31.8546 26.3535 31.729 26.3459C31.6034 26.3389 31.5479 26.2554 31.5578 26.1379C31.5672 26.0275 31.6425 25.9761 31.7529 25.9703H31.7523Z" fill="white"/>
<path d="M31.9311 20.5787C31.9124 20.6891 31.8575 20.7668 31.7465 20.7691C31.639 20.7714 31.5631 20.7107 31.5584 20.5956C31.5532 20.4706 31.6203 20.3982 31.7453 20.3988C31.8616 20.3988 31.9077 20.4817 31.9311 20.5793V20.5787Z" fill="white"/>
<path d="M31.7249 23.1826C31.8534 23.1931 31.9276 23.2603 31.9241 23.3777C31.9212 23.4793 31.8581 23.5588 31.7465 23.5594C31.6256 23.5599 31.5584 23.4881 31.5578 23.3672C31.5572 23.2538 31.6285 23.2013 31.7249 23.1832V23.1826Z" fill="white"/>
<path d="M20.7732 31.7509C20.7498 31.8572 20.6873 31.932 20.5781 31.9249C20.4612 31.9174 20.3847 31.8432 20.3993 31.717C20.4122 31.6048 20.4881 31.5499 20.5997 31.5581C20.7154 31.5669 20.7615 31.6451 20.7732 31.7509Z" fill="white"/>
<path d="M23.184 31.7433C23.1922 31.6347 23.2453 31.5634 23.3563 31.5576C23.4766 31.5511 23.5549 31.6154 23.5584 31.7363C23.5625 31.8596 23.4778 31.9256 23.3639 31.9244C23.2588 31.9232 23.1951 31.8525 23.1834 31.7433H23.184Z" fill="white"/>
<path d="M20.581 15.1922C20.4729 15.1805 20.4023 15.1233 20.3982 15.0111C20.3941 14.8978 20.4601 14.8289 20.5705 14.8224C20.6955 14.8154 20.7691 14.8925 20.7679 15.0117C20.7668 15.1198 20.6943 15.1828 20.5804 15.1928L20.581 15.1922Z" fill="white"/>
<path d="M26.1515 14.8189C26.2625 14.8271 26.3367 14.8791 26.3431 14.9924C26.3501 15.118 26.2782 15.1881 26.1556 15.1875C26.0434 15.1875 25.9768 15.1151 25.9757 15.0058C25.9745 14.896 26.0434 14.8341 26.1515 14.8189Z" fill="white"/>
<path d="M15.1934 23.3771C15.1752 23.4834 15.1209 23.5582 15.0105 23.5588C14.8908 23.5588 14.8177 23.4858 14.8195 23.366C14.8212 23.2579 14.889 23.189 14.9988 23.1873C15.1215 23.1855 15.1811 23.2609 15.1934 23.3777V23.3771Z" fill="white"/>
<path d="M15.014 20.776C14.8972 20.7527 14.8189 20.7001 14.8213 20.585C14.8236 20.4618 14.8943 20.3893 15.0199 20.3993C15.1314 20.408 15.1928 20.4799 15.1893 20.592C15.1858 20.7083 15.104 20.7527 15.014 20.776Z" fill="white"/>
<path d="M15.1916 26.1595C15.1782 26.2687 15.1256 26.3423 15.0111 26.3435C14.8855 26.3447 14.8177 26.2705 14.823 26.1484C14.8283 26.0374 14.9013 25.972 15.0111 25.9761C15.1203 25.9802 15.1805 26.0503 15.1916 26.1595Z" fill="white"/>
<path d="M23.3768 14.8172C23.493 14.8353 23.5666 14.8989 23.5584 15.0204C23.5508 15.1285 23.4772 15.1928 23.3698 15.1893C23.2494 15.1852 23.1811 15.1104 23.1887 14.9901C23.1951 14.8802 23.2699 14.8277 23.3773 14.8172H23.3768Z" fill="white"/>
<path d="M31.75 17.9535C31.6419 17.9488 31.5771 17.8933 31.5765 17.7929C31.5759 17.6924 31.6413 17.6293 31.7436 17.6322C31.8318 17.6346 31.892 17.6877 31.8984 17.7812C31.9054 17.8869 31.847 17.9401 31.7506 17.9541L31.75 17.9535Z" fill="white"/>
<path d="M17.9529 31.7469C17.943 31.8444 17.8892 31.9022 17.7841 31.8982C17.6906 31.8941 17.6363 31.8362 17.6316 31.7474C17.6263 31.6446 17.6883 31.5786 17.7882 31.5769C17.8881 31.5751 17.9459 31.6388 17.9523 31.7474L17.9529 31.7469Z" fill="white"/>
<path d="M17.9529 14.9918C17.9482 15.0993 17.8951 15.1647 17.7934 15.1653C17.6918 15.1659 17.6316 15.0999 17.6316 14.9994C17.6316 14.9094 17.6877 14.851 17.7788 14.8452C17.8828 14.8382 17.9383 14.896 17.9529 14.9924V14.9918Z" fill="white"/>
<path d="M15.0175 29.1171C14.9065 29.1024 14.8446 29.0481 14.8446 28.9465C14.8446 28.8565 14.8972 28.7969 14.9901 28.7917C15.0923 28.7858 15.1595 28.8408 15.1647 28.9424C15.1706 29.0452 15.1011 29.0954 15.0175 29.1171Z" fill="white"/>
<path d="M28.9426 15.1682C28.8433 15.149 28.7854 15.0929 28.7919 14.9895C28.7977 14.8966 28.8561 14.8435 28.9467 14.844C29.0477 14.8446 29.1131 14.9048 29.112 15.0058C29.1108 15.1075 29.0419 15.1577 28.942 15.1677L28.9426 15.1682Z" fill="white"/>
<path d="M31.7459 28.7882C31.8429 28.8028 31.9042 28.8548 31.8978 28.9605C31.892 29.0516 31.8365 29.1089 31.7465 29.1118C31.6431 29.1147 31.58 29.0493 31.5771 28.9511C31.5742 28.8501 31.6408 28.7946 31.7465 28.7876L31.7459 28.7882Z" fill="white"/>
<path d="M14.993 17.9528C14.896 17.9388 14.8382 17.8827 14.8452 17.7793C14.851 17.6882 14.9083 17.6315 14.9994 17.6315C15.0993 17.6315 15.1665 17.6911 15.1659 17.7928C15.1659 17.8944 15.1005 17.9476 14.9936 17.9528H14.993Z" fill="white"/>
<path d="M28.7884 31.7346C28.8024 31.6324 28.8573 31.5675 28.9607 31.5774C29.0582 31.5868 29.1213 31.6511 29.112 31.755C29.1038 31.8456 29.0425 31.8976 28.9519 31.8981C28.8474 31.8981 28.7965 31.8356 28.7889 31.7352L28.7884 31.7346Z" fill="white"/>
<path d="M31.8692 14.9883C31.8657 15.0695 31.8324 15.1261 31.7459 15.1291C31.663 15.1314 31.6133 15.0864 31.611 15.0023C31.6086 14.9293 31.6513 14.8861 31.722 14.8767C31.8061 14.8656 31.8528 14.9083 31.8686 14.9883H31.8692Z" fill="white"/>
<path d="M15.1308 31.7428C15.125 31.8257 15.0759 31.8684 14.9947 31.8672C14.9223 31.8666 14.8785 31.8222 14.8756 31.7504C14.8727 31.6698 14.9112 31.6137 14.9971 31.6113C15.0812 31.609 15.1238 31.6581 15.1308 31.7422V31.7428Z" fill="white"/>
<path d="M15.1297 14.9756C15.1273 15.0801 15.0847 15.1286 14.9977 15.1286C14.9206 15.1286 14.882 15.0807 14.8756 15.0089C14.8692 14.9347 14.9071 14.885 14.9819 14.8768C15.0654 14.8675 15.1157 14.9101 15.1303 14.9756H15.1297Z" fill="white"/>
<path d="M31.8692 31.7468C31.8575 31.8257 31.8137 31.8736 31.7296 31.866C31.66 31.8596 31.6139 31.8198 31.6121 31.7457C31.6104 31.6615 31.6554 31.6131 31.7383 31.6113C31.8236 31.6096 31.861 31.6645 31.8692 31.7462V31.7468Z" fill="white"/>
</svg>
