<svg width="31" height="39" viewBox="0 0 31 39" fill="none" xmlns="http://www.w3.org/2000/svg">
<path d="M15.6248 5.97808C15.2766 5.98326 15.0112 5.72818 15.0034 5.37988C14.9957 5.03417 15.252 4.7545 15.5911 4.74155C15.9315 4.7286 16.2422 5.02511 16.2435 5.36176C16.2435 5.69452 15.9652 5.9716 15.6248 5.97678V5.97808Z" fill="white"/>
<path d="M15.0177 7.90215C15.0112 7.55385 15.2753 7.28194 15.617 7.28453C15.9419 7.28712 16.2098 7.55255 16.2163 7.87755C16.2228 8.21808 15.9497 8.49516 15.6105 8.49387C15.2843 8.49257 15.0229 8.23232 15.0177 7.90215Z" fill="white"/>
<path d="M13.6728 5.36176C13.6715 5.68028 13.4191 5.93405 13.0993 5.93664C12.7692 5.93923 12.5 5.66733 12.5104 5.34233C12.5207 5.0277 12.7822 4.78169 13.1019 4.78686C13.4229 4.79204 13.6741 5.04453 13.6728 5.36176Z" fill="white"/>
<path d="M18.7146 5.34492C18.7211 5.66603 18.479 5.92499 18.1593 5.93664C17.8318 5.94959 17.5522 5.68416 17.5522 5.36046C17.5522 5.04712 17.8098 4.79075 18.1282 4.78816C18.4518 4.78557 18.7081 5.0277 18.7146 5.34622V5.34492Z" fill="white"/>
<path d="M18.712 7.88661C18.712 8.19736 18.4505 8.45632 18.1373 8.45761C17.8279 8.45761 17.5586 8.19348 17.5574 7.8879C17.5574 7.57974 17.8214 7.31949 18.1347 7.31949C18.4479 7.31949 18.712 7.57845 18.712 7.88661Z" fill="white"/>
<path d="M13.6676 7.93452C13.6404 8.24656 13.3621 8.47963 13.0463 8.45503C12.7356 8.43042 12.4871 8.14427 12.5155 7.84129C12.544 7.53054 12.821 7.30007 13.1382 7.32208C13.4488 7.34409 13.6948 7.62895 13.6676 7.93452Z" fill="white"/>
<path d="M16.149 2.8382C16.1451 3.1347 15.907 3.36777 15.6105 3.36647C15.3141 3.36647 15.0798 3.13082 15.0772 2.83431C15.0746 2.52356 15.3245 2.27755 15.6299 2.28791C15.9238 2.29827 16.1529 2.54169 16.1477 2.8382H16.149Z" fill="white"/>
<path d="M20.1229 7.83611C20.1449 7.54737 20.409 7.32208 20.6964 7.34797C20.9928 7.37387 21.2077 7.62118 21.1921 7.91768C21.1766 8.20901 20.9216 8.43949 20.6316 8.42525C20.3236 8.40971 20.0983 8.14945 20.1216 7.83741L20.1229 7.83611Z" fill="white"/>
<path d="M16.149 10.3998C16.1555 10.708 15.9147 10.9553 15.6105 10.9527C15.3167 10.9514 15.0863 10.7222 15.0798 10.4257C15.0733 10.1214 15.3193 9.86506 15.617 9.86636C15.9005 9.86765 16.1438 10.1111 16.149 10.3998Z" fill="white"/>
<path d="M10.0341 7.88272C10.0341 7.58881 10.2697 7.34927 10.5635 7.34538C10.8548 7.3415 11.0994 7.57715 11.1072 7.86978C11.115 8.17794 10.8664 8.42913 10.5609 8.42395C10.2671 8.41748 10.0341 8.17923 10.0341 7.88272Z" fill="white"/>
<path d="M15.6235 22.5372C15.9018 22.5437 16.1348 22.7871 16.1283 23.0642C16.1205 23.3452 15.8837 23.5731 15.6028 23.5666C15.3232 23.5601 15.0928 23.3219 15.0979 23.0422C15.1031 22.7651 15.3478 22.5308 15.6235 22.5372Z" fill="white"/>
<path d="M16.1283 17.9834C16.1348 18.2592 15.9018 18.5039 15.6235 18.5104C15.3465 18.5169 15.1031 18.2825 15.0979 18.0054C15.0915 17.7258 15.3219 17.4875 15.6028 17.4811C15.8837 17.4746 16.1218 17.7025 16.1296 17.9834H16.1283Z" fill="white"/>
<path d="M16.127 30.644C16.1231 30.9262 15.8914 31.1476 15.6041 31.1438C15.318 31.1399 15.0928 30.9107 15.0979 30.6271C15.1031 30.3475 15.3426 30.117 15.6209 30.1209C15.8992 30.1248 16.1309 30.3643 16.127 30.644Z" fill="white"/>
<path d="M25.6967 12.4275C25.9815 12.4262 26.2119 12.6515 26.2145 12.9337C26.2171 13.2134 25.9854 13.4478 25.7032 13.4504C25.4223 13.4529 25.1854 13.2199 25.1842 12.9402C25.1842 12.6566 25.4107 12.4288 25.6967 12.4275Z" fill="white"/>
<path d="M6.04208 12.9467C6.0382 13.2264 5.79873 13.4555 5.51654 13.4504C5.23436 13.4439 5.00524 13.2069 5.01172 12.9273C5.01819 12.6437 5.24989 12.4223 5.53596 12.4275C5.82074 12.4326 6.04597 12.6644 6.04079 12.948L6.04208 12.9467Z" fill="white"/>
<path d="M15.617 25.0582C15.8901 25.0608 16.1309 25.3068 16.1283 25.5813C16.127 25.8636 15.894 26.0902 15.6092 26.0876C15.3245 26.0863 15.0953 25.8545 15.0979 25.5735C15.1005 25.299 15.3452 25.0556 15.617 25.0582Z" fill="white"/>
<path d="M16.1283 15.4534C16.1374 15.724 15.907 15.9752 15.6377 15.9895C15.3594 16.005 15.0979 15.7538 15.0979 15.4702C15.0979 15.1919 15.3245 14.964 15.6053 14.9588C15.8862 14.9549 16.1205 15.175 16.1296 15.4534H16.1283Z" fill="white"/>
<path d="M15.6235 13.4504C15.3426 13.4568 15.1031 13.2276 15.0979 12.948C15.0928 12.6644 15.318 12.4326 15.6028 12.4275C15.8888 12.4223 16.1205 12.6424 16.1283 12.9273C16.1361 13.2069 15.9057 13.4452 15.6235 13.4504Z" fill="white"/>
<path d="M16.127 38.2341C16.1192 38.5137 15.8772 38.7416 15.5976 38.7326C15.3154 38.7235 15.0889 38.4827 15.0992 38.203C15.1096 37.9181 15.3426 37.7006 15.6286 37.7084C15.9121 37.7161 16.1361 37.9518 16.1283 38.2341H16.127Z" fill="white"/>
<path d="M15.5976 28.6202C15.3141 28.6124 15.0902 28.3781 15.0979 28.0945C15.1057 27.8148 15.3465 27.5882 15.6274 27.596C15.9095 27.6051 16.1374 27.8446 16.127 28.1243C16.1167 28.4091 15.8837 28.6267 15.5976 28.6189V28.6202Z" fill="white"/>
<path d="M16.1283 35.6924C16.1283 35.9708 15.8914 36.2077 15.6144 36.209C15.3374 36.209 15.0992 35.9721 15.0992 35.6937C15.0992 35.4114 15.3258 35.1861 15.6131 35.1848C15.9005 35.1848 16.1283 35.4088 16.1283 35.6911V35.6924Z" fill="white"/>
<path d="M8.56623 10.4257C8.55717 10.7015 8.31899 10.9307 8.04328 10.9281C7.75462 10.9255 7.51644 10.6704 7.53327 10.3817C7.5501 10.102 7.78439 9.89225 8.07046 9.9039C8.35394 9.91426 8.57399 10.1473 8.56623 10.4257Z" fill="white"/>
<path d="M23.1843 9.9039C23.4703 9.90779 23.693 10.1305 23.693 10.4115C23.693 10.6886 23.4613 10.9229 23.1855 10.9281C22.8982 10.9333 22.6509 10.6821 22.66 10.3959C22.6678 10.1163 22.8995 9.90002 23.1843 9.9039Z" fill="white"/>
<path d="M15.617 32.6548C15.9018 32.6561 16.1309 32.8866 16.1283 33.1675C16.1257 33.4498 15.8953 33.6751 15.6092 33.6725C15.3245 33.6712 15.0953 33.442 15.0979 33.1598C15.1005 32.8775 15.3322 32.6522 15.617 32.6535V32.6548Z" fill="white"/>
<path d="M28.2222 15.9325C27.9672 15.9325 27.7588 15.7175 27.7627 15.4586C27.7665 15.1932 27.9711 15.0002 28.239 15.0093C28.4953 15.0171 28.6765 15.2022 28.6804 15.4599C28.6843 15.7227 28.4811 15.9338 28.2235 15.9325H28.2222Z" fill="white"/>
<path d="M3.00793 15.0093C3.27588 15.0093 3.47134 15.2087 3.46616 15.4754C3.46099 15.7344 3.24482 15.9415 2.99111 15.9325C2.74516 15.9234 2.55488 15.724 2.551 15.4741C2.54712 15.2035 2.73869 15.008 3.00793 15.0093Z" fill="white"/>
<path d="M13.1045 3.24347C12.8624 3.24994 12.6683 3.06608 12.6735 2.82266C12.6799 2.57017 12.821 2.42645 13.0683 2.40055C13.2948 2.37725 13.5123 2.57794 13.5239 2.80194C13.5356 3.03112 13.3401 3.2357 13.1045 3.24217V3.24347Z" fill="white"/>
<path d="M18.567 2.80712C18.5761 3.03759 18.3806 3.24865 18.1437 3.24088C17.8991 3.23311 17.7412 3.10751 17.7179 2.85114C17.6959 2.6142 17.8797 2.41091 18.1165 2.39926C18.3457 2.3889 18.5592 2.58053 18.5683 2.80712H18.567Z" fill="white"/>
<path d="M28.6416 12.9544C28.6131 13.1772 28.4953 13.3364 28.2377 13.3519C27.9931 13.3662 27.8106 13.1772 27.817 12.9285C27.8235 12.6631 27.9866 12.5272 28.2274 12.5285C28.4707 12.5298 28.6235 12.6761 28.6416 12.9557V12.9544Z" fill="white"/>
<path d="M3.41827 12.9855C3.39109 13.1914 3.26553 13.3442 3.00793 13.3507C2.76588 13.3571 2.58854 13.1629 2.60019 12.913C2.61313 12.645 2.784 12.531 3.02347 12.5233C3.25129 12.5155 3.42345 12.7136 3.41827 12.9842V12.9855Z" fill="white"/>
<path d="M23.6011 7.87884C23.6011 8.10931 23.3965 8.31389 23.1661 8.29447C22.9202 8.27376 22.7752 8.1378 22.7752 7.88014C22.7752 7.62247 22.9176 7.48522 23.1648 7.4658C23.3952 7.44767 23.6011 7.65096 23.6011 7.87884Z" fill="white"/>
<path d="M8.46138 7.89179C8.4562 8.12356 8.32028 8.26987 8.07046 8.29447C7.83099 8.31907 7.63553 8.12356 7.642 7.87625C7.64848 7.61859 7.79216 7.47875 8.04457 7.4658C8.27239 7.45285 8.45361 7.63671 8.46138 7.89179Z" fill="white"/>
<path d="M18.5502 10.4231C18.5282 10.6782 18.378 10.8219 18.1308 10.818C17.8848 10.8141 17.7334 10.6704 17.7282 10.4089C17.7243 10.1667 17.9276 9.95958 18.158 9.98936C18.4 10.0204 18.5424 10.1642 18.5502 10.4231Z" fill="white"/>
<path d="M12.6851 10.4011C12.6916 10.1447 12.8443 10.0127 13.0864 9.98936C13.3142 9.96735 13.5213 10.1888 13.5071 10.4231C13.4902 10.6808 13.3323 10.8232 13.0864 10.818C12.8417 10.8129 12.6916 10.6691 12.6851 10.4011Z" fill="white"/>
<path d="M10.5558 4.93318C10.8082 4.95389 10.9622 5.0756 10.979 5.33197C10.9946 5.56892 10.7939 5.79163 10.5674 5.77091C10.3241 5.7489 10.1661 5.60777 10.1623 5.35399C10.1597 5.09891 10.3124 4.96684 10.5558 4.93188V4.93318Z" fill="white"/>
<path d="M20.6446 4.93318C20.9009 4.95519 21.0562 5.08337 21.0653 5.33715C21.073 5.59093 20.9242 5.73984 20.6808 5.77221C20.4608 5.80069 20.242 5.58058 20.2485 5.3501C20.2562 5.09244 20.4077 4.96814 20.6459 4.93318H20.6446Z" fill="white"/>
<path d="M26.1123 10.4192C26.0825 10.6743 25.9427 10.8271 25.6916 10.818C25.4456 10.8103 25.2955 10.6639 25.2903 10.4063C25.2851 10.1706 25.4987 9.96217 25.7252 9.98936C25.9738 10.0191 26.1006 10.1745 26.1136 10.4192H26.1123Z" fill="white"/>
<path d="M5.94112 10.405C5.9217 10.6588 5.78579 10.8154 5.53596 10.818C5.28872 10.8206 5.13469 10.6782 5.12045 10.4218C5.10621 10.1849 5.30685 9.96994 5.53726 9.98807C5.78708 10.0075 5.91911 10.1577 5.94241 10.405H5.94112Z" fill="white"/>
<path d="M21.0614 10.3895C21.0588 10.6393 20.8672 10.8426 20.6523 10.8193C20.4155 10.7934 20.2498 10.6639 20.2549 10.4024C20.2614 10.146 20.4232 9.99972 20.664 10.001C20.9112 10.001 21.0471 10.1629 21.0614 10.3895Z" fill="white"/>
<path d="M10.9778 10.3739C10.9687 10.6562 10.8211 10.8103 10.5804 10.8141C10.3422 10.818 10.1739 10.6756 10.1687 10.4166C10.1649 10.1603 10.3215 10.0088 10.5622 9.99972C10.8108 9.99066 10.9467 10.1525 10.9765 10.3739H10.9778Z" fill="white"/>
<path d="M23.1726 13.2963C22.9461 13.282 22.814 13.1564 22.8192 12.9298C22.8244 12.7058 22.9616 12.5686 23.1881 12.5725C23.416 12.5751 23.5532 12.7279 23.5506 12.9415C23.548 13.1551 23.4095 13.2911 23.1726 13.2976V13.2963Z" fill="white"/>
<path d="M8.04716 13.295C7.81546 13.2859 7.68084 13.15 7.68342 12.9324C7.68601 12.7162 7.82322 12.5699 8.05234 12.5712C8.28275 12.5712 8.41737 12.724 8.41866 12.9363C8.41866 13.1513 8.28275 13.2898 8.04716 13.295Z" fill="white"/>
<path d="M25.7278 15.8185C25.4858 15.8159 25.3641 15.6981 25.3524 15.4858C25.3408 15.2553 25.4754 15.1103 25.6967 15.1051C25.9207 15.0999 26.0579 15.2501 26.0527 15.4754C26.0475 15.6826 25.9272 15.8095 25.7278 15.8185Z" fill="white"/>
<path d="M5.53984 15.8198C5.29779 15.8095 5.18258 15.6813 5.17999 15.4728C5.1774 15.2462 5.31202 15.1025 5.53596 15.1051C5.74437 15.1077 5.87769 15.2501 5.87899 15.4573C5.88157 15.68 5.75601 15.8134 5.53855 15.8198H5.53984Z" fill="white"/>
<path d="M13.0954 13.2419C12.8961 13.238 12.7744 13.1267 12.7757 12.9273C12.7783 12.746 12.8961 12.6256 13.0825 12.6204C13.287 12.6152 13.4087 12.7382 13.4074 12.9376C13.4074 13.1215 13.2948 13.2315 13.0942 13.2419H13.0954Z" fill="white"/>
<path d="M18.1761 13.2406C17.9366 13.2406 17.8253 13.1228 17.8188 12.9467C17.8124 12.7512 17.934 12.6204 18.1373 12.6217C18.3418 12.6217 18.4557 12.7473 18.4492 12.9506C18.444 13.1435 18.3198 13.2341 18.1748 13.2406H18.1761Z" fill="white"/>
<path d="M13.3983 23.0668C13.3595 23.2313 13.2676 23.3478 13.0916 23.3439C12.9194 23.34 12.8081 23.2455 12.8107 23.0603C12.8133 22.8635 12.9233 22.7574 13.1162 22.7677C13.2922 22.7768 13.3712 22.905 13.3983 23.0681V23.0668Z" fill="white"/>
<path d="M18.1321 17.7038C18.3185 17.7219 18.4259 17.8216 18.4259 17.9938C18.4259 18.1647 18.3224 18.2799 18.1437 18.2812C17.9496 18.2838 17.8408 18.166 17.846 17.977C17.8499 17.7983 17.9729 17.7167 18.1321 17.7025V17.7038Z" fill="white"/>
<path d="M13.0786 17.7038C13.2547 17.7102 13.3776 17.8048 13.3893 17.9705C13.4022 18.1544 13.287 18.2787 13.0954 18.2812C12.9194 18.2838 12.8158 18.1828 12.8094 18.0016C12.8029 17.8177 12.9052 17.7284 13.0786 17.7025V17.7038Z" fill="white"/>
<path d="M13.0916 35.4101C13.2702 35.4373 13.3867 35.5396 13.388 35.7053C13.388 35.8918 13.2676 36.0057 13.0747 35.9954C12.8974 35.9863 12.8042 35.8775 12.8094 35.695C12.8158 35.5111 12.9298 35.4308 13.0916 35.4088V35.4101Z" fill="white"/>
<path d="M18.4311 25.5722C18.4156 25.7419 18.3353 25.8675 18.1593 25.8791C17.9677 25.8921 17.8525 25.7768 17.8486 25.5878C17.8447 25.4117 17.9483 25.3068 18.1282 25.3003C18.312 25.2939 18.3961 25.4078 18.4311 25.5722Z" fill="white"/>
<path d="M18.4298 23.0552C18.4156 23.2209 18.3262 23.3348 18.1515 23.3426C17.9806 23.3504 17.8577 23.2597 17.8473 23.0798C17.837 22.8894 17.9431 22.7716 18.1347 22.7664C18.3146 22.7612 18.4013 22.8778 18.4285 23.0552H18.4298Z" fill="white"/>
<path d="M18.1269 15.1608C18.3029 15.1763 18.4143 15.276 18.4246 15.4443C18.435 15.614 18.3418 15.7357 18.1606 15.746C17.9651 15.7577 17.8525 15.6528 17.8486 15.4599C17.846 15.2812 17.9599 15.1919 18.1269 15.1595V15.1608Z" fill="white"/>
<path d="M13.3996 15.4599C13.3595 15.6412 13.2689 15.7603 13.0747 15.7486C12.8974 15.737 12.8081 15.6308 12.8107 15.456C12.8133 15.2799 12.9142 15.1724 13.0851 15.1673C13.2754 15.1621 13.3595 15.2967 13.3996 15.4599Z" fill="white"/>
<path d="M18.1269 38.5396C17.9522 38.5086 17.8421 38.4153 17.8473 38.2367C17.8538 38.0398 17.9729 37.9466 18.1657 37.9609C18.3495 37.9738 18.4363 38.0968 18.4233 38.2651C18.4104 38.4361 18.2939 38.528 18.1256 38.5396H18.1269Z" fill="white"/>
<path d="M13.4009 30.6504C13.3543 30.8214 13.2728 30.9431 13.0903 30.9366C12.8922 30.9301 12.799 30.811 12.812 30.6194C12.8249 30.4368 12.9466 30.3475 13.1162 30.3591C13.2896 30.3708 13.3686 30.499 13.4009 30.6504Z" fill="white"/>
<path d="M13.3983 25.5968C13.3556 25.7587 13.2715 25.8856 13.0929 25.8804C12.9 25.8739 12.8003 25.7535 12.8133 25.5606C12.8249 25.3793 12.9375 25.29 13.1162 25.3003C13.2974 25.3107 13.3712 25.4363 13.3996 25.5968H13.3983Z" fill="white"/>
<path d="M18.4311 35.7222C18.3974 35.897 18.3042 36.0044 18.1243 35.9967C17.947 35.9889 17.8421 35.8827 17.8473 35.7066C17.8525 35.5137 17.9729 35.4049 18.1619 35.4179C18.3366 35.4295 18.4143 35.559 18.4324 35.7222H18.4311Z" fill="white"/>
<path d="M13.397 33.1869C13.3621 33.3423 13.2883 33.4614 13.1019 33.464C12.9194 33.4666 12.8197 33.3747 12.812 33.1934C12.8029 32.9914 12.9207 32.8866 13.1045 32.8904C13.2728 32.8943 13.3712 33.0121 13.397 33.1869Z" fill="white"/>
<path d="M13.3958 20.5187C13.3776 20.6922 13.278 20.8061 13.111 20.8152C12.9479 20.8229 12.821 20.7388 12.812 20.5497C12.8029 20.3542 12.8948 20.2442 13.0954 20.2429C13.2793 20.2416 13.3621 20.3542 13.3958 20.5187Z" fill="white"/>
<path d="M13.0721 37.957C13.2676 37.957 13.3815 38.0606 13.388 38.2276C13.3958 38.4128 13.2728 38.5358 13.0864 38.5345C12.9168 38.5332 12.8094 38.427 12.8094 38.2444C12.8094 38.0606 12.909 37.9699 13.0721 37.9583V37.957Z" fill="white"/>
<path d="M18.1386 32.8827C18.3133 32.9099 18.4272 33.0057 18.4246 33.1792C18.4207 33.3669 18.3094 33.4744 18.1114 33.4627C17.925 33.4511 17.8434 33.332 17.8473 33.1623C17.8512 32.9811 17.978 32.906 18.1386 32.8827Z" fill="white"/>
<path d="M18.1256 30.3526C18.3004 30.363 18.4143 30.4588 18.4259 30.6284C18.4376 30.7955 18.347 30.921 18.1657 30.934C17.9703 30.9495 17.8564 30.8382 17.8473 30.6517C17.8382 30.473 17.9586 30.385 18.1256 30.3526Z" fill="white"/>
<path d="M18.4298 20.5303C18.4065 20.7129 18.3029 20.8216 18.1321 20.8152C17.947 20.8087 17.8331 20.6947 17.8486 20.4979C17.8628 20.3167 17.9793 20.2364 18.1554 20.2429C18.3431 20.2506 18.4117 20.371 18.4298 20.5303Z" fill="white"/>
<path d="M13.0954 28.4156C12.9336 28.3936 12.8171 28.3172 12.812 28.1334C12.8068 27.9573 12.8922 27.842 13.0734 27.8304C13.2728 27.8174 13.3854 27.9443 13.3906 28.1204C13.3958 28.2861 13.2754 28.3897 13.0967 28.4156H13.0954Z" fill="white"/>
<path d="M18.4311 28.1075C18.4169 28.2771 18.3301 28.3962 18.1567 28.4079C17.9845 28.4195 17.8654 28.3237 17.8512 28.1463C17.837 27.956 17.934 27.8381 18.1308 27.8304C18.3159 27.8226 18.3961 27.9417 18.4311 28.1088V28.1075Z" fill="white"/>
<path d="M15.6041 0.0012948C15.8163 0.0142428 15.9031 0.120416 15.8914 0.299098C15.8811 0.463537 15.7853 0.552878 15.617 0.550289C15.4319 0.548994 15.3374 0.446705 15.3387 0.268023C15.3387 0.0802774 15.4552 0.00388439 15.6054 0L15.6041 0.0012948Z" fill="white"/>
<path d="M30.7489 15.7318C30.5936 15.7085 30.4874 15.6282 30.4848 15.4651C30.4823 15.3175 30.569 15.2229 30.7178 15.21C30.8835 15.197 30.9871 15.2838 30.9987 15.4482C31.0104 15.6153 30.9042 15.6981 30.7489 15.7318Z" fill="white"/>
<path d="M0.746561 15.478C0.714201 15.6334 0.624885 15.7396 0.463081 15.724C0.306454 15.7085 0.210666 15.6036 0.227494 15.4366C0.243027 15.2903 0.336226 15.2048 0.487675 15.2087C0.655951 15.2139 0.732323 15.3162 0.746561 15.4767V15.478Z" fill="white"/>
<path d="M28.4358 18.0003C28.4306 18.131 28.3581 18.2126 28.2144 18.2087C28.0876 18.2048 28.0138 18.131 28.0112 18.0042C28.0073 17.8591 28.0889 17.784 28.2312 17.7866C28.3581 17.7892 28.428 17.8604 28.4358 18.0016V18.0003Z" fill="white"/>
<path d="M3.22928 17.9796C3.22022 18.1142 3.15809 18.2036 3.01829 18.2074C2.87979 18.2113 2.80212 18.1375 2.79953 17.9964C2.79694 17.8695 2.86166 17.7957 2.98593 17.7866C3.12184 17.7763 3.20339 17.8449 3.22928 17.9796Z" fill="white"/>
<path d="M28.4138 10.3895C28.3982 10.5112 28.3374 10.5746 28.2235 10.5759C28.1057 10.5759 28.0384 10.4982 28.0371 10.3972C28.0371 10.2923 28.1096 10.2211 28.2248 10.2224C28.34 10.2224 28.3943 10.2936 28.4138 10.3895Z" fill="white"/>
<path d="M20.8426 12.9169C20.8362 13.0308 20.7766 13.0904 20.6627 13.0956C20.5617 13.1008 20.4957 13.049 20.4841 12.9544C20.4711 12.847 20.5255 12.768 20.6394 12.7576C20.7507 12.7473 20.8167 12.8094 20.8426 12.9156V12.9169Z" fill="white"/>
<path d="M2.99887 10.2211C3.12055 10.2276 3.19433 10.2885 3.19174 10.3998C3.19045 10.5086 3.12055 10.5772 3.00535 10.5759C2.89144 10.5746 2.82154 10.5112 2.82024 10.3985C2.82024 10.2833 2.89661 10.2302 3.00017 10.2211H2.99887Z" fill="white"/>
<path d="M20.6743 2.98451C20.5488 2.96638 20.4802 2.90164 20.4815 2.79288C20.4828 2.69965 20.5514 2.62714 20.642 2.61937C20.752 2.61031 20.8271 2.6867 20.8374 2.79029C20.8478 2.90423 20.7585 2.95214 20.6743 2.98321V2.98451Z" fill="white"/>
<path d="M10.5545 13.0956C10.4457 13.0865 10.3823 13.0205 10.3953 12.9104C10.4056 12.8224 10.4639 12.7576 10.5674 12.7576C10.6852 12.7576 10.7512 12.8301 10.7525 12.9324C10.7525 13.0425 10.6736 13.0982 10.5545 13.0956Z" fill="white"/>
<path d="M30.758 12.7615C30.8564 12.7771 30.9211 12.8392 30.9185 12.9311C30.9146 13.0438 30.8356 13.1008 30.7217 13.0878C30.6208 13.0762 30.5716 13.0049 30.5819 12.9091C30.5923 12.8107 30.6609 12.7641 30.758 12.7615Z" fill="white"/>
<path d="M0.666307 12.9208C0.653362 13.0179 0.601585 13.08 0.501914 13.0891C0.400948 13.0982 0.327165 13.0477 0.315515 12.9506C0.302571 12.8366 0.371176 12.7654 0.48638 12.7641C0.584757 12.7628 0.639123 12.8301 0.666307 12.9208Z" fill="white"/>
<path d="M25.7239 8.04199C25.5906 8.03163 25.5324 7.96171 25.5349 7.85165C25.5375 7.75325 25.5984 7.69757 25.7032 7.70016C25.8016 7.70275 25.8715 7.74936 25.8793 7.84906C25.8896 7.96689 25.8119 8.01868 25.7226 8.04199H25.7239Z" fill="white"/>
<path d="M5.52819 8.04069C5.41428 8.02904 5.35215 7.96041 5.35733 7.85035C5.36121 7.75195 5.42593 7.69886 5.52949 7.70016C5.63045 7.70145 5.69776 7.75195 5.70294 7.85035C5.70812 7.96171 5.6434 8.02774 5.52819 8.04069Z" fill="white"/>
<path d="M23.3616 5.34104C23.3331 5.44074 23.2826 5.52619 23.1687 5.51325C23.0587 5.50159 23.003 5.41614 23.0134 5.30996C23.0224 5.21803 23.0833 5.14811 23.183 5.15329C23.2917 5.15977 23.3499 5.23228 23.3629 5.34104H23.3616Z" fill="white"/>
<path d="M8.03939 5.14811C8.14683 5.15847 8.2232 5.22062 8.22579 5.3268C8.22838 5.43297 8.15848 5.50936 8.04716 5.51325C7.94619 5.51713 7.88277 5.43426 7.87371 5.35399C7.86076 5.2517 7.92937 5.1753 8.03939 5.14811Z" fill="white"/>
<path d="M10.5609 2.61161C10.6762 2.64398 10.759 2.70224 10.7499 2.811C10.7422 2.91588 10.6632 2.9871 10.5532 2.97674C10.46 2.96767 10.3966 2.89776 10.394 2.80453C10.3914 2.69059 10.4794 2.64657 10.5609 2.61161Z" fill="white"/>
<path d="M18.3159 0.277087C18.2978 0.374196 18.2369 0.419514 18.1373 0.420809C18.0311 0.422104 17.9677 0.366428 17.9703 0.268023C17.9729 0.15926 18.0454 0.0815722 18.158 0.0984046C18.2434 0.110058 18.3133 0.169618 18.3159 0.277087Z" fill="white"/>
<path d="M13.2676 0.260254C13.256 0.354774 13.2119 0.41563 13.1071 0.420809C13.0074 0.425988 12.9375 0.38585 12.9285 0.283561C12.9181 0.169618 12.9854 0.0984046 13.0954 0.0971098C13.1912 0.095815 13.2417 0.169618 13.2663 0.258959L13.2676 0.260254Z" fill="white"/>
<path d="M8.05363 15.5958C7.95655 15.5725 7.90477 15.5246 7.91901 15.4327C7.93066 15.3576 7.98373 15.32 8.05622 15.3265C8.14424 15.3356 8.19214 15.3887 8.1766 15.4806C8.16366 15.5544 8.10929 15.5842 8.05363 15.5945V15.5958Z" fill="white"/>
<path d="M23.3085 15.478C23.2917 15.5596 23.2347 15.6062 23.1493 15.5881C23.0833 15.5738 23.038 15.5207 23.0483 15.4456C23.0613 15.3576 23.1156 15.3136 23.2063 15.3317C23.28 15.3472 23.3137 15.3951 23.3072 15.478H23.3085Z" fill="white"/>
<path d="M15.1756 20.3723C15.1898 20.195 15.4435 20.0189 15.6519 20.0344C15.9251 20.0538 16.0804 20.1755 16.061 20.4694C16.048 20.6714 15.7775 20.9265 15.5859 20.9097C15.3762 20.8928 15.1562 20.6041 15.1756 20.3723Z" fill="white"/>
</svg>
